M48
;DRILL file {KiCad 5.0.0-rc2-be01b52~65~ubuntu18.04.1} date Fri Jun  8 14:45:35 2018
;FORMAT={-:-/ absolute / metric / decimal}
FMAT,2
METRIC,TZ
T1C0.400
T2C0.750
T3C0.800
T4C0.899
T5C0.900
T6C0.996
T7C1.000
T8C1.100
T9C1.300
T10C2.200
%
G90
G05
M71
T1
X71.601Y-76.257
X73.354Y-79.945
X74.034Y-58.274
X78.965Y-87.704
X84.891Y-45.172
X87.079Y-92.228
X90.119Y-77.423
X90.286Y-66.425
X90.519Y-80.978
X91.102Y-74.414
X91.753Y-70.359
X92.32Y-79.867
X92.446Y-69.637
X94.724Y-78.175
X95.76Y-78.674
X95.928Y-76.536
X97.303Y-72.43
X97.637Y-75.916
X99.573Y-67.965
X99.74Y-79.42
X101.027Y-70.557
X104.897Y-38.099
X106.713Y-74.159
X107.375Y-68.983
X107.531Y-66.285
X108.555Y-68.841
X110.985Y-78.431
X112.863Y-63.201
X113.041Y-92.359
X113.699Y-82.585
X116.579Y-67.943
X116.936Y-81.977
X117.09Y-61.808
X118.888Y-84.861
X119.087Y-87.702
X119.953Y-68.492
X120.558Y-83.568
X120.769Y-85.745
X122.367Y-66.641
X124.219Y-56.298
X124.34Y-80.094
X125.399Y-78.622
X126.482Y-52.379
X145.179Y-87.846
X149.905Y-36.13
X151.134Y-46.808
X154.163Y-89.392
X154.908Y-39.755
X155.127Y-34.174
X155.821Y-60.452
X155.931Y-57.303
X156.373Y-52.197
X156.532Y-40.379
X156.803Y-64.098
X157.371Y-76.614
X157.509Y-33.221
X159.414Y-57.59
X161.04Y-50.251
X161.558Y-51.456
X161.937Y-65.42
X163.729Y-37.289
X165.278Y-38.038
X165.401Y-37.01
X167.26Y-35.542
X167.262Y-34.541
X167.339Y-36.711
X167.552Y-37.72
X168.178Y-36.092
X168.226Y-34.091
X169.252Y-33.065
X171.93Y-35.571
X172.813Y-34.593
X174.872Y-33.059
X175.205Y-35.746
X176.559Y-37.291
X178.118Y-32.627
X178.341Y-44.109
X179.064Y-66.122
X179.265Y-50.311
X179.342Y-68.111
X179.469Y-38.57
X179.626Y-34.224
X184.231Y-90.436
X186.086Y-38.03
X191.41Y-35.587
X192.002Y-32.527
X194.679Y-34.847
X194.698Y-39.295
X194.945Y-134.62
X198.45Y-54.61
X199.39Y-151.13
X199.625Y-60.878
X201.238Y-63.273
X209.242Y-31.609
X212.613Y-42.369
X213.6Y-31.592
X217.857Y-43.69
T2
X36.639Y-109.449
X37.91Y-109.449
X39.179Y-109.449
X37.973Y-48.387
X39.243Y-48.387
X40.513Y-48.387
X214.63Y-82.55
X214.63Y-83.82
X214.63Y-85.09
X224.79Y-82.55
X224.79Y-83.82
X224.79Y-85.09
X207.01Y-87.63
X207.01Y-88.9
X207.01Y-90.17
X212.09Y-87.63
X212.09Y-88.9
X212.09Y-90.17
X38.265Y-70.866
X39.535Y-70.866
X40.805Y-70.866
X46.736Y-91.694
X48.006Y-91.694
X49.276Y-91.694
X209.55Y-82.55
X209.55Y-83.82
X209.55Y-85.09
X222.25Y-87.63
X222.25Y-88.9
X222.25Y-90.17
X219.71Y-82.55
X219.71Y-83.82
X219.71Y-85.09
X217.17Y-87.63
X217.17Y-88.9
X217.17Y-90.17
X224.79Y-115.57
X224.79Y-116.84
X224.79Y-118.11
T3
X147.574Y-41.656
X155.194Y-41.656
X39.51Y-76.149
X39.51Y-83.769
X47.587Y-113.856
X47.587Y-121.476
X144.78Y-85.09
X144.78Y-92.71
X68.58Y-72.009
X68.58Y-79.629
X50.787Y-138.125
X50.787Y-140.625
X32.448Y-76.251
X32.448Y-83.871
X137.414Y-60.452
X145.034Y-60.452
X57.277Y-81.915
X57.277Y-89.535
X63.119Y-87.249
X68.019Y-87.249
X104.267Y-40.386
X106.767Y-40.386
X77.216Y-90.424
X79.716Y-90.424
X36.019Y-87.376
X38.519Y-87.376
X72.53Y-45.136
X80.15Y-45.136
X137.414Y-71.374
X145.034Y-71.374
X133.35Y-85.09
X133.35Y-92.71
X104.942Y-49.784
X107.442Y-49.784
X235.712Y-81.026
X238.212Y-81.026
X147.574Y-45.466
X155.194Y-45.466
X43.218Y-76.2
X43.218Y-83.82
X124.968Y-40.894
X127.468Y-40.894
X137.414Y-67.564
X145.034Y-67.564
X114.3Y-28.956
X121.92Y-28.956
X137.668Y-35.814
X145.288Y-35.814
X61.214Y-38.989
X63.714Y-38.989
X36.768Y-124.93
X39.268Y-124.93
X33.02Y-32.512
X33.02Y-40.132
X147.574Y-51.308
X155.194Y-51.308
X147.574Y-37.846
X155.194Y-37.846
X36.728Y-113.881
X36.728Y-121.501
X152.4Y-85.09
X152.4Y-92.71
X57.15Y-97.79
X59.69Y-97.79
X62.23Y-97.79
X64.77Y-97.79
X67.31Y-97.79
X69.85Y-97.79
X51.003Y-113.83
X51.003Y-121.45
X41.529Y-54.483
X41.529Y-62.103
X57.658Y-64.008
X57.658Y-66.548
X57.658Y-69.088
X57.658Y-71.628
X57.658Y-74.168
X57.658Y-76.708
X57.658Y-79.248
X65.278Y-64.008
X65.278Y-66.548
X65.278Y-69.088
X65.278Y-71.628
X65.278Y-74.168
X65.278Y-76.708
X65.278Y-79.248
X88.813Y-40.386
X91.313Y-40.386
X137.414Y-56.896
X145.034Y-56.896
X61.849Y-57.658
X66.749Y-57.658
X137.668Y-39.37
X145.288Y-39.37
X40.665Y-113.881
X40.665Y-121.501
X78.74Y-40.513
X86.36Y-40.513
X140.97Y-85.09
X140.97Y-92.71
X71.12Y-29.718
X71.12Y-32.258
X71.12Y-34.798
X71.12Y-37.338
X78.74Y-29.718
X78.74Y-32.258
X78.74Y-34.798
X78.74Y-37.338
X176.022Y-40.894
X178.522Y-40.894
X37.592Y-54.483
X37.592Y-62.103
X138.43Y-99.06
X140.97Y-99.06
X143.51Y-99.06
X146.05Y-99.06
X148.59Y-99.06
X151.13Y-99.06
X153.67Y-99.06
X156.21Y-99.06
X158.75Y-99.06
X49.276Y-54.483
X56.896Y-54.483
X46.522Y-107.442
X49.022Y-107.442
X58.039Y-38.659
X58.039Y-46.279
X147.574Y-69.342
X155.194Y-69.342
X147.574Y-62.23
X155.194Y-62.23
X38.902Y-40.386
X41.402Y-40.386
X54.65Y-50.546
X57.15Y-50.546
X209.55Y-44.45
X209.55Y-46.99
X209.55Y-49.53
X209.55Y-52.07
X209.55Y-54.61
X209.55Y-57.15
X209.55Y-59.69
X209.55Y-62.23
X209.55Y-64.77
X209.55Y-67.31
X209.55Y-69.85
X209.55Y-72.39
X209.55Y-74.93
X209.55Y-77.47
X224.79Y-44.45
X224.79Y-46.99
X224.79Y-49.53
X224.79Y-52.07
X224.79Y-54.61
X224.79Y-57.15
X224.79Y-59.69
X224.79Y-62.23
X224.79Y-64.77
X224.79Y-67.31
X224.79Y-69.85
X224.79Y-72.39
X224.79Y-74.93
X224.79Y-77.47
X33.172Y-113.767
X33.172Y-121.387
X50.673Y-68.747
X50.673Y-71.247
X147.574Y-65.786
X155.194Y-65.786
X109.474Y-33.274
X117.094Y-33.274
X114.3Y-44.45
X114.3Y-46.99
X114.3Y-49.53
X114.3Y-52.07
X114.3Y-54.61
X114.3Y-57.15
X114.3Y-59.69
X114.3Y-62.23
X114.3Y-64.77
X114.3Y-67.31
X114.3Y-69.85
X114.3Y-72.39
X114.3Y-74.93
X114.3Y-77.47
X129.54Y-44.45
X129.54Y-46.99
X129.54Y-49.53
X129.54Y-52.07
X129.54Y-54.61
X129.54Y-57.15
X129.54Y-59.69
X129.54Y-62.23
X129.54Y-64.77
X129.54Y-67.31
X129.54Y-69.85
X129.54Y-72.39
X129.54Y-74.93
X129.54Y-77.47
X119.507Y-33.274
X122.007Y-33.274
X165.989Y-44.577
X165.989Y-47.117
X165.989Y-49.657
X165.989Y-52.197
X165.989Y-54.737
X165.989Y-57.277
X165.989Y-59.817
X165.989Y-62.357
X165.989Y-64.897
X165.989Y-67.437
X165.989Y-69.977
X165.989Y-72.517
X165.989Y-75.057
X165.989Y-77.597
X165.989Y-80.137
X165.989Y-82.677
X165.989Y-85.217
X165.989Y-87.757
X165.989Y-90.297
X165.989Y-92.837
X181.229Y-44.577
X181.229Y-47.117
X181.229Y-49.657
X181.229Y-52.197
X181.229Y-54.737
X181.229Y-57.277
X181.229Y-59.817
X181.229Y-62.357
X181.229Y-64.897
X181.229Y-67.437
X181.229Y-69.977
X181.229Y-72.517
X181.229Y-75.057
X181.229Y-77.597
X181.229Y-80.137
X181.229Y-82.677
X181.229Y-85.217
X181.229Y-87.757
X181.229Y-90.297
X181.229Y-92.837
X44.285Y-96.406
X44.285Y-104.026
X160.02Y-85.09
X160.02Y-92.71
X40.64Y-144.82
X40.64Y-147.32
X232.41Y-110.49
X232.41Y-118.11
X186.69Y-90.17
X190.49Y-90.17
X44.196Y-113.856
X44.196Y-121.476
X105.45Y-90.678
X107.95Y-90.678
X137.414Y-53.086
X145.034Y-53.086
X61.849Y-51.689
X66.749Y-51.689
X219.964Y-40.894
X222.464Y-40.894
X51.651Y-96.406
X51.651Y-104.026
X54.102Y-71.12
X54.102Y-78.74
X148.59Y-85.09
X148.59Y-92.71
X75.184Y-57.404
X75.184Y-59.944
X75.184Y-62.484
X75.184Y-65.024
X75.184Y-67.564
X75.184Y-70.104
X75.184Y-72.644
X75.184Y-75.184
X75.184Y-77.724
X75.184Y-80.264
X75.184Y-82.804
X77.724Y-54.864
X77.724Y-57.404
X77.724Y-59.944
X77.724Y-62.484
X77.724Y-65.024
X77.724Y-67.564
X77.724Y-70.104
X77.724Y-72.644
X77.724Y-75.184
X77.724Y-77.724
X77.724Y-80.264
X77.724Y-82.804
X77.724Y-85.344
X80.264Y-54.864
X80.264Y-57.404
X80.264Y-82.804
X80.264Y-85.344
X82.804Y-54.864
X82.804Y-57.404
X82.804Y-82.804
X82.804Y-85.344
X85.344Y-54.864
X85.344Y-57.404
X85.344Y-82.804
X85.344Y-85.344
X87.884Y-54.864
X87.884Y-57.404
X87.884Y-82.804
X87.884Y-85.344
X90.424Y-54.864
X90.424Y-57.404
X90.424Y-82.804
X90.424Y-85.344
X92.964Y-54.864
X92.964Y-57.404
X92.964Y-82.804
X92.964Y-85.344
X95.504Y-54.864
X95.504Y-57.404
X95.504Y-82.804
X95.504Y-85.344
X98.044Y-54.864
X98.044Y-57.404
X98.044Y-82.804
X98.044Y-85.344
X100.584Y-54.864
X100.584Y-57.404
X100.584Y-82.804
X100.584Y-85.344
X103.124Y-54.864
X103.124Y-57.404
X103.124Y-59.944
X103.124Y-62.484
X103.124Y-65.024
X103.124Y-67.564
X103.124Y-70.104
X103.124Y-72.644
X103.124Y-75.184
X103.124Y-77.724
X103.124Y-80.264
X103.124Y-82.804
X103.124Y-85.344
X105.664Y-57.404
X105.664Y-59.944
X105.664Y-62.484
X105.664Y-65.024
X105.664Y-67.564
X105.664Y-70.104
X105.664Y-72.644
X105.664Y-75.184
X105.664Y-77.724
X105.664Y-80.264
X105.664Y-82.804
X188.468Y-44.45
X188.468Y-46.99
X188.468Y-49.53
X188.468Y-52.07
X188.468Y-54.61
X188.468Y-57.15
X188.468Y-59.69
X188.468Y-62.23
X188.468Y-64.77
X188.468Y-67.31
X188.468Y-69.85
X188.468Y-72.39
X188.468Y-74.93
X188.468Y-77.47
X203.708Y-44.45
X203.708Y-46.99
X203.708Y-49.53
X203.708Y-52.07
X203.708Y-54.61
X203.708Y-57.15
X203.708Y-59.69
X203.708Y-62.23
X203.708Y-64.77
X203.708Y-67.31
X203.708Y-69.85
X203.708Y-72.39
X203.708Y-74.93
X203.708Y-77.47
X66.715Y-82.55
X69.215Y-82.55
X46.901Y-76.2
X46.901Y-83.82
X40.767Y-96.355
X40.767Y-103.975
X147.574Y-58.674
X155.194Y-58.674
X61.214Y-45.72
X68.834Y-45.72
X60.198Y-82.55
X62.698Y-82.55
X66.294Y-38.989
X68.794Y-38.989
X108.712Y-28.956
X111.212Y-28.956
X68.58Y-61.849
X68.58Y-69.469
X94.234Y-49.53
X101.854Y-49.53
X137.414Y-49.53
X145.034Y-49.53
X33.655Y-96.368
X33.655Y-103.988
X137.16Y-85.09
X137.16Y-92.71
X230.926Y-68.072
X233.426Y-68.072
X33.655Y-54.483
X33.655Y-62.103
X147.574Y-73.152
X155.194Y-73.152
X137.414Y-64.008
X145.034Y-64.008
X71.12Y-26.162
X78.74Y-26.162
X198.628Y-40.894
X201.128Y-40.894
X35.979Y-76.2
X35.979Y-83.82
X93.853Y-40.386
X101.473Y-40.386
X61.214Y-42.418
X68.834Y-42.418
X37.236Y-96.406
X37.236Y-104.026
X156.21Y-85.09
X156.21Y-92.71
X194.31Y-97.79
X196.85Y-97.79
X199.39Y-97.79
X201.93Y-97.79
X204.47Y-97.79
X207.01Y-97.79
X209.55Y-97.79
X212.09Y-97.79
X214.63Y-97.79
X76.113Y-49.784
X78.613Y-49.784
X137.414Y-74.93
X145.034Y-74.93
X232.41Y-102.87
X232.41Y-105.37
X73.66Y-40.64
X76.16Y-40.64
X48.095Y-96.406
X48.095Y-104.026
X50.457Y-76.2
X50.457Y-83.82
X54.102Y-61.214
X54.102Y-68.834
X147.574Y-55.118
X155.194Y-55.118
T4
X57.823Y-34.727
X58.821Y-32.225
X59.822Y-34.727
X61.821Y-34.727
X62.621Y-32.225
X63.523Y-34.727
X64.623Y-32.225
X65.621Y-34.727
T5
X83.21Y-44.323
X90.83Y-44.323
X50.546Y-25.781
X50.546Y-33.401
X238.76Y-110.49
X238.76Y-118.11
T7
X50.521Y-128.524
X50.521Y-131.064
X50.521Y-133.604
X234.442Y-89.916
X237.942Y-89.916
X218.44Y-116.84
X218.44Y-119.38
X218.44Y-121.92
X51.181Y-58.166
X53.721Y-58.166
X56.261Y-58.166
X111.836Y-90.792
X114.376Y-90.792
X116.916Y-90.792
X48.565Y-40.78
X48.565Y-44.28
X226.06Y-124.46
X233.66Y-124.46
X186.69Y-97.79
X189.23Y-97.79
X59.69Y-93.98
X62.23Y-93.98
X64.77Y-93.98
X67.31Y-93.98
X69.85Y-93.98
X88.9Y-91.44
X88.9Y-93.98
X91.44Y-91.44
X91.44Y-93.98
X93.98Y-91.44
X93.98Y-93.98
X96.52Y-91.44
X96.52Y-93.98
X99.06Y-91.44
X99.06Y-93.98
X231.14Y-74.93
X233.68Y-74.93
X236.22Y-74.93
X232.41Y-43.18
X232.41Y-48.26
X237.49Y-43.18
X237.49Y-48.26
X232.41Y-58.42
X235.91Y-58.42
X196.85Y-93.98
X199.39Y-93.98
X201.93Y-93.98
X204.47Y-93.98
X207.01Y-93.98
X209.55Y-93.98
X212.09Y-93.98
X214.63Y-93.98
T8
X176.53Y-132.08
X176.53Y-136.58
X183.03Y-132.08
X183.03Y-136.58
X186.69Y-119.38
X186.69Y-123.88
X193.19Y-119.38
X193.19Y-123.88
X181.61Y-106.68
X181.61Y-111.18
X188.11Y-106.68
X188.11Y-111.18
X59.69Y-144.78
X59.69Y-149.28
X66.19Y-144.78
X66.19Y-149.28
X85.09Y-132.08
X85.09Y-136.58
X91.59Y-132.08
X91.59Y-136.58
X125.73Y-119.38
X125.73Y-123.88
X132.23Y-119.38
X132.23Y-123.88
X105.41Y-144.78
X105.41Y-149.28
X111.91Y-144.78
X111.91Y-149.28
X196.85Y-144.78
X196.85Y-149.28
X203.35Y-144.78
X203.35Y-149.28
X130.81Y-132.08
X130.81Y-136.58
X137.31Y-132.08
X137.31Y-136.58
X166.37Y-106.68
X166.37Y-111.18
X172.87Y-106.68
X172.87Y-111.18
X120.65Y-106.68
X120.65Y-111.18
X127.15Y-106.68
X127.15Y-111.18
X105.41Y-106.68
X105.41Y-111.18
X111.91Y-106.68
X111.91Y-111.18
X146.05Y-132.08
X146.05Y-136.58
X152.55Y-132.08
X152.55Y-136.58
X74.93Y-106.68
X74.93Y-111.18
X81.43Y-106.68
X81.43Y-111.18
X151.13Y-106.68
X151.13Y-111.18
X157.63Y-106.68
X157.63Y-111.18
X191.77Y-132.08
X191.77Y-136.58
X198.27Y-132.08
X198.27Y-136.58
X201.93Y-119.38
X201.93Y-123.88
X208.43Y-119.38
X208.43Y-123.88
X64.77Y-119.38
X64.77Y-123.88
X71.27Y-119.38
X71.27Y-123.88
X74.93Y-144.78
X74.93Y-149.28
X81.43Y-144.78
X81.43Y-149.28
X166.37Y-144.78
X166.37Y-149.28
X172.87Y-144.78
X172.87Y-149.28
X100.33Y-132.08
X100.33Y-136.58
X106.83Y-132.08
X106.83Y-136.58
X140.97Y-119.38
X140.97Y-123.88
X147.47Y-119.38
X147.47Y-123.88
X110.49Y-119.38
X110.49Y-123.88
X116.99Y-119.38
X116.99Y-123.88
X196.85Y-106.68
X196.85Y-111.18
X203.35Y-106.68
X203.35Y-111.18
X135.89Y-144.78
X135.89Y-149.28
X142.39Y-144.78
X142.39Y-149.28
X120.65Y-144.78
X120.65Y-149.28
X127.15Y-144.78
X127.15Y-149.28
X161.29Y-132.08
X161.29Y-136.58
X167.79Y-132.08
X167.79Y-136.58
X171.45Y-119.38
X171.45Y-123.88
X177.95Y-119.38
X177.95Y-123.88
X90.17Y-106.68
X90.17Y-111.18
X96.67Y-106.68
X96.67Y-111.18
X207.01Y-132.08
X207.01Y-136.58
X213.51Y-132.08
X213.51Y-136.58
X69.85Y-132.08
X69.85Y-136.58
X76.35Y-132.08
X76.35Y-136.58
X135.89Y-106.68
X135.89Y-111.18
X142.39Y-106.68
X142.39Y-111.18
X95.25Y-119.38
X95.25Y-123.88
X101.75Y-119.38
X101.75Y-123.88
X80.01Y-119.38
X80.01Y-123.88
X86.51Y-119.38
X86.51Y-123.88
X90.17Y-144.78
X90.17Y-149.28
X96.67Y-144.78
X96.67Y-149.28
X181.61Y-144.78
X181.61Y-149.28
X188.11Y-144.78
X188.11Y-149.28
X115.57Y-132.08
X115.57Y-136.58
X122.07Y-132.08
X122.07Y-136.58
X156.21Y-119.38
X156.21Y-123.88
X162.71Y-119.38
X162.71Y-123.88
X59.69Y-106.68
X59.69Y-111.18
X66.19Y-106.68
X66.19Y-111.18
X151.13Y-144.78
X151.13Y-149.28
X157.63Y-144.78
X157.63Y-149.28
T9
X82.55Y-29.21
X83.05Y-36.51
X87.15Y-25.31
X89.65Y-32.11
X92.35Y-33.31
X96.52Y-29.21
X97.02Y-36.51
X101.12Y-25.31
X103.62Y-32.11
X106.32Y-33.31
T10
X54.973Y-29.225
X61.722Y-28.425
X68.471Y-29.225
T6
X37.109Y-33.301G85X37.109Y-32.099
G05
X42.765Y-28.702G85X41.563Y-28.702
G05
X47.219Y-33.301G85X47.219Y-32.099
G05
T7
X230.25Y-32.83G85X230.25Y-34.83
G05
X235.95Y-30.83G85X233.95Y-30.83
G05
X235.95Y-36.83G85X233.95Y-36.83
G05
T0
M30
