G04 #@! TF.GenerationSoftware,KiCad,Pcbnew,5.0.0-rc2-be01b52~65~ubuntu18.04.1*
G04 #@! TF.CreationDate,2018-06-08T14:45:29+04:00*
G04 #@! TF.ProjectId,max48_ISSUE4,6D617834385F4953535545342E6B6963,rev?*
G04 #@! TF.SameCoordinates,Original*
G04 #@! TF.FileFunction,Soldermask,Top*
G04 #@! TF.FilePolarity,Negative*
%FSLAX46Y46*%
G04 Gerber Fmt 4.6, Leading zero omitted, Abs format (unit mm)*
G04 Created by KiCad (PCBNEW 5.0.0-rc2-be01b52~65~ubuntu18.04.1) date Fri Jun  8 14:45:29 2018*
%MOMM*%
%LPD*%
G01*
G04 APERTURE LIST*
%ADD10C,1.900000*%
%ADD11R,1.778000X7.620000*%
%ADD12R,2.400000X1.600000*%
%ADD13O,2.800000X2.000000*%
%ADD14R,1.600000X1.600000*%
%ADD15C,2.000000*%
%ADD16R,1.500000X1.050000*%
%ADD17O,1.900000X1.450000*%
%ADD18C,2.400000*%
%ADD19O,2.000000X2.000000*%
%ADD20R,2.000000X2.000000*%
%ADD21O,2.400000X2.400000*%
%ADD22R,3.500000X3.500000*%
%ADD23C,0.100000*%
%ADD24C,3.000000*%
%ADD25C,3.500000*%
%ADD26R,1.800000X1.800000*%
%ADD27O,2.200000X2.200000*%
%ADD28R,2.200000X4.000000*%
%ADD29O,4.400000X2.600000*%
%ADD30O,2.600000X4.400000*%
%ADD31R,1.700000X1.700000*%
%ADD32O,2.100000X2.100000*%
%ADD33C,1.822400*%
%ADD34R,1.422400X1.422400*%
%ADD35O,1.450000X1.900000*%
%ADD36R,1.050000X1.500000*%
%ADD37R,0.600000X1.500000*%
%ADD38O,2.398980X3.597860*%
%ADD39O,3.597860X2.398980*%
%ADD40C,1.901140*%
G04 APERTURE END LIST*
D10*
G04 #@! TO.C,Y1*
X66749000Y-57658000D03*
X61849000Y-57658000D03*
G04 #@! TD*
D11*
G04 #@! TO.C,J3*
X215592000Y-27154500D03*
X213052000Y-27154500D03*
X210512000Y-27154500D03*
X207972000Y-27154500D03*
X205432000Y-27154500D03*
X202892000Y-27154500D03*
X200352000Y-27154500D03*
X197812000Y-27154500D03*
X195272000Y-27154500D03*
X192732000Y-27154500D03*
X190192000Y-27154500D03*
X187652000Y-27154500D03*
X185112000Y-27154500D03*
X182572000Y-27154500D03*
X180032000Y-27154500D03*
X177492000Y-27154500D03*
X174952000Y-27154500D03*
X172412000Y-27154500D03*
X169872000Y-27154500D03*
X167332000Y-27154500D03*
X164792000Y-27154500D03*
X162252000Y-27154500D03*
X159712000Y-27154500D03*
X154632000Y-27154500D03*
X152092000Y-27154500D03*
X149552000Y-27154500D03*
X147012000Y-27154500D03*
G04 #@! TD*
D12*
G04 #@! TO.C,U1*
X165989000Y-44577000D03*
D13*
X181229000Y-92837000D03*
X165989000Y-47117000D03*
X181229000Y-90297000D03*
X165989000Y-49657000D03*
X181229000Y-87757000D03*
X165989000Y-52197000D03*
X181229000Y-85217000D03*
X165989000Y-54737000D03*
X181229000Y-82677000D03*
X165989000Y-57277000D03*
X181229000Y-80137000D03*
X165989000Y-59817000D03*
X181229000Y-77597000D03*
X165989000Y-62357000D03*
X181229000Y-75057000D03*
X165989000Y-64897000D03*
X181229000Y-72517000D03*
X165989000Y-67437000D03*
X181229000Y-69977000D03*
X165989000Y-69977000D03*
X181229000Y-67437000D03*
X165989000Y-72517000D03*
X181229000Y-64897000D03*
X165989000Y-75057000D03*
X181229000Y-62357000D03*
X165989000Y-77597000D03*
X181229000Y-59817000D03*
X165989000Y-80137000D03*
X181229000Y-57277000D03*
X165989000Y-82677000D03*
X181229000Y-54737000D03*
X165989000Y-85217000D03*
X181229000Y-52197000D03*
X165989000Y-87757000D03*
X181229000Y-49657000D03*
X165989000Y-90297000D03*
X181229000Y-47117000D03*
X165989000Y-92837000D03*
X181229000Y-44577000D03*
G04 #@! TD*
D14*
G04 #@! TO.C,C1*
X186690000Y-90170000D03*
D15*
X190490000Y-90170000D03*
G04 #@! TD*
D16*
G04 #@! TO.C,Q1*
X207010000Y-87630000D03*
D17*
X207010000Y-90170000D03*
X207010000Y-88900000D03*
G04 #@! TD*
G04 #@! TO.C,Q2*
X209550000Y-83820000D03*
X209550000Y-85090000D03*
D16*
X209550000Y-82550000D03*
G04 #@! TD*
G04 #@! TO.C,Q3*
X212090000Y-87630000D03*
D17*
X212090000Y-90170000D03*
X212090000Y-88900000D03*
G04 #@! TD*
G04 #@! TO.C,Q4*
X214630000Y-83820000D03*
X214630000Y-85090000D03*
D16*
X214630000Y-82550000D03*
G04 #@! TD*
G04 #@! TO.C,Q5*
X217170000Y-87630000D03*
D17*
X217170000Y-90170000D03*
X217170000Y-88900000D03*
G04 #@! TD*
G04 #@! TO.C,Q6*
X219710000Y-83820000D03*
X219710000Y-85090000D03*
D16*
X219710000Y-82550000D03*
G04 #@! TD*
G04 #@! TO.C,Q7*
X222250000Y-87630000D03*
D17*
X222250000Y-90170000D03*
X222250000Y-88900000D03*
G04 #@! TD*
G04 #@! TO.C,Q8*
X224790000Y-83820000D03*
X224790000Y-85090000D03*
D16*
X224790000Y-82550000D03*
G04 #@! TD*
D18*
G04 #@! TO.C,SW1*
X59690000Y-111180000D03*
X59690000Y-106680000D03*
X66190000Y-111180000D03*
X66190000Y-106680000D03*
G04 #@! TD*
G04 #@! TO.C,SW2*
X81430000Y-106680000D03*
X81430000Y-111180000D03*
X74930000Y-106680000D03*
X74930000Y-111180000D03*
G04 #@! TD*
G04 #@! TO.C,SW3*
X90170000Y-111180000D03*
X90170000Y-106680000D03*
X96670000Y-111180000D03*
X96670000Y-106680000D03*
G04 #@! TD*
G04 #@! TO.C,SW4*
X111910000Y-106680000D03*
X111910000Y-111180000D03*
X105410000Y-106680000D03*
X105410000Y-111180000D03*
G04 #@! TD*
G04 #@! TO.C,SW5*
X120650000Y-111180000D03*
X120650000Y-106680000D03*
X127150000Y-111180000D03*
X127150000Y-106680000D03*
G04 #@! TD*
G04 #@! TO.C,SW6*
X135890000Y-111180000D03*
X135890000Y-106680000D03*
X142390000Y-111180000D03*
X142390000Y-106680000D03*
G04 #@! TD*
G04 #@! TO.C,SW7*
X157630000Y-106680000D03*
X157630000Y-111180000D03*
X151130000Y-106680000D03*
X151130000Y-111180000D03*
G04 #@! TD*
G04 #@! TO.C,SW8*
X166370000Y-111180000D03*
X166370000Y-106680000D03*
X172870000Y-111180000D03*
X172870000Y-106680000D03*
G04 #@! TD*
G04 #@! TO.C,SW9*
X188110000Y-106680000D03*
X188110000Y-111180000D03*
X181610000Y-106680000D03*
X181610000Y-111180000D03*
G04 #@! TD*
G04 #@! TO.C,SW10*
X196850000Y-111180000D03*
X196850000Y-106680000D03*
X203350000Y-111180000D03*
X203350000Y-106680000D03*
G04 #@! TD*
G04 #@! TO.C,SW11*
X71270000Y-119380000D03*
X71270000Y-123880000D03*
X64770000Y-119380000D03*
X64770000Y-123880000D03*
G04 #@! TD*
G04 #@! TO.C,SW12*
X80010000Y-123880000D03*
X80010000Y-119380000D03*
X86510000Y-123880000D03*
X86510000Y-119380000D03*
G04 #@! TD*
G04 #@! TO.C,SW13*
X101750000Y-119380000D03*
X101750000Y-123880000D03*
X95250000Y-119380000D03*
X95250000Y-123880000D03*
G04 #@! TD*
G04 #@! TO.C,SW14*
X110490000Y-123880000D03*
X110490000Y-119380000D03*
X116990000Y-123880000D03*
X116990000Y-119380000D03*
G04 #@! TD*
G04 #@! TO.C,SW15*
X132230000Y-119380000D03*
X132230000Y-123880000D03*
X125730000Y-119380000D03*
X125730000Y-123880000D03*
G04 #@! TD*
G04 #@! TO.C,SW16*
X147470000Y-119380000D03*
X147470000Y-123880000D03*
X140970000Y-119380000D03*
X140970000Y-123880000D03*
G04 #@! TD*
G04 #@! TO.C,SW17*
X156210000Y-123880000D03*
X156210000Y-119380000D03*
X162710000Y-123880000D03*
X162710000Y-119380000D03*
G04 #@! TD*
G04 #@! TO.C,SW18*
X177950000Y-119380000D03*
X177950000Y-123880000D03*
X171450000Y-119380000D03*
X171450000Y-123880000D03*
G04 #@! TD*
G04 #@! TO.C,SW19*
X186690000Y-123880000D03*
X186690000Y-119380000D03*
X193190000Y-123880000D03*
X193190000Y-119380000D03*
G04 #@! TD*
G04 #@! TO.C,SW20*
X208430000Y-119380000D03*
X208430000Y-123880000D03*
X201930000Y-119380000D03*
X201930000Y-123880000D03*
G04 #@! TD*
G04 #@! TO.C,SW21*
X76350000Y-132080000D03*
X76350000Y-136580000D03*
X69850000Y-132080000D03*
X69850000Y-136580000D03*
G04 #@! TD*
G04 #@! TO.C,SW22*
X85090000Y-136580000D03*
X85090000Y-132080000D03*
X91590000Y-136580000D03*
X91590000Y-132080000D03*
G04 #@! TD*
G04 #@! TO.C,SW23*
X106830000Y-132080000D03*
X106830000Y-136580000D03*
X100330000Y-132080000D03*
X100330000Y-136580000D03*
G04 #@! TD*
G04 #@! TO.C,SW24*
X115570000Y-136580000D03*
X115570000Y-132080000D03*
X122070000Y-136580000D03*
X122070000Y-132080000D03*
G04 #@! TD*
G04 #@! TO.C,SW25*
X137310000Y-132080000D03*
X137310000Y-136580000D03*
X130810000Y-132080000D03*
X130810000Y-136580000D03*
G04 #@! TD*
G04 #@! TO.C,SW26*
X152550000Y-132080000D03*
X152550000Y-136580000D03*
X146050000Y-132080000D03*
X146050000Y-136580000D03*
G04 #@! TD*
G04 #@! TO.C,SW27*
X161290000Y-136580000D03*
X161290000Y-132080000D03*
X167790000Y-136580000D03*
X167790000Y-132080000D03*
G04 #@! TD*
G04 #@! TO.C,SW28*
X183030000Y-132080000D03*
X183030000Y-136580000D03*
X176530000Y-132080000D03*
X176530000Y-136580000D03*
G04 #@! TD*
G04 #@! TO.C,SW29*
X191770000Y-136580000D03*
X191770000Y-132080000D03*
X198270000Y-136580000D03*
X198270000Y-132080000D03*
G04 #@! TD*
G04 #@! TO.C,SW30*
X213510000Y-132080000D03*
X213510000Y-136580000D03*
X207010000Y-132080000D03*
X207010000Y-136580000D03*
G04 #@! TD*
G04 #@! TO.C,SW31*
X59690000Y-149280000D03*
X59690000Y-144780000D03*
X66190000Y-149280000D03*
X66190000Y-144780000D03*
G04 #@! TD*
G04 #@! TO.C,SW32*
X81430000Y-144780000D03*
X81430000Y-149280000D03*
X74930000Y-144780000D03*
X74930000Y-149280000D03*
G04 #@! TD*
G04 #@! TO.C,SW33*
X90170000Y-149280000D03*
X90170000Y-144780000D03*
X96670000Y-149280000D03*
X96670000Y-144780000D03*
G04 #@! TD*
G04 #@! TO.C,SW34*
X111910000Y-144780000D03*
X111910000Y-149280000D03*
X105410000Y-144780000D03*
X105410000Y-149280000D03*
G04 #@! TD*
G04 #@! TO.C,SW35*
X120650000Y-149280000D03*
X120650000Y-144780000D03*
X127150000Y-149280000D03*
X127150000Y-144780000D03*
G04 #@! TD*
G04 #@! TO.C,SW36*
X135890000Y-149280000D03*
X135890000Y-144780000D03*
X142390000Y-149280000D03*
X142390000Y-144780000D03*
G04 #@! TD*
G04 #@! TO.C,SW37*
X157630000Y-144780000D03*
X157630000Y-149280000D03*
X151130000Y-144780000D03*
X151130000Y-149280000D03*
G04 #@! TD*
G04 #@! TO.C,SW38*
X166370000Y-149280000D03*
X166370000Y-144780000D03*
X172870000Y-149280000D03*
X172870000Y-144780000D03*
G04 #@! TD*
G04 #@! TO.C,SW39*
X188110000Y-144780000D03*
X188110000Y-149280000D03*
X181610000Y-144780000D03*
X181610000Y-149280000D03*
G04 #@! TD*
G04 #@! TO.C,SW40*
X196850000Y-149280000D03*
X196850000Y-144780000D03*
X203350000Y-149280000D03*
X203350000Y-144780000D03*
G04 #@! TD*
D14*
G04 #@! TO.C,RN1*
X194310000Y-97790000D03*
D19*
X196850000Y-97790000D03*
X199390000Y-97790000D03*
X201930000Y-97790000D03*
X204470000Y-97790000D03*
X207010000Y-97790000D03*
X209550000Y-97790000D03*
X212090000Y-97790000D03*
X214630000Y-97790000D03*
G04 #@! TD*
D14*
G04 #@! TO.C,RN2*
X57150000Y-97790000D03*
D19*
X59690000Y-97790000D03*
X62230000Y-97790000D03*
X64770000Y-97790000D03*
X67310000Y-97790000D03*
X69850000Y-97790000D03*
G04 #@! TD*
G04 #@! TO.C,R1*
X137668000Y-39370000D03*
D15*
X145288000Y-39370000D03*
G04 #@! TD*
G04 #@! TO.C,R2*
X145288000Y-35814000D03*
D19*
X137668000Y-35814000D03*
G04 #@! TD*
G04 #@! TO.C,R3*
X155194000Y-41656000D03*
D15*
X147574000Y-41656000D03*
G04 #@! TD*
G04 #@! TO.C,R4*
X147574000Y-37846000D03*
D19*
X155194000Y-37846000D03*
G04 #@! TD*
D20*
G04 #@! TO.C,C2*
X232410000Y-58420000D03*
D18*
X235910000Y-58420000D03*
G04 #@! TD*
D15*
G04 #@! TO.C,C3*
X235712000Y-81026000D03*
X238212000Y-81026000D03*
G04 #@! TD*
D21*
G04 #@! TO.C,D1*
X237490000Y-43180000D03*
X232410000Y-48260000D03*
X237490000Y-48260000D03*
D20*
X232410000Y-43180000D03*
G04 #@! TD*
D22*
G04 #@! TO.C,J4*
X234950000Y-36830000D03*
D23*
G36*
X236023513Y-29333611D02*
X236096318Y-29344411D01*
X236167714Y-29362295D01*
X236237013Y-29387090D01*
X236303548Y-29418559D01*
X236366678Y-29456398D01*
X236425795Y-29500242D01*
X236480330Y-29549670D01*
X236529758Y-29604205D01*
X236573602Y-29663322D01*
X236611441Y-29726452D01*
X236642910Y-29792987D01*
X236667705Y-29862286D01*
X236685589Y-29933682D01*
X236696389Y-30006487D01*
X236700000Y-30080000D01*
X236700000Y-31580000D01*
X236696389Y-31653513D01*
X236685589Y-31726318D01*
X236667705Y-31797714D01*
X236642910Y-31867013D01*
X236611441Y-31933548D01*
X236573602Y-31996678D01*
X236529758Y-32055795D01*
X236480330Y-32110330D01*
X236425795Y-32159758D01*
X236366678Y-32203602D01*
X236303548Y-32241441D01*
X236237013Y-32272910D01*
X236167714Y-32297705D01*
X236096318Y-32315589D01*
X236023513Y-32326389D01*
X235950000Y-32330000D01*
X233950000Y-32330000D01*
X233876487Y-32326389D01*
X233803682Y-32315589D01*
X233732286Y-32297705D01*
X233662987Y-32272910D01*
X233596452Y-32241441D01*
X233533322Y-32203602D01*
X233474205Y-32159758D01*
X233419670Y-32110330D01*
X233370242Y-32055795D01*
X233326398Y-31996678D01*
X233288559Y-31933548D01*
X233257090Y-31867013D01*
X233232295Y-31797714D01*
X233214411Y-31726318D01*
X233203611Y-31653513D01*
X233200000Y-31580000D01*
X233200000Y-30080000D01*
X233203611Y-30006487D01*
X233214411Y-29933682D01*
X233232295Y-29862286D01*
X233257090Y-29792987D01*
X233288559Y-29726452D01*
X233326398Y-29663322D01*
X233370242Y-29604205D01*
X233419670Y-29549670D01*
X233474205Y-29500242D01*
X233533322Y-29456398D01*
X233596452Y-29418559D01*
X233662987Y-29387090D01*
X233732286Y-29362295D01*
X233803682Y-29344411D01*
X233876487Y-29333611D01*
X233950000Y-29330000D01*
X235950000Y-29330000D01*
X236023513Y-29333611D01*
X236023513Y-29333611D01*
G37*
D24*
X234950000Y-30830000D03*
D23*
G36*
X231210765Y-32084213D02*
X231295704Y-32096813D01*
X231378999Y-32117677D01*
X231459848Y-32146605D01*
X231537472Y-32183319D01*
X231611124Y-32227464D01*
X231680094Y-32278616D01*
X231743718Y-32336282D01*
X231801384Y-32399906D01*
X231852536Y-32468876D01*
X231896681Y-32542528D01*
X231933395Y-32620152D01*
X231962323Y-32701001D01*
X231983187Y-32784296D01*
X231995787Y-32869235D01*
X232000000Y-32955000D01*
X232000000Y-34705000D01*
X231995787Y-34790765D01*
X231983187Y-34875704D01*
X231962323Y-34958999D01*
X231933395Y-35039848D01*
X231896681Y-35117472D01*
X231852536Y-35191124D01*
X231801384Y-35260094D01*
X231743718Y-35323718D01*
X231680094Y-35381384D01*
X231611124Y-35432536D01*
X231537472Y-35476681D01*
X231459848Y-35513395D01*
X231378999Y-35542323D01*
X231295704Y-35563187D01*
X231210765Y-35575787D01*
X231125000Y-35580000D01*
X229375000Y-35580000D01*
X229289235Y-35575787D01*
X229204296Y-35563187D01*
X229121001Y-35542323D01*
X229040152Y-35513395D01*
X228962528Y-35476681D01*
X228888876Y-35432536D01*
X228819906Y-35381384D01*
X228756282Y-35323718D01*
X228698616Y-35260094D01*
X228647464Y-35191124D01*
X228603319Y-35117472D01*
X228566605Y-35039848D01*
X228537677Y-34958999D01*
X228516813Y-34875704D01*
X228504213Y-34790765D01*
X228500000Y-34705000D01*
X228500000Y-32955000D01*
X228504213Y-32869235D01*
X228516813Y-32784296D01*
X228537677Y-32701001D01*
X228566605Y-32620152D01*
X228603319Y-32542528D01*
X228647464Y-32468876D01*
X228698616Y-32399906D01*
X228756282Y-32336282D01*
X228819906Y-32278616D01*
X228888876Y-32227464D01*
X228962528Y-32183319D01*
X229040152Y-32146605D01*
X229121001Y-32117677D01*
X229204296Y-32096813D01*
X229289235Y-32084213D01*
X229375000Y-32080000D01*
X231125000Y-32080000D01*
X231210765Y-32084213D01*
X231210765Y-32084213D01*
G37*
D25*
X230250000Y-33830000D03*
G04 #@! TD*
D26*
G04 #@! TO.C,U2*
X236220000Y-74930000D03*
D27*
X233680000Y-74930000D03*
X231140000Y-74930000D03*
G04 #@! TD*
D28*
G04 #@! TO.C,J5*
X82550000Y-29210000D03*
D29*
X83050000Y-36510000D03*
D30*
X89650000Y-32110000D03*
X92350000Y-33310000D03*
D29*
X87150000Y-25310000D03*
G04 #@! TD*
G04 #@! TO.C,J6*
X101120000Y-25310000D03*
D30*
X106320000Y-33310000D03*
X103620000Y-32110000D03*
D29*
X97020000Y-36510000D03*
D28*
X96520000Y-29210000D03*
G04 #@! TD*
D31*
G04 #@! TO.C,J8*
X189230000Y-97790000D03*
D32*
X186690000Y-97790000D03*
G04 #@! TD*
D15*
G04 #@! TO.C,C4*
X232410000Y-102870000D03*
X232410000Y-105370000D03*
G04 #@! TD*
D31*
G04 #@! TO.C,J9*
X218440000Y-116840000D03*
D32*
X218440000Y-119380000D03*
X218440000Y-121920000D03*
G04 #@! TD*
D20*
G04 #@! TO.C,LS1*
X226060000Y-124460000D03*
D18*
X233660000Y-124460000D03*
G04 #@! TD*
D17*
G04 #@! TO.C,Q9*
X224790000Y-116840000D03*
X224790000Y-118110000D03*
D16*
X224790000Y-115570000D03*
G04 #@! TD*
D15*
G04 #@! TO.C,R5*
X232410000Y-110490000D03*
D19*
X232410000Y-118110000D03*
G04 #@! TD*
D14*
G04 #@! TO.C,RN3*
X158750000Y-99060000D03*
D19*
X156210000Y-99060000D03*
X153670000Y-99060000D03*
X151130000Y-99060000D03*
X148590000Y-99060000D03*
X146050000Y-99060000D03*
X143510000Y-99060000D03*
X140970000Y-99060000D03*
X138430000Y-99060000D03*
G04 #@! TD*
D14*
G04 #@! TO.C,U3*
X209550000Y-44450000D03*
D19*
X224790000Y-77470000D03*
X209550000Y-46990000D03*
X224790000Y-74930000D03*
X209550000Y-49530000D03*
X224790000Y-72390000D03*
X209550000Y-52070000D03*
X224790000Y-69850000D03*
X209550000Y-54610000D03*
X224790000Y-67310000D03*
X209550000Y-57150000D03*
X224790000Y-64770000D03*
X209550000Y-59690000D03*
X224790000Y-62230000D03*
X209550000Y-62230000D03*
X224790000Y-59690000D03*
X209550000Y-64770000D03*
X224790000Y-57150000D03*
X209550000Y-67310000D03*
X224790000Y-54610000D03*
X209550000Y-69850000D03*
X224790000Y-52070000D03*
X209550000Y-72390000D03*
X224790000Y-49530000D03*
X209550000Y-74930000D03*
X224790000Y-46990000D03*
X209550000Y-77470000D03*
X224790000Y-44450000D03*
G04 #@! TD*
D15*
G04 #@! TO.C,R6*
X137414000Y-49530000D03*
D19*
X145034000Y-49530000D03*
G04 #@! TD*
G04 #@! TO.C,R7*
X160020000Y-85090000D03*
D15*
X160020000Y-92710000D03*
G04 #@! TD*
G04 #@! TO.C,R8*
X147574000Y-51308000D03*
D19*
X155194000Y-51308000D03*
G04 #@! TD*
D15*
G04 #@! TO.C,R9*
X156210000Y-92710000D03*
D19*
X156210000Y-85090000D03*
G04 #@! TD*
G04 #@! TO.C,R10*
X145034000Y-53086000D03*
D15*
X137414000Y-53086000D03*
G04 #@! TD*
D19*
G04 #@! TO.C,R11*
X152400000Y-85090000D03*
D15*
X152400000Y-92710000D03*
G04 #@! TD*
G04 #@! TO.C,R12*
X147574000Y-55118000D03*
D19*
X155194000Y-55118000D03*
G04 #@! TD*
D15*
G04 #@! TO.C,R13*
X148590000Y-92710000D03*
D19*
X148590000Y-85090000D03*
G04 #@! TD*
G04 #@! TO.C,R14*
X145034000Y-56896000D03*
D15*
X137414000Y-56896000D03*
G04 #@! TD*
D19*
G04 #@! TO.C,R15*
X144780000Y-85090000D03*
D15*
X144780000Y-92710000D03*
G04 #@! TD*
G04 #@! TO.C,R16*
X147574000Y-58674000D03*
D19*
X155194000Y-58674000D03*
G04 #@! TD*
D15*
G04 #@! TO.C,R17*
X140970000Y-92710000D03*
D19*
X140970000Y-85090000D03*
G04 #@! TD*
G04 #@! TO.C,R18*
X145034000Y-60452000D03*
D15*
X137414000Y-60452000D03*
G04 #@! TD*
D19*
G04 #@! TO.C,R19*
X137160000Y-85090000D03*
D15*
X137160000Y-92710000D03*
G04 #@! TD*
G04 #@! TO.C,R20*
X147574000Y-62230000D03*
D19*
X155194000Y-62230000D03*
G04 #@! TD*
D15*
G04 #@! TO.C,R21*
X133350000Y-92710000D03*
D19*
X133350000Y-85090000D03*
G04 #@! TD*
G04 #@! TO.C,R22*
X145034000Y-64008000D03*
D15*
X137414000Y-64008000D03*
G04 #@! TD*
D19*
G04 #@! TO.C,R23*
X155194000Y-65786000D03*
D15*
X147574000Y-65786000D03*
G04 #@! TD*
D19*
G04 #@! TO.C,R24*
X145034000Y-67564000D03*
D15*
X137414000Y-67564000D03*
G04 #@! TD*
G04 #@! TO.C,R25*
X147574000Y-69342000D03*
D19*
X155194000Y-69342000D03*
G04 #@! TD*
G04 #@! TO.C,R26*
X145034000Y-71374000D03*
D15*
X137414000Y-71374000D03*
G04 #@! TD*
G04 #@! TO.C,R27*
X147574000Y-73152000D03*
D19*
X155194000Y-73152000D03*
G04 #@! TD*
D15*
G04 #@! TO.C,C5*
X50673000Y-71247000D03*
X50673000Y-68747000D03*
G04 #@! TD*
D31*
G04 #@! TO.C,J10*
X99060000Y-91440000D03*
D32*
X99060000Y-93980000D03*
X96520000Y-91440000D03*
X96520000Y-93980000D03*
X93980000Y-91440000D03*
X93980000Y-93980000D03*
X91440000Y-91440000D03*
X91440000Y-93980000D03*
X88900000Y-91440000D03*
X88900000Y-93980000D03*
G04 #@! TD*
D15*
G04 #@! TO.C,R28*
X94234000Y-49530000D03*
D19*
X101854000Y-49530000D03*
G04 #@! TD*
G04 #@! TO.C,R29*
X54102000Y-61214000D03*
D15*
X54102000Y-68834000D03*
G04 #@! TD*
G04 #@! TO.C,R30*
X54102000Y-78740000D03*
D19*
X54102000Y-71120000D03*
G04 #@! TD*
D12*
G04 #@! TO.C,U6*
X57658000Y-64008000D03*
D13*
X65278000Y-79248000D03*
X57658000Y-66548000D03*
X65278000Y-76708000D03*
X57658000Y-69088000D03*
X65278000Y-74168000D03*
X57658000Y-71628000D03*
X65278000Y-71628000D03*
X57658000Y-74168000D03*
X65278000Y-69088000D03*
X57658000Y-76708000D03*
X65278000Y-66548000D03*
X57658000Y-79248000D03*
X65278000Y-64008000D03*
G04 #@! TD*
D33*
G04 #@! TO.C,U7*
X90424000Y-57404000D03*
X87884000Y-57404000D03*
X85344000Y-57404000D03*
X82804000Y-57404000D03*
X80264000Y-57404000D03*
X92964000Y-57404000D03*
X95504000Y-57404000D03*
X98044000Y-57404000D03*
X100584000Y-57404000D03*
X103124000Y-57404000D03*
X105664000Y-57404000D03*
D34*
X90424000Y-54864000D03*
D33*
X87884000Y-54864000D03*
X85344000Y-54864000D03*
X82804000Y-54864000D03*
X80264000Y-54864000D03*
X77724000Y-54864000D03*
X92964000Y-54864000D03*
X95504000Y-54864000D03*
X98044000Y-54864000D03*
X100584000Y-54864000D03*
X103124000Y-54864000D03*
X77724000Y-57404000D03*
X77724000Y-59944000D03*
X77724000Y-62484000D03*
X77724000Y-65024000D03*
X77724000Y-67564000D03*
X77724000Y-70104000D03*
X77724000Y-72644000D03*
X77724000Y-75184000D03*
X77724000Y-77724000D03*
X77724000Y-80264000D03*
X75184000Y-57404000D03*
X75184000Y-59944000D03*
X75184000Y-62484000D03*
X75184000Y-65024000D03*
X75184000Y-67564000D03*
X75184000Y-70104000D03*
X75184000Y-72644000D03*
X75184000Y-75184000D03*
X75184000Y-77724000D03*
X75184000Y-80264000D03*
X75184000Y-82804000D03*
X77724000Y-82804000D03*
X80264000Y-82804000D03*
X82804000Y-82804000D03*
X85344000Y-82804000D03*
X87884000Y-82804000D03*
X90424000Y-82804000D03*
X92964000Y-82804000D03*
X95504000Y-82804000D03*
X98044000Y-82804000D03*
X100584000Y-82804000D03*
X77724000Y-85344000D03*
X80264000Y-85344000D03*
X82804000Y-85344000D03*
X85344000Y-85344000D03*
X87884000Y-85344000D03*
X90424000Y-85344000D03*
X92964000Y-85344000D03*
X95504000Y-85344000D03*
X98044000Y-85344000D03*
X100584000Y-85344000D03*
X103124000Y-85344000D03*
X103124000Y-82804000D03*
X103124000Y-80264000D03*
X103124000Y-77724000D03*
X103124000Y-75184000D03*
X103124000Y-72644000D03*
X103124000Y-70104000D03*
X103124000Y-67564000D03*
X103124000Y-65024000D03*
X103124000Y-62484000D03*
X103124000Y-59944000D03*
X105664000Y-82804000D03*
X105664000Y-80264000D03*
X105664000Y-77724000D03*
X105664000Y-75184000D03*
X105664000Y-72644000D03*
X105664000Y-70104000D03*
X105664000Y-67564000D03*
X105664000Y-65024000D03*
X105664000Y-62484000D03*
X105664000Y-59944000D03*
G04 #@! TD*
D15*
G04 #@! TO.C,C6*
X233426000Y-68072000D03*
X230926000Y-68072000D03*
G04 #@! TD*
D20*
G04 #@! TO.C,C7*
X234442000Y-89916000D03*
D18*
X237942000Y-89916000D03*
G04 #@! TD*
D19*
G04 #@! TO.C,R31*
X137414000Y-74930000D03*
D15*
X145034000Y-74930000D03*
G04 #@! TD*
G04 #@! TO.C,R32*
X155194000Y-45466000D03*
D19*
X147574000Y-45466000D03*
G04 #@! TD*
D15*
G04 #@! TO.C,C8*
X198628000Y-40894000D03*
X201128000Y-40894000D03*
G04 #@! TD*
G04 #@! TO.C,C9*
X105450000Y-90678000D03*
X107950000Y-90678000D03*
G04 #@! TD*
G04 #@! TO.C,C10*
X222464000Y-40894000D03*
X219964000Y-40894000D03*
G04 #@! TD*
G04 #@! TO.C,C11*
X176022000Y-40894000D03*
X178522000Y-40894000D03*
G04 #@! TD*
G04 #@! TO.C,C12*
X124968000Y-40894000D03*
X127468000Y-40894000D03*
G04 #@! TD*
G04 #@! TO.C,C13*
X76160000Y-40640000D03*
X73660000Y-40640000D03*
G04 #@! TD*
G04 #@! TO.C,C14*
X66294000Y-38989000D03*
X68794000Y-38989000D03*
G04 #@! TD*
G04 #@! TO.C,C15*
X91313000Y-40386000D03*
X88813000Y-40386000D03*
G04 #@! TD*
G04 #@! TO.C,C16*
X106767000Y-40386000D03*
X104267000Y-40386000D03*
G04 #@! TD*
G04 #@! TO.C,C17*
X111212000Y-28956000D03*
X108712000Y-28956000D03*
G04 #@! TD*
G04 #@! TO.C,C18*
X119507000Y-33274000D03*
X122007000Y-33274000D03*
G04 #@! TD*
G04 #@! TO.C,C19*
X61214000Y-38989000D03*
X63714000Y-38989000D03*
G04 #@! TD*
D19*
G04 #@! TO.C,R33*
X101473000Y-40386000D03*
D15*
X93853000Y-40386000D03*
G04 #@! TD*
G04 #@! TO.C,R34*
X86360000Y-40513000D03*
D19*
X78740000Y-40513000D03*
G04 #@! TD*
G04 #@! TO.C,R35*
X71120000Y-26162000D03*
D15*
X78740000Y-26162000D03*
G04 #@! TD*
G04 #@! TO.C,R36*
X109474000Y-33274000D03*
D19*
X117094000Y-33274000D03*
G04 #@! TD*
G04 #@! TO.C,R37*
X114300000Y-28956000D03*
D15*
X121920000Y-28956000D03*
G04 #@! TD*
G04 #@! TO.C,R38*
X68834000Y-42418000D03*
D19*
X61214000Y-42418000D03*
G04 #@! TD*
D15*
G04 #@! TO.C,R39*
X68834000Y-45720000D03*
D19*
X61214000Y-45720000D03*
G04 #@! TD*
D14*
G04 #@! TO.C,U8*
X71120000Y-29718000D03*
D19*
X78740000Y-37338000D03*
X71120000Y-32258000D03*
X78740000Y-34798000D03*
X71120000Y-34798000D03*
X78740000Y-32258000D03*
X71120000Y-37338000D03*
X78740000Y-29718000D03*
G04 #@! TD*
D15*
G04 #@! TO.C,C20*
X77216000Y-90424000D03*
X79716000Y-90424000D03*
G04 #@! TD*
G04 #@! TO.C,C21*
X107442000Y-49784000D03*
X104942000Y-49784000D03*
G04 #@! TD*
G04 #@! TO.C,C22*
X76113000Y-49784000D03*
X78613000Y-49784000D03*
G04 #@! TD*
G04 #@! TO.C,C23*
X69215000Y-82550000D03*
X66715000Y-82550000D03*
G04 #@! TD*
G04 #@! TO.C,C24*
X54650000Y-50546000D03*
X57150000Y-50546000D03*
G04 #@! TD*
D19*
G04 #@! TO.C,R40*
X57277000Y-89535000D03*
D15*
X57277000Y-81915000D03*
G04 #@! TD*
D19*
G04 #@! TO.C,R41*
X68580000Y-72009000D03*
D15*
X68580000Y-79629000D03*
G04 #@! TD*
G04 #@! TO.C,R42*
X68580000Y-69469000D03*
D19*
X68580000Y-61849000D03*
G04 #@! TD*
D15*
G04 #@! TO.C,R43*
X56896000Y-54483000D03*
D19*
X49276000Y-54483000D03*
G04 #@! TD*
D10*
G04 #@! TO.C,Y2*
X63119000Y-87249000D03*
X68019000Y-87249000D03*
G04 #@! TD*
G04 #@! TO.C,Y3*
X66749000Y-51689000D03*
X61849000Y-51689000D03*
G04 #@! TD*
D15*
G04 #@! TO.C,C25*
X60198000Y-82550000D03*
X62698000Y-82550000D03*
G04 #@! TD*
D31*
G04 #@! TO.C,J1*
X59690000Y-93980000D03*
D32*
X62230000Y-93980000D03*
X64770000Y-93980000D03*
X67310000Y-93980000D03*
X69850000Y-93980000D03*
G04 #@! TD*
D31*
G04 #@! TO.C,J2*
X196850000Y-93980000D03*
D32*
X199390000Y-93980000D03*
X201930000Y-93980000D03*
X204470000Y-93980000D03*
X207010000Y-93980000D03*
X209550000Y-93980000D03*
X212090000Y-93980000D03*
X214630000Y-93980000D03*
G04 #@! TD*
D31*
G04 #@! TO.C,J11*
X56261000Y-58166000D03*
D32*
X53721000Y-58166000D03*
X51181000Y-58166000D03*
G04 #@! TD*
D15*
G04 #@! TO.C,C26*
X50787300Y-140625000D03*
X50787300Y-138125000D03*
G04 #@! TD*
D14*
G04 #@! TO.C,C27*
X40640000Y-147320000D03*
D15*
X40640000Y-144820000D03*
G04 #@! TD*
G04 #@! TO.C,C28*
X36019100Y-87376000D03*
X38519100Y-87376000D03*
G04 #@! TD*
D20*
G04 #@! TO.C,C29*
X48564800Y-40779700D03*
D18*
X48564800Y-44279700D03*
G04 #@! TD*
D15*
G04 #@! TO.C,C30*
X49022000Y-107442000D03*
X46522000Y-107442000D03*
G04 #@! TD*
G04 #@! TO.C,C31*
X41402000Y-40386000D03*
X38902000Y-40386000D03*
G04 #@! TD*
G04 #@! TO.C,C32*
X39268400Y-124930000D03*
X36768400Y-124930000D03*
G04 #@! TD*
D26*
G04 #@! TO.C,D4*
X50546000Y-33401000D03*
D27*
X50546000Y-25781000D03*
G04 #@! TD*
D32*
G04 #@! TO.C,J13*
X50520600Y-133604000D03*
X50520600Y-131064000D03*
D31*
X50520600Y-128524000D03*
G04 #@! TD*
G04 #@! TO.C,J14*
X116916000Y-90792300D03*
D32*
X114376000Y-90792300D03*
X111836000Y-90792300D03*
G04 #@! TD*
D35*
G04 #@! TO.C,Q10*
X39535100Y-70866000D03*
X38265100Y-70866000D03*
D36*
X40805100Y-70866000D03*
G04 #@! TD*
G04 #@! TO.C,Q11*
X49276000Y-91694000D03*
D35*
X46736000Y-91694000D03*
X48006000Y-91694000D03*
G04 #@! TD*
G04 #@! TO.C,Q12*
X37909500Y-109449000D03*
X36639500Y-109449000D03*
D36*
X39179500Y-109449000D03*
G04 #@! TD*
G04 #@! TO.C,Q13*
X40513000Y-48387000D03*
D35*
X37973000Y-48387000D03*
X39243000Y-48387000D03*
G04 #@! TD*
D15*
G04 #@! TO.C,R44*
X46901100Y-83820000D03*
D19*
X46901100Y-76200000D03*
G04 #@! TD*
G04 #@! TO.C,R45*
X48094900Y-96406000D03*
D15*
X48094900Y-104026000D03*
G04 #@! TD*
G04 #@! TO.C,R46*
X43218100Y-83820000D03*
D19*
X43218100Y-76200000D03*
G04 #@! TD*
G04 #@! TO.C,R47*
X35979100Y-76200000D03*
D15*
X35979100Y-83820000D03*
G04 #@! TD*
D19*
G04 #@! TO.C,R48*
X44284900Y-96406000D03*
D15*
X44284900Y-104026000D03*
G04 #@! TD*
D19*
G04 #@! TO.C,R49*
X33020000Y-32512000D03*
D15*
X33020000Y-40132000D03*
G04 #@! TD*
G04 #@! TO.C,R50*
X37236400Y-104026000D03*
D19*
X37236400Y-96406000D03*
G04 #@! TD*
D15*
G04 #@! TO.C,R51*
X44196000Y-121476000D03*
D19*
X44196000Y-113856000D03*
G04 #@! TD*
G04 #@! TO.C,R52*
X36728400Y-113881000D03*
D15*
X36728400Y-121501000D03*
G04 #@! TD*
G04 #@! TO.C,R53*
X50457100Y-76200000D03*
D19*
X50457100Y-83820000D03*
G04 #@! TD*
G04 #@! TO.C,R54*
X51650900Y-104025700D03*
D15*
X51650900Y-96405700D03*
G04 #@! TD*
D19*
G04 #@! TO.C,R55*
X51003200Y-121450000D03*
D15*
X51003200Y-113830000D03*
G04 #@! TD*
G04 #@! TO.C,R56*
X39509700Y-76149200D03*
D19*
X39509700Y-83769200D03*
G04 #@! TD*
G04 #@! TO.C,R57*
X40767000Y-103974900D03*
D15*
X40767000Y-96354900D03*
G04 #@! TD*
G04 #@! TO.C,R58*
X40665400Y-113881000D03*
D19*
X40665400Y-121501000D03*
G04 #@! TD*
D15*
G04 #@! TO.C,R59*
X32448500Y-83870800D03*
D19*
X32448500Y-76250800D03*
G04 #@! TD*
G04 #@! TO.C,R60*
X33655000Y-96368000D03*
D15*
X33655000Y-103988000D03*
G04 #@! TD*
G04 #@! TO.C,R61*
X58039000Y-38658800D03*
D19*
X58039000Y-46278800D03*
G04 #@! TD*
G04 #@! TO.C,R62*
X80149700Y-45135800D03*
D15*
X72529700Y-45135800D03*
G04 #@! TD*
D19*
G04 #@! TO.C,R63*
X33655000Y-62103000D03*
D15*
X33655000Y-54483000D03*
G04 #@! TD*
G04 #@! TO.C,R64*
X33172400Y-121387000D03*
D19*
X33172400Y-113767000D03*
G04 #@! TD*
D15*
G04 #@! TO.C,R65*
X37592000Y-54483000D03*
D19*
X37592000Y-62103000D03*
G04 #@! TD*
G04 #@! TO.C,R66*
X41529000Y-62103000D03*
D15*
X41529000Y-54483000D03*
G04 #@! TD*
G04 #@! TO.C,R67*
X47586900Y-121476000D03*
D19*
X47586900Y-113856000D03*
G04 #@! TD*
D37*
G04 #@! TO.C,U9*
X47498000Y-130859000D03*
X46228000Y-130859000D03*
X44958000Y-130859000D03*
X43688000Y-130859000D03*
X42418000Y-130859000D03*
X41148000Y-130859000D03*
X39878000Y-130859000D03*
X38608000Y-130859000D03*
X38608000Y-140159000D03*
X39878000Y-140159000D03*
X41148000Y-140159000D03*
X42418000Y-140159000D03*
X43688000Y-140159000D03*
X44958000Y-140159000D03*
X46228000Y-140159000D03*
X47498000Y-140159000D03*
G04 #@! TD*
D26*
G04 #@! TO.C,D2*
X238760000Y-118110000D03*
D27*
X238760000Y-110490000D03*
G04 #@! TD*
G04 #@! TO.C,D3*
X90830400Y-44323000D03*
D26*
X83210400Y-44323000D03*
G04 #@! TD*
D38*
G04 #@! TO.C,J7*
X37109400Y-32699960D03*
D39*
X42164000Y-28702000D03*
D38*
X47218600Y-32699960D03*
G04 #@! TD*
D40*
G04 #@! TO.C,J12*
X64622680Y-32224980D03*
X62621160Y-32224980D03*
X58821320Y-32224980D03*
X61821060Y-34726880D03*
X59822080Y-34726880D03*
X65620900Y-34726880D03*
X63522860Y-34726880D03*
X57823100Y-34726880D03*
G04 #@! TD*
D12*
G04 #@! TO.C,U4*
X114300000Y-44450000D03*
D13*
X129540000Y-77470000D03*
X114300000Y-46990000D03*
X129540000Y-74930000D03*
X114300000Y-49530000D03*
X129540000Y-72390000D03*
X114300000Y-52070000D03*
X129540000Y-69850000D03*
X114300000Y-54610000D03*
X129540000Y-67310000D03*
X114300000Y-57150000D03*
X129540000Y-64770000D03*
X114300000Y-59690000D03*
X129540000Y-62230000D03*
X114300000Y-62230000D03*
X129540000Y-59690000D03*
X114300000Y-64770000D03*
X129540000Y-57150000D03*
X114300000Y-67310000D03*
X129540000Y-54610000D03*
X114300000Y-69850000D03*
X129540000Y-52070000D03*
X114300000Y-72390000D03*
X129540000Y-49530000D03*
X114300000Y-74930000D03*
X129540000Y-46990000D03*
X114300000Y-77470000D03*
X129540000Y-44450000D03*
G04 #@! TD*
G04 #@! TO.C,U5*
X203708000Y-44450000D03*
X188468000Y-77470000D03*
X203708000Y-46990000D03*
X188468000Y-74930000D03*
X203708000Y-49530000D03*
X188468000Y-72390000D03*
X203708000Y-52070000D03*
X188468000Y-69850000D03*
X203708000Y-54610000D03*
X188468000Y-67310000D03*
X203708000Y-57150000D03*
X188468000Y-64770000D03*
X203708000Y-59690000D03*
X188468000Y-62230000D03*
X203708000Y-62230000D03*
X188468000Y-59690000D03*
X203708000Y-64770000D03*
X188468000Y-57150000D03*
X203708000Y-67310000D03*
X188468000Y-54610000D03*
X203708000Y-69850000D03*
X188468000Y-52070000D03*
X203708000Y-72390000D03*
X188468000Y-49530000D03*
X203708000Y-74930000D03*
X188468000Y-46990000D03*
X203708000Y-77470000D03*
D12*
X188468000Y-44450000D03*
G04 #@! TD*
M02*
