G04 #@! TF.GenerationSoftware,KiCad,Pcbnew,5.0.0-rc2-be01b52~65~ubuntu18.04.1*
G04 #@! TF.CreationDate,2018-06-08T14:45:29+04:00*
G04 #@! TF.ProjectId,max48_ISSUE4,6D617834385F4953535545342E6B6963,rev?*
G04 #@! TF.SameCoordinates,Original*
G04 #@! TF.FileFunction,Copper,L1,Top,Signal*
G04 #@! TF.FilePolarity,Positive*
%FSLAX46Y46*%
G04 Gerber Fmt 4.6, Leading zero omitted, Abs format (unit mm)*
G04 Created by KiCad (PCBNEW 5.0.0-rc2-be01b52~65~ubuntu18.04.1) date Fri Jun  8 14:45:29 2018*
%MOMM*%
%LPD*%
G01*
G04 APERTURE LIST*
G04 #@! TA.AperFunction,ComponentPad*
%ADD10C,1.500000*%
G04 #@! TD*
G04 #@! TA.AperFunction,ConnectorPad*
%ADD11R,1.778000X7.620000*%
G04 #@! TD*
G04 #@! TA.AperFunction,ComponentPad*
%ADD12R,2.400000X1.600000*%
G04 #@! TD*
G04 #@! TA.AperFunction,ComponentPad*
%ADD13O,2.400000X1.600000*%
G04 #@! TD*
G04 #@! TA.AperFunction,ComponentPad*
%ADD14R,1.600000X1.600000*%
G04 #@! TD*
G04 #@! TA.AperFunction,ComponentPad*
%ADD15C,1.600000*%
G04 #@! TD*
G04 #@! TA.AperFunction,ComponentPad*
%ADD16R,1.500000X1.050000*%
G04 #@! TD*
G04 #@! TA.AperFunction,ComponentPad*
%ADD17O,1.500000X1.050000*%
G04 #@! TD*
G04 #@! TA.AperFunction,ComponentPad*
%ADD18C,2.000000*%
G04 #@! TD*
G04 #@! TA.AperFunction,ComponentPad*
%ADD19O,1.600000X1.600000*%
G04 #@! TD*
G04 #@! TA.AperFunction,ComponentPad*
%ADD20R,2.000000X2.000000*%
G04 #@! TD*
G04 #@! TA.AperFunction,ComponentPad*
%ADD21O,2.000000X2.000000*%
G04 #@! TD*
G04 #@! TA.AperFunction,ComponentPad*
%ADD22R,3.500000X3.500000*%
G04 #@! TD*
G04 #@! TA.AperFunction,Conductor*
%ADD23C,0.100000*%
G04 #@! TD*
G04 #@! TA.AperFunction,ComponentPad*
%ADD24C,3.000000*%
G04 #@! TD*
G04 #@! TA.AperFunction,ComponentPad*
%ADD25C,3.500000*%
G04 #@! TD*
G04 #@! TA.AperFunction,ComponentPad*
%ADD26R,1.800000X1.800000*%
G04 #@! TD*
G04 #@! TA.AperFunction,ComponentPad*
%ADD27O,1.800000X1.800000*%
G04 #@! TD*
G04 #@! TA.AperFunction,ComponentPad*
%ADD28R,2.200000X4.000000*%
G04 #@! TD*
G04 #@! TA.AperFunction,ComponentPad*
%ADD29O,4.000000X2.200000*%
G04 #@! TD*
G04 #@! TA.AperFunction,ComponentPad*
%ADD30O,2.200000X4.000000*%
G04 #@! TD*
G04 #@! TA.AperFunction,ComponentPad*
%ADD31R,1.700000X1.700000*%
G04 #@! TD*
G04 #@! TA.AperFunction,ComponentPad*
%ADD32O,1.700000X1.700000*%
G04 #@! TD*
G04 #@! TA.AperFunction,ComponentPad*
%ADD33C,1.422400*%
G04 #@! TD*
G04 #@! TA.AperFunction,ComponentPad*
%ADD34R,1.422400X1.422400*%
G04 #@! TD*
G04 #@! TA.AperFunction,ComponentPad*
%ADD35O,1.050000X1.500000*%
G04 #@! TD*
G04 #@! TA.AperFunction,ComponentPad*
%ADD36R,1.050000X1.500000*%
G04 #@! TD*
G04 #@! TA.AperFunction,SMDPad,CuDef*
%ADD37R,0.600000X1.500000*%
G04 #@! TD*
G04 #@! TA.AperFunction,ComponentPad*
%ADD38O,1.998980X3.197860*%
G04 #@! TD*
G04 #@! TA.AperFunction,ComponentPad*
%ADD39O,3.197860X1.998980*%
G04 #@! TD*
G04 #@! TA.AperFunction,ViaPad*
%ADD40C,3.500120*%
G04 #@! TD*
G04 #@! TA.AperFunction,ComponentPad*
%ADD41C,1.501140*%
G04 #@! TD*
G04 #@! TA.AperFunction,ViaPad*
%ADD42C,0.800000*%
G04 #@! TD*
G04 #@! TA.AperFunction,Conductor*
%ADD43C,0.250000*%
G04 #@! TD*
G04 #@! TA.AperFunction,Conductor*
%ADD44C,0.300000*%
G04 #@! TD*
G04 #@! TA.AperFunction,Conductor*
%ADD45C,0.500000*%
G04 #@! TD*
G04 APERTURE END LIST*
D10*
G04 #@! TO.P,Y1,2*
G04 #@! TO.N,Net-(R30-Pad1)*
X66749000Y-57658000D03*
G04 #@! TO.P,Y1,1*
G04 #@! TO.N,Net-(R29-Pad2)*
X61849000Y-57658000D03*
G04 #@! TD*
D11*
G04 #@! TO.P,J3,B28*
G04 #@! TO.N,N/C*
X215592000Y-27154500D03*
G04 #@! TO.P,J3,B27*
G04 #@! TO.N,A10*
X213052000Y-27154500D03*
G04 #@! TO.P,J3,B26*
G04 #@! TO.N,A8*
X210512000Y-27154500D03*
G04 #@! TO.P,J3,B25*
G04 #@! TO.N,RFSH*
X207972000Y-27154500D03*
G04 #@! TO.P,J3,B24*
G04 #@! TO.N,M1*
X205432000Y-27154500D03*
G04 #@! TO.P,J3,B23*
G04 #@! TO.N,N/C*
X202892000Y-27154500D03*
G04 #@! TO.P,J3,B22*
X200352000Y-27154500D03*
G04 #@! TO.P,J3,B21*
G04 #@! TO.N,WAIT*
X197812000Y-27154500D03*
G04 #@! TO.P,J3,B20*
G04 #@! TO.N,N/C*
X195272000Y-27154500D03*
G04 #@! TO.P,J3,B19*
G04 #@! TO.N,WR*
X192732000Y-27154500D03*
G04 #@! TO.P,J3,B18*
G04 #@! TO.N,RD*
X190192000Y-27154500D03*
G04 #@! TO.P,J3,B17*
G04 #@! TO.N,IORQ*
X187652000Y-27154500D03*
G04 #@! TO.P,J3,B16*
G04 #@! TO.N,MREQ*
X185112000Y-27154500D03*
G04 #@! TO.P,J3,B15*
G04 #@! TO.N,HALT*
X182572000Y-27154500D03*
G04 #@! TO.P,J3,B14*
G04 #@! TO.N,NMI*
X180032000Y-27154500D03*
G04 #@! TO.P,J3,B13*
G04 #@! TO.N,INT*
X177492000Y-27154500D03*
G04 #@! TO.P,J3,B12*
G04 #@! TO.N,D4*
X174952000Y-27154500D03*
G04 #@! TO.P,J3,B11*
G04 #@! TO.N,D3*
X172412000Y-27154500D03*
G04 #@! TO.P,J3,B10*
G04 #@! TO.N,D5*
X169872000Y-27154500D03*
G04 #@! TO.P,J3,B9*
G04 #@! TO.N,D6*
X167332000Y-27154500D03*
G04 #@! TO.P,J3,B8*
G04 #@! TO.N,D2*
X164792000Y-27154500D03*
G04 #@! TO.P,J3,B7*
G04 #@! TO.N,D1*
X162252000Y-27154500D03*
G04 #@! TO.P,J3,B6*
G04 #@! TO.N,D0*
X159712000Y-27154500D03*
G04 #@! TO.P,J3,B4*
G04 #@! TO.N,N/C*
X154632000Y-27154500D03*
G04 #@! TO.P,J3,B3*
G04 #@! TO.N,D7*
X152092000Y-27154500D03*
G04 #@! TO.P,J3,B2*
G04 #@! TO.N,A13*
X149552000Y-27154500D03*
G04 #@! TO.P,J3,B1*
G04 #@! TO.N,A15*
X147012000Y-27154500D03*
G04 #@! TD*
D12*
G04 #@! TO.P,U1,1*
G04 #@! TO.N,A11*
X165989000Y-44577000D03*
D13*
G04 #@! TO.P,U1,21*
G04 #@! TO.N,RD*
X181229000Y-92837000D03*
G04 #@! TO.P,U1,2*
G04 #@! TO.N,A12*
X165989000Y-47117000D03*
G04 #@! TO.P,U1,22*
G04 #@! TO.N,WR*
X181229000Y-90297000D03*
G04 #@! TO.P,U1,3*
G04 #@! TO.N,A13*
X165989000Y-49657000D03*
G04 #@! TO.P,U1,23*
G04 #@! TO.N,BUSACK*
X181229000Y-87757000D03*
G04 #@! TO.P,U1,4*
G04 #@! TO.N,A14*
X165989000Y-52197000D03*
G04 #@! TO.P,U1,24*
G04 #@! TO.N,WAIT*
X181229000Y-85217000D03*
G04 #@! TO.P,U1,5*
G04 #@! TO.N,A15*
X165989000Y-54737000D03*
G04 #@! TO.P,U1,25*
G04 #@! TO.N,BUSRQ*
X181229000Y-82677000D03*
G04 #@! TO.P,U1,6*
G04 #@! TO.N,CLK*
X165989000Y-57277000D03*
G04 #@! TO.P,U1,26*
G04 #@! TO.N,~RESET*
X181229000Y-80137000D03*
G04 #@! TO.P,U1,7*
G04 #@! TO.N,D4*
X165989000Y-59817000D03*
G04 #@! TO.P,U1,27*
G04 #@! TO.N,M1*
X181229000Y-77597000D03*
G04 #@! TO.P,U1,8*
G04 #@! TO.N,D3*
X165989000Y-62357000D03*
G04 #@! TO.P,U1,28*
G04 #@! TO.N,RFSH*
X181229000Y-75057000D03*
G04 #@! TO.P,U1,9*
G04 #@! TO.N,D5*
X165989000Y-64897000D03*
G04 #@! TO.P,U1,29*
G04 #@! TO.N,GND*
X181229000Y-72517000D03*
G04 #@! TO.P,U1,10*
G04 #@! TO.N,D6*
X165989000Y-67437000D03*
G04 #@! TO.P,U1,30*
G04 #@! TO.N,A0*
X181229000Y-69977000D03*
G04 #@! TO.P,U1,11*
G04 #@! TO.N,+5V*
X165989000Y-69977000D03*
G04 #@! TO.P,U1,31*
G04 #@! TO.N,A1*
X181229000Y-67437000D03*
G04 #@! TO.P,U1,12*
G04 #@! TO.N,D2*
X165989000Y-72517000D03*
G04 #@! TO.P,U1,32*
G04 #@! TO.N,A2*
X181229000Y-64897000D03*
G04 #@! TO.P,U1,13*
G04 #@! TO.N,D7*
X165989000Y-75057000D03*
G04 #@! TO.P,U1,33*
G04 #@! TO.N,A3*
X181229000Y-62357000D03*
G04 #@! TO.P,U1,14*
G04 #@! TO.N,D0*
X165989000Y-77597000D03*
G04 #@! TO.P,U1,34*
G04 #@! TO.N,A4*
X181229000Y-59817000D03*
G04 #@! TO.P,U1,15*
G04 #@! TO.N,D1*
X165989000Y-80137000D03*
G04 #@! TO.P,U1,35*
G04 #@! TO.N,A5*
X181229000Y-57277000D03*
G04 #@! TO.P,U1,16*
G04 #@! TO.N,INT*
X165989000Y-82677000D03*
G04 #@! TO.P,U1,36*
G04 #@! TO.N,A6*
X181229000Y-54737000D03*
G04 #@! TO.P,U1,17*
G04 #@! TO.N,NMI*
X165989000Y-85217000D03*
G04 #@! TO.P,U1,37*
G04 #@! TO.N,A7*
X181229000Y-52197000D03*
G04 #@! TO.P,U1,18*
G04 #@! TO.N,HALT*
X165989000Y-87757000D03*
G04 #@! TO.P,U1,38*
G04 #@! TO.N,A8*
X181229000Y-49657000D03*
G04 #@! TO.P,U1,19*
G04 #@! TO.N,MREQ*
X165989000Y-90297000D03*
G04 #@! TO.P,U1,39*
G04 #@! TO.N,A9*
X181229000Y-47117000D03*
G04 #@! TO.P,U1,20*
G04 #@! TO.N,IORQ*
X165989000Y-92837000D03*
G04 #@! TO.P,U1,40*
G04 #@! TO.N,A10*
X181229000Y-44577000D03*
G04 #@! TD*
D14*
G04 #@! TO.P,C1,1*
G04 #@! TO.N,~RESET*
X186690000Y-90170000D03*
D15*
G04 #@! TO.P,C1,2*
G04 #@! TO.N,GND*
X190490000Y-90170000D03*
G04 #@! TD*
D16*
G04 #@! TO.P,Q1,1*
G04 #@! TO.N,GND*
X207010000Y-87630000D03*
D17*
G04 #@! TO.P,Q1,3*
G04 #@! TO.N,S0*
X207010000Y-90170000D03*
G04 #@! TO.P,Q1,2*
G04 #@! TO.N,A11*
X207010000Y-88900000D03*
G04 #@! TD*
G04 #@! TO.P,Q2,2*
G04 #@! TO.N,A10*
X209550000Y-83820000D03*
G04 #@! TO.P,Q2,3*
G04 #@! TO.N,S1*
X209550000Y-85090000D03*
D16*
G04 #@! TO.P,Q2,1*
G04 #@! TO.N,GND*
X209550000Y-82550000D03*
G04 #@! TD*
G04 #@! TO.P,Q3,1*
G04 #@! TO.N,GND*
X212090000Y-87630000D03*
D17*
G04 #@! TO.P,Q3,3*
G04 #@! TO.N,S2*
X212090000Y-90170000D03*
G04 #@! TO.P,Q3,2*
G04 #@! TO.N,A9*
X212090000Y-88900000D03*
G04 #@! TD*
G04 #@! TO.P,Q4,2*
G04 #@! TO.N,A12*
X214630000Y-83820000D03*
G04 #@! TO.P,Q4,3*
G04 #@! TO.N,S3*
X214630000Y-85090000D03*
D16*
G04 #@! TO.P,Q4,1*
G04 #@! TO.N,GND*
X214630000Y-82550000D03*
G04 #@! TD*
G04 #@! TO.P,Q5,1*
G04 #@! TO.N,GND*
X217170000Y-87630000D03*
D17*
G04 #@! TO.P,Q5,3*
G04 #@! TO.N,S4*
X217170000Y-90170000D03*
G04 #@! TO.P,Q5,2*
G04 #@! TO.N,A13*
X217170000Y-88900000D03*
G04 #@! TD*
G04 #@! TO.P,Q6,2*
G04 #@! TO.N,A8*
X219710000Y-83820000D03*
G04 #@! TO.P,Q6,3*
G04 #@! TO.N,S5*
X219710000Y-85090000D03*
D16*
G04 #@! TO.P,Q6,1*
G04 #@! TO.N,GND*
X219710000Y-82550000D03*
G04 #@! TD*
G04 #@! TO.P,Q7,1*
G04 #@! TO.N,GND*
X222250000Y-87630000D03*
D17*
G04 #@! TO.P,Q7,3*
G04 #@! TO.N,S6*
X222250000Y-90170000D03*
G04 #@! TO.P,Q7,2*
G04 #@! TO.N,A14*
X222250000Y-88900000D03*
G04 #@! TD*
G04 #@! TO.P,Q8,2*
G04 #@! TO.N,A15*
X224790000Y-83820000D03*
G04 #@! TO.P,Q8,3*
G04 #@! TO.N,S7*
X224790000Y-85090000D03*
D16*
G04 #@! TO.P,Q8,1*
G04 #@! TO.N,GND*
X224790000Y-82550000D03*
G04 #@! TD*
D18*
G04 #@! TO.P,SW1,2*
G04 #@! TO.N,S0*
X59690000Y-111180000D03*
G04 #@! TO.P,SW1,1*
G04 #@! TO.N,KB0*
X59690000Y-106680000D03*
G04 #@! TO.P,SW1,2*
G04 #@! TO.N,S0*
X66190000Y-111180000D03*
G04 #@! TO.P,SW1,1*
G04 #@! TO.N,KB0*
X66190000Y-106680000D03*
G04 #@! TD*
G04 #@! TO.P,SW2,1*
G04 #@! TO.N,KB1*
X81430000Y-106680000D03*
G04 #@! TO.P,SW2,2*
G04 #@! TO.N,S0*
X81430000Y-111180000D03*
G04 #@! TO.P,SW2,1*
G04 #@! TO.N,KB1*
X74930000Y-106680000D03*
G04 #@! TO.P,SW2,2*
G04 #@! TO.N,S0*
X74930000Y-111180000D03*
G04 #@! TD*
G04 #@! TO.P,SW3,2*
G04 #@! TO.N,S0*
X90170000Y-111180000D03*
G04 #@! TO.P,SW3,1*
G04 #@! TO.N,KB2*
X90170000Y-106680000D03*
G04 #@! TO.P,SW3,2*
G04 #@! TO.N,S0*
X96670000Y-111180000D03*
G04 #@! TO.P,SW3,1*
G04 #@! TO.N,KB2*
X96670000Y-106680000D03*
G04 #@! TD*
G04 #@! TO.P,SW4,1*
G04 #@! TO.N,KB3*
X111910000Y-106680000D03*
G04 #@! TO.P,SW4,2*
G04 #@! TO.N,S0*
X111910000Y-111180000D03*
G04 #@! TO.P,SW4,1*
G04 #@! TO.N,KB3*
X105410000Y-106680000D03*
G04 #@! TO.P,SW4,2*
G04 #@! TO.N,S0*
X105410000Y-111180000D03*
G04 #@! TD*
G04 #@! TO.P,SW5,2*
G04 #@! TO.N,S0*
X120650000Y-111180000D03*
G04 #@! TO.P,SW5,1*
G04 #@! TO.N,KB4*
X120650000Y-106680000D03*
G04 #@! TO.P,SW5,2*
G04 #@! TO.N,S0*
X127150000Y-111180000D03*
G04 #@! TO.P,SW5,1*
G04 #@! TO.N,KB4*
X127150000Y-106680000D03*
G04 #@! TD*
G04 #@! TO.P,SW6,2*
G04 #@! TO.N,S3*
X135890000Y-111180000D03*
G04 #@! TO.P,SW6,1*
G04 #@! TO.N,KB4*
X135890000Y-106680000D03*
G04 #@! TO.P,SW6,2*
G04 #@! TO.N,S3*
X142390000Y-111180000D03*
G04 #@! TO.P,SW6,1*
G04 #@! TO.N,KB4*
X142390000Y-106680000D03*
G04 #@! TD*
G04 #@! TO.P,SW7,1*
G04 #@! TO.N,KB3*
X157630000Y-106680000D03*
G04 #@! TO.P,SW7,2*
G04 #@! TO.N,S3*
X157630000Y-111180000D03*
G04 #@! TO.P,SW7,1*
G04 #@! TO.N,KB3*
X151130000Y-106680000D03*
G04 #@! TO.P,SW7,2*
G04 #@! TO.N,S3*
X151130000Y-111180000D03*
G04 #@! TD*
G04 #@! TO.P,SW8,2*
G04 #@! TO.N,S3*
X166370000Y-111180000D03*
G04 #@! TO.P,SW8,1*
G04 #@! TO.N,KB2*
X166370000Y-106680000D03*
G04 #@! TO.P,SW8,2*
G04 #@! TO.N,S3*
X172870000Y-111180000D03*
G04 #@! TO.P,SW8,1*
G04 #@! TO.N,KB2*
X172870000Y-106680000D03*
G04 #@! TD*
G04 #@! TO.P,SW9,1*
G04 #@! TO.N,KB1*
X188110000Y-106680000D03*
G04 #@! TO.P,SW9,2*
G04 #@! TO.N,S3*
X188110000Y-111180000D03*
G04 #@! TO.P,SW9,1*
G04 #@! TO.N,KB1*
X181610000Y-106680000D03*
G04 #@! TO.P,SW9,2*
G04 #@! TO.N,S3*
X181610000Y-111180000D03*
G04 #@! TD*
G04 #@! TO.P,SW10,2*
G04 #@! TO.N,S3*
X196850000Y-111180000D03*
G04 #@! TO.P,SW10,1*
G04 #@! TO.N,KB0*
X196850000Y-106680000D03*
G04 #@! TO.P,SW10,2*
G04 #@! TO.N,S3*
X203350000Y-111180000D03*
G04 #@! TO.P,SW10,1*
G04 #@! TO.N,KB0*
X203350000Y-106680000D03*
G04 #@! TD*
G04 #@! TO.P,SW11,1*
G04 #@! TO.N,KB0*
X71270000Y-119380000D03*
G04 #@! TO.P,SW11,2*
G04 #@! TO.N,S1*
X71270000Y-123880000D03*
G04 #@! TO.P,SW11,1*
G04 #@! TO.N,KB0*
X64770000Y-119380000D03*
G04 #@! TO.P,SW11,2*
G04 #@! TO.N,S1*
X64770000Y-123880000D03*
G04 #@! TD*
G04 #@! TO.P,SW12,2*
G04 #@! TO.N,S1*
X80010000Y-123880000D03*
G04 #@! TO.P,SW12,1*
G04 #@! TO.N,KB1*
X80010000Y-119380000D03*
G04 #@! TO.P,SW12,2*
G04 #@! TO.N,S1*
X86510000Y-123880000D03*
G04 #@! TO.P,SW12,1*
G04 #@! TO.N,KB1*
X86510000Y-119380000D03*
G04 #@! TD*
G04 #@! TO.P,SW13,1*
G04 #@! TO.N,KB2*
X101750000Y-119380000D03*
G04 #@! TO.P,SW13,2*
G04 #@! TO.N,S1*
X101750000Y-123880000D03*
G04 #@! TO.P,SW13,1*
G04 #@! TO.N,KB2*
X95250000Y-119380000D03*
G04 #@! TO.P,SW13,2*
G04 #@! TO.N,S1*
X95250000Y-123880000D03*
G04 #@! TD*
G04 #@! TO.P,SW14,2*
G04 #@! TO.N,S1*
X110490000Y-123880000D03*
G04 #@! TO.P,SW14,1*
G04 #@! TO.N,KB3*
X110490000Y-119380000D03*
G04 #@! TO.P,SW14,2*
G04 #@! TO.N,S1*
X116990000Y-123880000D03*
G04 #@! TO.P,SW14,1*
G04 #@! TO.N,KB3*
X116990000Y-119380000D03*
G04 #@! TD*
G04 #@! TO.P,SW15,1*
G04 #@! TO.N,KB4*
X132230000Y-119380000D03*
G04 #@! TO.P,SW15,2*
G04 #@! TO.N,S1*
X132230000Y-123880000D03*
G04 #@! TO.P,SW15,1*
G04 #@! TO.N,KB4*
X125730000Y-119380000D03*
G04 #@! TO.P,SW15,2*
G04 #@! TO.N,S1*
X125730000Y-123880000D03*
G04 #@! TD*
G04 #@! TO.P,SW16,1*
G04 #@! TO.N,KB4*
X147470000Y-119380000D03*
G04 #@! TO.P,SW16,2*
G04 #@! TO.N,S4*
X147470000Y-123880000D03*
G04 #@! TO.P,SW16,1*
G04 #@! TO.N,KB4*
X140970000Y-119380000D03*
G04 #@! TO.P,SW16,2*
G04 #@! TO.N,S4*
X140970000Y-123880000D03*
G04 #@! TD*
G04 #@! TO.P,SW17,2*
G04 #@! TO.N,S4*
X156210000Y-123880000D03*
G04 #@! TO.P,SW17,1*
G04 #@! TO.N,KB3*
X156210000Y-119380000D03*
G04 #@! TO.P,SW17,2*
G04 #@! TO.N,S4*
X162710000Y-123880000D03*
G04 #@! TO.P,SW17,1*
G04 #@! TO.N,KB3*
X162710000Y-119380000D03*
G04 #@! TD*
G04 #@! TO.P,SW18,1*
G04 #@! TO.N,KB2*
X177950000Y-119380000D03*
G04 #@! TO.P,SW18,2*
G04 #@! TO.N,S4*
X177950000Y-123880000D03*
G04 #@! TO.P,SW18,1*
G04 #@! TO.N,KB2*
X171450000Y-119380000D03*
G04 #@! TO.P,SW18,2*
G04 #@! TO.N,S4*
X171450000Y-123880000D03*
G04 #@! TD*
G04 #@! TO.P,SW19,2*
G04 #@! TO.N,S4*
X186690000Y-123880000D03*
G04 #@! TO.P,SW19,1*
G04 #@! TO.N,KB1*
X186690000Y-119380000D03*
G04 #@! TO.P,SW19,2*
G04 #@! TO.N,S4*
X193190000Y-123880000D03*
G04 #@! TO.P,SW19,1*
G04 #@! TO.N,KB1*
X193190000Y-119380000D03*
G04 #@! TD*
G04 #@! TO.P,SW20,1*
G04 #@! TO.N,KB0*
X208430000Y-119380000D03*
G04 #@! TO.P,SW20,2*
G04 #@! TO.N,S4*
X208430000Y-123880000D03*
G04 #@! TO.P,SW20,1*
G04 #@! TO.N,KB0*
X201930000Y-119380000D03*
G04 #@! TO.P,SW20,2*
G04 #@! TO.N,S4*
X201930000Y-123880000D03*
G04 #@! TD*
G04 #@! TO.P,SW21,1*
G04 #@! TO.N,KB0*
X76350000Y-132080000D03*
G04 #@! TO.P,SW21,2*
G04 #@! TO.N,S2*
X76350000Y-136580000D03*
G04 #@! TO.P,SW21,1*
G04 #@! TO.N,KB0*
X69850000Y-132080000D03*
G04 #@! TO.P,SW21,2*
G04 #@! TO.N,S2*
X69850000Y-136580000D03*
G04 #@! TD*
G04 #@! TO.P,SW22,2*
G04 #@! TO.N,S2*
X85090000Y-136580000D03*
G04 #@! TO.P,SW22,1*
G04 #@! TO.N,KB1*
X85090000Y-132080000D03*
G04 #@! TO.P,SW22,2*
G04 #@! TO.N,S2*
X91590000Y-136580000D03*
G04 #@! TO.P,SW22,1*
G04 #@! TO.N,KB1*
X91590000Y-132080000D03*
G04 #@! TD*
G04 #@! TO.P,SW23,1*
G04 #@! TO.N,KB2*
X106830000Y-132080000D03*
G04 #@! TO.P,SW23,2*
G04 #@! TO.N,S2*
X106830000Y-136580000D03*
G04 #@! TO.P,SW23,1*
G04 #@! TO.N,KB2*
X100330000Y-132080000D03*
G04 #@! TO.P,SW23,2*
G04 #@! TO.N,S2*
X100330000Y-136580000D03*
G04 #@! TD*
G04 #@! TO.P,SW24,2*
G04 #@! TO.N,S2*
X115570000Y-136580000D03*
G04 #@! TO.P,SW24,1*
G04 #@! TO.N,KB3*
X115570000Y-132080000D03*
G04 #@! TO.P,SW24,2*
G04 #@! TO.N,S2*
X122070000Y-136580000D03*
G04 #@! TO.P,SW24,1*
G04 #@! TO.N,KB3*
X122070000Y-132080000D03*
G04 #@! TD*
G04 #@! TO.P,SW25,1*
G04 #@! TO.N,KB4*
X137310000Y-132080000D03*
G04 #@! TO.P,SW25,2*
G04 #@! TO.N,S2*
X137310000Y-136580000D03*
G04 #@! TO.P,SW25,1*
G04 #@! TO.N,KB4*
X130810000Y-132080000D03*
G04 #@! TO.P,SW25,2*
G04 #@! TO.N,S2*
X130810000Y-136580000D03*
G04 #@! TD*
G04 #@! TO.P,SW26,1*
G04 #@! TO.N,KB4*
X152550000Y-132080000D03*
G04 #@! TO.P,SW26,2*
G04 #@! TO.N,S6*
X152550000Y-136580000D03*
G04 #@! TO.P,SW26,1*
G04 #@! TO.N,KB4*
X146050000Y-132080000D03*
G04 #@! TO.P,SW26,2*
G04 #@! TO.N,S6*
X146050000Y-136580000D03*
G04 #@! TD*
G04 #@! TO.P,SW27,2*
G04 #@! TO.N,S6*
X161290000Y-136580000D03*
G04 #@! TO.P,SW27,1*
G04 #@! TO.N,KB3*
X161290000Y-132080000D03*
G04 #@! TO.P,SW27,2*
G04 #@! TO.N,S6*
X167790000Y-136580000D03*
G04 #@! TO.P,SW27,1*
G04 #@! TO.N,KB3*
X167790000Y-132080000D03*
G04 #@! TD*
G04 #@! TO.P,SW28,1*
G04 #@! TO.N,KB2*
X183030000Y-132080000D03*
G04 #@! TO.P,SW28,2*
G04 #@! TO.N,S6*
X183030000Y-136580000D03*
G04 #@! TO.P,SW28,1*
G04 #@! TO.N,KB2*
X176530000Y-132080000D03*
G04 #@! TO.P,SW28,2*
G04 #@! TO.N,S6*
X176530000Y-136580000D03*
G04 #@! TD*
G04 #@! TO.P,SW29,2*
G04 #@! TO.N,S6*
X191770000Y-136580000D03*
G04 #@! TO.P,SW29,1*
G04 #@! TO.N,KB1*
X191770000Y-132080000D03*
G04 #@! TO.P,SW29,2*
G04 #@! TO.N,S6*
X198270000Y-136580000D03*
G04 #@! TO.P,SW29,1*
G04 #@! TO.N,KB1*
X198270000Y-132080000D03*
G04 #@! TD*
G04 #@! TO.P,SW30,1*
G04 #@! TO.N,KB0*
X213510000Y-132080000D03*
G04 #@! TO.P,SW30,2*
G04 #@! TO.N,S6*
X213510000Y-136580000D03*
G04 #@! TO.P,SW30,1*
G04 #@! TO.N,KB0*
X207010000Y-132080000D03*
G04 #@! TO.P,SW30,2*
G04 #@! TO.N,S6*
X207010000Y-136580000D03*
G04 #@! TD*
G04 #@! TO.P,SW31,2*
G04 #@! TO.N,S5*
X59690000Y-149280000D03*
G04 #@! TO.P,SW31,1*
G04 #@! TO.N,KB0*
X59690000Y-144780000D03*
G04 #@! TO.P,SW31,2*
G04 #@! TO.N,S5*
X66190000Y-149280000D03*
G04 #@! TO.P,SW31,1*
G04 #@! TO.N,KB0*
X66190000Y-144780000D03*
G04 #@! TD*
G04 #@! TO.P,SW32,1*
G04 #@! TO.N,KB1*
X81430000Y-144780000D03*
G04 #@! TO.P,SW32,2*
G04 #@! TO.N,S5*
X81430000Y-149280000D03*
G04 #@! TO.P,SW32,1*
G04 #@! TO.N,KB1*
X74930000Y-144780000D03*
G04 #@! TO.P,SW32,2*
G04 #@! TO.N,S5*
X74930000Y-149280000D03*
G04 #@! TD*
G04 #@! TO.P,SW33,2*
G04 #@! TO.N,S5*
X90170000Y-149280000D03*
G04 #@! TO.P,SW33,1*
G04 #@! TO.N,KB2*
X90170000Y-144780000D03*
G04 #@! TO.P,SW33,2*
G04 #@! TO.N,S5*
X96670000Y-149280000D03*
G04 #@! TO.P,SW33,1*
G04 #@! TO.N,KB2*
X96670000Y-144780000D03*
G04 #@! TD*
G04 #@! TO.P,SW34,1*
G04 #@! TO.N,KB3*
X111910000Y-144780000D03*
G04 #@! TO.P,SW34,2*
G04 #@! TO.N,S5*
X111910000Y-149280000D03*
G04 #@! TO.P,SW34,1*
G04 #@! TO.N,KB3*
X105410000Y-144780000D03*
G04 #@! TO.P,SW34,2*
G04 #@! TO.N,S5*
X105410000Y-149280000D03*
G04 #@! TD*
G04 #@! TO.P,SW35,2*
G04 #@! TO.N,S5*
X120650000Y-149280000D03*
G04 #@! TO.P,SW35,1*
G04 #@! TO.N,KB4*
X120650000Y-144780000D03*
G04 #@! TO.P,SW35,2*
G04 #@! TO.N,S5*
X127150000Y-149280000D03*
G04 #@! TO.P,SW35,1*
G04 #@! TO.N,KB4*
X127150000Y-144780000D03*
G04 #@! TD*
G04 #@! TO.P,SW36,2*
G04 #@! TO.N,S7*
X135890000Y-149280000D03*
G04 #@! TO.P,SW36,1*
G04 #@! TO.N,KB4*
X135890000Y-144780000D03*
G04 #@! TO.P,SW36,2*
G04 #@! TO.N,S7*
X142390000Y-149280000D03*
G04 #@! TO.P,SW36,1*
G04 #@! TO.N,KB4*
X142390000Y-144780000D03*
G04 #@! TD*
G04 #@! TO.P,SW37,1*
G04 #@! TO.N,KB3*
X157630000Y-144780000D03*
G04 #@! TO.P,SW37,2*
G04 #@! TO.N,S7*
X157630000Y-149280000D03*
G04 #@! TO.P,SW37,1*
G04 #@! TO.N,KB3*
X151130000Y-144780000D03*
G04 #@! TO.P,SW37,2*
G04 #@! TO.N,S7*
X151130000Y-149280000D03*
G04 #@! TD*
G04 #@! TO.P,SW38,2*
G04 #@! TO.N,S7*
X166370000Y-149280000D03*
G04 #@! TO.P,SW38,1*
G04 #@! TO.N,KB2*
X166370000Y-144780000D03*
G04 #@! TO.P,SW38,2*
G04 #@! TO.N,S7*
X172870000Y-149280000D03*
G04 #@! TO.P,SW38,1*
G04 #@! TO.N,KB2*
X172870000Y-144780000D03*
G04 #@! TD*
G04 #@! TO.P,SW39,1*
G04 #@! TO.N,KB1*
X188110000Y-144780000D03*
G04 #@! TO.P,SW39,2*
G04 #@! TO.N,S7*
X188110000Y-149280000D03*
G04 #@! TO.P,SW39,1*
G04 #@! TO.N,KB1*
X181610000Y-144780000D03*
G04 #@! TO.P,SW39,2*
G04 #@! TO.N,S7*
X181610000Y-149280000D03*
G04 #@! TD*
G04 #@! TO.P,SW40,2*
G04 #@! TO.N,S7*
X196850000Y-149280000D03*
G04 #@! TO.P,SW40,1*
G04 #@! TO.N,KB0*
X196850000Y-144780000D03*
G04 #@! TO.P,SW40,2*
G04 #@! TO.N,S7*
X203350000Y-149280000D03*
G04 #@! TO.P,SW40,1*
G04 #@! TO.N,KB0*
X203350000Y-144780000D03*
G04 #@! TD*
D14*
G04 #@! TO.P,RN1,1*
G04 #@! TO.N,+5V*
X194310000Y-97790000D03*
D19*
G04 #@! TO.P,RN1,2*
G04 #@! TO.N,S0*
X196850000Y-97790000D03*
G04 #@! TO.P,RN1,3*
G04 #@! TO.N,S1*
X199390000Y-97790000D03*
G04 #@! TO.P,RN1,4*
G04 #@! TO.N,S2*
X201930000Y-97790000D03*
G04 #@! TO.P,RN1,5*
G04 #@! TO.N,S3*
X204470000Y-97790000D03*
G04 #@! TO.P,RN1,6*
G04 #@! TO.N,S4*
X207010000Y-97790000D03*
G04 #@! TO.P,RN1,7*
G04 #@! TO.N,S5*
X209550000Y-97790000D03*
G04 #@! TO.P,RN1,8*
G04 #@! TO.N,S6*
X212090000Y-97790000D03*
G04 #@! TO.P,RN1,9*
G04 #@! TO.N,S7*
X214630000Y-97790000D03*
G04 #@! TD*
D14*
G04 #@! TO.P,RN2,1*
G04 #@! TO.N,+5V*
X57150000Y-97790000D03*
D19*
G04 #@! TO.P,RN2,2*
G04 #@! TO.N,KB0*
X59690000Y-97790000D03*
G04 #@! TO.P,RN2,3*
G04 #@! TO.N,KB1*
X62230000Y-97790000D03*
G04 #@! TO.P,RN2,4*
G04 #@! TO.N,KB2*
X64770000Y-97790000D03*
G04 #@! TO.P,RN2,5*
G04 #@! TO.N,KB3*
X67310000Y-97790000D03*
G04 #@! TO.P,RN2,6*
G04 #@! TO.N,KB4*
X69850000Y-97790000D03*
G04 #@! TD*
G04 #@! TO.P,R1,2*
G04 #@! TO.N,CLK*
X137668000Y-39370000D03*
D15*
G04 #@! TO.P,R1,1*
G04 #@! TO.N,+5V*
X145288000Y-39370000D03*
G04 #@! TD*
G04 #@! TO.P,R2,1*
G04 #@! TO.N,+5V*
X145288000Y-35814000D03*
D19*
G04 #@! TO.P,R2,2*
G04 #@! TO.N,NMI*
X137668000Y-35814000D03*
G04 #@! TD*
G04 #@! TO.P,R3,2*
G04 #@! TO.N,WAIT*
X155194000Y-41656000D03*
D15*
G04 #@! TO.P,R3,1*
G04 #@! TO.N,+5V*
X147574000Y-41656000D03*
G04 #@! TD*
G04 #@! TO.P,R4,1*
G04 #@! TO.N,+5V*
X147574000Y-37846000D03*
D19*
G04 #@! TO.P,R4,2*
G04 #@! TO.N,BUSRQ*
X155194000Y-37846000D03*
G04 #@! TD*
D20*
G04 #@! TO.P,C2,1*
G04 #@! TO.N,+9V*
X232410000Y-58420000D03*
D18*
G04 #@! TO.P,C2,2*
G04 #@! TO.N,GND*
X235910000Y-58420000D03*
G04 #@! TD*
D15*
G04 #@! TO.P,C3,1*
G04 #@! TO.N,+5V*
X235712000Y-81026000D03*
G04 #@! TO.P,C3,2*
G04 #@! TO.N,GND*
X238212000Y-81026000D03*
G04 #@! TD*
D21*
G04 #@! TO.P,D1,4*
G04 #@! TO.N,Net-(D1-Pad4)*
X237490000Y-43180000D03*
G04 #@! TO.P,D1,2*
G04 #@! TO.N,GND*
X232410000Y-48260000D03*
G04 #@! TO.P,D1,3*
G04 #@! TO.N,Net-(D1-Pad3)*
X237490000Y-48260000D03*
D20*
G04 #@! TO.P,D1,1*
G04 #@! TO.N,+9V*
X232410000Y-43180000D03*
G04 #@! TD*
D22*
G04 #@! TO.P,J4,1*
G04 #@! TO.N,Net-(D1-Pad3)*
X234950000Y-36830000D03*
D23*
G04 #@! TD*
G04 #@! TO.N,Net-(D1-Pad4)*
G04 #@! TO.C,J4*
G36*
X236023513Y-29333611D02*
X236096318Y-29344411D01*
X236167714Y-29362295D01*
X236237013Y-29387090D01*
X236303548Y-29418559D01*
X236366678Y-29456398D01*
X236425795Y-29500242D01*
X236480330Y-29549670D01*
X236529758Y-29604205D01*
X236573602Y-29663322D01*
X236611441Y-29726452D01*
X236642910Y-29792987D01*
X236667705Y-29862286D01*
X236685589Y-29933682D01*
X236696389Y-30006487D01*
X236700000Y-30080000D01*
X236700000Y-31580000D01*
X236696389Y-31653513D01*
X236685589Y-31726318D01*
X236667705Y-31797714D01*
X236642910Y-31867013D01*
X236611441Y-31933548D01*
X236573602Y-31996678D01*
X236529758Y-32055795D01*
X236480330Y-32110330D01*
X236425795Y-32159758D01*
X236366678Y-32203602D01*
X236303548Y-32241441D01*
X236237013Y-32272910D01*
X236167714Y-32297705D01*
X236096318Y-32315589D01*
X236023513Y-32326389D01*
X235950000Y-32330000D01*
X233950000Y-32330000D01*
X233876487Y-32326389D01*
X233803682Y-32315589D01*
X233732286Y-32297705D01*
X233662987Y-32272910D01*
X233596452Y-32241441D01*
X233533322Y-32203602D01*
X233474205Y-32159758D01*
X233419670Y-32110330D01*
X233370242Y-32055795D01*
X233326398Y-31996678D01*
X233288559Y-31933548D01*
X233257090Y-31867013D01*
X233232295Y-31797714D01*
X233214411Y-31726318D01*
X233203611Y-31653513D01*
X233200000Y-31580000D01*
X233200000Y-30080000D01*
X233203611Y-30006487D01*
X233214411Y-29933682D01*
X233232295Y-29862286D01*
X233257090Y-29792987D01*
X233288559Y-29726452D01*
X233326398Y-29663322D01*
X233370242Y-29604205D01*
X233419670Y-29549670D01*
X233474205Y-29500242D01*
X233533322Y-29456398D01*
X233596452Y-29418559D01*
X233662987Y-29387090D01*
X233732286Y-29362295D01*
X233803682Y-29344411D01*
X233876487Y-29333611D01*
X233950000Y-29330000D01*
X235950000Y-29330000D01*
X236023513Y-29333611D01*
X236023513Y-29333611D01*
G37*
D24*
G04 #@! TO.P,J4,2*
G04 #@! TO.N,Net-(D1-Pad4)*
X234950000Y-30830000D03*
D23*
G04 #@! TD*
G04 #@! TO.N,N/C*
G04 #@! TO.C,J4*
G36*
X231210765Y-32084213D02*
X231295704Y-32096813D01*
X231378999Y-32117677D01*
X231459848Y-32146605D01*
X231537472Y-32183319D01*
X231611124Y-32227464D01*
X231680094Y-32278616D01*
X231743718Y-32336282D01*
X231801384Y-32399906D01*
X231852536Y-32468876D01*
X231896681Y-32542528D01*
X231933395Y-32620152D01*
X231962323Y-32701001D01*
X231983187Y-32784296D01*
X231995787Y-32869235D01*
X232000000Y-32955000D01*
X232000000Y-34705000D01*
X231995787Y-34790765D01*
X231983187Y-34875704D01*
X231962323Y-34958999D01*
X231933395Y-35039848D01*
X231896681Y-35117472D01*
X231852536Y-35191124D01*
X231801384Y-35260094D01*
X231743718Y-35323718D01*
X231680094Y-35381384D01*
X231611124Y-35432536D01*
X231537472Y-35476681D01*
X231459848Y-35513395D01*
X231378999Y-35542323D01*
X231295704Y-35563187D01*
X231210765Y-35575787D01*
X231125000Y-35580000D01*
X229375000Y-35580000D01*
X229289235Y-35575787D01*
X229204296Y-35563187D01*
X229121001Y-35542323D01*
X229040152Y-35513395D01*
X228962528Y-35476681D01*
X228888876Y-35432536D01*
X228819906Y-35381384D01*
X228756282Y-35323718D01*
X228698616Y-35260094D01*
X228647464Y-35191124D01*
X228603319Y-35117472D01*
X228566605Y-35039848D01*
X228537677Y-34958999D01*
X228516813Y-34875704D01*
X228504213Y-34790765D01*
X228500000Y-34705000D01*
X228500000Y-32955000D01*
X228504213Y-32869235D01*
X228516813Y-32784296D01*
X228537677Y-32701001D01*
X228566605Y-32620152D01*
X228603319Y-32542528D01*
X228647464Y-32468876D01*
X228698616Y-32399906D01*
X228756282Y-32336282D01*
X228819906Y-32278616D01*
X228888876Y-32227464D01*
X228962528Y-32183319D01*
X229040152Y-32146605D01*
X229121001Y-32117677D01*
X229204296Y-32096813D01*
X229289235Y-32084213D01*
X229375000Y-32080000D01*
X231125000Y-32080000D01*
X231210765Y-32084213D01*
X231210765Y-32084213D01*
G37*
D25*
G04 #@! TO.P,J4,3*
G04 #@! TO.N,N/C*
X230250000Y-33830000D03*
G04 #@! TD*
D26*
G04 #@! TO.P,U2,1*
G04 #@! TO.N,+9V*
X236220000Y-74930000D03*
D27*
G04 #@! TO.P,U2,2*
G04 #@! TO.N,GND*
X233680000Y-74930000D03*
G04 #@! TO.P,U2,3*
G04 #@! TO.N,+5V*
X231140000Y-74930000D03*
G04 #@! TD*
D28*
G04 #@! TO.P,J5,1*
G04 #@! TO.N,Net-(C16-Pad1)*
X82550000Y-29210000D03*
D29*
G04 #@! TO.P,J5,4*
G04 #@! TO.N,N/C*
X83050000Y-36510000D03*
D30*
G04 #@! TO.P,J5,5*
X89650000Y-32110000D03*
G04 #@! TO.P,J5,2*
X92350000Y-33310000D03*
D29*
G04 #@! TO.P,J5,3*
G04 #@! TO.N,GND*
X87150000Y-25310000D03*
G04 #@! TD*
G04 #@! TO.P,J6,3*
G04 #@! TO.N,GND*
X101120000Y-25310000D03*
D30*
G04 #@! TO.P,J6,2*
G04 #@! TO.N,N/C*
X106320000Y-33310000D03*
G04 #@! TO.P,J6,5*
X103620000Y-32110000D03*
D29*
G04 #@! TO.P,J6,4*
X97020000Y-36510000D03*
D28*
G04 #@! TO.P,J6,1*
G04 #@! TO.N,Net-(C17-Pad1)*
X96520000Y-29210000D03*
G04 #@! TD*
D31*
G04 #@! TO.P,J8,1*
G04 #@! TO.N,GND*
X189230000Y-97790000D03*
D32*
G04 #@! TO.P,J8,2*
G04 #@! TO.N,~RESET*
X186690000Y-97790000D03*
G04 #@! TD*
D15*
G04 #@! TO.P,C4,1*
G04 #@! TO.N,EAR*
X232410000Y-102870000D03*
G04 #@! TO.P,C4,2*
G04 #@! TO.N,Net-(C4-Pad2)*
X232410000Y-105370000D03*
G04 #@! TD*
D31*
G04 #@! TO.P,J9,1*
G04 #@! TO.N,Net-(J9-Pad1)*
X218440000Y-116840000D03*
D32*
G04 #@! TO.P,J9,2*
G04 #@! TO.N,Net-(J9-Pad2)*
X218440000Y-119380000D03*
G04 #@! TO.P,J9,3*
G04 #@! TO.N,GND*
X218440000Y-121920000D03*
G04 #@! TD*
D20*
G04 #@! TO.P,LS1,1*
G04 #@! TO.N,Net-(J9-Pad2)*
X226060000Y-124460000D03*
D18*
G04 #@! TO.P,LS1,2*
G04 #@! TO.N,GND*
X233660000Y-124460000D03*
G04 #@! TD*
D17*
G04 #@! TO.P,Q9,2*
G04 #@! TO.N,Net-(D2-Pad1)*
X224790000Y-116840000D03*
G04 #@! TO.P,Q9,3*
G04 #@! TO.N,Net-(J9-Pad1)*
X224790000Y-118110000D03*
D16*
G04 #@! TO.P,Q9,1*
G04 #@! TO.N,+5V*
X224790000Y-115570000D03*
G04 #@! TD*
D15*
G04 #@! TO.P,R5,1*
G04 #@! TO.N,Net-(C4-Pad2)*
X232410000Y-110490000D03*
D19*
G04 #@! TO.P,R5,2*
G04 #@! TO.N,Net-(D2-Pad1)*
X232410000Y-118110000D03*
G04 #@! TD*
D14*
G04 #@! TO.P,RN3,1*
G04 #@! TO.N,+5V*
X158750000Y-99060000D03*
D19*
G04 #@! TO.P,RN3,2*
G04 #@! TO.N,D0*
X156210000Y-99060000D03*
G04 #@! TO.P,RN3,3*
G04 #@! TO.N,D1*
X153670000Y-99060000D03*
G04 #@! TO.P,RN3,4*
G04 #@! TO.N,D2*
X151130000Y-99060000D03*
G04 #@! TO.P,RN3,5*
G04 #@! TO.N,D3*
X148590000Y-99060000D03*
G04 #@! TO.P,RN3,6*
G04 #@! TO.N,D4*
X146050000Y-99060000D03*
G04 #@! TO.P,RN3,7*
G04 #@! TO.N,D5*
X143510000Y-99060000D03*
G04 #@! TO.P,RN3,8*
G04 #@! TO.N,D6*
X140970000Y-99060000D03*
G04 #@! TO.P,RN3,9*
G04 #@! TO.N,D7*
X138430000Y-99060000D03*
G04 #@! TD*
D14*
G04 #@! TO.P,U3,1*
G04 #@! TO.N,+5V*
X209550000Y-44450000D03*
D19*
G04 #@! TO.P,U3,15*
G04 #@! TO.N,D3*
X224790000Y-77470000D03*
G04 #@! TO.P,U3,2*
G04 #@! TO.N,A12*
X209550000Y-46990000D03*
G04 #@! TO.P,U3,16*
G04 #@! TO.N,D4*
X224790000Y-74930000D03*
G04 #@! TO.P,U3,3*
G04 #@! TO.N,A7*
X209550000Y-49530000D03*
G04 #@! TO.P,U3,17*
G04 #@! TO.N,D5*
X224790000Y-72390000D03*
G04 #@! TO.P,U3,4*
G04 #@! TO.N,A6*
X209550000Y-52070000D03*
G04 #@! TO.P,U3,18*
G04 #@! TO.N,D6*
X224790000Y-69850000D03*
G04 #@! TO.P,U3,5*
G04 #@! TO.N,A5*
X209550000Y-54610000D03*
G04 #@! TO.P,U3,19*
G04 #@! TO.N,D7*
X224790000Y-67310000D03*
G04 #@! TO.P,U3,6*
G04 #@! TO.N,A4*
X209550000Y-57150000D03*
G04 #@! TO.P,U3,20*
G04 #@! TO.N,ROM_CS*
X224790000Y-64770000D03*
G04 #@! TO.P,U3,7*
G04 #@! TO.N,A3*
X209550000Y-59690000D03*
G04 #@! TO.P,U3,21*
G04 #@! TO.N,A10*
X224790000Y-62230000D03*
G04 #@! TO.P,U3,8*
G04 #@! TO.N,A2*
X209550000Y-62230000D03*
G04 #@! TO.P,U3,22*
G04 #@! TO.N,RD*
X224790000Y-59690000D03*
G04 #@! TO.P,U3,9*
G04 #@! TO.N,A1*
X209550000Y-64770000D03*
G04 #@! TO.P,U3,23*
G04 #@! TO.N,A11*
X224790000Y-57150000D03*
G04 #@! TO.P,U3,10*
G04 #@! TO.N,A0*
X209550000Y-67310000D03*
G04 #@! TO.P,U3,24*
G04 #@! TO.N,A9*
X224790000Y-54610000D03*
G04 #@! TO.P,U3,11*
G04 #@! TO.N,D0*
X209550000Y-69850000D03*
G04 #@! TO.P,U3,25*
G04 #@! TO.N,A8*
X224790000Y-52070000D03*
G04 #@! TO.P,U3,12*
G04 #@! TO.N,D1*
X209550000Y-72390000D03*
G04 #@! TO.P,U3,26*
G04 #@! TO.N,A13*
X224790000Y-49530000D03*
G04 #@! TO.P,U3,13*
G04 #@! TO.N,D2*
X209550000Y-74930000D03*
G04 #@! TO.P,U3,27*
G04 #@! TO.N,+5V*
X224790000Y-46990000D03*
G04 #@! TO.P,U3,14*
G04 #@! TO.N,GND*
X209550000Y-77470000D03*
G04 #@! TO.P,U3,28*
G04 #@! TO.N,+5V*
X224790000Y-44450000D03*
G04 #@! TD*
D15*
G04 #@! TO.P,R6,1*
G04 #@! TO.N,VA0*
X137414000Y-49530000D03*
D19*
G04 #@! TO.P,R6,2*
G04 #@! TO.N,A0*
X145034000Y-49530000D03*
G04 #@! TD*
G04 #@! TO.P,R7,2*
G04 #@! TO.N,VD0*
X160020000Y-85090000D03*
D15*
G04 #@! TO.P,R7,1*
G04 #@! TO.N,D0*
X160020000Y-92710000D03*
G04 #@! TD*
G04 #@! TO.P,R8,1*
G04 #@! TO.N,VA1*
X147574000Y-51308000D03*
D19*
G04 #@! TO.P,R8,2*
G04 #@! TO.N,A1*
X155194000Y-51308000D03*
G04 #@! TD*
D15*
G04 #@! TO.P,R9,1*
G04 #@! TO.N,D1*
X156210000Y-92710000D03*
D19*
G04 #@! TO.P,R9,2*
G04 #@! TO.N,VD1*
X156210000Y-85090000D03*
G04 #@! TD*
G04 #@! TO.P,R10,2*
G04 #@! TO.N,A2*
X145034000Y-53086000D03*
D15*
G04 #@! TO.P,R10,1*
G04 #@! TO.N,VA2*
X137414000Y-53086000D03*
G04 #@! TD*
D19*
G04 #@! TO.P,R11,2*
G04 #@! TO.N,VD2*
X152400000Y-85090000D03*
D15*
G04 #@! TO.P,R11,1*
G04 #@! TO.N,D2*
X152400000Y-92710000D03*
G04 #@! TD*
G04 #@! TO.P,R12,1*
G04 #@! TO.N,VA3*
X147574000Y-55118000D03*
D19*
G04 #@! TO.P,R12,2*
G04 #@! TO.N,A3*
X155194000Y-55118000D03*
G04 #@! TD*
D15*
G04 #@! TO.P,R13,1*
G04 #@! TO.N,D3*
X148590000Y-92710000D03*
D19*
G04 #@! TO.P,R13,2*
G04 #@! TO.N,VD3*
X148590000Y-85090000D03*
G04 #@! TD*
G04 #@! TO.P,R14,2*
G04 #@! TO.N,A4*
X145034000Y-56896000D03*
D15*
G04 #@! TO.P,R14,1*
G04 #@! TO.N,VA4*
X137414000Y-56896000D03*
G04 #@! TD*
D19*
G04 #@! TO.P,R15,2*
G04 #@! TO.N,VD4*
X144780000Y-85090000D03*
D15*
G04 #@! TO.P,R15,1*
G04 #@! TO.N,D4*
X144780000Y-92710000D03*
G04 #@! TD*
G04 #@! TO.P,R16,1*
G04 #@! TO.N,VA5*
X147574000Y-58674000D03*
D19*
G04 #@! TO.P,R16,2*
G04 #@! TO.N,A5*
X155194000Y-58674000D03*
G04 #@! TD*
D15*
G04 #@! TO.P,R17,1*
G04 #@! TO.N,D5*
X140970000Y-92710000D03*
D19*
G04 #@! TO.P,R17,2*
G04 #@! TO.N,VD5*
X140970000Y-85090000D03*
G04 #@! TD*
G04 #@! TO.P,R18,2*
G04 #@! TO.N,A6*
X145034000Y-60452000D03*
D15*
G04 #@! TO.P,R18,1*
G04 #@! TO.N,VA6*
X137414000Y-60452000D03*
G04 #@! TD*
D19*
G04 #@! TO.P,R19,2*
G04 #@! TO.N,VD6*
X137160000Y-85090000D03*
D15*
G04 #@! TO.P,R19,1*
G04 #@! TO.N,D6*
X137160000Y-92710000D03*
G04 #@! TD*
G04 #@! TO.P,R20,1*
G04 #@! TO.N,VA7*
X147574000Y-62230000D03*
D19*
G04 #@! TO.P,R20,2*
G04 #@! TO.N,A7*
X155194000Y-62230000D03*
G04 #@! TD*
D15*
G04 #@! TO.P,R21,1*
G04 #@! TO.N,D7*
X133350000Y-92710000D03*
D19*
G04 #@! TO.P,R21,2*
G04 #@! TO.N,VD7*
X133350000Y-85090000D03*
G04 #@! TD*
G04 #@! TO.P,R22,2*
G04 #@! TO.N,A8*
X145034000Y-64008000D03*
D15*
G04 #@! TO.P,R22,1*
G04 #@! TO.N,VA8*
X137414000Y-64008000D03*
G04 #@! TD*
D19*
G04 #@! TO.P,R23,2*
G04 #@! TO.N,A9*
X155194000Y-65786000D03*
D15*
G04 #@! TO.P,R23,1*
G04 #@! TO.N,VA9*
X147574000Y-65786000D03*
G04 #@! TD*
D19*
G04 #@! TO.P,R24,2*
G04 #@! TO.N,A10*
X145034000Y-67564000D03*
D15*
G04 #@! TO.P,R24,1*
G04 #@! TO.N,VA10*
X137414000Y-67564000D03*
G04 #@! TD*
G04 #@! TO.P,R25,1*
G04 #@! TO.N,VA11*
X147574000Y-69342000D03*
D19*
G04 #@! TO.P,R25,2*
G04 #@! TO.N,A11*
X155194000Y-69342000D03*
G04 #@! TD*
G04 #@! TO.P,R26,2*
G04 #@! TO.N,A12*
X145034000Y-71374000D03*
D15*
G04 #@! TO.P,R26,1*
G04 #@! TO.N,VA12*
X137414000Y-71374000D03*
G04 #@! TD*
G04 #@! TO.P,R27,1*
G04 #@! TO.N,VA13*
X147574000Y-73152000D03*
D19*
G04 #@! TO.P,R27,2*
G04 #@! TO.N,A13*
X155194000Y-73152000D03*
G04 #@! TD*
D15*
G04 #@! TO.P,C5,1*
G04 #@! TO.N,Net-(C5-Pad1)*
X50673000Y-71247000D03*
G04 #@! TO.P,C5,2*
G04 #@! TO.N,Net-(C5-Pad2)*
X50673000Y-68747000D03*
G04 #@! TD*
D31*
G04 #@! TO.P,J10,1*
G04 #@! TO.N,/ula/TCK*
X99060000Y-91440000D03*
D32*
G04 #@! TO.P,J10,2*
G04 #@! TO.N,GND*
X99060000Y-93980000D03*
G04 #@! TO.P,J10,3*
G04 #@! TO.N,/ula/TDO*
X96520000Y-91440000D03*
G04 #@! TO.P,J10,4*
G04 #@! TO.N,+5V*
X96520000Y-93980000D03*
G04 #@! TO.P,J10,5*
G04 #@! TO.N,/ula/TMS*
X93980000Y-91440000D03*
G04 #@! TO.P,J10,6*
G04 #@! TO.N,N/C*
X93980000Y-93980000D03*
G04 #@! TO.P,J10,7*
X91440000Y-91440000D03*
G04 #@! TO.P,J10,8*
X91440000Y-93980000D03*
G04 #@! TO.P,J10,9*
G04 #@! TO.N,/ula/TDI*
X88900000Y-91440000D03*
G04 #@! TO.P,J10,10*
G04 #@! TO.N,GND*
X88900000Y-93980000D03*
G04 #@! TD*
D15*
G04 #@! TO.P,R28,1*
G04 #@! TO.N,IORQ*
X94234000Y-49530000D03*
D19*
G04 #@! TO.P,R28,2*
G04 #@! TO.N,IORQULA*
X101854000Y-49530000D03*
G04 #@! TD*
G04 #@! TO.P,R29,2*
G04 #@! TO.N,Net-(R29-Pad2)*
X54102000Y-61214000D03*
D15*
G04 #@! TO.P,R29,1*
G04 #@! TO.N,Net-(C5-Pad2)*
X54102000Y-68834000D03*
G04 #@! TD*
G04 #@! TO.P,R30,1*
G04 #@! TO.N,Net-(R30-Pad1)*
X54102000Y-78740000D03*
D19*
G04 #@! TO.P,R30,2*
G04 #@! TO.N,Net-(C5-Pad1)*
X54102000Y-71120000D03*
G04 #@! TD*
D12*
G04 #@! TO.P,U6,1*
G04 #@! TO.N,Net-(R29-Pad2)*
X57658000Y-64008000D03*
D13*
G04 #@! TO.P,U6,8*
G04 #@! TO.N,Net-(C23-Pad2)*
X65278000Y-79248000D03*
G04 #@! TO.P,U6,2*
G04 #@! TO.N,Net-(C5-Pad2)*
X57658000Y-66548000D03*
G04 #@! TO.P,U6,9*
G04 #@! TO.N,Net-(R41-Pad2)*
X65278000Y-76708000D03*
G04 #@! TO.P,U6,3*
G04 #@! TO.N,Net-(C5-Pad1)*
X57658000Y-69088000D03*
G04 #@! TO.P,U6,10*
G04 #@! TO.N,Net-(R42-Pad1)*
X65278000Y-74168000D03*
G04 #@! TO.P,U6,4*
G04 #@! TO.N,Net-(R30-Pad1)*
X57658000Y-71628000D03*
G04 #@! TO.P,U6,11*
G04 #@! TO.N,Net-(C23-Pad1)*
X65278000Y-71628000D03*
G04 #@! TO.P,U6,5*
G04 #@! TO.N,Net-(R30-Pad1)*
X57658000Y-74168000D03*
G04 #@! TO.P,U6,12*
G04 #@! TO.N,Net-(J11-Pad1)*
X65278000Y-69088000D03*
G04 #@! TO.P,U6,6*
G04 #@! TO.N,CLK14*
X57658000Y-76708000D03*
G04 #@! TO.P,U6,13*
G04 #@! TO.N,Net-(R42-Pad1)*
X65278000Y-66548000D03*
G04 #@! TO.P,U6,7*
G04 #@! TO.N,GND*
X57658000Y-79248000D03*
G04 #@! TO.P,U6,14*
G04 #@! TO.N,+5V*
X65278000Y-64008000D03*
G04 #@! TD*
D33*
G04 #@! TO.P,U7,2*
G04 #@! TO.N,IORQ*
X90424000Y-57404000D03*
G04 #@! TO.P,U7,4*
G04 #@! TO.N,RD*
X87884000Y-57404000D03*
G04 #@! TO.P,U7,6*
G04 #@! TO.N,WR*
X85344000Y-57404000D03*
G04 #@! TO.P,U7,8*
G04 #@! TO.N,A0*
X82804000Y-57404000D03*
G04 #@! TO.P,U7,10*
G04 #@! TO.N,VD2*
X80264000Y-57404000D03*
G04 #@! TO.P,U7,84*
G04 #@! TO.N,IORQULA*
X92964000Y-57404000D03*
G04 #@! TO.P,U7,82*
G04 #@! TO.N,GND*
X95504000Y-57404000D03*
G04 #@! TO.P,U7,80*
G04 #@! TO.N,Net-(R31-Pad2)*
X98044000Y-57404000D03*
G04 #@! TO.P,U7,78*
G04 #@! TO.N,+5V*
X100584000Y-57404000D03*
G04 #@! TO.P,U7,76*
G04 #@! TO.N,KB4*
X103124000Y-57404000D03*
G04 #@! TO.P,U7,74*
G04 #@! TO.N,KB1*
X105664000Y-57404000D03*
D34*
G04 #@! TO.P,U7,1*
G04 #@! TO.N,~RESET*
X90424000Y-54864000D03*
D33*
G04 #@! TO.P,U7,3*
G04 #@! TO.N,GND*
X87884000Y-54864000D03*
G04 #@! TO.P,U7,5*
G04 #@! TO.N,MREQ*
X85344000Y-54864000D03*
G04 #@! TO.P,U7,7*
G04 #@! TO.N,GND*
X82804000Y-54864000D03*
G04 #@! TO.P,U7,9*
G04 #@! TO.N,VD3*
X80264000Y-54864000D03*
G04 #@! TO.P,U7,11*
G04 #@! TO.N,VD4*
X77724000Y-54864000D03*
G04 #@! TO.P,U7,83*
G04 #@! TO.N,CLK14*
X92964000Y-54864000D03*
G04 #@! TO.P,U7,81*
G04 #@! TO.N,RAM_CS*
X95504000Y-54864000D03*
G04 #@! TO.P,U7,79*
G04 #@! TO.N,Net-(R32-Pad2)*
X98044000Y-54864000D03*
G04 #@! TO.P,U7,77*
G04 #@! TO.N,IORQ*
X100584000Y-54864000D03*
G04 #@! TO.P,U7,75*
G04 #@! TO.N,KB3*
X103124000Y-54864000D03*
G04 #@! TO.P,U7,13*
G04 #@! TO.N,+5V*
X77724000Y-57404000D03*
G04 #@! TO.P,U7,15*
G04 #@! TO.N,VD1*
X77724000Y-59944000D03*
G04 #@! TO.P,U7,17*
G04 #@! TO.N,VD6*
X77724000Y-62484000D03*
G04 #@! TO.P,U7,19*
G04 #@! TO.N,GND*
X77724000Y-65024000D03*
G04 #@! TO.P,U7,21*
G04 #@! TO.N,VA0*
X77724000Y-67564000D03*
G04 #@! TO.P,U7,23*
G04 #@! TO.N,/ula/TMS*
X77724000Y-70104000D03*
G04 #@! TO.P,U7,25*
G04 #@! TO.N,VA10*
X77724000Y-72644000D03*
G04 #@! TO.P,U7,27*
G04 #@! TO.N,VRAM_RD*
X77724000Y-75184000D03*
G04 #@! TO.P,U7,29*
G04 #@! TO.N,VA3*
X77724000Y-77724000D03*
G04 #@! TO.P,U7,31*
G04 #@! TO.N,VA4*
X77724000Y-80264000D03*
G04 #@! TO.P,U7,12*
G04 #@! TO.N,VD5*
X75184000Y-57404000D03*
G04 #@! TO.P,U7,14*
G04 #@! TO.N,/ula/TDI*
X75184000Y-59944000D03*
G04 #@! TO.P,U7,16*
G04 #@! TO.N,VD0*
X75184000Y-62484000D03*
G04 #@! TO.P,U7,18*
G04 #@! TO.N,VD7*
X75184000Y-65024000D03*
G04 #@! TO.P,U7,20*
G04 #@! TO.N,VRAM_CS*
X75184000Y-67564000D03*
G04 #@! TO.P,U7,22*
G04 #@! TO.N,VA1*
X75184000Y-70104000D03*
G04 #@! TO.P,U7,24*
G04 #@! TO.N,VA2*
X75184000Y-72644000D03*
G04 #@! TO.P,U7,26*
G04 #@! TO.N,+5V*
X75184000Y-75184000D03*
G04 #@! TO.P,U7,28*
G04 #@! TO.N,VA11*
X75184000Y-77724000D03*
G04 #@! TO.P,U7,30*
G04 #@! TO.N,VA9*
X75184000Y-80264000D03*
G04 #@! TO.P,U7,32*
G04 #@! TO.N,GND*
X75184000Y-82804000D03*
G04 #@! TO.P,U7,34*
G04 #@! TO.N,VA5*
X77724000Y-82804000D03*
G04 #@! TO.P,U7,36*
G04 #@! TO.N,VA8*
X80264000Y-82804000D03*
G04 #@! TO.P,U7,38*
G04 #@! TO.N,+5V*
X82804000Y-82804000D03*
G04 #@! TO.P,U7,40*
G04 #@! TO.N,MIC*
X85344000Y-82804000D03*
G04 #@! TO.P,U7,42*
G04 #@! TO.N,GND*
X87884000Y-82804000D03*
G04 #@! TO.P,U7,44*
G04 #@! TO.N,EAR*
X90424000Y-82804000D03*
G04 #@! TO.P,U7,46*
G04 #@! TO.N,CLK_B*
X92964000Y-82804000D03*
G04 #@! TO.P,U7,48*
G04 #@! TO.N,A15*
X95504000Y-82804000D03*
G04 #@! TO.P,U7,50*
G04 #@! TO.N,SPK*
X98044000Y-82804000D03*
G04 #@! TO.P,U7,52*
G04 #@! TO.N,N/C*
X100584000Y-82804000D03*
G04 #@! TO.P,U7,33*
G04 #@! TO.N,VA6*
X77724000Y-85344000D03*
G04 #@! TO.P,U7,35*
G04 #@! TO.N,VA13*
X80264000Y-85344000D03*
G04 #@! TO.P,U7,37*
G04 #@! TO.N,VA7*
X82804000Y-85344000D03*
G04 #@! TO.P,U7,39*
G04 #@! TO.N,VRAM_WR*
X85344000Y-85344000D03*
G04 #@! TO.P,U7,41*
G04 #@! TO.N,VA12*
X87884000Y-85344000D03*
G04 #@! TO.P,U7,43*
G04 #@! TO.N,GND*
X90424000Y-85344000D03*
G04 #@! TO.P,U7,45*
G04 #@! TO.N,CLK*
X92964000Y-85344000D03*
G04 #@! TO.P,U7,47*
G04 #@! TO.N,GND*
X95504000Y-85344000D03*
G04 #@! TO.P,U7,49*
G04 #@! TO.N,A14*
X98044000Y-85344000D03*
G04 #@! TO.P,U7,51*
G04 #@! TO.N,bright*
X100584000Y-85344000D03*
G04 #@! TO.P,U7,53*
G04 #@! TO.N,+5V*
X103124000Y-85344000D03*
G04 #@! TO.P,U7,55*
G04 #@! TO.N,red*
X103124000Y-82804000D03*
G04 #@! TO.P,U7,57*
G04 #@! TO.N,blue*
X103124000Y-80264000D03*
G04 #@! TO.P,U7,59*
G04 #@! TO.N,GND*
X103124000Y-77724000D03*
G04 #@! TO.P,U7,61*
G04 #@! TO.N,N/C*
X103124000Y-75184000D03*
G04 #@! TO.P,U7,63*
X103124000Y-72644000D03*
G04 #@! TO.P,U7,65*
X103124000Y-70104000D03*
G04 #@! TO.P,U7,67*
X103124000Y-67564000D03*
G04 #@! TO.P,U7,69*
X103124000Y-65024000D03*
G04 #@! TO.P,U7,71*
G04 #@! TO.N,/ula/TDO*
X103124000Y-62484000D03*
G04 #@! TO.P,U7,73*
G04 #@! TO.N,KB2*
X103124000Y-59944000D03*
G04 #@! TO.P,U7,54*
G04 #@! TO.N,green*
X105664000Y-82804000D03*
G04 #@! TO.P,U7,56*
G04 #@! TO.N,sync*
X105664000Y-80264000D03*
G04 #@! TO.P,U7,58*
G04 #@! TO.N,P-N_ULA*
X105664000Y-77724000D03*
G04 #@! TO.P,U7,60*
G04 #@! TO.N,N/C*
X105664000Y-75184000D03*
G04 #@! TO.P,U7,62*
G04 #@! TO.N,/ula/TCK*
X105664000Y-72644000D03*
G04 #@! TO.P,U7,64*
G04 #@! TO.N,N/C*
X105664000Y-70104000D03*
G04 #@! TO.P,U7,66*
G04 #@! TO.N,+5V*
X105664000Y-67564000D03*
G04 #@! TO.P,U7,68*
G04 #@! TO.N,N/C*
X105664000Y-65024000D03*
G04 #@! TO.P,U7,70*
G04 #@! TO.N,KB0*
X105664000Y-62484000D03*
G04 #@! TO.P,U7,72*
G04 #@! TO.N,GND*
X105664000Y-59944000D03*
G04 #@! TD*
D15*
G04 #@! TO.P,C6,1*
G04 #@! TO.N,+9V*
X233426000Y-68072000D03*
G04 #@! TO.P,C6,2*
G04 #@! TO.N,GND*
X230926000Y-68072000D03*
G04 #@! TD*
D20*
G04 #@! TO.P,C7,1*
G04 #@! TO.N,+5V*
X234442000Y-89916000D03*
D18*
G04 #@! TO.P,C7,2*
G04 #@! TO.N,GND*
X237942000Y-89916000D03*
G04 #@! TD*
D19*
G04 #@! TO.P,R31,2*
G04 #@! TO.N,Net-(R31-Pad2)*
X137414000Y-74930000D03*
D15*
G04 #@! TO.P,R31,1*
G04 #@! TO.N,INT*
X145034000Y-74930000D03*
G04 #@! TD*
G04 #@! TO.P,R32,1*
G04 #@! TO.N,ROM_CS*
X155194000Y-45466000D03*
D19*
G04 #@! TO.P,R32,2*
G04 #@! TO.N,Net-(R32-Pad2)*
X147574000Y-45466000D03*
G04 #@! TD*
D15*
G04 #@! TO.P,C8,1*
G04 #@! TO.N,GND*
X198628000Y-40894000D03*
G04 #@! TO.P,C8,2*
G04 #@! TO.N,+5V*
X201128000Y-40894000D03*
G04 #@! TD*
G04 #@! TO.P,C9,2*
G04 #@! TO.N,+5V*
X105450000Y-90678000D03*
G04 #@! TO.P,C9,1*
G04 #@! TO.N,GND*
X107950000Y-90678000D03*
G04 #@! TD*
G04 #@! TO.P,C10,2*
G04 #@! TO.N,+5V*
X222464000Y-40894000D03*
G04 #@! TO.P,C10,1*
G04 #@! TO.N,GND*
X219964000Y-40894000D03*
G04 #@! TD*
G04 #@! TO.P,C11,1*
G04 #@! TO.N,GND*
X176022000Y-40894000D03*
G04 #@! TO.P,C11,2*
G04 #@! TO.N,+5V*
X178522000Y-40894000D03*
G04 #@! TD*
G04 #@! TO.P,C12,1*
G04 #@! TO.N,GND*
X124968000Y-40894000D03*
G04 #@! TO.P,C12,2*
G04 #@! TO.N,+5V*
X127468000Y-40894000D03*
G04 #@! TD*
G04 #@! TO.P,C13,2*
G04 #@! TO.N,GND*
X76160000Y-40640000D03*
G04 #@! TO.P,C13,1*
G04 #@! TO.N,+5V*
X73660000Y-40640000D03*
G04 #@! TD*
G04 #@! TO.P,C14,1*
G04 #@! TO.N,Net-(C14-Pad1)*
X66294000Y-38989000D03*
G04 #@! TO.P,C14,2*
G04 #@! TO.N,Net-(C14-Pad2)*
X68794000Y-38989000D03*
G04 #@! TD*
G04 #@! TO.P,C15,1*
G04 #@! TO.N,Net-(C15-Pad1)*
X91313000Y-40386000D03*
G04 #@! TO.P,C15,2*
G04 #@! TO.N,Net-(C14-Pad2)*
X88813000Y-40386000D03*
G04 #@! TD*
G04 #@! TO.P,C16,2*
G04 #@! TO.N,GND*
X106767000Y-40386000D03*
G04 #@! TO.P,C16,1*
G04 #@! TO.N,Net-(C16-Pad1)*
X104267000Y-40386000D03*
G04 #@! TD*
G04 #@! TO.P,C17,2*
G04 #@! TO.N,Net-(C17-Pad2)*
X111212000Y-28956000D03*
G04 #@! TO.P,C17,1*
G04 #@! TO.N,Net-(C17-Pad1)*
X108712000Y-28956000D03*
G04 #@! TD*
G04 #@! TO.P,C18,1*
G04 #@! TO.N,Net-(C17-Pad2)*
X119507000Y-33274000D03*
G04 #@! TO.P,C18,2*
G04 #@! TO.N,GND*
X122007000Y-33274000D03*
G04 #@! TD*
G04 #@! TO.P,C19,1*
G04 #@! TO.N,Net-(C19-Pad1)*
X61214000Y-38989000D03*
G04 #@! TO.P,C19,2*
G04 #@! TO.N,AUDIO_OUT*
X63714000Y-38989000D03*
G04 #@! TD*
D19*
G04 #@! TO.P,R33,2*
G04 #@! TO.N,Net-(C16-Pad1)*
X101473000Y-40386000D03*
D15*
G04 #@! TO.P,R33,1*
G04 #@! TO.N,Net-(C15-Pad1)*
X93853000Y-40386000D03*
G04 #@! TD*
G04 #@! TO.P,R34,1*
G04 #@! TO.N,Net-(C16-Pad1)*
X86360000Y-40513000D03*
D19*
G04 #@! TO.P,R34,2*
G04 #@! TO.N,GND*
X78740000Y-40513000D03*
G04 #@! TD*
G04 #@! TO.P,R35,2*
G04 #@! TO.N,Net-(C14-Pad2)*
X71120000Y-26162000D03*
D15*
G04 #@! TO.P,R35,1*
G04 #@! TO.N,Net-(R35-Pad1)*
X78740000Y-26162000D03*
G04 #@! TD*
G04 #@! TO.P,R36,1*
G04 #@! TO.N,MIC*
X109474000Y-33274000D03*
D19*
G04 #@! TO.P,R36,2*
G04 #@! TO.N,Net-(C17-Pad2)*
X117094000Y-33274000D03*
G04 #@! TD*
G04 #@! TO.P,R37,2*
G04 #@! TO.N,Net-(C17-Pad2)*
X114300000Y-28956000D03*
D15*
G04 #@! TO.P,R37,1*
G04 #@! TO.N,SPK*
X121920000Y-28956000D03*
G04 #@! TD*
G04 #@! TO.P,R38,1*
G04 #@! TO.N,EAR*
X68834000Y-42418000D03*
D19*
G04 #@! TO.P,R38,2*
G04 #@! TO.N,Net-(C19-Pad1)*
X61214000Y-42418000D03*
G04 #@! TD*
D15*
G04 #@! TO.P,R39,1*
G04 #@! TO.N,SPK*
X68834000Y-45720000D03*
D19*
G04 #@! TO.P,R39,2*
G04 #@! TO.N,Net-(C19-Pad1)*
X61214000Y-45720000D03*
G04 #@! TD*
D14*
G04 #@! TO.P,U8,1*
G04 #@! TO.N,N/C*
X71120000Y-29718000D03*
D19*
G04 #@! TO.P,U8,5*
G04 #@! TO.N,GND*
X78740000Y-37338000D03*
G04 #@! TO.P,U8,2*
G04 #@! TO.N,Net-(C14-Pad2)*
X71120000Y-32258000D03*
G04 #@! TO.P,U8,6*
G04 #@! TO.N,EAR*
X78740000Y-34798000D03*
G04 #@! TO.P,U8,3*
G04 #@! TO.N,Net-(C14-Pad1)*
X71120000Y-34798000D03*
G04 #@! TO.P,U8,7*
G04 #@! TO.N,Net-(R35-Pad1)*
X78740000Y-32258000D03*
G04 #@! TO.P,U8,4*
G04 #@! TO.N,+5V*
X71120000Y-37338000D03*
G04 #@! TO.P,U8,8*
X78740000Y-29718000D03*
G04 #@! TD*
D15*
G04 #@! TO.P,C20,1*
G04 #@! TO.N,GND*
X77216000Y-90424000D03*
G04 #@! TO.P,C20,2*
G04 #@! TO.N,+5V*
X79716000Y-90424000D03*
G04 #@! TD*
G04 #@! TO.P,C21,1*
G04 #@! TO.N,GND*
X107442000Y-49784000D03*
G04 #@! TO.P,C21,2*
G04 #@! TO.N,+5V*
X104942000Y-49784000D03*
G04 #@! TD*
G04 #@! TO.P,C22,2*
G04 #@! TO.N,+5V*
X76113000Y-49784000D03*
G04 #@! TO.P,C22,1*
G04 #@! TO.N,GND*
X78613000Y-49784000D03*
G04 #@! TD*
G04 #@! TO.P,C23,1*
G04 #@! TO.N,Net-(C23-Pad1)*
X69215000Y-82550000D03*
G04 #@! TO.P,C23,2*
G04 #@! TO.N,Net-(C23-Pad2)*
X66715000Y-82550000D03*
G04 #@! TD*
G04 #@! TO.P,C24,2*
G04 #@! TO.N,Net-(C24-Pad2)*
X54650000Y-50546000D03*
G04 #@! TO.P,C24,1*
G04 #@! TO.N,GND*
X57150000Y-50546000D03*
G04 #@! TD*
D19*
G04 #@! TO.P,R40,2*
G04 #@! TO.N,+5V*
X57277000Y-89535000D03*
D15*
G04 #@! TO.P,R40,1*
G04 #@! TO.N,Net-(J11-Pad1)*
X57277000Y-81915000D03*
G04 #@! TD*
D19*
G04 #@! TO.P,R41,2*
G04 #@! TO.N,Net-(R41-Pad2)*
X68580000Y-72009000D03*
D15*
G04 #@! TO.P,R41,1*
G04 #@! TO.N,Net-(C23-Pad2)*
X68580000Y-79629000D03*
G04 #@! TD*
G04 #@! TO.P,R42,1*
G04 #@! TO.N,Net-(R42-Pad1)*
X68580000Y-69469000D03*
D19*
G04 #@! TO.P,R42,2*
G04 #@! TO.N,Net-(C23-Pad1)*
X68580000Y-61849000D03*
G04 #@! TD*
D15*
G04 #@! TO.P,R43,1*
G04 #@! TO.N,GND*
X56896000Y-54483000D03*
D19*
G04 #@! TO.P,R43,2*
G04 #@! TO.N,Net-(C24-Pad2)*
X49276000Y-54483000D03*
G04 #@! TD*
D10*
G04 #@! TO.P,Y2,1*
G04 #@! TO.N,Net-(R41-Pad2)*
X63119000Y-87249000D03*
G04 #@! TO.P,Y2,2*
G04 #@! TO.N,Net-(R42-Pad1)*
X68019000Y-87249000D03*
G04 #@! TD*
G04 #@! TO.P,Y3,2*
G04 #@! TO.N,GND*
X66749000Y-51689000D03*
G04 #@! TO.P,Y3,1*
G04 #@! TO.N,Net-(C24-Pad2)*
X61849000Y-51689000D03*
G04 #@! TD*
D15*
G04 #@! TO.P,C25,1*
G04 #@! TO.N,GND*
X60198000Y-82550000D03*
G04 #@! TO.P,C25,2*
G04 #@! TO.N,+5V*
X62698000Y-82550000D03*
G04 #@! TD*
D31*
G04 #@! TO.P,J1,1*
G04 #@! TO.N,KB0*
X59690000Y-93980000D03*
D32*
G04 #@! TO.P,J1,2*
G04 #@! TO.N,KB1*
X62230000Y-93980000D03*
G04 #@! TO.P,J1,3*
G04 #@! TO.N,KB2*
X64770000Y-93980000D03*
G04 #@! TO.P,J1,4*
G04 #@! TO.N,KB3*
X67310000Y-93980000D03*
G04 #@! TO.P,J1,5*
G04 #@! TO.N,KB4*
X69850000Y-93980000D03*
G04 #@! TD*
D31*
G04 #@! TO.P,J2,1*
G04 #@! TO.N,S0*
X196850000Y-93980000D03*
D32*
G04 #@! TO.P,J2,2*
G04 #@! TO.N,S1*
X199390000Y-93980000D03*
G04 #@! TO.P,J2,3*
G04 #@! TO.N,S2*
X201930000Y-93980000D03*
G04 #@! TO.P,J2,4*
G04 #@! TO.N,S3*
X204470000Y-93980000D03*
G04 #@! TO.P,J2,5*
G04 #@! TO.N,S4*
X207010000Y-93980000D03*
G04 #@! TO.P,J2,6*
G04 #@! TO.N,S5*
X209550000Y-93980000D03*
G04 #@! TO.P,J2,7*
G04 #@! TO.N,S6*
X212090000Y-93980000D03*
G04 #@! TO.P,J2,8*
G04 #@! TO.N,S7*
X214630000Y-93980000D03*
G04 #@! TD*
D31*
G04 #@! TO.P,J11,1*
G04 #@! TO.N,Net-(J11-Pad1)*
X56261000Y-58166000D03*
D32*
G04 #@! TO.P,J11,2*
G04 #@! TO.N,P-N_CLK*
X53721000Y-58166000D03*
G04 #@! TO.P,J11,3*
G04 #@! TO.N,Net-(C24-Pad2)*
X51181000Y-58166000D03*
G04 #@! TD*
D15*
G04 #@! TO.P,C26,2*
G04 #@! TO.N,+5V*
X50787300Y-140625000D03*
G04 #@! TO.P,C26,1*
G04 #@! TO.N,GND*
X50787300Y-138125000D03*
G04 #@! TD*
D14*
G04 #@! TO.P,C27,1*
G04 #@! TO.N,+5V*
X40640000Y-147320000D03*
D15*
G04 #@! TO.P,C27,2*
G04 #@! TO.N,GND*
X40640000Y-144820000D03*
G04 #@! TD*
G04 #@! TO.P,C28,2*
G04 #@! TO.N,Net-(C28-Pad2)*
X36019100Y-87376000D03*
G04 #@! TO.P,C28,1*
G04 #@! TO.N,Net-(C28-Pad1)*
X38519100Y-87376000D03*
G04 #@! TD*
D20*
G04 #@! TO.P,C29,1*
G04 #@! TO.N,Net-(C29-Pad1)*
X48564800Y-40779700D03*
D18*
G04 #@! TO.P,C29,2*
G04 #@! TO.N,Net-(C29-Pad2)*
X48564800Y-44279700D03*
G04 #@! TD*
D15*
G04 #@! TO.P,C30,1*
G04 #@! TO.N,Net-(C30-Pad1)*
X49022000Y-107442000D03*
G04 #@! TO.P,C30,2*
G04 #@! TO.N,Net-(C30-Pad2)*
X46522000Y-107442000D03*
G04 #@! TD*
G04 #@! TO.P,C31,1*
G04 #@! TO.N,Net-(C29-Pad1)*
X41402000Y-40386000D03*
G04 #@! TO.P,C31,2*
G04 #@! TO.N,Net-(C29-Pad2)*
X38902000Y-40386000D03*
G04 #@! TD*
G04 #@! TO.P,C32,1*
G04 #@! TO.N,Net-(C32-Pad1)*
X39268400Y-124930000D03*
G04 #@! TO.P,C32,2*
G04 #@! TO.N,Net-(C32-Pad2)*
X36768400Y-124930000D03*
G04 #@! TD*
D26*
G04 #@! TO.P,D4,1*
G04 #@! TO.N,Net-(D4-Pad1)*
X50546000Y-33401000D03*
D27*
G04 #@! TO.P,D4,2*
G04 #@! TO.N,GND*
X50546000Y-25781000D03*
G04 #@! TD*
D32*
G04 #@! TO.P,J13,3*
G04 #@! TO.N,GND*
X50520600Y-133604000D03*
G04 #@! TO.P,J13,2*
G04 #@! TO.N,P-N_VCHIP*
X50520600Y-131064000D03*
D31*
G04 #@! TO.P,J13,1*
G04 #@! TO.N,+5V*
X50520600Y-128524000D03*
G04 #@! TD*
G04 #@! TO.P,J14,1*
G04 #@! TO.N,+5V*
X116916000Y-90792300D03*
D32*
G04 #@! TO.P,J14,2*
G04 #@! TO.N,P-N_ULA*
X114376000Y-90792300D03*
G04 #@! TO.P,J14,3*
G04 #@! TO.N,GND*
X111836000Y-90792300D03*
G04 #@! TD*
D35*
G04 #@! TO.P,Q10,2*
G04 #@! TO.N,Net-(Q10-Pad2)*
X39535100Y-70866000D03*
G04 #@! TO.P,Q10,3*
G04 #@! TO.N,R*
X38265100Y-70866000D03*
D36*
G04 #@! TO.P,Q10,1*
G04 #@! TO.N,+5V*
X40805100Y-70866000D03*
G04 #@! TD*
G04 #@! TO.P,Q11,1*
G04 #@! TO.N,+5V*
X49276000Y-91694000D03*
D35*
G04 #@! TO.P,Q11,3*
G04 #@! TO.N,G*
X46736000Y-91694000D03*
G04 #@! TO.P,Q11,2*
G04 #@! TO.N,Net-(Q11-Pad2)*
X48006000Y-91694000D03*
G04 #@! TD*
G04 #@! TO.P,Q12,2*
G04 #@! TO.N,Net-(Q12-Pad2)*
X37909500Y-109449000D03*
G04 #@! TO.P,Q12,3*
G04 #@! TO.N,B*
X36639500Y-109449000D03*
D36*
G04 #@! TO.P,Q12,1*
G04 #@! TO.N,+5V*
X39179500Y-109449000D03*
G04 #@! TD*
G04 #@! TO.P,Q13,1*
G04 #@! TO.N,+5V*
X40513000Y-48387000D03*
D35*
G04 #@! TO.P,Q13,3*
G04 #@! TO.N,Net-(Q13-Pad3)*
X37973000Y-48387000D03*
G04 #@! TO.P,Q13,2*
G04 #@! TO.N,Net-(Q13-Pad2)*
X39243000Y-48387000D03*
G04 #@! TD*
D15*
G04 #@! TO.P,R44,1*
G04 #@! TO.N,Net-(Q10-Pad2)*
X46901100Y-83820000D03*
D19*
G04 #@! TO.P,R44,2*
G04 #@! TO.N,bright*
X46901100Y-76200000D03*
G04 #@! TD*
G04 #@! TO.P,R45,2*
G04 #@! TO.N,bright*
X48094900Y-96406000D03*
D15*
G04 #@! TO.P,R45,1*
G04 #@! TO.N,Net-(Q11-Pad2)*
X48094900Y-104026000D03*
G04 #@! TD*
G04 #@! TO.P,R46,1*
G04 #@! TO.N,Net-(Q10-Pad2)*
X43218100Y-83820000D03*
D19*
G04 #@! TO.P,R46,2*
G04 #@! TO.N,red*
X43218100Y-76200000D03*
G04 #@! TD*
G04 #@! TO.P,R47,2*
G04 #@! TO.N,R*
X35979100Y-76200000D03*
D15*
G04 #@! TO.P,R47,1*
G04 #@! TO.N,Net-(C28-Pad2)*
X35979100Y-83820000D03*
G04 #@! TD*
D19*
G04 #@! TO.P,R48,2*
G04 #@! TO.N,green*
X44284900Y-96406000D03*
D15*
G04 #@! TO.P,R48,1*
G04 #@! TO.N,Net-(Q11-Pad2)*
X44284900Y-104026000D03*
G04 #@! TD*
D19*
G04 #@! TO.P,R49,2*
G04 #@! TO.N,Net-(J7-Pad1)*
X33020000Y-32512000D03*
D15*
G04 #@! TO.P,R49,1*
G04 #@! TO.N,Net-(C29-Pad2)*
X33020000Y-40132000D03*
G04 #@! TD*
G04 #@! TO.P,R50,1*
G04 #@! TO.N,Net-(C30-Pad2)*
X37236400Y-104026000D03*
D19*
G04 #@! TO.P,R50,2*
G04 #@! TO.N,G*
X37236400Y-96406000D03*
G04 #@! TD*
D15*
G04 #@! TO.P,R51,1*
G04 #@! TO.N,Net-(Q12-Pad2)*
X44196000Y-121476000D03*
D19*
G04 #@! TO.P,R51,2*
G04 #@! TO.N,blue*
X44196000Y-113856000D03*
G04 #@! TD*
G04 #@! TO.P,R52,2*
G04 #@! TO.N,B*
X36728400Y-113881000D03*
D15*
G04 #@! TO.P,R52,1*
G04 #@! TO.N,Net-(C32-Pad2)*
X36728400Y-121501000D03*
G04 #@! TD*
G04 #@! TO.P,R53,1*
G04 #@! TO.N,GND*
X50457100Y-76200000D03*
D19*
G04 #@! TO.P,R53,2*
G04 #@! TO.N,Net-(Q10-Pad2)*
X50457100Y-83820000D03*
G04 #@! TD*
G04 #@! TO.P,R54,2*
G04 #@! TO.N,Net-(Q11-Pad2)*
X51650900Y-104025700D03*
D15*
G04 #@! TO.P,R54,1*
G04 #@! TO.N,GND*
X51650900Y-96405700D03*
G04 #@! TD*
D19*
G04 #@! TO.P,R55,2*
G04 #@! TO.N,Net-(Q12-Pad2)*
X51003200Y-121450000D03*
D15*
G04 #@! TO.P,R55,1*
G04 #@! TO.N,GND*
X51003200Y-113830000D03*
G04 #@! TD*
G04 #@! TO.P,R56,1*
G04 #@! TO.N,GND*
X39509700Y-76149200D03*
D19*
G04 #@! TO.P,R56,2*
G04 #@! TO.N,Net-(C28-Pad2)*
X39509700Y-83769200D03*
G04 #@! TD*
G04 #@! TO.P,R57,2*
G04 #@! TO.N,Net-(C30-Pad2)*
X40767000Y-103974900D03*
D15*
G04 #@! TO.P,R57,1*
G04 #@! TO.N,GND*
X40767000Y-96354900D03*
G04 #@! TD*
G04 #@! TO.P,R58,1*
G04 #@! TO.N,GND*
X40665400Y-113881000D03*
D19*
G04 #@! TO.P,R58,2*
G04 #@! TO.N,Net-(C32-Pad2)*
X40665400Y-121501000D03*
G04 #@! TD*
D15*
G04 #@! TO.P,R59,1*
G04 #@! TO.N,Net-(J12-Pad6)*
X32448500Y-83870800D03*
D19*
G04 #@! TO.P,R59,2*
G04 #@! TO.N,R*
X32448500Y-76250800D03*
G04 #@! TD*
G04 #@! TO.P,R60,2*
G04 #@! TO.N,G*
X33655000Y-96368000D03*
D15*
G04 #@! TO.P,R60,1*
G04 #@! TO.N,Net-(J12-Pad4)*
X33655000Y-103988000D03*
G04 #@! TD*
G04 #@! TO.P,R61,1*
G04 #@! TO.N,Net-(J12-Pad3)*
X58039000Y-38658800D03*
D19*
G04 #@! TO.P,R61,2*
G04 #@! TO.N,+5V*
X58039000Y-46278800D03*
G04 #@! TD*
G04 #@! TO.P,R62,2*
G04 #@! TO.N,+9V*
X80149700Y-45135800D03*
D15*
G04 #@! TO.P,R62,1*
G04 #@! TO.N,Net-(D4-Pad1)*
X72529700Y-45135800D03*
G04 #@! TD*
D19*
G04 #@! TO.P,R63,2*
G04 #@! TO.N,sync*
X33655000Y-62103000D03*
D15*
G04 #@! TO.P,R63,1*
G04 #@! TO.N,Net-(Q13-Pad2)*
X33655000Y-54483000D03*
G04 #@! TD*
G04 #@! TO.P,R64,1*
G04 #@! TO.N,Net-(J12-Pad7)*
X33172400Y-121387000D03*
D19*
G04 #@! TO.P,R64,2*
G04 #@! TO.N,B*
X33172400Y-113767000D03*
G04 #@! TD*
D15*
G04 #@! TO.P,R65,1*
G04 #@! TO.N,Net-(J12-Pad8)*
X37592000Y-54483000D03*
D19*
G04 #@! TO.P,R65,2*
G04 #@! TO.N,Net-(Q13-Pad3)*
X37592000Y-62103000D03*
G04 #@! TD*
G04 #@! TO.P,R66,2*
G04 #@! TO.N,Net-(Q13-Pad3)*
X41529000Y-62103000D03*
D15*
G04 #@! TO.P,R66,1*
G04 #@! TO.N,GND*
X41529000Y-54483000D03*
G04 #@! TD*
G04 #@! TO.P,R67,1*
G04 #@! TO.N,Net-(Q12-Pad2)*
X47586900Y-121476000D03*
D19*
G04 #@! TO.P,R67,2*
G04 #@! TO.N,bright*
X47586900Y-113856000D03*
G04 #@! TD*
D37*
G04 #@! TO.P,U9,1*
G04 #@! TO.N,P-N_VCHIP*
X47498000Y-130859000D03*
G04 #@! TO.P,U9,2*
G04 #@! TO.N,GND*
X46228000Y-130859000D03*
G04 #@! TO.P,U9,3*
G04 #@! TO.N,P-N_CLK*
X44958000Y-130859000D03*
G04 #@! TO.P,U9,4*
G04 #@! TO.N,+5V*
X43688000Y-130859000D03*
G04 #@! TO.P,U9,5*
X42418000Y-130859000D03*
G04 #@! TO.P,U9,6*
G04 #@! TO.N,Net-(C28-Pad1)*
X41148000Y-130859000D03*
G04 #@! TO.P,U9,7*
G04 #@! TO.N,Net-(C30-Pad1)*
X39878000Y-130859000D03*
G04 #@! TO.P,U9,8*
G04 #@! TO.N,Net-(C32-Pad1)*
X38608000Y-130859000D03*
G04 #@! TO.P,U9,9*
G04 #@! TO.N,N/C*
X38608000Y-140159000D03*
G04 #@! TO.P,U9,10*
G04 #@! TO.N,Net-(C29-Pad1)*
X39878000Y-140159000D03*
G04 #@! TO.P,U9,11*
G04 #@! TO.N,N/C*
X41148000Y-140159000D03*
G04 #@! TO.P,U9,12*
G04 #@! TO.N,GND*
X42418000Y-140159000D03*
G04 #@! TO.P,U9,13*
X43688000Y-140159000D03*
G04 #@! TO.P,U9,14*
G04 #@! TO.N,+5V*
X44958000Y-140159000D03*
G04 #@! TO.P,U9,15*
X46228000Y-140159000D03*
G04 #@! TO.P,U9,16*
G04 #@! TO.N,Net-(Q13-Pad2)*
X47498000Y-140159000D03*
G04 #@! TD*
D26*
G04 #@! TO.P,D2,1*
G04 #@! TO.N,Net-(D2-Pad1)*
X238760000Y-118110000D03*
D27*
G04 #@! TO.P,D2,2*
G04 #@! TO.N,SPK*
X238760000Y-110490000D03*
G04 #@! TD*
G04 #@! TO.P,D3,2*
G04 #@! TO.N,Net-(C15-Pad1)*
X90830400Y-44323000D03*
D26*
G04 #@! TO.P,D3,1*
G04 #@! TO.N,+5V*
X83210400Y-44323000D03*
G04 #@! TD*
D38*
G04 #@! TO.P,J7,2*
G04 #@! TO.N,GND*
X37109400Y-32699960D03*
D39*
G04 #@! TO.P,J7,1*
G04 #@! TO.N,Net-(J7-Pad1)*
X42164000Y-28702000D03*
D38*
G04 #@! TO.P,J7,2*
G04 #@! TO.N,GND*
X47218600Y-32699960D03*
G04 #@! TD*
D40*
G04 #@! TO.N,N/C*
G04 #@! TO.C,J12*
X68470780Y-29225240D03*
X54973220Y-29225240D03*
D41*
G04 #@! TD*
G04 #@! TO.P,J12,6*
G04 #@! TO.N,Net-(J12-Pad6)*
X64622680Y-32224980D03*
G04 #@! TO.P,J12,7*
G04 #@! TO.N,Net-(J12-Pad7)*
X62621160Y-32224980D03*
G04 #@! TO.P,J12,8*
G04 #@! TO.N,Net-(J12-Pad8)*
X58821320Y-32224980D03*
G04 #@! TO.P,J12,1*
G04 #@! TO.N,GND*
X61821060Y-34726880D03*
G04 #@! TO.P,J12,2*
G04 #@! TO.N,Net-(D4-Pad1)*
X59822080Y-34726880D03*
G04 #@! TO.P,J12,3*
G04 #@! TO.N,Net-(J12-Pad3)*
X65620900Y-34726880D03*
G04 #@! TO.P,J12,4*
G04 #@! TO.N,Net-(J12-Pad4)*
X63522860Y-34726880D03*
G04 #@! TO.P,J12,5*
G04 #@! TO.N,AUDIO_OUT*
X57823100Y-34726880D03*
D40*
G04 #@! TD*
G04 #@! TO.N,N/C*
G04 #@! TO.C,J12*
X61722000Y-28425140D03*
D12*
G04 #@! TO.P,U4,1*
G04 #@! TO.N,GND*
X114300000Y-44450000D03*
D13*
G04 #@! TO.P,U4,15*
G04 #@! TO.N,VD3*
X129540000Y-77470000D03*
G04 #@! TO.P,U4,2*
G04 #@! TO.N,VA12*
X114300000Y-46990000D03*
G04 #@! TO.P,U4,16*
G04 #@! TO.N,VD4*
X129540000Y-74930000D03*
G04 #@! TO.P,U4,3*
G04 #@! TO.N,VA7*
X114300000Y-49530000D03*
G04 #@! TO.P,U4,17*
G04 #@! TO.N,VD5*
X129540000Y-72390000D03*
G04 #@! TO.P,U4,4*
G04 #@! TO.N,VA6*
X114300000Y-52070000D03*
G04 #@! TO.P,U4,18*
G04 #@! TO.N,VD6*
X129540000Y-69850000D03*
G04 #@! TO.P,U4,5*
G04 #@! TO.N,VA5*
X114300000Y-54610000D03*
G04 #@! TO.P,U4,19*
G04 #@! TO.N,VD7*
X129540000Y-67310000D03*
G04 #@! TO.P,U4,6*
G04 #@! TO.N,VA4*
X114300000Y-57150000D03*
G04 #@! TO.P,U4,20*
G04 #@! TO.N,VRAM_CS*
X129540000Y-64770000D03*
G04 #@! TO.P,U4,7*
G04 #@! TO.N,VA3*
X114300000Y-59690000D03*
G04 #@! TO.P,U4,21*
G04 #@! TO.N,VA10*
X129540000Y-62230000D03*
G04 #@! TO.P,U4,8*
G04 #@! TO.N,VA2*
X114300000Y-62230000D03*
G04 #@! TO.P,U4,22*
G04 #@! TO.N,VRAM_RD*
X129540000Y-59690000D03*
G04 #@! TO.P,U4,9*
G04 #@! TO.N,VA1*
X114300000Y-64770000D03*
G04 #@! TO.P,U4,23*
G04 #@! TO.N,VA11*
X129540000Y-57150000D03*
G04 #@! TO.P,U4,10*
G04 #@! TO.N,VA0*
X114300000Y-67310000D03*
G04 #@! TO.P,U4,24*
G04 #@! TO.N,VA9*
X129540000Y-54610000D03*
G04 #@! TO.P,U4,11*
G04 #@! TO.N,VD0*
X114300000Y-69850000D03*
G04 #@! TO.P,U4,25*
G04 #@! TO.N,VA8*
X129540000Y-52070000D03*
G04 #@! TO.P,U4,12*
G04 #@! TO.N,VD1*
X114300000Y-72390000D03*
G04 #@! TO.P,U4,26*
G04 #@! TO.N,VA13*
X129540000Y-49530000D03*
G04 #@! TO.P,U4,13*
G04 #@! TO.N,VD2*
X114300000Y-74930000D03*
G04 #@! TO.P,U4,27*
G04 #@! TO.N,VRAM_WR*
X129540000Y-46990000D03*
G04 #@! TO.P,U4,14*
G04 #@! TO.N,GND*
X114300000Y-77470000D03*
G04 #@! TO.P,U4,28*
G04 #@! TO.N,+5V*
X129540000Y-44450000D03*
G04 #@! TD*
G04 #@! TO.P,U5,28*
G04 #@! TO.N,+5V*
X203708000Y-44450000D03*
G04 #@! TO.P,U5,14*
G04 #@! TO.N,GND*
X188468000Y-77470000D03*
G04 #@! TO.P,U5,27*
G04 #@! TO.N,WR*
X203708000Y-46990000D03*
G04 #@! TO.P,U5,13*
G04 #@! TO.N,D2*
X188468000Y-74930000D03*
G04 #@! TO.P,U5,26*
G04 #@! TO.N,A13*
X203708000Y-49530000D03*
G04 #@! TO.P,U5,12*
G04 #@! TO.N,D1*
X188468000Y-72390000D03*
G04 #@! TO.P,U5,25*
G04 #@! TO.N,A8*
X203708000Y-52070000D03*
G04 #@! TO.P,U5,11*
G04 #@! TO.N,D0*
X188468000Y-69850000D03*
G04 #@! TO.P,U5,24*
G04 #@! TO.N,A9*
X203708000Y-54610000D03*
G04 #@! TO.P,U5,10*
G04 #@! TO.N,A0*
X188468000Y-67310000D03*
G04 #@! TO.P,U5,23*
G04 #@! TO.N,A11*
X203708000Y-57150000D03*
G04 #@! TO.P,U5,9*
G04 #@! TO.N,A1*
X188468000Y-64770000D03*
G04 #@! TO.P,U5,22*
G04 #@! TO.N,RD*
X203708000Y-59690000D03*
G04 #@! TO.P,U5,8*
G04 #@! TO.N,A2*
X188468000Y-62230000D03*
G04 #@! TO.P,U5,21*
G04 #@! TO.N,A10*
X203708000Y-62230000D03*
G04 #@! TO.P,U5,7*
G04 #@! TO.N,A3*
X188468000Y-59690000D03*
G04 #@! TO.P,U5,20*
G04 #@! TO.N,RAM_CS*
X203708000Y-64770000D03*
G04 #@! TO.P,U5,6*
G04 #@! TO.N,A4*
X188468000Y-57150000D03*
G04 #@! TO.P,U5,19*
G04 #@! TO.N,D7*
X203708000Y-67310000D03*
G04 #@! TO.P,U5,5*
G04 #@! TO.N,A5*
X188468000Y-54610000D03*
G04 #@! TO.P,U5,18*
G04 #@! TO.N,D6*
X203708000Y-69850000D03*
G04 #@! TO.P,U5,4*
G04 #@! TO.N,A6*
X188468000Y-52070000D03*
G04 #@! TO.P,U5,17*
G04 #@! TO.N,D5*
X203708000Y-72390000D03*
G04 #@! TO.P,U5,3*
G04 #@! TO.N,A7*
X188468000Y-49530000D03*
G04 #@! TO.P,U5,16*
G04 #@! TO.N,D4*
X203708000Y-74930000D03*
G04 #@! TO.P,U5,2*
G04 #@! TO.N,A12*
X188468000Y-46990000D03*
G04 #@! TO.P,U5,15*
G04 #@! TO.N,D3*
X203708000Y-77470000D03*
D12*
G04 #@! TO.P,U5,1*
G04 #@! TO.N,A14*
X188468000Y-44450000D03*
G04 #@! TD*
D42*
G04 #@! TO.N,BUSACK*
X209242000Y-31609200D03*
X194697700Y-39294900D03*
G04 #@! TO.N,~RESET*
X178341100Y-44108600D03*
G04 #@! TO.N,BUSRQ*
X179469000Y-38569800D03*
G04 #@! TO.N,RFSH*
X186086200Y-38030300D03*
G04 #@! TO.N,M1*
X194679100Y-34847000D03*
G04 #@! TO.N,WAIT*
X176558700Y-37291100D03*
G04 #@! TO.N,WR*
X191410200Y-35586700D03*
G04 #@! TO.N,GND*
X156532200Y-40378700D03*
X155126700Y-34173800D03*
G04 #@! TO.N,CLK*
X155930700Y-57303300D03*
G04 #@! TO.N,RD*
X192002000Y-32527000D03*
X92445800Y-69637300D03*
X101027000Y-70557100D03*
X113698800Y-82585300D03*
G04 #@! TO.N,IORQ*
X179626100Y-34224500D03*
X116935900Y-81977200D03*
X112863100Y-63201100D03*
G04 #@! TO.N,MREQ*
X175205000Y-35746400D03*
G04 #@! TO.N,HALT*
X178118500Y-32626600D03*
G04 #@! TO.N,NMI*
X171930200Y-35571200D03*
G04 #@! TO.N,INT*
X172813200Y-34592800D03*
G04 #@! TO.N,S2*
X194945000Y-134620000D03*
G04 #@! TO.N,S5*
X199390000Y-151130000D03*
G04 #@! TO.N,A11*
X217857300Y-43690100D03*
G04 #@! TO.N,A9*
X161040300Y-50251200D03*
X198449800Y-54610000D03*
G04 #@! TO.N,A10*
X199625500Y-60878000D03*
X213600400Y-31591800D03*
G04 #@! TO.N,A8*
X161557800Y-51456000D03*
G04 #@! TO.N,A12*
X151133700Y-46808100D03*
G04 #@! TO.N,A14*
X145179000Y-87846000D03*
X179264600Y-50311000D03*
X156372900Y-52197000D03*
G04 #@! TO.N,A13*
X163729200Y-37288800D03*
G04 #@! TO.N,A15*
X165278100Y-38038400D03*
X157370600Y-76613700D03*
G04 #@! TO.N,KB0*
X74033500Y-58273900D03*
G04 #@! TO.N,KB1*
X113040700Y-92359500D03*
G04 #@! TO.N,KB3*
X124218600Y-56298400D03*
G04 #@! TO.N,KB4*
X91101500Y-74414500D03*
X71600900Y-76256900D03*
G04 #@! TO.N,+9V*
X154908400Y-39754900D03*
X149905200Y-36129500D03*
G04 #@! TO.N,D3*
X167551500Y-37719700D03*
G04 #@! TO.N,D4*
X184230900Y-90435800D03*
X165401200Y-37009600D03*
G04 #@! TO.N,D5*
X201238200Y-63272600D03*
X161937100Y-65419600D03*
X167339100Y-36711400D03*
G04 #@! TO.N,A6*
X159414300Y-57589700D03*
G04 #@! TO.N,D6*
X169252200Y-33065100D03*
G04 #@! TO.N,D7*
X154162900Y-89391900D03*
X167259700Y-35541700D03*
G04 #@! TO.N,A4*
X155820800Y-60452000D03*
G04 #@! TO.N,A2*
X156803200Y-64098100D03*
G04 #@! TO.N,A1*
X179064400Y-66122200D03*
G04 #@! TO.N,D0*
X167261900Y-34541300D03*
G04 #@! TO.N,D1*
X168226400Y-34091000D03*
G04 #@! TO.N,D2*
X179342300Y-68111100D03*
X168178500Y-36091800D03*
G04 #@! TO.N,VA0*
X122366600Y-66641000D03*
X107375400Y-68983000D03*
G04 #@! TO.N,VA1*
X107531400Y-66285400D03*
G04 #@! TO.N,VA2*
X97303300Y-72430000D03*
G04 #@! TO.N,VD2*
X91752800Y-70359000D03*
G04 #@! TO.N,VA3*
X95927900Y-76536100D03*
G04 #@! TO.N,VD3*
X90285800Y-66424900D03*
G04 #@! TO.N,VA4*
X94723700Y-78174600D03*
G04 #@! TO.N,VA5*
X92319600Y-79867400D03*
G04 #@! TO.N,VA6*
X126482300Y-52379200D03*
X119086600Y-87701600D03*
X78964700Y-87704200D03*
G04 #@! TO.N,VD6*
X108554900Y-68841500D03*
X116579500Y-67942600D03*
G04 #@! TO.N,VA9*
X73353900Y-79945500D03*
G04 #@! TO.N,VA10*
X106712800Y-74159400D03*
X110984600Y-78431200D03*
X125398900Y-78622200D03*
G04 #@! TO.N,VA12*
X118888300Y-84861200D03*
X119952500Y-68491500D03*
G04 #@! TO.N,/ula/TMS*
X87079500Y-92228100D03*
G04 #@! TO.N,ROM_CS*
X212612600Y-42369300D03*
G04 #@! TO.N,IORQULA*
X174872000Y-33058800D03*
X104897400Y-38099100D03*
G04 #@! TO.N,CLK_B*
X157508800Y-33220800D03*
X84890700Y-45172200D03*
X90118900Y-77423200D03*
X95759500Y-78674000D03*
G04 #@! TO.N,VRAM_CS*
X99572600Y-67964900D03*
X117089800Y-61808400D03*
G04 #@! TO.N,VRAM_RD*
X124340500Y-80093600D03*
G04 #@! TO.N,VRAM_WR*
X120768900Y-85744900D03*
G04 #@! TO.N,SPK*
X120558500Y-83567800D03*
G04 #@! TO.N,MIC*
X90518800Y-80977600D03*
G04 #@! TO.N,red*
X99740000Y-79420000D03*
G04 #@! TO.N,sync*
X97637500Y-75915700D03*
G04 #@! TD*
D43*
G04 #@! TO.N,BUSACK*
X194697700Y-39294900D02*
X195430500Y-38562100D01*
X195430500Y-38562100D02*
X202289100Y-38562100D01*
X202289100Y-38562100D02*
X209242000Y-31609200D01*
G04 #@! TO.N,~RESET*
X90424000Y-54864000D02*
X91460500Y-54864000D01*
X91460500Y-54864000D02*
X103768400Y-42556100D01*
X103768400Y-42556100D02*
X144663800Y-42556100D01*
X144663800Y-42556100D02*
X146743600Y-40476300D01*
X146743600Y-40476300D02*
X148003500Y-40476300D01*
X148003500Y-40476300D02*
X154119900Y-46592700D01*
X154119900Y-46592700D02*
X160006700Y-46592700D01*
X160006700Y-46592700D02*
X160897000Y-45702400D01*
X160897000Y-45702400D02*
X176747300Y-45702400D01*
X176747300Y-45702400D02*
X178341100Y-44108600D01*
G04 #@! TO.N,BUSRQ*
X156319300Y-37846000D02*
X158183500Y-37846000D01*
X158183500Y-37846000D02*
X161494700Y-41157200D01*
X161494700Y-41157200D02*
X169979400Y-41157200D01*
X169979400Y-41157200D02*
X172566800Y-38569800D01*
X172566800Y-38569800D02*
X179469000Y-38569800D01*
X155194000Y-37846000D02*
X156319300Y-37846000D01*
G04 #@! TO.N,RFSH*
X207972000Y-31289800D02*
X201231500Y-38030300D01*
X201231500Y-38030300D02*
X186086200Y-38030300D01*
X207972000Y-27154500D02*
X207972000Y-31289800D01*
G04 #@! TO.N,M1*
X205432000Y-27154500D02*
X205432000Y-31289800D01*
X194679100Y-34847000D02*
X201874800Y-34847000D01*
X201874800Y-34847000D02*
X205432000Y-31289800D01*
G04 #@! TO.N,WAIT*
X155194000Y-40530700D02*
X154631300Y-40530700D01*
X154631300Y-40530700D02*
X154068700Y-39968100D01*
X154068700Y-39968100D02*
X154068700Y-37368700D01*
X154068700Y-37368700D02*
X154737000Y-36700400D01*
X154737000Y-36700400D02*
X157674800Y-36700400D01*
X157674800Y-36700400D02*
X161681300Y-40706900D01*
X161681300Y-40706900D02*
X169792800Y-40706900D01*
X169792800Y-40706900D02*
X173208600Y-37291100D01*
X173208600Y-37291100D02*
X176558700Y-37291100D01*
X155194000Y-41656000D02*
X155194000Y-40530700D01*
X197812000Y-31289800D02*
X197210600Y-31289800D01*
X197210600Y-31289800D02*
X191209300Y-37291100D01*
X191209300Y-37291100D02*
X176558700Y-37291100D01*
X197812000Y-27154500D02*
X197812000Y-31289800D01*
G04 #@! TO.N,WR*
X85344000Y-57404000D02*
X86614000Y-56134000D01*
X86614000Y-56134000D02*
X88105700Y-56134000D01*
X88105700Y-56134000D02*
X89079900Y-55159800D01*
X89079900Y-55159800D02*
X89079900Y-53043700D01*
X89079900Y-53043700D02*
X100084800Y-42038800D01*
X100084800Y-42038800D02*
X144544200Y-42038800D01*
X144544200Y-42038800D02*
X147012700Y-39570300D01*
X147012700Y-39570300D02*
X150243400Y-39570300D01*
X150243400Y-39570300D02*
X153601500Y-36212200D01*
X153601500Y-36212200D02*
X158744200Y-36212200D01*
X158744200Y-36212200D02*
X162788600Y-40256600D01*
X162788600Y-40256600D02*
X168969300Y-40256600D01*
X168969300Y-40256600D02*
X172754100Y-36471800D01*
X172754100Y-36471800D02*
X189995100Y-36471800D01*
X189995100Y-36471800D02*
X191145200Y-35321700D01*
X191145200Y-35321700D02*
X191410200Y-35586700D01*
X191145200Y-35321700D02*
X192732000Y-33734900D01*
X192732000Y-33734900D02*
X192732000Y-31289800D01*
X192732000Y-27154500D02*
X192732000Y-31289800D01*
D44*
G04 #@! TO.N,GND*
X214630000Y-82550000D02*
X213529700Y-82550000D01*
X209550000Y-82112300D02*
X213092000Y-82112300D01*
X213092000Y-82112300D02*
X213529700Y-82550000D01*
X209550000Y-82112300D02*
X209550000Y-81674700D01*
X209550000Y-82550000D02*
X209550000Y-82112300D01*
X206895600Y-79020300D02*
X209550000Y-81674700D01*
X190018300Y-77470000D02*
X191568600Y-79020300D01*
X191568600Y-79020300D02*
X206895600Y-79020300D01*
X208399700Y-77470000D02*
X208399700Y-77516200D01*
X208399700Y-77516200D02*
X206895600Y-79020300D01*
X209550000Y-77470000D02*
X208399700Y-77470000D01*
X188468000Y-77470000D02*
X190018300Y-77470000D01*
X207010000Y-87630000D02*
X193030000Y-87630000D01*
X193030000Y-87630000D02*
X190490000Y-90170000D01*
X212090000Y-87630000D02*
X207010000Y-87630000D01*
X198628000Y-40894000D02*
X197439400Y-42082600D01*
X197439400Y-42082600D02*
X177210600Y-42082600D01*
X177210600Y-42082600D02*
X176022000Y-40894000D01*
X219964000Y-40894000D02*
X213026900Y-40894000D01*
X213026900Y-40894000D02*
X211874800Y-42046100D01*
X211874800Y-42046100D02*
X199780100Y-42046100D01*
X199780100Y-42046100D02*
X198628000Y-40894000D01*
X156532200Y-40378700D02*
X158486300Y-42332800D01*
X158486300Y-42332800D02*
X174583200Y-42332800D01*
X174583200Y-42332800D02*
X176022000Y-40894000D01*
X95504000Y-57404000D02*
X96597000Y-58497000D01*
X96597000Y-58497000D02*
X104217000Y-58497000D01*
X104217000Y-58497000D02*
X105664000Y-59944000D01*
X95504000Y-85344000D02*
X94438500Y-86409500D01*
X94438500Y-86409500D02*
X91489500Y-86409500D01*
X91489500Y-86409500D02*
X90424000Y-85344000D01*
X56847200Y-38218000D02*
X58461200Y-36604000D01*
X58461200Y-36604000D02*
X59944000Y-36604000D01*
X59944000Y-36604000D02*
X61821100Y-34726900D01*
X57150000Y-50546000D02*
X56847200Y-50243200D01*
X56847200Y-50243200D02*
X56847200Y-38218000D01*
X56847200Y-38218000D02*
X53059100Y-38218000D01*
X53059100Y-38218000D02*
X48568400Y-33727300D01*
X48568400Y-33727300D02*
X48568400Y-32700000D01*
X57150000Y-50546000D02*
X65606000Y-50546000D01*
X65606000Y-50546000D02*
X66749000Y-51689000D01*
X39509700Y-76149200D02*
X40636200Y-75022700D01*
X40636200Y-75022700D02*
X49279800Y-75022700D01*
X49279800Y-75022700D02*
X50457100Y-76200000D01*
X222250000Y-87630000D02*
X217170000Y-87630000D01*
X225890300Y-82550000D02*
X225890300Y-85453900D01*
X225890300Y-85453900D02*
X223714200Y-87630000D01*
X223714200Y-87630000D02*
X222250000Y-87630000D01*
X88900000Y-93980000D02*
X90100300Y-93980000D01*
X90100300Y-93980000D02*
X90100300Y-94355100D01*
X90100300Y-94355100D02*
X90927100Y-95181900D01*
X90927100Y-95181900D02*
X97030800Y-95181900D01*
X97030800Y-95181900D02*
X97859700Y-94353000D01*
X97859700Y-94353000D02*
X97859700Y-93980000D01*
X77216000Y-90424000D02*
X80772000Y-93980000D01*
X80772000Y-93980000D02*
X88900000Y-93980000D01*
X99060000Y-93980000D02*
X97859700Y-93980000D01*
X50457100Y-76200000D02*
X53199100Y-76200000D01*
X53199100Y-76200000D02*
X56107700Y-79108600D01*
X56107700Y-79108600D02*
X56107700Y-79248000D01*
X57658000Y-79248000D02*
X56107700Y-79248000D01*
X40640000Y-144820000D02*
X42418000Y-143042000D01*
X42418000Y-143042000D02*
X42418000Y-141259300D01*
X42418000Y-140159000D02*
X42418000Y-141259300D01*
X43688000Y-140159000D02*
X43688000Y-141259300D01*
X43688000Y-141259300D02*
X42418000Y-141259300D01*
X233660000Y-124460000D02*
X231120000Y-121920000D01*
X231120000Y-121920000D02*
X218440000Y-121920000D01*
X232429700Y-74930000D02*
X232429700Y-76010600D01*
X232429700Y-76010600D02*
X225890300Y-82550000D01*
X122007000Y-33274000D02*
X147898800Y-33274000D01*
X147898800Y-33274000D02*
X148798600Y-34173800D01*
X148798600Y-34173800D02*
X155126700Y-34173800D01*
X50520600Y-133604000D02*
X50520600Y-132403700D01*
X51003200Y-113830000D02*
X52187300Y-115014100D01*
X52187300Y-115014100D02*
X52187300Y-131110000D01*
X52187300Y-131110000D02*
X50893600Y-132403700D01*
X50893600Y-132403700D02*
X50520600Y-132403700D01*
X219710000Y-82550000D02*
X214630000Y-82550000D01*
X66749000Y-51689000D02*
X67228200Y-52168200D01*
X67228200Y-52168200D02*
X76989000Y-52168200D01*
X76989000Y-52168200D02*
X78548600Y-50608600D01*
X87150000Y-25310000D02*
X101120000Y-25310000D01*
X114300000Y-77470000D02*
X112749700Y-77470000D01*
X112749700Y-77470000D02*
X111942100Y-76662400D01*
X111942100Y-76662400D02*
X104185600Y-76662400D01*
X104185600Y-76662400D02*
X103124000Y-77724000D01*
X78548600Y-50608600D02*
X82804000Y-54864000D01*
X78548600Y-50608600D02*
X78548600Y-49848400D01*
X78548600Y-49848400D02*
X78613000Y-49784000D01*
X111836000Y-90792300D02*
X110635700Y-90792300D01*
X107950000Y-90678000D02*
X110521400Y-90678000D01*
X110521400Y-90678000D02*
X110635700Y-90792300D01*
X75184000Y-82804000D02*
X74284500Y-83703500D01*
X74284500Y-83703500D02*
X61351500Y-83703500D01*
X61351500Y-83703500D02*
X60198000Y-82550000D01*
X224790000Y-82550000D02*
X225890300Y-82550000D01*
X224790000Y-82550000D02*
X219710000Y-82550000D01*
X233680000Y-74930000D02*
X232429700Y-74930000D01*
X233680000Y-74930000D02*
X233680000Y-73679700D01*
X233680000Y-73679700D02*
X230926000Y-70925700D01*
X230926000Y-70925700D02*
X230926000Y-68072000D01*
X232410000Y-48260000D02*
X232410000Y-49610300D01*
X232410000Y-49610300D02*
X235910000Y-53110300D01*
X235910000Y-53110300D02*
X235910000Y-58420000D01*
X50546000Y-25781000D02*
X50546000Y-27031300D01*
X50546000Y-27031300D02*
X48568400Y-29008900D01*
X48568400Y-29008900D02*
X48568400Y-32700000D01*
X217170000Y-87630000D02*
X213190300Y-87630000D01*
X212090000Y-87630000D02*
X213190300Y-87630000D01*
X41529000Y-54483000D02*
X42688300Y-53323700D01*
X42688300Y-53323700D02*
X55736700Y-53323700D01*
X55736700Y-53323700D02*
X56896000Y-54483000D01*
X78740000Y-40513000D02*
X77589700Y-40513000D01*
X76160000Y-40640000D02*
X77462700Y-40640000D01*
X77462700Y-40640000D02*
X77589700Y-40513000D01*
X47218600Y-32700000D02*
X48568400Y-32700000D01*
X37109400Y-32700000D02*
X47218600Y-32700000D01*
X50520600Y-133604000D02*
X49320300Y-133604000D01*
X46228000Y-130859000D02*
X46228000Y-131959300D01*
X46228000Y-131959300D02*
X47675600Y-131959300D01*
X47675600Y-131959300D02*
X49320300Y-133604000D01*
D43*
G04 #@! TO.N,CLK*
X155930700Y-57303300D02*
X156942400Y-58315000D01*
X156942400Y-58315000D02*
X160524900Y-58315000D01*
X160524900Y-58315000D02*
X161562900Y-57277000D01*
X161562900Y-57277000D02*
X164463700Y-57277000D01*
X165989000Y-57277000D02*
X164463700Y-57277000D01*
D44*
G04 #@! TO.N,+5V*
X83210400Y-44323000D02*
X81960100Y-44323000D01*
X76113000Y-49784000D02*
X76113000Y-47533400D01*
X76113000Y-47533400D02*
X79670900Y-43975500D01*
X79670900Y-43975500D02*
X81612600Y-43975500D01*
X81612600Y-43975500D02*
X81960100Y-44323000D01*
X79716000Y-90424000D02*
X78551300Y-89259300D01*
X78551300Y-89259300D02*
X58703000Y-89259300D01*
X58703000Y-89259300D02*
X58427300Y-89535000D01*
X96520000Y-92783700D02*
X96097400Y-92783700D01*
X96097400Y-92783700D02*
X95250000Y-91936300D01*
X95250000Y-91936300D02*
X95250000Y-90927800D01*
X95250000Y-90927800D02*
X94561800Y-90239600D01*
X94561800Y-90239600D02*
X79900400Y-90239600D01*
X79900400Y-90239600D02*
X79716000Y-90424000D01*
X57277000Y-89535000D02*
X58427300Y-89535000D01*
X178522000Y-40894000D02*
X195150200Y-40894000D01*
X195150200Y-40894000D02*
X196300600Y-39743600D01*
X196300600Y-39743600D02*
X199977600Y-39743600D01*
X199977600Y-39743600D02*
X201128000Y-40894000D01*
X147574000Y-41656000D02*
X150336700Y-44418700D01*
X150336700Y-44418700D02*
X150336700Y-47342100D01*
X150336700Y-47342100D02*
X152605500Y-49610900D01*
X152605500Y-49610900D02*
X152605500Y-64857200D01*
X152605500Y-64857200D02*
X157725300Y-69977000D01*
X157725300Y-69977000D02*
X165989000Y-69977000D01*
X127468000Y-40894000D02*
X143764000Y-40894000D01*
X143764000Y-40894000D02*
X145288000Y-39370000D01*
X115715700Y-90792300D02*
X115715700Y-91167500D01*
X115715700Y-91167500D02*
X114890600Y-91992600D01*
X114890600Y-91992600D02*
X113734900Y-91992600D01*
X113734900Y-91992600D02*
X113351500Y-91609200D01*
X113351500Y-91609200D02*
X112730000Y-91609200D01*
X112730000Y-91609200D02*
X112346600Y-91992600D01*
X112346600Y-91992600D02*
X106764600Y-91992600D01*
X106764600Y-91992600D02*
X105450000Y-90678000D01*
X43688000Y-130859000D02*
X43688000Y-129758700D01*
X50520600Y-128524000D02*
X44922700Y-128524000D01*
X44922700Y-128524000D02*
X43688000Y-129758700D01*
X116916000Y-90792300D02*
X115715700Y-90792300D01*
X105450000Y-90678000D02*
X103348300Y-92779700D01*
X103348300Y-92779700D02*
X96524000Y-92779700D01*
X96524000Y-92779700D02*
X96520000Y-92783700D01*
X116916000Y-90792300D02*
X118116300Y-90792300D01*
X118116300Y-90792300D02*
X125233700Y-97909700D01*
X125233700Y-97909700D02*
X156737100Y-97909700D01*
X156737100Y-97909700D02*
X157599700Y-98772300D01*
X157599700Y-98772300D02*
X157599700Y-99060000D01*
X194310000Y-97790000D02*
X195460300Y-97790000D01*
X224790000Y-115570000D02*
X224790000Y-106303900D01*
X224790000Y-106303900D02*
X215125800Y-96639700D01*
X215125800Y-96639700D02*
X196322900Y-96639700D01*
X196322900Y-96639700D02*
X195460300Y-97502300D01*
X195460300Y-97502300D02*
X195460300Y-97790000D01*
X158750000Y-99060000D02*
X157599700Y-99060000D01*
X158750000Y-99060000D02*
X159900300Y-99060000D01*
X194310000Y-97790000D02*
X193159700Y-97790000D01*
X193159700Y-97790000D02*
X191910300Y-96540600D01*
X191910300Y-96540600D02*
X162419700Y-96540600D01*
X162419700Y-96540600D02*
X159900300Y-99060000D01*
X39179500Y-109449000D02*
X40054800Y-109449000D01*
X43122300Y-97790000D02*
X57150000Y-97790000D01*
X40054800Y-109449000D02*
X43122300Y-106381500D01*
X43122300Y-106381500D02*
X43122300Y-97790000D01*
X43122300Y-97790000D02*
X43122300Y-95876600D01*
X43122300Y-95876600D02*
X46204600Y-92794300D01*
X46204600Y-92794300D02*
X49276000Y-92794300D01*
X49276000Y-91694000D02*
X49276000Y-92794300D01*
X221273900Y-42084100D02*
X222464000Y-40894000D01*
X209550000Y-44450000D02*
X218908000Y-44450000D01*
X218908000Y-44450000D02*
X221273900Y-42084100D01*
X221273900Y-42084100D02*
X223639700Y-44450000D01*
X224790000Y-44450000D02*
X223639700Y-44450000D01*
X203708000Y-44450000D02*
X209550000Y-44450000D01*
X96520000Y-93980000D02*
X96520000Y-92783700D01*
X58039000Y-46278800D02*
X59189300Y-46278800D01*
X71120000Y-37338000D02*
X71120000Y-38488300D01*
X71120000Y-38488300D02*
X65539300Y-44069000D01*
X65539300Y-44069000D02*
X61160700Y-44069000D01*
X61160700Y-44069000D02*
X59189300Y-46040400D01*
X59189300Y-46040400D02*
X59189300Y-46278800D01*
X44958000Y-140241400D02*
X44958000Y-141259300D01*
X44958000Y-140159000D02*
X44958000Y-140241400D01*
X46228000Y-140332000D02*
X46137400Y-140241400D01*
X46137400Y-140241400D02*
X44958000Y-140241400D01*
X46228000Y-140332000D02*
X46228000Y-141259300D01*
X46228000Y-140159000D02*
X46228000Y-140332000D01*
X50787300Y-140625000D02*
X50153000Y-141259300D01*
X50153000Y-141259300D02*
X46228000Y-141259300D01*
X42418000Y-130859000D02*
X43688000Y-130859000D01*
X104942000Y-49784000D02*
X109125600Y-45600400D01*
X109125600Y-45600400D02*
X126839300Y-45600400D01*
X126839300Y-45600400D02*
X127989700Y-44450000D01*
X129540000Y-44450000D02*
X127989700Y-44450000D01*
X40640000Y-147320000D02*
X40640000Y-146169700D01*
X40640000Y-146169700D02*
X40927600Y-146169700D01*
X40927600Y-146169700D02*
X44958000Y-142139300D01*
X44958000Y-142139300D02*
X44958000Y-141259300D01*
D43*
G04 #@! TO.N,RD*
X101027000Y-70557100D02*
X93365600Y-70557100D01*
X93365600Y-70557100D02*
X92445800Y-69637300D01*
X113698800Y-82585300D02*
X113816000Y-82702500D01*
X113816000Y-82702500D02*
X121061600Y-82702500D01*
X121061600Y-82702500D02*
X132659100Y-94300000D01*
X132659100Y-94300000D02*
X178240700Y-94300000D01*
X178240700Y-94300000D02*
X179703700Y-92837000D01*
X190192000Y-31289800D02*
X190764800Y-31289800D01*
X190764800Y-31289800D02*
X192002000Y-32527000D01*
X190192000Y-27154500D02*
X190192000Y-31289800D01*
X181229000Y-92837000D02*
X179703700Y-92837000D01*
X224790000Y-59690000D02*
X223664700Y-59690000D01*
X203708000Y-59690000D02*
X205233300Y-59690000D01*
X205233300Y-59690000D02*
X206358600Y-58564700D01*
X206358600Y-58564700D02*
X222539400Y-58564700D01*
X222539400Y-58564700D02*
X223664700Y-59690000D01*
G04 #@! TO.N,IORQ*
X164463700Y-92837000D02*
X163451200Y-93849500D01*
X163451200Y-93849500D02*
X132845600Y-93849500D01*
X132845600Y-93849500D02*
X120973300Y-81977200D01*
X120973300Y-81977200D02*
X116935900Y-81977200D01*
X187652000Y-31289800D02*
X184717300Y-34224500D01*
X184717300Y-34224500D02*
X179626100Y-34224500D01*
X187652000Y-27154500D02*
X187652000Y-31289800D01*
X100584000Y-54864000D02*
X101620500Y-55900500D01*
X101620500Y-55900500D02*
X105680500Y-55900500D01*
X105680500Y-55900500D02*
X112863100Y-63083100D01*
X112863100Y-63083100D02*
X112863100Y-63201100D01*
X165989000Y-92837000D02*
X164463700Y-92837000D01*
G04 #@! TO.N,MREQ*
X85344000Y-54864000D02*
X98639200Y-41568800D01*
X98639200Y-41568800D02*
X118445500Y-41568800D01*
X118445500Y-41568800D02*
X120245700Y-39768600D01*
X120245700Y-39768600D02*
X133690000Y-39768600D01*
X133690000Y-39768600D02*
X135279500Y-38179100D01*
X135279500Y-38179100D02*
X145870900Y-38179100D01*
X145870900Y-38179100D02*
X146663200Y-38971400D01*
X146663200Y-38971400D02*
X150205400Y-38971400D01*
X150205400Y-38971400D02*
X153431200Y-35745600D01*
X153431200Y-35745600D02*
X159179300Y-35745600D01*
X159179300Y-35745600D02*
X163240000Y-39806300D01*
X163240000Y-39806300D02*
X168782700Y-39806300D01*
X168782700Y-39806300D02*
X172567500Y-36021500D01*
X172567500Y-36021500D02*
X174929900Y-36021500D01*
X174929900Y-36021500D02*
X175205000Y-35746400D01*
X175205000Y-35746400D02*
X177022500Y-35746400D01*
X177022500Y-35746400D02*
X179495000Y-33273900D01*
X179495000Y-33273900D02*
X183127900Y-33273900D01*
X183127900Y-33273900D02*
X185112000Y-31289800D01*
X185112000Y-27154500D02*
X185112000Y-31289800D01*
G04 #@! TO.N,HALT*
X182572000Y-27154500D02*
X182572000Y-31289800D01*
X178118500Y-32626600D02*
X181235200Y-32626600D01*
X181235200Y-32626600D02*
X182572000Y-31289800D01*
G04 #@! TO.N,NMI*
X180032000Y-31289800D02*
X178429600Y-31289800D01*
X178429600Y-31289800D02*
X174148200Y-35571200D01*
X174148200Y-35571200D02*
X171930200Y-35571200D01*
X138793300Y-35814000D02*
X139918700Y-36939400D01*
X139918700Y-36939400D02*
X145878300Y-36939400D01*
X145878300Y-36939400D02*
X146131800Y-36685900D01*
X146131800Y-36685900D02*
X148530500Y-36685900D01*
X148530500Y-36685900D02*
X148703400Y-36858800D01*
X148703400Y-36858800D02*
X151571400Y-36858800D01*
X151571400Y-36858800D02*
X153163600Y-35266600D01*
X153163600Y-35266600D02*
X159337200Y-35266600D01*
X159337200Y-35266600D02*
X163426600Y-39356000D01*
X163426600Y-39356000D02*
X168487700Y-39356000D01*
X168487700Y-39356000D02*
X171930200Y-35913500D01*
X171930200Y-35913500D02*
X171930200Y-35571200D01*
X180032000Y-27154500D02*
X180032000Y-31289800D01*
X137668000Y-35814000D02*
X138793300Y-35814000D01*
G04 #@! TO.N,INT*
X172813200Y-34592800D02*
X174407700Y-34592800D01*
X174407700Y-34592800D02*
X177492000Y-31508500D01*
X177492000Y-31508500D02*
X177492000Y-31289800D01*
X145034000Y-74930000D02*
X145349900Y-75245900D01*
X145349900Y-75245900D02*
X157032600Y-75245900D01*
X157032600Y-75245900D02*
X164463700Y-82677000D01*
X165989000Y-82677000D02*
X164463700Y-82677000D01*
X177492000Y-27154500D02*
X177492000Y-31289800D01*
G04 #@! TO.N,S0*
X196850000Y-93980000D02*
X198025300Y-93980000D01*
X198025300Y-93980000D02*
X198025300Y-93612700D01*
X198025300Y-93612700D02*
X201468000Y-90170000D01*
X201468000Y-90170000D02*
X207010000Y-90170000D01*
G04 #@! TO.N,S2*
X201930000Y-102235000D02*
X201930000Y-97790000D01*
X194945000Y-134620000D02*
X194945000Y-128270000D01*
X194945000Y-128270000D02*
X198175000Y-125040000D01*
X198175000Y-125040000D02*
X198175000Y-114245000D01*
X198175000Y-114245000D02*
X200025000Y-112395000D01*
X200025000Y-112395000D02*
X200025000Y-105410000D01*
X200025000Y-105410000D02*
X201930000Y-103505000D01*
X201930000Y-103505000D02*
X201930000Y-102235000D01*
X212090000Y-90170000D02*
X212090000Y-91020300D01*
X201930000Y-93980000D02*
X203105300Y-93980000D01*
X203105300Y-93980000D02*
X203105300Y-93612700D01*
X203105300Y-93612700D02*
X205697700Y-91020300D01*
X205697700Y-91020300D02*
X212090000Y-91020300D01*
G04 #@! TO.N,S3*
X204470000Y-102235000D02*
X204470000Y-97790000D01*
X203350000Y-111180000D02*
X205105000Y-109425000D01*
X205105000Y-109425000D02*
X205105000Y-104775000D01*
X205105000Y-104775000D02*
X204470000Y-104140000D01*
X204470000Y-104140000D02*
X204470000Y-102235000D01*
G04 #@! TO.N,S4*
X217170000Y-90170000D02*
X213751000Y-90170000D01*
X213751000Y-90170000D02*
X211566700Y-92354300D01*
X211566700Y-92354300D02*
X209443700Y-92354300D01*
X209443700Y-92354300D02*
X208185300Y-93612700D01*
X208185300Y-93612700D02*
X208185300Y-93980000D01*
X207010000Y-102235000D02*
X207010000Y-97790000D01*
X208430000Y-123880000D02*
X210185000Y-122125000D01*
X210185000Y-122125000D02*
X210185000Y-117475000D01*
X210185000Y-117475000D02*
X207010000Y-114300000D01*
X207010000Y-114300000D02*
X207010000Y-102235000D01*
X207010000Y-93980000D02*
X208185300Y-93980000D01*
G04 #@! TO.N,S5*
X209550000Y-102235000D02*
X209550000Y-97790000D01*
X199390000Y-151130000D02*
X210820000Y-139700000D01*
X210820000Y-139700000D02*
X210820000Y-105410000D01*
X210820000Y-105410000D02*
X209550000Y-104140000D01*
X209550000Y-104140000D02*
X209550000Y-102235000D01*
G04 #@! TO.N,S6*
X213265300Y-93980000D02*
X213265300Y-93672700D01*
X213265300Y-93672700D02*
X215467400Y-91470600D01*
X215467400Y-91470600D02*
X221799700Y-91470600D01*
X221799700Y-91470600D02*
X222250000Y-91020300D01*
X222250000Y-90170000D02*
X222250000Y-91020300D01*
X212090000Y-93980000D02*
X213265300Y-93980000D01*
X212090000Y-102235000D02*
X212090000Y-97790000D01*
X213510000Y-136580000D02*
X212090000Y-135160000D01*
X212090000Y-135160000D02*
X212090000Y-102235000D01*
G04 #@! TO.N,S7*
X214630000Y-102235000D02*
X214630000Y-97790000D01*
X203350000Y-149280000D02*
X214835000Y-137795000D01*
X214835000Y-137795000D02*
X214835000Y-130380000D01*
X214835000Y-130380000D02*
X214630000Y-130175000D01*
X214630000Y-130175000D02*
X214630000Y-102235000D01*
G04 #@! TO.N,A11*
X167514300Y-44577000D02*
X168776400Y-43314900D01*
X168776400Y-43314900D02*
X217482100Y-43314900D01*
X217482100Y-43314900D02*
X217857300Y-43690100D01*
X165989000Y-44577000D02*
X167514300Y-44577000D01*
X224790000Y-57150000D02*
X223664700Y-57150000D01*
X203708000Y-57150000D02*
X205233300Y-57150000D01*
X205233300Y-57150000D02*
X206358600Y-56024700D01*
X206358600Y-56024700D02*
X222539400Y-56024700D01*
X222539400Y-56024700D02*
X223664700Y-57150000D01*
G04 #@! TO.N,A9*
X203708000Y-54610000D02*
X198449800Y-54610000D01*
X181229000Y-47117000D02*
X179703700Y-47117000D01*
X179703700Y-47117000D02*
X168924300Y-47117000D01*
X168924300Y-47117000D02*
X167654300Y-48387000D01*
X167654300Y-48387000D02*
X162904500Y-48387000D01*
X162904500Y-48387000D02*
X161040300Y-50251200D01*
X204470700Y-54610000D02*
X203708000Y-54610000D01*
X204470700Y-54610000D02*
X205233300Y-54610000D01*
X224790000Y-54610000D02*
X223664700Y-54610000D01*
X205233300Y-54610000D02*
X206358600Y-53484700D01*
X206358600Y-53484700D02*
X222539400Y-53484700D01*
X222539400Y-53484700D02*
X223664700Y-54610000D01*
G04 #@! TO.N,A10*
X203708000Y-62230000D02*
X200977500Y-62230000D01*
X200977500Y-62230000D02*
X199625500Y-60878000D01*
X203708000Y-62230000D02*
X207014700Y-62230000D01*
X207014700Y-62230000D02*
X208140000Y-61104700D01*
X208140000Y-61104700D02*
X222539400Y-61104700D01*
X222539400Y-61104700D02*
X223664700Y-62230000D01*
X145034000Y-68689300D02*
X151140300Y-74795600D01*
X151140300Y-74795600D02*
X157394100Y-74795600D01*
X157394100Y-74795600D02*
X163864200Y-81265700D01*
X163864200Y-81265700D02*
X205920400Y-81265700D01*
X205920400Y-81265700D02*
X208474700Y-83820000D01*
X224790000Y-62230000D02*
X223664700Y-62230000D01*
X213600400Y-31591800D02*
X213298400Y-31289800D01*
X213298400Y-31289800D02*
X213052000Y-31289800D01*
X145034000Y-67564000D02*
X145034000Y-68689300D01*
X209550000Y-83820000D02*
X208474700Y-83820000D01*
X213052000Y-27154500D02*
X213052000Y-31289800D01*
G04 #@! TO.N,A8*
X181229000Y-49657000D02*
X179703700Y-49657000D01*
X179703700Y-49657000D02*
X179588000Y-49541300D01*
X179588000Y-49541300D02*
X170142900Y-49541300D01*
X170142900Y-49541300D02*
X168707600Y-50976600D01*
X168707600Y-50976600D02*
X162037200Y-50976600D01*
X162037200Y-50976600D02*
X161557800Y-51456000D01*
X181991700Y-49657000D02*
X181229000Y-49657000D01*
X181991700Y-49657000D02*
X182754300Y-49657000D01*
X203708000Y-52070000D02*
X190668200Y-52070000D01*
X190668200Y-52070000D02*
X189302600Y-50704400D01*
X189302600Y-50704400D02*
X183801700Y-50704400D01*
X183801700Y-50704400D02*
X182754300Y-49657000D01*
X204470700Y-52070000D02*
X203708000Y-52070000D01*
X204470700Y-52070000D02*
X205233300Y-52070000D01*
X224790000Y-52070000D02*
X226032100Y-52070000D01*
X226032100Y-52070000D02*
X233735400Y-44366700D01*
X233735400Y-44366700D02*
X233735400Y-42013400D01*
X233735400Y-42013400D02*
X225479500Y-33757500D01*
X225479500Y-33757500D02*
X212979700Y-33757500D01*
X212979700Y-33757500D02*
X210512000Y-31289800D01*
X210512000Y-27154500D02*
X210512000Y-31289800D01*
X224227400Y-52070000D02*
X224790000Y-52070000D01*
X224227400Y-52070000D02*
X223664700Y-52070000D01*
X205233300Y-52070000D02*
X206358600Y-50944700D01*
X206358600Y-50944700D02*
X222539400Y-50944700D01*
X222539400Y-50944700D02*
X223664700Y-52070000D01*
G04 #@! TO.N,A12*
X209550000Y-46990000D02*
X208424700Y-46990000D01*
X188468000Y-46990000D02*
X189993300Y-46990000D01*
X189993300Y-46990000D02*
X191118600Y-45864700D01*
X191118600Y-45864700D02*
X207299400Y-45864700D01*
X207299400Y-45864700D02*
X208424700Y-46990000D01*
X187705400Y-46990000D02*
X188468000Y-46990000D01*
X187705400Y-46990000D02*
X186942700Y-46990000D01*
X165989000Y-47117000D02*
X167514300Y-47117000D01*
X186942700Y-46990000D02*
X185933500Y-45980800D01*
X185933500Y-45980800D02*
X179875600Y-45980800D01*
X179875600Y-45980800D02*
X179205700Y-46650700D01*
X179205700Y-46650700D02*
X167980600Y-46650700D01*
X167980600Y-46650700D02*
X167514300Y-47117000D01*
X151133700Y-46808100D02*
X151442600Y-47117000D01*
X151442600Y-47117000D02*
X165989000Y-47117000D01*
G04 #@! TO.N,A14*
X145179000Y-87846000D02*
X128084500Y-87846000D01*
X128084500Y-87846000D02*
X121440900Y-81202400D01*
X121440900Y-81202400D02*
X111455000Y-81202400D01*
X111455000Y-81202400D02*
X108807600Y-83849800D01*
X108807600Y-83849800D02*
X99538200Y-83849800D01*
X99538200Y-83849800D02*
X98044000Y-85344000D01*
X221174700Y-88900000D02*
X219054400Y-91020300D01*
X219054400Y-91020300D02*
X215132400Y-91020300D01*
X215132400Y-91020300D02*
X213348000Y-92804700D01*
X213348000Y-92804700D02*
X211524600Y-92804700D01*
X211524600Y-92804700D02*
X210820000Y-93509300D01*
X210820000Y-93509300D02*
X210820000Y-94384300D01*
X210820000Y-94384300D02*
X210001400Y-95202900D01*
X210001400Y-95202900D02*
X193455700Y-95202900D01*
X193455700Y-95202900D02*
X193005400Y-94752600D01*
X193005400Y-94752600D02*
X189183900Y-94752600D01*
X189183900Y-94752600D02*
X184956200Y-90524900D01*
X184956200Y-90524900D02*
X184956200Y-90074000D01*
X184956200Y-90074000D02*
X183795000Y-88912800D01*
X183795000Y-88912800D02*
X156474800Y-88912800D01*
X156474800Y-88912800D02*
X155408000Y-87846000D01*
X155408000Y-87846000D02*
X145179000Y-87846000D01*
X222250000Y-88900000D02*
X221174700Y-88900000D01*
X165989000Y-52197000D02*
X177378600Y-52197000D01*
X177378600Y-52197000D02*
X179264600Y-50311000D01*
X165989000Y-52197000D02*
X156372900Y-52197000D01*
G04 #@! TO.N,A13*
X149552000Y-31289800D02*
X150019600Y-31757400D01*
X150019600Y-31757400D02*
X158197800Y-31757400D01*
X158197800Y-31757400D02*
X163729200Y-37288800D01*
X149552000Y-27154500D02*
X149552000Y-31289800D01*
X224790000Y-49530000D02*
X223664700Y-49530000D01*
X203708000Y-49530000D02*
X205233300Y-49530000D01*
X205233300Y-49530000D02*
X206358600Y-48404700D01*
X206358600Y-48404700D02*
X222539400Y-48404700D01*
X222539400Y-48404700D02*
X223664700Y-49530000D01*
X202945400Y-49530000D02*
X203708000Y-49530000D01*
X202945400Y-49530000D02*
X202182700Y-49530000D01*
X165989000Y-49657000D02*
X167514300Y-49657000D01*
X202182700Y-49530000D02*
X201039700Y-48387000D01*
X201039700Y-48387000D02*
X168784300Y-48387000D01*
X168784300Y-48387000D02*
X167514300Y-49657000D01*
G04 #@! TO.N,A15*
X161189900Y-86393600D02*
X161189900Y-80433000D01*
X161189900Y-80433000D02*
X157370600Y-76613700D01*
X165278100Y-38038400D02*
X163391400Y-38038400D01*
X163391400Y-38038400D02*
X157560800Y-32207800D01*
X157560800Y-32207800D02*
X149418800Y-32207800D01*
X149418800Y-32207800D02*
X147012000Y-29801000D01*
X147012000Y-29801000D02*
X147012000Y-27154500D01*
X161189900Y-86393600D02*
X160913400Y-86670100D01*
X160913400Y-86670100D02*
X127770500Y-86670100D01*
X127770500Y-86670100D02*
X121852500Y-80752100D01*
X121852500Y-80752100D02*
X110417400Y-80752100D01*
X110417400Y-80752100D02*
X109868900Y-81300600D01*
X109868900Y-81300600D02*
X97007400Y-81300600D01*
X97007400Y-81300600D02*
X95504000Y-82804000D01*
X161189900Y-86393600D02*
X220230800Y-86393600D01*
X220230800Y-86393600D02*
X222804400Y-83820000D01*
X222804400Y-83820000D02*
X224790000Y-83820000D01*
G04 #@! TO.N,KB0*
X74033500Y-58273900D02*
X74200100Y-58440500D01*
X74200100Y-58440500D02*
X79994600Y-58440500D01*
X79994600Y-58440500D02*
X82993200Y-61439100D01*
X82993200Y-61439100D02*
X104619100Y-61439100D01*
X104619100Y-61439100D02*
X105664000Y-62484000D01*
X59690000Y-102235000D02*
X59690000Y-97790000D01*
X71270000Y-119380000D02*
X69850000Y-120800000D01*
X69850000Y-120800000D02*
X69850000Y-132080000D01*
X66190000Y-106680000D02*
X64770000Y-108100000D01*
X64770000Y-108100000D02*
X64770000Y-119380000D01*
X59690000Y-106680000D02*
X59690000Y-102235000D01*
X207010000Y-132080000D02*
X203350000Y-135740000D01*
X203350000Y-135740000D02*
X203350000Y-144780000D01*
X208430000Y-119380000D02*
X207010000Y-120800000D01*
X207010000Y-120800000D02*
X207010000Y-132080000D01*
X69850000Y-132080000D02*
X66190000Y-135740000D01*
X66190000Y-135740000D02*
X66190000Y-144780000D01*
X203350000Y-106680000D02*
X201930000Y-108100000D01*
X201930000Y-108100000D02*
X201930000Y-119380000D01*
G04 #@! TO.N,KB1*
X62230000Y-97790000D02*
X63355300Y-97790000D01*
X63355300Y-97790000D02*
X63355300Y-97508600D01*
X63355300Y-97508600D02*
X64199200Y-96664700D01*
X64199200Y-96664700D02*
X108735500Y-96664700D01*
X108735500Y-96664700D02*
X113040700Y-92359500D01*
X62230000Y-97790000D02*
X62230000Y-102235000D01*
X81430000Y-106680000D02*
X80010000Y-108100000D01*
X80010000Y-108100000D02*
X80010000Y-119380000D01*
X74930000Y-106680000D02*
X73025000Y-104775000D01*
X73025000Y-104775000D02*
X64770000Y-104775000D01*
X64770000Y-104775000D02*
X62230000Y-102235000D01*
X85090000Y-132080000D02*
X81430000Y-135740000D01*
X81430000Y-135740000D02*
X81430000Y-144780000D01*
X191770000Y-132080000D02*
X188110000Y-135740000D01*
X188110000Y-135740000D02*
X188110000Y-144780000D01*
X193190000Y-119380000D02*
X191770000Y-120800000D01*
X191770000Y-120800000D02*
X191770000Y-132080000D01*
X86510000Y-119380000D02*
X85090000Y-120800000D01*
X85090000Y-120800000D02*
X85090000Y-132080000D01*
X188110000Y-106680000D02*
X186690000Y-108100000D01*
X186690000Y-108100000D02*
X186690000Y-119380000D01*
G04 #@! TO.N,KB2*
X64770000Y-97790000D02*
X64770000Y-102235000D01*
X90170000Y-106680000D02*
X87630000Y-104140000D01*
X87630000Y-104140000D02*
X66675000Y-104140000D01*
X66675000Y-104140000D02*
X64770000Y-102235000D01*
X100330000Y-132080000D02*
X96670000Y-135740000D01*
X96670000Y-135740000D02*
X96670000Y-144780000D01*
X176530000Y-132080000D02*
X172870000Y-135740000D01*
X172870000Y-135740000D02*
X172870000Y-144780000D01*
X177950000Y-119380000D02*
X176530000Y-120800000D01*
X176530000Y-120800000D02*
X176530000Y-132080000D01*
X101750000Y-119380000D02*
X100330000Y-120800000D01*
X100330000Y-120800000D02*
X100330000Y-132080000D01*
X172870000Y-106680000D02*
X171450000Y-108100000D01*
X171450000Y-108100000D02*
X171450000Y-119380000D01*
X96670000Y-106680000D02*
X95250000Y-108100000D01*
X95250000Y-108100000D02*
X95250000Y-119380000D01*
G04 #@! TO.N,KB3*
X103124000Y-54864000D02*
X112188500Y-54864000D01*
X112188500Y-54864000D02*
X113210200Y-55885700D01*
X113210200Y-55885700D02*
X123805900Y-55885700D01*
X123805900Y-55885700D02*
X124218600Y-56298400D01*
X156920000Y-106933000D02*
X157377000Y-106933000D01*
X157377000Y-106933000D02*
X157630000Y-106680000D01*
X156920000Y-106933000D02*
X156210000Y-107643000D01*
X156210000Y-107643000D02*
X156210000Y-119380000D01*
X157630000Y-106223000D02*
X156920000Y-106933000D01*
X105410000Y-106680000D02*
X102235000Y-103505000D01*
X102235000Y-103505000D02*
X68580000Y-103505000D01*
X68580000Y-103505000D02*
X67310000Y-102235000D01*
X67310000Y-102235000D02*
X67310000Y-97790000D01*
X115570000Y-132080000D02*
X111910000Y-135740000D01*
X111910000Y-135740000D02*
X111910000Y-144780000D01*
X161290000Y-132080000D02*
X157630000Y-135740000D01*
X157630000Y-135740000D02*
X157630000Y-144780000D01*
X162710000Y-119380000D02*
X161290000Y-120800000D01*
X161290000Y-120800000D02*
X161290000Y-132080000D01*
X116990000Y-119380000D02*
X115570000Y-120800000D01*
X115570000Y-120800000D02*
X115570000Y-132080000D01*
X111910000Y-106680000D02*
X110490000Y-108100000D01*
X110490000Y-108100000D02*
X110490000Y-119380000D01*
G04 #@! TO.N,KB4*
X71600900Y-76256900D02*
X71636700Y-76221100D01*
X71636700Y-76221100D02*
X75625100Y-76221100D01*
X75625100Y-76221100D02*
X76454000Y-75392200D01*
X76454000Y-75392200D02*
X76454000Y-74925300D01*
X76454000Y-74925300D02*
X77246200Y-74133100D01*
X77246200Y-74133100D02*
X90820100Y-74133100D01*
X90820100Y-74133100D02*
X91101500Y-74414500D01*
X120650000Y-106680000D02*
X116840000Y-102870000D01*
X116840000Y-102870000D02*
X70485000Y-102870000D01*
X70485000Y-102870000D02*
X69850000Y-102235000D01*
X69850000Y-102235000D02*
X69850000Y-97790000D01*
X130810000Y-132080000D02*
X127150000Y-135740000D01*
X127150000Y-135740000D02*
X127150000Y-144780000D01*
X146050000Y-132080000D02*
X142390000Y-135740000D01*
X142390000Y-135740000D02*
X142390000Y-144780000D01*
X147470000Y-119380000D02*
X146050000Y-120800000D01*
X146050000Y-120800000D02*
X146050000Y-132080000D01*
X132230000Y-119380000D02*
X130810000Y-120800000D01*
X130810000Y-120800000D02*
X130810000Y-132080000D01*
X142390000Y-106680000D02*
X140970000Y-108100000D01*
X140970000Y-108100000D02*
X140970000Y-119380000D01*
X127150000Y-106680000D02*
X125730000Y-108100000D01*
X125730000Y-108100000D02*
X125730000Y-119380000D01*
D45*
G04 #@! TO.N,+9V*
X236220000Y-74930000D02*
X236220000Y-73579700D01*
X236220000Y-73579700D02*
X233426000Y-70785700D01*
X233426000Y-70785700D02*
X233426000Y-68072000D01*
X154908400Y-39754900D02*
X155134900Y-39528400D01*
X155134900Y-39528400D02*
X159052200Y-39528400D01*
X159052200Y-39528400D02*
X161256300Y-41732500D01*
X161256300Y-41732500D02*
X172355600Y-41732500D01*
X172355600Y-41732500D02*
X174506400Y-39581700D01*
X174506400Y-39581700D02*
X193782000Y-39581700D01*
X193782000Y-39581700D02*
X194345500Y-40145200D01*
X194345500Y-40145200D02*
X195050000Y-40145200D01*
X195050000Y-40145200D02*
X196057700Y-39137500D01*
X196057700Y-39137500D02*
X226917200Y-39137500D01*
X226917200Y-39137500D02*
X230959700Y-43180000D01*
X232410000Y-43180000D02*
X230959700Y-43180000D01*
X81400000Y-45135800D02*
X82286700Y-46022500D01*
X82286700Y-46022500D02*
X92973100Y-46022500D01*
X92973100Y-46022500D02*
X99932100Y-39063500D01*
X99932100Y-39063500D02*
X127390600Y-39063500D01*
X127390600Y-39063500D02*
X131911100Y-34543000D01*
X131911100Y-34543000D02*
X148318700Y-34543000D01*
X148318700Y-34543000D02*
X149905200Y-36129500D01*
X232410000Y-58420000D02*
X232410000Y-59870300D01*
X233426000Y-68072000D02*
X233426000Y-60886300D01*
X233426000Y-60886300D02*
X232410000Y-59870300D01*
X80149700Y-45135800D02*
X81400000Y-45135800D01*
D43*
G04 #@! TO.N,Net-(D2-Pad1)*
X232410000Y-118110000D02*
X231284700Y-118110000D01*
X231284700Y-118110000D02*
X230014700Y-116840000D01*
X230014700Y-116840000D02*
X224790000Y-116840000D01*
X238760000Y-118110000D02*
X232410000Y-118110000D01*
G04 #@! TO.N,Net-(J9-Pad1)*
X218440000Y-116840000D02*
X219615300Y-116840000D01*
X219615300Y-116840000D02*
X220885300Y-118110000D01*
X220885300Y-118110000D02*
X224790000Y-118110000D01*
G04 #@! TO.N,D3*
X172412000Y-31289800D02*
X172412000Y-32614700D01*
X172412000Y-32614700D02*
X169354100Y-35672600D01*
X169354100Y-35672600D02*
X169354100Y-36578900D01*
X169354100Y-36578900D02*
X168213400Y-37719600D01*
X168213400Y-37719600D02*
X167551500Y-37719600D01*
X167551500Y-37719600D02*
X167551500Y-37719700D01*
X172412000Y-27154500D02*
X172412000Y-31289800D01*
X224790000Y-77470000D02*
X223664700Y-77470000D01*
X203708000Y-77470000D02*
X205233300Y-77470000D01*
X205233300Y-77470000D02*
X206358600Y-76344700D01*
X206358600Y-76344700D02*
X222539400Y-76344700D01*
X222539400Y-76344700D02*
X223664700Y-77470000D01*
G04 #@! TO.N,D4*
X224790000Y-74930000D02*
X223664700Y-74930000D01*
X203708000Y-74930000D02*
X205233300Y-74930000D01*
X205233300Y-74930000D02*
X206358600Y-73804700D01*
X206358600Y-73804700D02*
X222539400Y-73804700D01*
X222539400Y-73804700D02*
X223664700Y-74930000D01*
X184230900Y-90435800D02*
X183238200Y-91428500D01*
X183238200Y-91428500D02*
X146061500Y-91428500D01*
X146061500Y-91428500D02*
X144780000Y-92710000D01*
X165401200Y-37009600D02*
X166847000Y-38455400D01*
X166847000Y-38455400D02*
X168114500Y-38455400D01*
X168114500Y-38455400D02*
X169804400Y-36765500D01*
X169804400Y-36765500D02*
X169804400Y-35938800D01*
X169804400Y-35938800D02*
X174453400Y-31289800D01*
X174453400Y-31289800D02*
X174952000Y-31289800D01*
X174952000Y-27154500D02*
X174952000Y-31289800D01*
G04 #@! TO.N,A7*
X179703700Y-52197000D02*
X178433700Y-53467000D01*
X178433700Y-53467000D02*
X158730000Y-53467000D01*
X158730000Y-53467000D02*
X154068700Y-58128300D01*
X154068700Y-58128300D02*
X154068700Y-59979400D01*
X154068700Y-59979400D02*
X155194000Y-61104700D01*
X155194000Y-62230000D02*
X155194000Y-61104700D01*
X181229000Y-52197000D02*
X179703700Y-52197000D01*
X208424700Y-49530000D02*
X206643300Y-49530000D01*
X206643300Y-49530000D02*
X205490500Y-50682800D01*
X205490500Y-50682800D02*
X191146100Y-50682800D01*
X191146100Y-50682800D02*
X189993300Y-49530000D01*
X188468000Y-49530000D02*
X189993300Y-49530000D01*
X209550000Y-49530000D02*
X208424700Y-49530000D01*
G04 #@! TO.N,D5*
X201238200Y-63272600D02*
X199745200Y-61779600D01*
X199745200Y-61779600D02*
X194888800Y-61779600D01*
X194888800Y-61779600D02*
X194171600Y-61062400D01*
X194171600Y-61062400D02*
X186544300Y-61062400D01*
X186544300Y-61062400D02*
X183890100Y-63716600D01*
X183890100Y-63716600D02*
X178025600Y-63716600D01*
X178025600Y-63716600D02*
X176845200Y-64897000D01*
X176845200Y-64897000D02*
X165989000Y-64897000D01*
X169872000Y-31289800D02*
X170057200Y-31475000D01*
X170057200Y-31475000D02*
X170057200Y-34309200D01*
X170057200Y-34309200D02*
X168903800Y-35462600D01*
X168903800Y-35462600D02*
X168903800Y-36392300D01*
X168903800Y-36392300D02*
X168479000Y-36817100D01*
X168479000Y-36817100D02*
X167444800Y-36817100D01*
X167444800Y-36817100D02*
X167339100Y-36711400D01*
X164463700Y-64897000D02*
X163941100Y-65419600D01*
X163941100Y-65419600D02*
X161937100Y-65419600D01*
X165989000Y-64897000D02*
X164463700Y-64897000D01*
X169872000Y-27154500D02*
X169872000Y-31289800D01*
X224790000Y-72390000D02*
X223664700Y-72390000D01*
X203708000Y-72390000D02*
X205233300Y-72390000D01*
X205233300Y-72390000D02*
X206358600Y-71264700D01*
X206358600Y-71264700D02*
X222539400Y-71264700D01*
X222539400Y-71264700D02*
X223664700Y-72390000D01*
G04 #@! TO.N,A6*
X179703700Y-54737000D02*
X178540900Y-55899800D01*
X178540900Y-55899800D02*
X161104200Y-55899800D01*
X161104200Y-55899800D02*
X159414300Y-57589700D01*
X181229000Y-54737000D02*
X179703700Y-54737000D01*
X188468000Y-52070000D02*
X189993300Y-52070000D01*
X189993300Y-52070000D02*
X191126500Y-53203200D01*
X191126500Y-53203200D02*
X204737000Y-53203200D01*
X204737000Y-53203200D02*
X205870200Y-52070000D01*
X205870200Y-52070000D02*
X209550000Y-52070000D01*
G04 #@! TO.N,D6*
X167332000Y-27154500D02*
X167332000Y-31289800D01*
X167332000Y-31289800D02*
X167476900Y-31289800D01*
X167476900Y-31289800D02*
X169252200Y-33065100D01*
X224790000Y-69850000D02*
X223664700Y-69850000D01*
X203708000Y-69850000D02*
X205233300Y-69850000D01*
X205233300Y-69850000D02*
X206358600Y-68724700D01*
X206358600Y-68724700D02*
X222539400Y-68724700D01*
X222539400Y-68724700D02*
X223664700Y-69850000D01*
G04 #@! TO.N,A5*
X155194000Y-58674000D02*
X156319300Y-58674000D01*
X156319300Y-58674000D02*
X156410600Y-58765300D01*
X156410600Y-58765300D02*
X160711500Y-58765300D01*
X160711500Y-58765300D02*
X160802800Y-58674000D01*
X160802800Y-58674000D02*
X178306700Y-58674000D01*
X178306700Y-58674000D02*
X179703700Y-57277000D01*
X181229000Y-57277000D02*
X179703700Y-57277000D01*
X186942700Y-54610000D02*
X184275700Y-57277000D01*
X184275700Y-57277000D02*
X181229000Y-57277000D01*
X209550000Y-54610000D02*
X206643300Y-54610000D01*
X206643300Y-54610000D02*
X205507300Y-55746000D01*
X205507300Y-55746000D02*
X191129300Y-55746000D01*
X191129300Y-55746000D02*
X189993300Y-54610000D01*
X188468000Y-54610000D02*
X189993300Y-54610000D01*
X188468000Y-54610000D02*
X186942700Y-54610000D01*
G04 #@! TO.N,D7*
X152092000Y-31289800D02*
X158414800Y-31289800D01*
X158414800Y-31289800D02*
X162666700Y-35541700D01*
X162666700Y-35541700D02*
X167259700Y-35541700D01*
X167514300Y-75057000D02*
X173720300Y-68851000D01*
X173720300Y-68851000D02*
X183991700Y-68851000D01*
X183991700Y-68851000D02*
X186664300Y-66178400D01*
X186664300Y-66178400D02*
X190135500Y-66178400D01*
X190135500Y-66178400D02*
X191267100Y-67310000D01*
X191267100Y-67310000D02*
X202182700Y-67310000D01*
X154162900Y-89391900D02*
X136668100Y-89391900D01*
X136668100Y-89391900D02*
X133350000Y-92710000D01*
X152092000Y-27154500D02*
X152092000Y-31289800D01*
X224790000Y-67310000D02*
X223664700Y-67310000D01*
X203708000Y-67310000D02*
X205233300Y-67310000D01*
X205233300Y-67310000D02*
X206358600Y-66184700D01*
X206358600Y-66184700D02*
X222539400Y-66184700D01*
X222539400Y-66184700D02*
X223664700Y-67310000D01*
X202945400Y-67310000D02*
X203708000Y-67310000D01*
X202945400Y-67310000D02*
X202182700Y-67310000D01*
X165989000Y-75057000D02*
X167514300Y-75057000D01*
G04 #@! TO.N,A4*
X181229000Y-59817000D02*
X179703700Y-59817000D01*
X179703700Y-59817000D02*
X178513100Y-61007600D01*
X178513100Y-61007600D02*
X156376400Y-61007600D01*
X156376400Y-61007600D02*
X155820800Y-60452000D01*
X188468000Y-57150000D02*
X189993300Y-57150000D01*
X189993300Y-57150000D02*
X191126500Y-58283200D01*
X191126500Y-58283200D02*
X204737000Y-58283200D01*
X204737000Y-58283200D02*
X205870200Y-57150000D01*
X205870200Y-57150000D02*
X209550000Y-57150000D01*
G04 #@! TO.N,A3*
X179703700Y-62357000D02*
X178430100Y-62357000D01*
X178430100Y-62357000D02*
X177295600Y-63491500D01*
X177295600Y-63491500D02*
X157222400Y-63491500D01*
X157222400Y-63491500D02*
X157103700Y-63372800D01*
X157103700Y-63372800D02*
X154714400Y-63372800D01*
X154714400Y-63372800D02*
X153609800Y-62268200D01*
X153609800Y-62268200D02*
X153609800Y-57827500D01*
X153609800Y-57827500D02*
X155194000Y-56243300D01*
X181229000Y-62357000D02*
X179703700Y-62357000D01*
X155194000Y-55118000D02*
X155194000Y-56243300D01*
X181991700Y-62357000D02*
X181229000Y-62357000D01*
X181991700Y-62357000D02*
X182754300Y-62357000D01*
X208424700Y-59690000D02*
X207299400Y-60815300D01*
X207299400Y-60815300D02*
X200650800Y-60815300D01*
X200650800Y-60815300D02*
X199525500Y-59690000D01*
X199525500Y-59690000D02*
X189993300Y-59690000D01*
X188468000Y-59690000D02*
X189993300Y-59690000D01*
X188468000Y-59690000D02*
X186942700Y-59690000D01*
X186942700Y-59690000D02*
X184275700Y-62357000D01*
X184275700Y-62357000D02*
X182754300Y-62357000D01*
X209550000Y-59690000D02*
X208424700Y-59690000D01*
G04 #@! TO.N,A2*
X189993300Y-62230000D02*
X196219400Y-62230000D01*
X196219400Y-62230000D02*
X197987300Y-63997900D01*
X197987300Y-63997900D02*
X201777000Y-63997900D01*
X201777000Y-63997900D02*
X202407900Y-63367000D01*
X202407900Y-63367000D02*
X207287700Y-63367000D01*
X207287700Y-63367000D02*
X208424700Y-62230000D01*
X179703700Y-64897000D02*
X179263900Y-64897000D01*
X179263900Y-64897000D02*
X178015900Y-66145000D01*
X178015900Y-66145000D02*
X158850100Y-66145000D01*
X158850100Y-66145000D02*
X156803200Y-64098100D01*
X181229000Y-64897000D02*
X179703700Y-64897000D01*
X209550000Y-62230000D02*
X208424700Y-62230000D01*
X188468000Y-62230000D02*
X189993300Y-62230000D01*
G04 #@! TO.N,A1*
X155194000Y-51308000D02*
X155194000Y-52433300D01*
X179064400Y-66122200D02*
X178424400Y-66762200D01*
X178424400Y-66762200D02*
X170486900Y-66762200D01*
X170486900Y-66762200D02*
X168683200Y-68565900D01*
X168683200Y-68565900D02*
X159589300Y-68565900D01*
X159589300Y-68565900D02*
X155483900Y-64460500D01*
X155483900Y-64460500D02*
X155112000Y-64460500D01*
X155112000Y-64460500D02*
X153142600Y-62491100D01*
X153142600Y-62491100D02*
X153142600Y-54484700D01*
X153142600Y-54484700D02*
X155194000Y-52433300D01*
X189993300Y-64770000D02*
X191186500Y-65963200D01*
X191186500Y-65963200D02*
X205450100Y-65963200D01*
X205450100Y-65963200D02*
X206643300Y-64770000D01*
X206643300Y-64770000D02*
X209550000Y-64770000D01*
X186942700Y-64770000D02*
X184275700Y-67437000D01*
X184275700Y-67437000D02*
X181229000Y-67437000D01*
X188468000Y-64770000D02*
X189993300Y-64770000D01*
X188468000Y-64770000D02*
X186942700Y-64770000D01*
G04 #@! TO.N,A0*
X181229000Y-69977000D02*
X173269200Y-69977000D01*
X173269200Y-69977000D02*
X167007800Y-76238400D01*
X167007800Y-76238400D02*
X161738300Y-76238400D01*
X161738300Y-76238400D02*
X157526500Y-72026600D01*
X157526500Y-72026600D02*
X155584500Y-72026600D01*
X155584500Y-72026600D02*
X146404100Y-62846200D01*
X146404100Y-62846200D02*
X146404100Y-61767500D01*
X146404100Y-61767500D02*
X149664200Y-58507400D01*
X149664200Y-58507400D02*
X149664200Y-51092800D01*
X149664200Y-51092800D02*
X148101400Y-49530000D01*
X148101400Y-49530000D02*
X145034000Y-49530000D01*
X186942700Y-67310000D02*
X184275700Y-69977000D01*
X184275700Y-69977000D02*
X181229000Y-69977000D01*
X82804000Y-57404000D02*
X84331200Y-58931200D01*
X84331200Y-58931200D02*
X92966900Y-58931200D01*
X92966900Y-58931200D02*
X94234000Y-57664100D01*
X94234000Y-57664100D02*
X94234000Y-57198100D01*
X94234000Y-57198100D02*
X95064700Y-56367400D01*
X95064700Y-56367400D02*
X98024200Y-56367400D01*
X98024200Y-56367400D02*
X99314000Y-55077600D01*
X99314000Y-55077600D02*
X99314000Y-54658100D01*
X99314000Y-54658100D02*
X102604700Y-51367400D01*
X102604700Y-51367400D02*
X109809800Y-51367400D01*
X109809800Y-51367400D02*
X110260000Y-50917200D01*
X110260000Y-50917200D02*
X142521500Y-50917200D01*
X142521500Y-50917200D02*
X143908700Y-49530000D01*
X145034000Y-49530000D02*
X143908700Y-49530000D01*
X209550000Y-67310000D02*
X206643300Y-67310000D01*
X206643300Y-67310000D02*
X205507300Y-68446000D01*
X205507300Y-68446000D02*
X191129300Y-68446000D01*
X191129300Y-68446000D02*
X189993300Y-67310000D01*
X188468000Y-67310000D02*
X189993300Y-67310000D01*
X188468000Y-67310000D02*
X186942700Y-67310000D01*
G04 #@! TO.N,D0*
X159712000Y-31289800D02*
X162963500Y-34541300D01*
X162963500Y-34541300D02*
X167261900Y-34541300D01*
X165989000Y-77597000D02*
X167514300Y-77597000D01*
X167514300Y-77597000D02*
X173736000Y-71375300D01*
X173736000Y-71375300D02*
X185417400Y-71375300D01*
X185417400Y-71375300D02*
X186942700Y-69850000D01*
X188468000Y-69850000D02*
X186942700Y-69850000D01*
X188816200Y-69850000D02*
X188468000Y-69850000D01*
X188816200Y-69850000D02*
X189993300Y-69850000D01*
X189993300Y-69850000D02*
X191126500Y-70983200D01*
X191126500Y-70983200D02*
X204737000Y-70983200D01*
X204737000Y-70983200D02*
X205870200Y-69850000D01*
X205870200Y-69850000D02*
X209550000Y-69850000D01*
X159712000Y-27154500D02*
X159712000Y-31289800D01*
G04 #@! TO.N,D1*
X165989000Y-80137000D02*
X167514300Y-80137000D01*
X188468000Y-72390000D02*
X186942700Y-72390000D01*
X186942700Y-72390000D02*
X185658100Y-73674600D01*
X185658100Y-73674600D02*
X173976700Y-73674600D01*
X173976700Y-73674600D02*
X167514300Y-80137000D01*
X188901500Y-72390000D02*
X188468000Y-72390000D01*
X168226400Y-34091000D02*
X167951400Y-33816000D01*
X167951400Y-33816000D02*
X164778200Y-33816000D01*
X164778200Y-33816000D02*
X162252000Y-31289800D01*
X162252000Y-27154500D02*
X162252000Y-31289800D01*
X188901500Y-72390000D02*
X189993300Y-72390000D01*
X189993300Y-72390000D02*
X191126500Y-73523200D01*
X191126500Y-73523200D02*
X204737000Y-73523200D01*
X204737000Y-73523200D02*
X205870200Y-72390000D01*
X205870200Y-72390000D02*
X209550000Y-72390000D01*
G04 #@! TO.N,D2*
X168178500Y-36091800D02*
X168178500Y-35164700D01*
X168178500Y-35164700D02*
X168951700Y-34391500D01*
X168951700Y-34391500D02*
X168951700Y-33790500D01*
X168951700Y-33790500D02*
X166451000Y-31289800D01*
X166451000Y-31289800D02*
X164792000Y-31289800D01*
X167514300Y-72517000D02*
X171920200Y-68111100D01*
X171920200Y-68111100D02*
X179342300Y-68111100D01*
X188468000Y-74930000D02*
X189993300Y-74930000D01*
X189993300Y-74930000D02*
X191126500Y-76063200D01*
X191126500Y-76063200D02*
X204737000Y-76063200D01*
X204737000Y-76063200D02*
X205870200Y-74930000D01*
X205870200Y-74930000D02*
X209550000Y-74930000D01*
X165989000Y-72517000D02*
X167514300Y-72517000D01*
X164792000Y-27154500D02*
X164792000Y-31289800D01*
G04 #@! TO.N,VA0*
X115825300Y-67310000D02*
X116494300Y-66641000D01*
X116494300Y-66641000D02*
X122366600Y-66641000D01*
X114300000Y-67310000D02*
X115825300Y-67310000D01*
X77724000Y-67564000D02*
X78495800Y-68335800D01*
X78495800Y-68335800D02*
X98244500Y-68335800D01*
X98244500Y-68335800D02*
X98976100Y-69067400D01*
X98976100Y-69067400D02*
X107291000Y-69067400D01*
X107291000Y-69067400D02*
X107375400Y-68983000D01*
G04 #@! TO.N,VD0*
X115825300Y-69850000D02*
X118507300Y-69850000D01*
X118507300Y-69850000D02*
X122262900Y-73605600D01*
X122262900Y-73605600D02*
X132431700Y-73605600D01*
X132431700Y-73605600D02*
X135456900Y-76630800D01*
X135456900Y-76630800D02*
X150435500Y-76630800D01*
X150435500Y-76630800D02*
X158894700Y-85090000D01*
X114300000Y-69850000D02*
X112774700Y-69850000D01*
X112774700Y-69850000D02*
X106461800Y-63537100D01*
X106461800Y-63537100D02*
X83252900Y-63537100D01*
X83252900Y-63537100D02*
X78606700Y-58890900D01*
X78606700Y-58890900D02*
X77311200Y-58890900D01*
X77311200Y-58890900D02*
X76613400Y-59588700D01*
X76613400Y-59588700D02*
X76613400Y-61054600D01*
X76613400Y-61054600D02*
X75184000Y-62484000D01*
X114395000Y-69850000D02*
X114300000Y-69850000D01*
X114395000Y-69850000D02*
X115825300Y-69850000D01*
X160020000Y-85090000D02*
X158894700Y-85090000D01*
G04 #@! TO.N,VA1*
X147574000Y-51308000D02*
X148739400Y-52473400D01*
X148739400Y-52473400D02*
X148739400Y-55586700D01*
X148739400Y-55586700D02*
X147605700Y-56720400D01*
X147605700Y-56720400D02*
X146968800Y-56720400D01*
X146968800Y-56720400D02*
X137755300Y-65933900D01*
X137755300Y-65933900D02*
X123322200Y-65933900D01*
X123322200Y-65933900D02*
X122158300Y-64770000D01*
X122158300Y-64770000D02*
X115825300Y-64770000D01*
X75184000Y-70104000D02*
X73649800Y-68569800D01*
X73649800Y-68569800D02*
X73649800Y-65061900D01*
X73649800Y-65061900D02*
X74957700Y-63754000D01*
X74957700Y-63754000D02*
X75444100Y-63754000D01*
X75444100Y-63754000D02*
X76220600Y-62977500D01*
X76220600Y-62977500D02*
X76220600Y-62511500D01*
X76220600Y-62511500D02*
X77285400Y-61446700D01*
X77285400Y-61446700D02*
X78589800Y-61446700D01*
X78589800Y-61446700D02*
X81897500Y-64754400D01*
X81897500Y-64754400D02*
X95352500Y-64754400D01*
X95352500Y-64754400D02*
X96675000Y-66076900D01*
X96675000Y-66076900D02*
X107322900Y-66076900D01*
X107322900Y-66076900D02*
X107531400Y-66285400D01*
X114300000Y-64770000D02*
X115825300Y-64770000D01*
G04 #@! TO.N,VD1*
X155084700Y-85090000D02*
X147075900Y-77081200D01*
X147075900Y-77081200D02*
X133824400Y-77081200D01*
X133824400Y-77081200D02*
X132820900Y-76077700D01*
X132820900Y-76077700D02*
X124098100Y-76077700D01*
X124098100Y-76077700D02*
X120410400Y-72390000D01*
X120410400Y-72390000D02*
X115825300Y-72390000D01*
X77724000Y-59944000D02*
X81767500Y-63987500D01*
X81767500Y-63987500D02*
X106260000Y-63987500D01*
X106260000Y-63987500D02*
X114300000Y-72027500D01*
X114300000Y-72027500D02*
X114300000Y-72390000D01*
X156210000Y-85090000D02*
X155084700Y-85090000D01*
X114300000Y-72390000D02*
X115825300Y-72390000D01*
G04 #@! TO.N,VA2*
X114300000Y-62230000D02*
X112774700Y-62230000D01*
X112774700Y-62230000D02*
X112774700Y-59222500D01*
X112774700Y-59222500D02*
X113450100Y-58547100D01*
X113450100Y-58547100D02*
X137365400Y-58547100D01*
X137365400Y-58547100D02*
X138586100Y-57326400D01*
X138586100Y-57326400D02*
X138586100Y-54258100D01*
X138586100Y-54258100D02*
X137414000Y-53086000D01*
X97303300Y-72430000D02*
X82933400Y-72430000D01*
X82933400Y-72430000D02*
X82075400Y-71572000D01*
X82075400Y-71572000D02*
X76256000Y-71572000D01*
X76256000Y-71572000D02*
X75184000Y-72644000D01*
G04 #@! TO.N,VD2*
X112774700Y-74930000D02*
X109310200Y-71465500D01*
X109310200Y-71465500D02*
X99317000Y-71465500D01*
X99317000Y-71465500D02*
X99046900Y-71195400D01*
X99046900Y-71195400D02*
X92589200Y-71195400D01*
X92589200Y-71195400D02*
X91752800Y-70359000D01*
X151274700Y-85090000D02*
X150149400Y-86215300D01*
X150149400Y-86215300D02*
X147496900Y-86215300D01*
X147496900Y-86215300D02*
X143980900Y-82699300D01*
X143980900Y-82699300D02*
X131775600Y-82699300D01*
X131775600Y-82699300D02*
X126072600Y-76996300D01*
X126072600Y-76996300D02*
X122230500Y-76996300D01*
X122230500Y-76996300D02*
X120164200Y-74930000D01*
X120164200Y-74930000D02*
X114300000Y-74930000D01*
X114300000Y-74930000D02*
X112774700Y-74930000D01*
X152400000Y-85090000D02*
X151274700Y-85090000D01*
G04 #@! TO.N,VA3*
X95927900Y-76536100D02*
X78911900Y-76536100D01*
X78911900Y-76536100D02*
X77724000Y-77724000D01*
X114300000Y-59690000D02*
X115825300Y-59690000D01*
X115825300Y-59690000D02*
X117015900Y-60880600D01*
X117015900Y-60880600D02*
X135350200Y-60880600D01*
X135350200Y-60880600D02*
X136909500Y-59321300D01*
X136909500Y-59321300D02*
X140390300Y-59321300D01*
X140390300Y-59321300D02*
X144593600Y-55118000D01*
X144593600Y-55118000D02*
X147574000Y-55118000D01*
G04 #@! TO.N,VD3*
X128014700Y-77470000D02*
X127081700Y-76537000D01*
X127081700Y-76537000D02*
X122408100Y-76537000D01*
X122408100Y-76537000D02*
X119531100Y-73660000D01*
X119531100Y-73660000D02*
X113538900Y-73660000D01*
X113538900Y-73660000D02*
X109792600Y-69913700D01*
X109792600Y-69913700D02*
X109792600Y-68999000D01*
X109792600Y-68999000D02*
X107930700Y-67137100D01*
X107930700Y-67137100D02*
X107293800Y-67137100D01*
X107293800Y-67137100D02*
X106684000Y-66527300D01*
X106684000Y-66527300D02*
X90388200Y-66527300D01*
X90388200Y-66527300D02*
X90285800Y-66424900D01*
X129540000Y-77470000D02*
X128014700Y-77470000D01*
X129540000Y-77470000D02*
X131065300Y-77470000D01*
X131065300Y-77470000D02*
X131531800Y-77936500D01*
X131531800Y-77936500D02*
X140311200Y-77936500D01*
X140311200Y-77936500D02*
X147464700Y-85090000D01*
X148590000Y-85090000D02*
X147464700Y-85090000D01*
G04 #@! TO.N,VA4*
X77724000Y-80264000D02*
X79813400Y-78174600D01*
X79813400Y-78174600D02*
X94723700Y-78174600D01*
X115825300Y-57150000D02*
X125029400Y-57150000D01*
X125029400Y-57150000D02*
X126172300Y-56007100D01*
X126172300Y-56007100D02*
X136525100Y-56007100D01*
X136525100Y-56007100D02*
X137414000Y-56896000D01*
X114300000Y-57150000D02*
X115825300Y-57150000D01*
G04 #@! TO.N,VD4*
X77724000Y-54864000D02*
X76233800Y-54864000D01*
X76233800Y-54864000D02*
X73187000Y-57910800D01*
X73187000Y-57910800D02*
X73187000Y-72157700D01*
X73187000Y-72157700D02*
X74712000Y-73682700D01*
X74712000Y-73682700D02*
X97577600Y-73682700D01*
X97577600Y-73682700D02*
X102670000Y-78775100D01*
X102670000Y-78775100D02*
X106897300Y-78775100D01*
X106897300Y-78775100D02*
X107281700Y-79159500D01*
X107281700Y-79159500D02*
X124432200Y-79159500D01*
X124432200Y-79159500D02*
X131488000Y-86215300D01*
X131488000Y-86215300D02*
X142529400Y-86215300D01*
X142529400Y-86215300D02*
X143654700Y-85090000D01*
X144780000Y-85090000D02*
X143654700Y-85090000D01*
G04 #@! TO.N,VA5*
X77724000Y-82804000D02*
X78169100Y-82804000D01*
X78169100Y-82804000D02*
X81268600Y-79704500D01*
X81268600Y-79704500D02*
X92156700Y-79704500D01*
X92156700Y-79704500D02*
X92319600Y-79867400D01*
X114300000Y-54610000D02*
X115825300Y-54610000D01*
X115825300Y-54610000D02*
X117095300Y-53340000D01*
X117095300Y-53340000D02*
X133519700Y-53340000D01*
X133519700Y-53340000D02*
X134899100Y-51960600D01*
X134899100Y-51960600D02*
X144381400Y-51960600D01*
X144381400Y-51960600D02*
X146200400Y-50141600D01*
X146200400Y-50141600D02*
X148035600Y-50141600D01*
X148035600Y-50141600D02*
X149211000Y-51317000D01*
X149211000Y-51317000D02*
X149211000Y-57037000D01*
X149211000Y-57037000D02*
X147574000Y-58674000D01*
G04 #@! TO.N,VD5*
X129540000Y-72390000D02*
X122825200Y-72390000D01*
X122825200Y-72390000D02*
X119159800Y-68724600D01*
X119159800Y-68724600D02*
X113704300Y-68724600D01*
X113704300Y-68724600D02*
X105968400Y-60988700D01*
X105968400Y-60988700D02*
X84863400Y-60988700D01*
X84863400Y-60988700D02*
X81300600Y-57425900D01*
X81300600Y-57425900D02*
X81300600Y-56941300D01*
X81300600Y-56941300D02*
X80695100Y-56335800D01*
X80695100Y-56335800D02*
X76252200Y-56335800D01*
X76252200Y-56335800D02*
X75184000Y-57404000D01*
G04 #@! TO.N,VA6*
X114300000Y-52070000D02*
X126173100Y-52070000D01*
X126173100Y-52070000D02*
X126482300Y-52379200D01*
X78964700Y-87704200D02*
X79952200Y-88691700D01*
X79952200Y-88691700D02*
X118096500Y-88691700D01*
X118096500Y-88691700D02*
X119086600Y-87701600D01*
G04 #@! TO.N,VD6*
X116579500Y-67942600D02*
X116761700Y-67760400D01*
X116761700Y-67760400D02*
X121522200Y-67760400D01*
X121522200Y-67760400D02*
X123611800Y-69850000D01*
X123611800Y-69850000D02*
X129540000Y-69850000D01*
X108554900Y-68841500D02*
X107925400Y-68212000D01*
X107925400Y-68212000D02*
X106818100Y-68212000D01*
X106818100Y-68212000D02*
X106413000Y-68617100D01*
X106413000Y-68617100D02*
X102537800Y-68617100D01*
X102537800Y-68617100D02*
X101073000Y-67152300D01*
X101073000Y-67152300D02*
X82392300Y-67152300D01*
X82392300Y-67152300D02*
X77724000Y-62484000D01*
G04 #@! TO.N,VA7*
X147574000Y-62230000D02*
X150165400Y-59638600D01*
X150165400Y-59638600D02*
X150165400Y-50957100D01*
X150165400Y-50957100D02*
X147556000Y-48347700D01*
X147556000Y-48347700D02*
X117007600Y-48347700D01*
X117007600Y-48347700D02*
X115825300Y-49530000D01*
X114300000Y-49530000D02*
X115825300Y-49530000D01*
G04 #@! TO.N,VD7*
X133350000Y-85090000D02*
X132224700Y-85090000D01*
X132224700Y-85090000D02*
X132224700Y-84386700D01*
X132224700Y-84386700D02*
X125284700Y-77446700D01*
X125284700Y-77446700D02*
X120324000Y-77446700D01*
X120324000Y-77446700D02*
X118979500Y-76102200D01*
X118979500Y-76102200D02*
X110234800Y-76102200D01*
X110234800Y-76102200D02*
X107554600Y-73422000D01*
X107554600Y-73422000D02*
X106400400Y-73422000D01*
X106400400Y-73422000D02*
X106125400Y-73697000D01*
X106125400Y-73697000D02*
X100686600Y-73697000D01*
X100686600Y-73697000D02*
X98635600Y-71646000D01*
X98635600Y-71646000D02*
X91356500Y-71646000D01*
X91356500Y-71646000D02*
X88544500Y-68834000D01*
X88544500Y-68834000D02*
X74972300Y-68834000D01*
X74972300Y-68834000D02*
X74136200Y-67997900D01*
X74136200Y-67997900D02*
X74136200Y-66071800D01*
X74136200Y-66071800D02*
X75184000Y-65024000D01*
G04 #@! TO.N,VA9*
X73353900Y-79945500D02*
X74865500Y-79945500D01*
X74865500Y-79945500D02*
X75184000Y-80264000D01*
G04 #@! TO.N,VA10*
X77724000Y-72644000D02*
X78235300Y-73155300D01*
X78235300Y-73155300D02*
X97881700Y-73155300D01*
X97881700Y-73155300D02*
X98873800Y-74147400D01*
X98873800Y-74147400D02*
X106700800Y-74147400D01*
X106700800Y-74147400D02*
X106712800Y-74159400D01*
X110984600Y-78431200D02*
X111175600Y-78622200D01*
X111175600Y-78622200D02*
X125398900Y-78622200D01*
G04 #@! TO.N,VA12*
X137414000Y-71374000D02*
X138632800Y-72592800D01*
X138632800Y-72592800D02*
X138632800Y-75328200D01*
X138632800Y-75328200D02*
X137868000Y-76093000D01*
X137868000Y-76093000D02*
X136045400Y-76093000D01*
X136045400Y-76093000D02*
X131217100Y-71264700D01*
X131217100Y-71264700D02*
X122725700Y-71264700D01*
X122725700Y-71264700D02*
X119952500Y-68491500D01*
X87884000Y-85344000D02*
X89880800Y-87340800D01*
X89880800Y-87340800D02*
X116408700Y-87340800D01*
X116408700Y-87340800D02*
X118888300Y-84861200D01*
G04 #@! TO.N,EAR*
X90424000Y-82804000D02*
X88928900Y-84299100D01*
X88928900Y-84299100D02*
X87454100Y-84299100D01*
X87454100Y-84299100D02*
X86838300Y-84914900D01*
X86838300Y-84914900D02*
X86838300Y-85764100D01*
X86838300Y-85764100D02*
X88865300Y-87791100D01*
X88865300Y-87791100D02*
X116984200Y-87791100D01*
X116984200Y-87791100D02*
X119755700Y-85019600D01*
X119755700Y-85019600D02*
X121255800Y-85019600D01*
X121255800Y-85019600D02*
X132114500Y-95878300D01*
X132114500Y-95878300D02*
X191995100Y-95878300D01*
X191995100Y-95878300D02*
X192220500Y-96103700D01*
X192220500Y-96103700D02*
X225643700Y-96103700D01*
X225643700Y-96103700D02*
X232410000Y-102870000D01*
X78740000Y-34798000D02*
X76454000Y-34798000D01*
X76454000Y-34798000D02*
X68834000Y-42418000D01*
G04 #@! TO.N,Net-(C5-Pad1)*
X54102000Y-71120000D02*
X52976700Y-71120000D01*
X50673000Y-71247000D02*
X52849700Y-71247000D01*
X52849700Y-71247000D02*
X52976700Y-71120000D01*
G04 #@! TO.N,Net-(C5-Pad2)*
X54102000Y-68834000D02*
X50760000Y-68834000D01*
X50760000Y-68834000D02*
X50673000Y-68747000D01*
G04 #@! TO.N,/ula/TMS*
X92804700Y-91440000D02*
X92804700Y-91807300D01*
X92804700Y-91807300D02*
X91984100Y-92627900D01*
X91984100Y-92627900D02*
X87479300Y-92627900D01*
X87479300Y-92627900D02*
X87079500Y-92228100D01*
X93980000Y-91440000D02*
X92804700Y-91440000D01*
G04 #@! TO.N,Net-(R29-Pad2)*
X54102000Y-61214000D02*
X54102000Y-62339300D01*
X57658000Y-64008000D02*
X56132700Y-64008000D01*
X56132700Y-64008000D02*
X54464000Y-62339300D01*
X54464000Y-62339300D02*
X54102000Y-62339300D01*
G04 #@! TO.N,CLK14*
X92964000Y-54864000D02*
X91468900Y-56359100D01*
X91468900Y-56359100D02*
X89989800Y-56359100D01*
X89989800Y-56359100D02*
X89154000Y-57194900D01*
X89154000Y-57194900D02*
X89154000Y-57662100D01*
X89154000Y-57662100D02*
X88335300Y-58480800D01*
X88335300Y-58480800D02*
X84944900Y-58480800D01*
X84944900Y-58480800D02*
X83840600Y-57376500D01*
X83840600Y-57376500D02*
X83840600Y-56910500D01*
X83840600Y-56910500D02*
X82830700Y-55900600D01*
X82830700Y-55900600D02*
X82320100Y-55900600D01*
X82320100Y-55900600D02*
X81534000Y-55114500D01*
X81534000Y-55114500D02*
X81534000Y-54584400D01*
X81534000Y-54584400D02*
X80759700Y-53810100D01*
X80759700Y-53810100D02*
X76607100Y-53810100D01*
X76607100Y-53810100D02*
X70136900Y-60280300D01*
X70136900Y-60280300D02*
X70136900Y-72052000D01*
X70136900Y-72052000D02*
X66750900Y-75438000D01*
X66750900Y-75438000D02*
X60453300Y-75438000D01*
X60453300Y-75438000D02*
X59183300Y-76708000D01*
X57658000Y-76708000D02*
X59183300Y-76708000D01*
G04 #@! TO.N,ROM_CS*
X155194000Y-45466000D02*
X157795500Y-42864500D01*
X157795500Y-42864500D02*
X212117400Y-42864500D01*
X212117400Y-42864500D02*
X212612600Y-42369300D01*
G04 #@! TO.N,IORQULA*
X104897400Y-38099100D02*
X110124500Y-38099100D01*
X110124500Y-38099100D02*
X116115600Y-32108000D01*
X116115600Y-32108000D02*
X147405100Y-32108000D01*
X147405100Y-32108000D02*
X148680600Y-33383500D01*
X148680600Y-33383500D02*
X156645900Y-33383500D01*
X156645900Y-33383500D02*
X156645900Y-33383600D01*
X156645900Y-33383600D02*
X157208400Y-33946100D01*
X157208400Y-33946100D02*
X158653600Y-33946100D01*
X158653600Y-33946100D02*
X163613200Y-38905700D01*
X163613200Y-38905700D02*
X168301100Y-38905700D01*
X168301100Y-38905700D02*
X170254700Y-36952100D01*
X170254700Y-36952100D02*
X170254700Y-36125400D01*
X170254700Y-36125400D02*
X173321300Y-33058800D01*
X173321300Y-33058800D02*
X174872000Y-33058800D01*
X101854000Y-49530000D02*
X101854000Y-50655300D01*
X92964000Y-57404000D02*
X94451000Y-55917000D01*
X94451000Y-55917000D02*
X95936600Y-55917000D01*
X95936600Y-55917000D02*
X96958200Y-54895400D01*
X96958200Y-54895400D02*
X96958200Y-54425800D01*
X96958200Y-54425800D02*
X100728700Y-50655300D01*
X100728700Y-50655300D02*
X101854000Y-50655300D01*
G04 #@! TO.N,CLK_B*
X95759500Y-78674000D02*
X95759500Y-78121000D01*
X95759500Y-78121000D02*
X95061700Y-77423200D01*
X95061700Y-77423200D02*
X90118900Y-77423200D01*
X84890700Y-45172200D02*
X86965200Y-43097700D01*
X86965200Y-43097700D02*
X94502400Y-43097700D01*
X94502400Y-43097700D02*
X100631200Y-36968900D01*
X100631200Y-36968900D02*
X109538100Y-36968900D01*
X109538100Y-36968900D02*
X114900100Y-31606900D01*
X114900100Y-31606900D02*
X147646700Y-31606900D01*
X147646700Y-31606900D02*
X148698000Y-32658200D01*
X148698000Y-32658200D02*
X156946200Y-32658200D01*
X156946200Y-32658200D02*
X157508800Y-33220800D01*
G04 #@! TO.N,Net-(R31-Pad2)*
X136288700Y-74930000D02*
X136288700Y-74508000D01*
X136288700Y-74508000D02*
X130360700Y-68580000D01*
X130360700Y-68580000D02*
X125331400Y-68580000D01*
X125331400Y-68580000D02*
X122667100Y-65915700D01*
X122667100Y-65915700D02*
X113139400Y-65915700D01*
X113139400Y-65915700D02*
X105897700Y-58674000D01*
X105897700Y-58674000D02*
X105373500Y-58674000D01*
X105373500Y-58674000D02*
X104394000Y-57694500D01*
X104394000Y-57694500D02*
X104394000Y-57178500D01*
X104394000Y-57178500D02*
X103566400Y-56350900D01*
X103566400Y-56350900D02*
X99097100Y-56350900D01*
X99097100Y-56350900D02*
X98044000Y-57404000D01*
X137414000Y-74930000D02*
X136288700Y-74930000D01*
G04 #@! TO.N,Net-(R32-Pad2)*
X147574000Y-45466000D02*
X146448700Y-45466000D01*
X98044000Y-54864000D02*
X98471200Y-54864000D01*
X98471200Y-54864000D02*
X102418100Y-50917100D01*
X102418100Y-50917100D02*
X109132600Y-50917100D01*
X109132600Y-50917100D02*
X111927100Y-48122600D01*
X111927100Y-48122600D02*
X115367600Y-48122600D01*
X115367600Y-48122600D02*
X115825400Y-47664800D01*
X115825400Y-47664800D02*
X125935100Y-47664800D01*
X125935100Y-47664800D02*
X127879900Y-45720000D01*
X127879900Y-45720000D02*
X146194700Y-45720000D01*
X146194700Y-45720000D02*
X146448700Y-45466000D01*
G04 #@! TO.N,VRAM_CS*
X129540000Y-64770000D02*
X128014700Y-64770000D01*
X99572600Y-67964900D02*
X99493100Y-67885400D01*
X99493100Y-67885400D02*
X82016200Y-67885400D01*
X82016200Y-67885400D02*
X80653000Y-66522200D01*
X80653000Y-66522200D02*
X76225800Y-66522200D01*
X76225800Y-66522200D02*
X75184000Y-67564000D01*
X128014700Y-64770000D02*
X125053100Y-61808400D01*
X125053100Y-61808400D02*
X117089800Y-61808400D01*
G04 #@! TO.N,VRAM_RD*
X77724000Y-75184000D02*
X97979800Y-75184000D01*
X97979800Y-75184000D02*
X102021400Y-79225600D01*
X102021400Y-79225600D02*
X106710900Y-79225600D01*
X106710900Y-79225600D02*
X107578900Y-80093600D01*
X107578900Y-80093600D02*
X124340500Y-80093600D01*
G04 #@! TO.N,VRAM_WR*
X85344000Y-85344000D02*
X88241400Y-88241400D01*
X88241400Y-88241400D02*
X117170800Y-88241400D01*
X117170800Y-88241400D02*
X119667300Y-85744900D01*
X119667300Y-85744900D02*
X120768900Y-85744900D01*
G04 #@! TO.N,RAM_CS*
X95504000Y-54864000D02*
X95504000Y-54211800D01*
X95504000Y-54211800D02*
X106391200Y-43324600D01*
X106391200Y-43324600D02*
X147055300Y-43324600D01*
X147055300Y-43324600D02*
X149586300Y-45855600D01*
X149586300Y-45855600D02*
X149586300Y-48748100D01*
X149586300Y-48748100D02*
X151505400Y-50667200D01*
X151505400Y-50667200D02*
X151505400Y-67245000D01*
X151505400Y-67245000D02*
X155404400Y-71144000D01*
X155404400Y-71144000D02*
X168122900Y-71144000D01*
X168122900Y-71144000D02*
X171683900Y-67583000D01*
X171683900Y-67583000D02*
X178716000Y-67583000D01*
X178716000Y-67583000D02*
X180276600Y-66022400D01*
X180276600Y-66022400D02*
X183799600Y-66022400D01*
X183799600Y-66022400D02*
X186224700Y-63597300D01*
X186224700Y-63597300D02*
X196946800Y-63597300D01*
X196946800Y-63597300D02*
X198119500Y-64770000D01*
X198119500Y-64770000D02*
X203708000Y-64770000D01*
G04 #@! TO.N,Net-(C14-Pad1)*
X71120000Y-34798000D02*
X69994700Y-34798000D01*
X69994700Y-34798000D02*
X69994700Y-35288300D01*
X69994700Y-35288300D02*
X66294000Y-38989000D01*
G04 #@! TO.N,Net-(C14-Pad2)*
X72246200Y-33652200D02*
X71977300Y-33383300D01*
X71977300Y-33383300D02*
X71120000Y-33383300D01*
X68794000Y-38989000D02*
X68794000Y-38024100D01*
X68794000Y-38024100D02*
X70750100Y-36068000D01*
X70750100Y-36068000D02*
X71505700Y-36068000D01*
X71505700Y-36068000D02*
X72246200Y-35327500D01*
X72246200Y-35327500D02*
X72246200Y-33652200D01*
X88813000Y-40386000D02*
X86475300Y-38048300D01*
X86475300Y-38048300D02*
X81631700Y-38048300D01*
X81631700Y-38048300D02*
X80676900Y-37093500D01*
X80676900Y-37093500D02*
X80676900Y-35104200D01*
X80676900Y-35104200D02*
X79224900Y-33652200D01*
X79224900Y-33652200D02*
X72246200Y-33652200D01*
X71120000Y-32258000D02*
X71120000Y-33383300D01*
G04 #@! TO.N,Net-(C15-Pad1)*
X91313000Y-40386000D02*
X93853000Y-40386000D01*
G04 #@! TO.N,Net-(C16-Pad1)*
X104267000Y-40386000D02*
X101473000Y-40386000D01*
G04 #@! TO.N,Net-(C17-Pad2)*
X117094000Y-33274000D02*
X119507000Y-33274000D01*
X111212000Y-28956000D02*
X114300000Y-28956000D01*
G04 #@! TO.N,Net-(C17-Pad1)*
X96520000Y-29210000D02*
X96520000Y-26884700D01*
X108712000Y-28956000D02*
X106640700Y-26884700D01*
X106640700Y-26884700D02*
X96520000Y-26884700D01*
G04 #@! TO.N,SPK*
X120558500Y-84131200D02*
X109481300Y-84131200D01*
X109481300Y-84131200D02*
X109312300Y-84300200D01*
X109312300Y-84300200D02*
X100161900Y-84300200D01*
X100161900Y-84300200D02*
X99147200Y-85314900D01*
X99147200Y-85314900D02*
X99147200Y-85729400D01*
X99147200Y-85729400D02*
X98436500Y-86440100D01*
X98436500Y-86440100D02*
X97654900Y-86440100D01*
X97654900Y-86440100D02*
X96962100Y-85747300D01*
X96962100Y-85747300D02*
X96962100Y-83885900D01*
X96962100Y-83885900D02*
X98044000Y-82804000D01*
X238760000Y-110490000D02*
X238760000Y-107594600D01*
X238760000Y-107594600D02*
X226818700Y-95653300D01*
X226818700Y-95653300D02*
X192725300Y-95653300D01*
X192725300Y-95653300D02*
X192320400Y-95248400D01*
X192320400Y-95248400D02*
X132861500Y-95248400D01*
X132861500Y-95248400D02*
X121744300Y-84131200D01*
X121744300Y-84131200D02*
X120558500Y-84131200D01*
X120558500Y-84131200D02*
X120558500Y-83567800D01*
X121920000Y-28956000D02*
X116914100Y-28956000D01*
X116914100Y-28956000D02*
X109624300Y-36245800D01*
X109624300Y-36245800D02*
X100717300Y-36245800D01*
X100717300Y-36245800D02*
X95197700Y-41765400D01*
X95197700Y-41765400D02*
X72788600Y-41765400D01*
X72788600Y-41765400D02*
X68834000Y-45720000D01*
G04 #@! TO.N,MIC*
X85344000Y-82804000D02*
X87170400Y-80977600D01*
X87170400Y-80977600D02*
X90518800Y-80977600D01*
G04 #@! TO.N,Net-(C23-Pad1)*
X68580000Y-61849000D02*
X68580000Y-62974300D01*
X65278000Y-71628000D02*
X67454700Y-69451300D01*
X67454700Y-69451300D02*
X67454700Y-64099600D01*
X67454700Y-64099600D02*
X68580000Y-62974300D01*
G04 #@! TO.N,Net-(C24-Pad2)*
X54650000Y-50546000D02*
X55793000Y-51689000D01*
X55793000Y-51689000D02*
X61849000Y-51689000D01*
G04 #@! TO.N,Net-(J11-Pad1)*
X56261000Y-58166000D02*
X56261000Y-59341300D01*
X65278000Y-69088000D02*
X63752700Y-69088000D01*
X63752700Y-69088000D02*
X63752700Y-66833000D01*
X63752700Y-66833000D02*
X56261000Y-59341300D01*
G04 #@! TO.N,Net-(R42-Pad1)*
X65278000Y-74168000D02*
X66803300Y-74168000D01*
X68580000Y-69469000D02*
X66803300Y-71245700D01*
X66803300Y-71245700D02*
X66803300Y-74168000D01*
G04 #@! TO.N,bright*
X48094900Y-96406000D02*
X49220200Y-96406000D01*
X100584000Y-85344000D02*
X99037500Y-86890500D01*
X99037500Y-86890500D02*
X90494600Y-86890500D01*
X90494600Y-86890500D02*
X89384800Y-85780700D01*
X89384800Y-85780700D02*
X89384800Y-84917300D01*
X89384800Y-84917300D02*
X90452900Y-83849200D01*
X90452900Y-83849200D02*
X90918400Y-83849200D01*
X90918400Y-83849200D02*
X91495600Y-83272000D01*
X91495600Y-83272000D02*
X91495600Y-82358900D01*
X91495600Y-82358900D02*
X90882200Y-81745500D01*
X90882200Y-81745500D02*
X89980000Y-81745500D01*
X89980000Y-81745500D02*
X89154000Y-82571500D01*
X89154000Y-82571500D02*
X89154000Y-83004300D01*
X89154000Y-83004300D02*
X88317700Y-83840600D01*
X88317700Y-83840600D02*
X85327000Y-83840600D01*
X85327000Y-83840600D02*
X84074000Y-85093600D01*
X84074000Y-85093600D02*
X84074000Y-85576200D01*
X84074000Y-85576200D02*
X83062600Y-86587600D01*
X83062600Y-86587600D02*
X78684300Y-86587600D01*
X78684300Y-86587600D02*
X76947600Y-88324300D01*
X76947600Y-88324300D02*
X56879900Y-88324300D01*
X56879900Y-88324300D02*
X49220200Y-95984000D01*
X49220200Y-95984000D02*
X49220200Y-96406000D01*
G04 #@! TO.N,red*
X44343400Y-76200000D02*
X48916400Y-80773000D01*
X48916400Y-80773000D02*
X68132500Y-80773000D01*
X68132500Y-80773000D02*
X68660100Y-81300600D01*
X68660100Y-81300600D02*
X78398700Y-81300600D01*
X78398700Y-81300600D02*
X81033100Y-78666200D01*
X81033100Y-78666200D02*
X93559900Y-78666200D01*
X93559900Y-78666200D02*
X94313700Y-79420000D01*
X94313700Y-79420000D02*
X99740000Y-79420000D01*
X43218100Y-76200000D02*
X44343400Y-76200000D01*
G04 #@! TO.N,blue*
X103124000Y-80264000D02*
X93742000Y-80264000D01*
X93742000Y-80264000D02*
X92594600Y-79116600D01*
X92594600Y-79116600D02*
X81219600Y-79116600D01*
X81219600Y-79116600D02*
X78577100Y-81759100D01*
X78577100Y-81759100D02*
X77248400Y-81759100D01*
X77248400Y-81759100D02*
X76454000Y-82553500D01*
X76454000Y-82553500D02*
X76454000Y-83036200D01*
X76454000Y-83036200D02*
X73992900Y-85497300D01*
X73992900Y-85497300D02*
X42902600Y-85497300D01*
X42902600Y-85497300D02*
X32529600Y-95870300D01*
X32529600Y-95870300D02*
X32529600Y-106773400D01*
X32529600Y-106773400D02*
X38486900Y-112730700D01*
X38486900Y-112730700D02*
X41945400Y-112730700D01*
X41945400Y-112730700D02*
X43070700Y-113856000D01*
X44196000Y-113856000D02*
X43070700Y-113856000D01*
G04 #@! TO.N,green*
X44284900Y-96406000D02*
X46503300Y-96406000D01*
X46503300Y-96406000D02*
X56778500Y-86130800D01*
X56778500Y-86130800D02*
X76644600Y-86130800D01*
X76644600Y-86130800D02*
X76914900Y-86401100D01*
X76914900Y-86401100D02*
X78139000Y-86401100D01*
X78139000Y-86401100D02*
X78908800Y-85631300D01*
X78908800Y-85631300D02*
X78908800Y-85167100D01*
X78908800Y-85167100D02*
X80153900Y-83922000D01*
X80153900Y-83922000D02*
X83194500Y-83922000D01*
X83194500Y-83922000D02*
X84307400Y-82809100D01*
X84307400Y-82809100D02*
X84307400Y-82320900D01*
X84307400Y-82320900D02*
X86418700Y-80209600D01*
X86418700Y-80209600D02*
X91223400Y-80209600D01*
X91223400Y-80209600D02*
X91606500Y-80592700D01*
X91606500Y-80592700D02*
X92226800Y-80592700D01*
X92226800Y-80592700D02*
X94234000Y-82599900D01*
X94234000Y-82599900D02*
X94234000Y-83099500D01*
X94234000Y-83099500D02*
X94984200Y-83849700D01*
X94984200Y-83849700D02*
X95944300Y-83849700D01*
X95944300Y-83849700D02*
X96859200Y-82934800D01*
X96859200Y-82934800D02*
X96859200Y-82522900D01*
X96859200Y-82522900D02*
X97631100Y-81751000D01*
X97631100Y-81751000D02*
X104611000Y-81751000D01*
X104611000Y-81751000D02*
X105664000Y-82804000D01*
G04 #@! TO.N,sync*
X97637500Y-75915700D02*
X97532600Y-75810800D01*
X97532600Y-75810800D02*
X79000300Y-75810800D01*
X79000300Y-75810800D02*
X78139500Y-76671600D01*
X78139500Y-76671600D02*
X74675200Y-76671600D01*
X74675200Y-76671600D02*
X73464800Y-77882000D01*
X73464800Y-77882000D02*
X55716500Y-77882000D01*
X55716500Y-77882000D02*
X41062800Y-63228300D01*
X41062800Y-63228300D02*
X35905600Y-63228300D01*
X35905600Y-63228300D02*
X34780300Y-62103000D01*
X33655000Y-62103000D02*
X34780300Y-62103000D01*
G04 #@! TO.N,Net-(C28-Pad1)*
X41148000Y-130859000D02*
X41148000Y-131934300D01*
X41148000Y-131934300D02*
X38123500Y-131934300D01*
X38123500Y-131934300D02*
X32046000Y-125856800D01*
X32046000Y-125856800D02*
X32046000Y-93849100D01*
X32046000Y-93849100D02*
X38519100Y-87376000D01*
G04 #@! TO.N,Net-(C29-Pad1)*
X41402000Y-40779700D02*
X41402000Y-40386000D01*
X39878000Y-140159000D02*
X39878000Y-137857800D01*
X39878000Y-137857800D02*
X30235300Y-128215100D01*
X30235300Y-128215100D02*
X30235300Y-51946400D01*
X30235300Y-51946400D02*
X41402000Y-40779700D01*
X41402000Y-40779700D02*
X47239500Y-40779700D01*
X48564800Y-40779700D02*
X47239500Y-40779700D01*
G04 #@! TO.N,Net-(C29-Pad2)*
X37746000Y-40132000D02*
X37746000Y-39912300D01*
X37746000Y-39912300D02*
X38404800Y-39253500D01*
X38404800Y-39253500D02*
X49554200Y-39253500D01*
X49554200Y-39253500D02*
X49890200Y-39589500D01*
X49890200Y-39589500D02*
X49890200Y-42954300D01*
X49890200Y-42954300D02*
X48564800Y-44279700D01*
X38902000Y-40386000D02*
X38000000Y-40386000D01*
X38000000Y-40386000D02*
X37746000Y-40132000D01*
X37746000Y-40132000D02*
X33020000Y-40132000D01*
G04 #@! TO.N,Net-(C30-Pad1)*
X39878000Y-130859000D02*
X39878000Y-129783700D01*
X39878000Y-129783700D02*
X42418300Y-127243400D01*
X42418300Y-127243400D02*
X42418300Y-117433100D01*
X42418300Y-117433100D02*
X49022000Y-110829400D01*
X49022000Y-110829400D02*
X49022000Y-107442000D01*
G04 #@! TO.N,Net-(C30-Pad2)*
X40767000Y-103974900D02*
X39641700Y-103974900D01*
X37236400Y-104026000D02*
X39590600Y-104026000D01*
X39590600Y-104026000D02*
X39641700Y-103974900D01*
G04 #@! TO.N,Net-(C32-Pad1)*
X38608000Y-130859000D02*
X38608000Y-125590400D01*
X38608000Y-125590400D02*
X39268400Y-124930000D01*
G04 #@! TO.N,Net-(D4-Pad1)*
X59822100Y-34726900D02*
X58496200Y-33401000D01*
X58496200Y-33401000D02*
X50546000Y-33401000D01*
G04 #@! TO.N,P-N_CLK*
X44958000Y-131934300D02*
X44500000Y-132392300D01*
X44500000Y-132392300D02*
X37944600Y-132392300D01*
X37944600Y-132392300D02*
X31174200Y-125621900D01*
X31174200Y-125621900D02*
X31174200Y-62967700D01*
X31174200Y-62967700D02*
X34800600Y-59341300D01*
X34800600Y-59341300D02*
X51737800Y-59341300D01*
X51737800Y-59341300D02*
X52545700Y-58533400D01*
X52545700Y-58533400D02*
X52545700Y-58166000D01*
X53721000Y-58166000D02*
X52545700Y-58166000D01*
X44958000Y-130859000D02*
X44958000Y-131934300D01*
G04 #@! TO.N,P-N_VCHIP*
X50520600Y-131064000D02*
X49345300Y-131064000D01*
X47498000Y-130859000D02*
X49140300Y-130859000D01*
X49140300Y-130859000D02*
X49345300Y-131064000D01*
G04 #@! TO.N,Net-(Q10-Pad2)*
X43218100Y-83820000D02*
X38337100Y-78939000D01*
X38337100Y-78939000D02*
X38337100Y-74108800D01*
X38337100Y-74108800D02*
X39535100Y-72910800D01*
X39535100Y-72910800D02*
X39535100Y-70866000D01*
X43218100Y-83820000D02*
X46901100Y-83820000D01*
X50457100Y-83820000D02*
X46901100Y-83820000D01*
G04 #@! TO.N,R*
X35979100Y-76200000D02*
X34853800Y-76200000D01*
X32448500Y-76250800D02*
X34803000Y-76250800D01*
X34803000Y-76250800D02*
X34853800Y-76200000D01*
G04 #@! TO.N,G*
X37236400Y-96406000D02*
X38361700Y-96406000D01*
X38361700Y-96406000D02*
X43073700Y-91694000D01*
X43073700Y-91694000D02*
X46736000Y-91694000D01*
X37236400Y-96406000D02*
X34818300Y-96406000D01*
X34818300Y-96406000D02*
X34780300Y-96368000D01*
X33655000Y-96368000D02*
X34780300Y-96368000D01*
G04 #@! TO.N,Net-(Q11-Pad2)*
X44284900Y-104026000D02*
X48094900Y-104026000D01*
X51650900Y-104025700D02*
X48095200Y-104025700D01*
X48095200Y-104025700D02*
X48094900Y-104026000D01*
G04 #@! TO.N,Net-(Q12-Pad2)*
X51003200Y-121450000D02*
X49877900Y-121450000D01*
X47586900Y-121476000D02*
X49851900Y-121476000D01*
X49851900Y-121476000D02*
X49877900Y-121450000D01*
X44196000Y-121476000D02*
X47586900Y-121476000D01*
G04 #@! TO.N,B*
X36728400Y-113881000D02*
X35603100Y-113881000D01*
X33172400Y-113767000D02*
X35489100Y-113767000D01*
X35489100Y-113767000D02*
X35603100Y-113881000D01*
G04 #@! TO.N,Net-(Q13-Pad3)*
X37592000Y-62103000D02*
X41529000Y-62103000D01*
G04 #@! TO.N,Net-(Q13-Pad2)*
X47498000Y-140159000D02*
X47498000Y-139083700D01*
X47498000Y-139083700D02*
X43996200Y-139083700D01*
X43996200Y-139083700D02*
X30685700Y-125773200D01*
X30685700Y-125773200D02*
X30685700Y-57452300D01*
X30685700Y-57452300D02*
X33655000Y-54483000D01*
X39243000Y-48387000D02*
X39243000Y-49462300D01*
X33655000Y-54483000D02*
X38675700Y-49462300D01*
X38675700Y-49462300D02*
X39243000Y-49462300D01*
G04 #@! TO.N,Net-(J7-Pad1)*
X33020000Y-32512000D02*
X34145300Y-32512000D01*
X42164000Y-28702000D02*
X37955300Y-28702000D01*
X37955300Y-28702000D02*
X34145300Y-32512000D01*
G04 #@! TO.N,Net-(J12-Pad3)*
X58039000Y-38658800D02*
X59603500Y-37094300D01*
X59603500Y-37094300D02*
X59684100Y-37094300D01*
X59684100Y-37094300D02*
X59699000Y-37079400D01*
X59699000Y-37079400D02*
X63268400Y-37079400D01*
X63268400Y-37079400D02*
X65620900Y-34726900D01*
G04 #@! TD*
M02*
