G04 #@! TF.GenerationSoftware,KiCad,Pcbnew,5.0.0-rc2-be01b52~65~ubuntu18.04.1*
G04 #@! TF.CreationDate,2018-06-08T14:45:29+04:00*
G04 #@! TF.ProjectId,max48_ISSUE4,6D617834385F4953535545342E6B6963,rev?*
G04 #@! TF.SameCoordinates,Original*
G04 #@! TF.FileFunction,Copper,L2,Bot,Signal*
G04 #@! TF.FilePolarity,Positive*
%FSLAX46Y46*%
G04 Gerber Fmt 4.6, Leading zero omitted, Abs format (unit mm)*
G04 Created by KiCad (PCBNEW 5.0.0-rc2-be01b52~65~ubuntu18.04.1) date Fri Jun  8 14:45:29 2018*
%MOMM*%
%LPD*%
G01*
G04 APERTURE LIST*
G04 #@! TA.AperFunction,ComponentPad*
%ADD10C,1.500000*%
G04 #@! TD*
G04 #@! TA.AperFunction,ConnectorPad*
%ADD11R,1.778000X7.620000*%
G04 #@! TD*
G04 #@! TA.AperFunction,ComponentPad*
%ADD12R,2.400000X1.600000*%
G04 #@! TD*
G04 #@! TA.AperFunction,ComponentPad*
%ADD13O,2.400000X1.600000*%
G04 #@! TD*
G04 #@! TA.AperFunction,ComponentPad*
%ADD14R,1.600000X1.600000*%
G04 #@! TD*
G04 #@! TA.AperFunction,ComponentPad*
%ADD15C,1.600000*%
G04 #@! TD*
G04 #@! TA.AperFunction,ComponentPad*
%ADD16R,1.500000X1.050000*%
G04 #@! TD*
G04 #@! TA.AperFunction,ComponentPad*
%ADD17O,1.500000X1.050000*%
G04 #@! TD*
G04 #@! TA.AperFunction,ComponentPad*
%ADD18C,2.000000*%
G04 #@! TD*
G04 #@! TA.AperFunction,ComponentPad*
%ADD19O,1.600000X1.600000*%
G04 #@! TD*
G04 #@! TA.AperFunction,ComponentPad*
%ADD20R,2.000000X2.000000*%
G04 #@! TD*
G04 #@! TA.AperFunction,ComponentPad*
%ADD21O,2.000000X2.000000*%
G04 #@! TD*
G04 #@! TA.AperFunction,ComponentPad*
%ADD22R,3.500000X3.500000*%
G04 #@! TD*
G04 #@! TA.AperFunction,Conductor*
%ADD23C,0.100000*%
G04 #@! TD*
G04 #@! TA.AperFunction,ComponentPad*
%ADD24C,3.000000*%
G04 #@! TD*
G04 #@! TA.AperFunction,ComponentPad*
%ADD25C,3.500000*%
G04 #@! TD*
G04 #@! TA.AperFunction,ComponentPad*
%ADD26R,1.800000X1.800000*%
G04 #@! TD*
G04 #@! TA.AperFunction,ComponentPad*
%ADD27O,1.800000X1.800000*%
G04 #@! TD*
G04 #@! TA.AperFunction,ComponentPad*
%ADD28R,2.200000X4.000000*%
G04 #@! TD*
G04 #@! TA.AperFunction,ComponentPad*
%ADD29O,4.000000X2.200000*%
G04 #@! TD*
G04 #@! TA.AperFunction,ComponentPad*
%ADD30O,2.200000X4.000000*%
G04 #@! TD*
G04 #@! TA.AperFunction,ComponentPad*
%ADD31R,1.700000X1.700000*%
G04 #@! TD*
G04 #@! TA.AperFunction,ComponentPad*
%ADD32O,1.700000X1.700000*%
G04 #@! TD*
G04 #@! TA.AperFunction,ComponentPad*
%ADD33C,1.422400*%
G04 #@! TD*
G04 #@! TA.AperFunction,ComponentPad*
%ADD34R,1.422400X1.422400*%
G04 #@! TD*
G04 #@! TA.AperFunction,ComponentPad*
%ADD35O,1.050000X1.500000*%
G04 #@! TD*
G04 #@! TA.AperFunction,ComponentPad*
%ADD36R,1.050000X1.500000*%
G04 #@! TD*
G04 #@! TA.AperFunction,ComponentPad*
%ADD37O,1.998980X3.197860*%
G04 #@! TD*
G04 #@! TA.AperFunction,ComponentPad*
%ADD38O,3.197860X1.998980*%
G04 #@! TD*
G04 #@! TA.AperFunction,ViaPad*
%ADD39C,3.500120*%
G04 #@! TD*
G04 #@! TA.AperFunction,ComponentPad*
%ADD40C,1.501140*%
G04 #@! TD*
G04 #@! TA.AperFunction,ViaPad*
%ADD41C,0.800000*%
G04 #@! TD*
G04 #@! TA.AperFunction,Conductor*
%ADD42C,0.250000*%
G04 #@! TD*
G04 #@! TA.AperFunction,Conductor*
%ADD43C,0.300000*%
G04 #@! TD*
G04 #@! TA.AperFunction,Conductor*
%ADD44C,0.500000*%
G04 #@! TD*
G04 APERTURE END LIST*
D10*
G04 #@! TO.P,Y1,2*
G04 #@! TO.N,Net-(R30-Pad1)*
X66749000Y-57658000D03*
G04 #@! TO.P,Y1,1*
G04 #@! TO.N,Net-(R29-Pad2)*
X61849000Y-57658000D03*
G04 #@! TD*
D11*
G04 #@! TO.P,J3,A28*
G04 #@! TO.N,A11*
X215592000Y-27154500D03*
G04 #@! TO.P,J3,A27*
G04 #@! TO.N,A9*
X213052000Y-27154500D03*
G04 #@! TO.P,J3,A26*
G04 #@! TO.N,BUSACK*
X210512000Y-27154500D03*
G04 #@! TO.P,J3,A25*
G04 #@! TO.N,ROM_CS*
X207972000Y-27154500D03*
G04 #@! TO.P,J3,A24*
G04 #@! TO.N,A4*
X205432000Y-27154500D03*
G04 #@! TO.P,J3,A23*
G04 #@! TO.N,A5*
X202892000Y-27154500D03*
G04 #@! TO.P,J3,A22*
G04 #@! TO.N,A6*
X200352000Y-27154500D03*
G04 #@! TO.P,J3,A21*
G04 #@! TO.N,A7*
X197812000Y-27154500D03*
G04 #@! TO.P,J3,A20*
G04 #@! TO.N,~RESET*
X195272000Y-27154500D03*
G04 #@! TO.P,J3,A19*
G04 #@! TO.N,BUSRQ*
X192732000Y-27154500D03*
G04 #@! TO.P,J3,A18*
G04 #@! TO.N,N/C*
X190192000Y-27154500D03*
G04 #@! TO.P,J3,A17*
X187652000Y-27154500D03*
G04 #@! TO.P,J3,A16*
X185112000Y-27154500D03*
G04 #@! TO.P,J3,A15*
X182572000Y-27154500D03*
G04 #@! TO.P,J3,A14*
G04 #@! TO.N,GND*
X180032000Y-27154500D03*
G04 #@! TO.P,J3,A13*
G04 #@! TO.N,IORQULA*
X177492000Y-27154500D03*
G04 #@! TO.P,J3,A12*
G04 #@! TO.N,A3*
X174952000Y-27154500D03*
G04 #@! TO.P,J3,A11*
G04 #@! TO.N,A2*
X172412000Y-27154500D03*
G04 #@! TO.P,J3,A10*
G04 #@! TO.N,A1*
X169872000Y-27154500D03*
G04 #@! TO.P,J3,A9*
G04 #@! TO.N,A0*
X167332000Y-27154500D03*
G04 #@! TO.P,J3,A8*
G04 #@! TO.N,CLK_B*
X164792000Y-27154500D03*
G04 #@! TO.P,J3,A7*
G04 #@! TO.N,GND*
X162252000Y-27154500D03*
G04 #@! TO.P,J3,A6*
X159712000Y-27154500D03*
G04 #@! TO.P,J3,A4*
G04 #@! TO.N,+9V*
X154632000Y-27154500D03*
G04 #@! TO.P,J3,A3*
G04 #@! TO.N,+5V*
X152092000Y-27154500D03*
G04 #@! TO.P,J3,A2*
G04 #@! TO.N,A12*
X149552000Y-27154500D03*
G04 #@! TO.P,J3,A1*
G04 #@! TO.N,A14*
X147012000Y-27154500D03*
G04 #@! TD*
D12*
G04 #@! TO.P,U1,1*
G04 #@! TO.N,A11*
X165989000Y-44577000D03*
D13*
G04 #@! TO.P,U1,21*
G04 #@! TO.N,RD*
X181229000Y-92837000D03*
G04 #@! TO.P,U1,2*
G04 #@! TO.N,A12*
X165989000Y-47117000D03*
G04 #@! TO.P,U1,22*
G04 #@! TO.N,WR*
X181229000Y-90297000D03*
G04 #@! TO.P,U1,3*
G04 #@! TO.N,A13*
X165989000Y-49657000D03*
G04 #@! TO.P,U1,23*
G04 #@! TO.N,BUSACK*
X181229000Y-87757000D03*
G04 #@! TO.P,U1,4*
G04 #@! TO.N,A14*
X165989000Y-52197000D03*
G04 #@! TO.P,U1,24*
G04 #@! TO.N,WAIT*
X181229000Y-85217000D03*
G04 #@! TO.P,U1,5*
G04 #@! TO.N,A15*
X165989000Y-54737000D03*
G04 #@! TO.P,U1,25*
G04 #@! TO.N,BUSRQ*
X181229000Y-82677000D03*
G04 #@! TO.P,U1,6*
G04 #@! TO.N,CLK*
X165989000Y-57277000D03*
G04 #@! TO.P,U1,26*
G04 #@! TO.N,~RESET*
X181229000Y-80137000D03*
G04 #@! TO.P,U1,7*
G04 #@! TO.N,D4*
X165989000Y-59817000D03*
G04 #@! TO.P,U1,27*
G04 #@! TO.N,M1*
X181229000Y-77597000D03*
G04 #@! TO.P,U1,8*
G04 #@! TO.N,D3*
X165989000Y-62357000D03*
G04 #@! TO.P,U1,28*
G04 #@! TO.N,RFSH*
X181229000Y-75057000D03*
G04 #@! TO.P,U1,9*
G04 #@! TO.N,D5*
X165989000Y-64897000D03*
G04 #@! TO.P,U1,29*
G04 #@! TO.N,GND*
X181229000Y-72517000D03*
G04 #@! TO.P,U1,10*
G04 #@! TO.N,D6*
X165989000Y-67437000D03*
G04 #@! TO.P,U1,30*
G04 #@! TO.N,A0*
X181229000Y-69977000D03*
G04 #@! TO.P,U1,11*
G04 #@! TO.N,+5V*
X165989000Y-69977000D03*
G04 #@! TO.P,U1,31*
G04 #@! TO.N,A1*
X181229000Y-67437000D03*
G04 #@! TO.P,U1,12*
G04 #@! TO.N,D2*
X165989000Y-72517000D03*
G04 #@! TO.P,U1,32*
G04 #@! TO.N,A2*
X181229000Y-64897000D03*
G04 #@! TO.P,U1,13*
G04 #@! TO.N,D7*
X165989000Y-75057000D03*
G04 #@! TO.P,U1,33*
G04 #@! TO.N,A3*
X181229000Y-62357000D03*
G04 #@! TO.P,U1,14*
G04 #@! TO.N,D0*
X165989000Y-77597000D03*
G04 #@! TO.P,U1,34*
G04 #@! TO.N,A4*
X181229000Y-59817000D03*
G04 #@! TO.P,U1,15*
G04 #@! TO.N,D1*
X165989000Y-80137000D03*
G04 #@! TO.P,U1,35*
G04 #@! TO.N,A5*
X181229000Y-57277000D03*
G04 #@! TO.P,U1,16*
G04 #@! TO.N,INT*
X165989000Y-82677000D03*
G04 #@! TO.P,U1,36*
G04 #@! TO.N,A6*
X181229000Y-54737000D03*
G04 #@! TO.P,U1,17*
G04 #@! TO.N,NMI*
X165989000Y-85217000D03*
G04 #@! TO.P,U1,37*
G04 #@! TO.N,A7*
X181229000Y-52197000D03*
G04 #@! TO.P,U1,18*
G04 #@! TO.N,HALT*
X165989000Y-87757000D03*
G04 #@! TO.P,U1,38*
G04 #@! TO.N,A8*
X181229000Y-49657000D03*
G04 #@! TO.P,U1,19*
G04 #@! TO.N,MREQ*
X165989000Y-90297000D03*
G04 #@! TO.P,U1,39*
G04 #@! TO.N,A9*
X181229000Y-47117000D03*
G04 #@! TO.P,U1,20*
G04 #@! TO.N,IORQ*
X165989000Y-92837000D03*
G04 #@! TO.P,U1,40*
G04 #@! TO.N,A10*
X181229000Y-44577000D03*
G04 #@! TD*
D14*
G04 #@! TO.P,C1,1*
G04 #@! TO.N,~RESET*
X186690000Y-90170000D03*
D15*
G04 #@! TO.P,C1,2*
G04 #@! TO.N,GND*
X190490000Y-90170000D03*
G04 #@! TD*
D16*
G04 #@! TO.P,Q1,1*
G04 #@! TO.N,GND*
X207010000Y-87630000D03*
D17*
G04 #@! TO.P,Q1,3*
G04 #@! TO.N,S0*
X207010000Y-90170000D03*
G04 #@! TO.P,Q1,2*
G04 #@! TO.N,A11*
X207010000Y-88900000D03*
G04 #@! TD*
G04 #@! TO.P,Q2,2*
G04 #@! TO.N,A10*
X209550000Y-83820000D03*
G04 #@! TO.P,Q2,3*
G04 #@! TO.N,S1*
X209550000Y-85090000D03*
D16*
G04 #@! TO.P,Q2,1*
G04 #@! TO.N,GND*
X209550000Y-82550000D03*
G04 #@! TD*
G04 #@! TO.P,Q3,1*
G04 #@! TO.N,GND*
X212090000Y-87630000D03*
D17*
G04 #@! TO.P,Q3,3*
G04 #@! TO.N,S2*
X212090000Y-90170000D03*
G04 #@! TO.P,Q3,2*
G04 #@! TO.N,A9*
X212090000Y-88900000D03*
G04 #@! TD*
G04 #@! TO.P,Q4,2*
G04 #@! TO.N,A12*
X214630000Y-83820000D03*
G04 #@! TO.P,Q4,3*
G04 #@! TO.N,S3*
X214630000Y-85090000D03*
D16*
G04 #@! TO.P,Q4,1*
G04 #@! TO.N,GND*
X214630000Y-82550000D03*
G04 #@! TD*
G04 #@! TO.P,Q5,1*
G04 #@! TO.N,GND*
X217170000Y-87630000D03*
D17*
G04 #@! TO.P,Q5,3*
G04 #@! TO.N,S4*
X217170000Y-90170000D03*
G04 #@! TO.P,Q5,2*
G04 #@! TO.N,A13*
X217170000Y-88900000D03*
G04 #@! TD*
G04 #@! TO.P,Q6,2*
G04 #@! TO.N,A8*
X219710000Y-83820000D03*
G04 #@! TO.P,Q6,3*
G04 #@! TO.N,S5*
X219710000Y-85090000D03*
D16*
G04 #@! TO.P,Q6,1*
G04 #@! TO.N,GND*
X219710000Y-82550000D03*
G04 #@! TD*
G04 #@! TO.P,Q7,1*
G04 #@! TO.N,GND*
X222250000Y-87630000D03*
D17*
G04 #@! TO.P,Q7,3*
G04 #@! TO.N,S6*
X222250000Y-90170000D03*
G04 #@! TO.P,Q7,2*
G04 #@! TO.N,A14*
X222250000Y-88900000D03*
G04 #@! TD*
G04 #@! TO.P,Q8,2*
G04 #@! TO.N,A15*
X224790000Y-83820000D03*
G04 #@! TO.P,Q8,3*
G04 #@! TO.N,S7*
X224790000Y-85090000D03*
D16*
G04 #@! TO.P,Q8,1*
G04 #@! TO.N,GND*
X224790000Y-82550000D03*
G04 #@! TD*
D18*
G04 #@! TO.P,SW1,2*
G04 #@! TO.N,S0*
X59690000Y-111180000D03*
G04 #@! TO.P,SW1,1*
G04 #@! TO.N,KB0*
X59690000Y-106680000D03*
G04 #@! TO.P,SW1,2*
G04 #@! TO.N,S0*
X66190000Y-111180000D03*
G04 #@! TO.P,SW1,1*
G04 #@! TO.N,KB0*
X66190000Y-106680000D03*
G04 #@! TD*
G04 #@! TO.P,SW2,1*
G04 #@! TO.N,KB1*
X81430000Y-106680000D03*
G04 #@! TO.P,SW2,2*
G04 #@! TO.N,S0*
X81430000Y-111180000D03*
G04 #@! TO.P,SW2,1*
G04 #@! TO.N,KB1*
X74930000Y-106680000D03*
G04 #@! TO.P,SW2,2*
G04 #@! TO.N,S0*
X74930000Y-111180000D03*
G04 #@! TD*
G04 #@! TO.P,SW3,2*
G04 #@! TO.N,S0*
X90170000Y-111180000D03*
G04 #@! TO.P,SW3,1*
G04 #@! TO.N,KB2*
X90170000Y-106680000D03*
G04 #@! TO.P,SW3,2*
G04 #@! TO.N,S0*
X96670000Y-111180000D03*
G04 #@! TO.P,SW3,1*
G04 #@! TO.N,KB2*
X96670000Y-106680000D03*
G04 #@! TD*
G04 #@! TO.P,SW4,1*
G04 #@! TO.N,KB3*
X111910000Y-106680000D03*
G04 #@! TO.P,SW4,2*
G04 #@! TO.N,S0*
X111910000Y-111180000D03*
G04 #@! TO.P,SW4,1*
G04 #@! TO.N,KB3*
X105410000Y-106680000D03*
G04 #@! TO.P,SW4,2*
G04 #@! TO.N,S0*
X105410000Y-111180000D03*
G04 #@! TD*
G04 #@! TO.P,SW5,2*
G04 #@! TO.N,S0*
X120650000Y-111180000D03*
G04 #@! TO.P,SW5,1*
G04 #@! TO.N,KB4*
X120650000Y-106680000D03*
G04 #@! TO.P,SW5,2*
G04 #@! TO.N,S0*
X127150000Y-111180000D03*
G04 #@! TO.P,SW5,1*
G04 #@! TO.N,KB4*
X127150000Y-106680000D03*
G04 #@! TD*
G04 #@! TO.P,SW6,2*
G04 #@! TO.N,S3*
X135890000Y-111180000D03*
G04 #@! TO.P,SW6,1*
G04 #@! TO.N,KB4*
X135890000Y-106680000D03*
G04 #@! TO.P,SW6,2*
G04 #@! TO.N,S3*
X142390000Y-111180000D03*
G04 #@! TO.P,SW6,1*
G04 #@! TO.N,KB4*
X142390000Y-106680000D03*
G04 #@! TD*
G04 #@! TO.P,SW7,1*
G04 #@! TO.N,KB3*
X157630000Y-106680000D03*
G04 #@! TO.P,SW7,2*
G04 #@! TO.N,S3*
X157630000Y-111180000D03*
G04 #@! TO.P,SW7,1*
G04 #@! TO.N,KB3*
X151130000Y-106680000D03*
G04 #@! TO.P,SW7,2*
G04 #@! TO.N,S3*
X151130000Y-111180000D03*
G04 #@! TD*
G04 #@! TO.P,SW8,2*
G04 #@! TO.N,S3*
X166370000Y-111180000D03*
G04 #@! TO.P,SW8,1*
G04 #@! TO.N,KB2*
X166370000Y-106680000D03*
G04 #@! TO.P,SW8,2*
G04 #@! TO.N,S3*
X172870000Y-111180000D03*
G04 #@! TO.P,SW8,1*
G04 #@! TO.N,KB2*
X172870000Y-106680000D03*
G04 #@! TD*
G04 #@! TO.P,SW9,1*
G04 #@! TO.N,KB1*
X188110000Y-106680000D03*
G04 #@! TO.P,SW9,2*
G04 #@! TO.N,S3*
X188110000Y-111180000D03*
G04 #@! TO.P,SW9,1*
G04 #@! TO.N,KB1*
X181610000Y-106680000D03*
G04 #@! TO.P,SW9,2*
G04 #@! TO.N,S3*
X181610000Y-111180000D03*
G04 #@! TD*
G04 #@! TO.P,SW10,2*
G04 #@! TO.N,S3*
X196850000Y-111180000D03*
G04 #@! TO.P,SW10,1*
G04 #@! TO.N,KB0*
X196850000Y-106680000D03*
G04 #@! TO.P,SW10,2*
G04 #@! TO.N,S3*
X203350000Y-111180000D03*
G04 #@! TO.P,SW10,1*
G04 #@! TO.N,KB0*
X203350000Y-106680000D03*
G04 #@! TD*
G04 #@! TO.P,SW11,1*
G04 #@! TO.N,KB0*
X71270000Y-119380000D03*
G04 #@! TO.P,SW11,2*
G04 #@! TO.N,S1*
X71270000Y-123880000D03*
G04 #@! TO.P,SW11,1*
G04 #@! TO.N,KB0*
X64770000Y-119380000D03*
G04 #@! TO.P,SW11,2*
G04 #@! TO.N,S1*
X64770000Y-123880000D03*
G04 #@! TD*
G04 #@! TO.P,SW12,2*
G04 #@! TO.N,S1*
X80010000Y-123880000D03*
G04 #@! TO.P,SW12,1*
G04 #@! TO.N,KB1*
X80010000Y-119380000D03*
G04 #@! TO.P,SW12,2*
G04 #@! TO.N,S1*
X86510000Y-123880000D03*
G04 #@! TO.P,SW12,1*
G04 #@! TO.N,KB1*
X86510000Y-119380000D03*
G04 #@! TD*
G04 #@! TO.P,SW13,1*
G04 #@! TO.N,KB2*
X101750000Y-119380000D03*
G04 #@! TO.P,SW13,2*
G04 #@! TO.N,S1*
X101750000Y-123880000D03*
G04 #@! TO.P,SW13,1*
G04 #@! TO.N,KB2*
X95250000Y-119380000D03*
G04 #@! TO.P,SW13,2*
G04 #@! TO.N,S1*
X95250000Y-123880000D03*
G04 #@! TD*
G04 #@! TO.P,SW14,2*
G04 #@! TO.N,S1*
X110490000Y-123880000D03*
G04 #@! TO.P,SW14,1*
G04 #@! TO.N,KB3*
X110490000Y-119380000D03*
G04 #@! TO.P,SW14,2*
G04 #@! TO.N,S1*
X116990000Y-123880000D03*
G04 #@! TO.P,SW14,1*
G04 #@! TO.N,KB3*
X116990000Y-119380000D03*
G04 #@! TD*
G04 #@! TO.P,SW15,1*
G04 #@! TO.N,KB4*
X132230000Y-119380000D03*
G04 #@! TO.P,SW15,2*
G04 #@! TO.N,S1*
X132230000Y-123880000D03*
G04 #@! TO.P,SW15,1*
G04 #@! TO.N,KB4*
X125730000Y-119380000D03*
G04 #@! TO.P,SW15,2*
G04 #@! TO.N,S1*
X125730000Y-123880000D03*
G04 #@! TD*
G04 #@! TO.P,SW16,1*
G04 #@! TO.N,KB4*
X147470000Y-119380000D03*
G04 #@! TO.P,SW16,2*
G04 #@! TO.N,S4*
X147470000Y-123880000D03*
G04 #@! TO.P,SW16,1*
G04 #@! TO.N,KB4*
X140970000Y-119380000D03*
G04 #@! TO.P,SW16,2*
G04 #@! TO.N,S4*
X140970000Y-123880000D03*
G04 #@! TD*
G04 #@! TO.P,SW17,2*
G04 #@! TO.N,S4*
X156210000Y-123880000D03*
G04 #@! TO.P,SW17,1*
G04 #@! TO.N,KB3*
X156210000Y-119380000D03*
G04 #@! TO.P,SW17,2*
G04 #@! TO.N,S4*
X162710000Y-123880000D03*
G04 #@! TO.P,SW17,1*
G04 #@! TO.N,KB3*
X162710000Y-119380000D03*
G04 #@! TD*
G04 #@! TO.P,SW18,1*
G04 #@! TO.N,KB2*
X177950000Y-119380000D03*
G04 #@! TO.P,SW18,2*
G04 #@! TO.N,S4*
X177950000Y-123880000D03*
G04 #@! TO.P,SW18,1*
G04 #@! TO.N,KB2*
X171450000Y-119380000D03*
G04 #@! TO.P,SW18,2*
G04 #@! TO.N,S4*
X171450000Y-123880000D03*
G04 #@! TD*
G04 #@! TO.P,SW19,2*
G04 #@! TO.N,S4*
X186690000Y-123880000D03*
G04 #@! TO.P,SW19,1*
G04 #@! TO.N,KB1*
X186690000Y-119380000D03*
G04 #@! TO.P,SW19,2*
G04 #@! TO.N,S4*
X193190000Y-123880000D03*
G04 #@! TO.P,SW19,1*
G04 #@! TO.N,KB1*
X193190000Y-119380000D03*
G04 #@! TD*
G04 #@! TO.P,SW20,1*
G04 #@! TO.N,KB0*
X208430000Y-119380000D03*
G04 #@! TO.P,SW20,2*
G04 #@! TO.N,S4*
X208430000Y-123880000D03*
G04 #@! TO.P,SW20,1*
G04 #@! TO.N,KB0*
X201930000Y-119380000D03*
G04 #@! TO.P,SW20,2*
G04 #@! TO.N,S4*
X201930000Y-123880000D03*
G04 #@! TD*
G04 #@! TO.P,SW21,1*
G04 #@! TO.N,KB0*
X76350000Y-132080000D03*
G04 #@! TO.P,SW21,2*
G04 #@! TO.N,S2*
X76350000Y-136580000D03*
G04 #@! TO.P,SW21,1*
G04 #@! TO.N,KB0*
X69850000Y-132080000D03*
G04 #@! TO.P,SW21,2*
G04 #@! TO.N,S2*
X69850000Y-136580000D03*
G04 #@! TD*
G04 #@! TO.P,SW22,2*
G04 #@! TO.N,S2*
X85090000Y-136580000D03*
G04 #@! TO.P,SW22,1*
G04 #@! TO.N,KB1*
X85090000Y-132080000D03*
G04 #@! TO.P,SW22,2*
G04 #@! TO.N,S2*
X91590000Y-136580000D03*
G04 #@! TO.P,SW22,1*
G04 #@! TO.N,KB1*
X91590000Y-132080000D03*
G04 #@! TD*
G04 #@! TO.P,SW23,1*
G04 #@! TO.N,KB2*
X106830000Y-132080000D03*
G04 #@! TO.P,SW23,2*
G04 #@! TO.N,S2*
X106830000Y-136580000D03*
G04 #@! TO.P,SW23,1*
G04 #@! TO.N,KB2*
X100330000Y-132080000D03*
G04 #@! TO.P,SW23,2*
G04 #@! TO.N,S2*
X100330000Y-136580000D03*
G04 #@! TD*
G04 #@! TO.P,SW24,2*
G04 #@! TO.N,S2*
X115570000Y-136580000D03*
G04 #@! TO.P,SW24,1*
G04 #@! TO.N,KB3*
X115570000Y-132080000D03*
G04 #@! TO.P,SW24,2*
G04 #@! TO.N,S2*
X122070000Y-136580000D03*
G04 #@! TO.P,SW24,1*
G04 #@! TO.N,KB3*
X122070000Y-132080000D03*
G04 #@! TD*
G04 #@! TO.P,SW25,1*
G04 #@! TO.N,KB4*
X137310000Y-132080000D03*
G04 #@! TO.P,SW25,2*
G04 #@! TO.N,S2*
X137310000Y-136580000D03*
G04 #@! TO.P,SW25,1*
G04 #@! TO.N,KB4*
X130810000Y-132080000D03*
G04 #@! TO.P,SW25,2*
G04 #@! TO.N,S2*
X130810000Y-136580000D03*
G04 #@! TD*
G04 #@! TO.P,SW26,1*
G04 #@! TO.N,KB4*
X152550000Y-132080000D03*
G04 #@! TO.P,SW26,2*
G04 #@! TO.N,S6*
X152550000Y-136580000D03*
G04 #@! TO.P,SW26,1*
G04 #@! TO.N,KB4*
X146050000Y-132080000D03*
G04 #@! TO.P,SW26,2*
G04 #@! TO.N,S6*
X146050000Y-136580000D03*
G04 #@! TD*
G04 #@! TO.P,SW27,2*
G04 #@! TO.N,S6*
X161290000Y-136580000D03*
G04 #@! TO.P,SW27,1*
G04 #@! TO.N,KB3*
X161290000Y-132080000D03*
G04 #@! TO.P,SW27,2*
G04 #@! TO.N,S6*
X167790000Y-136580000D03*
G04 #@! TO.P,SW27,1*
G04 #@! TO.N,KB3*
X167790000Y-132080000D03*
G04 #@! TD*
G04 #@! TO.P,SW28,1*
G04 #@! TO.N,KB2*
X183030000Y-132080000D03*
G04 #@! TO.P,SW28,2*
G04 #@! TO.N,S6*
X183030000Y-136580000D03*
G04 #@! TO.P,SW28,1*
G04 #@! TO.N,KB2*
X176530000Y-132080000D03*
G04 #@! TO.P,SW28,2*
G04 #@! TO.N,S6*
X176530000Y-136580000D03*
G04 #@! TD*
G04 #@! TO.P,SW29,2*
G04 #@! TO.N,S6*
X191770000Y-136580000D03*
G04 #@! TO.P,SW29,1*
G04 #@! TO.N,KB1*
X191770000Y-132080000D03*
G04 #@! TO.P,SW29,2*
G04 #@! TO.N,S6*
X198270000Y-136580000D03*
G04 #@! TO.P,SW29,1*
G04 #@! TO.N,KB1*
X198270000Y-132080000D03*
G04 #@! TD*
G04 #@! TO.P,SW30,1*
G04 #@! TO.N,KB0*
X213510000Y-132080000D03*
G04 #@! TO.P,SW30,2*
G04 #@! TO.N,S6*
X213510000Y-136580000D03*
G04 #@! TO.P,SW30,1*
G04 #@! TO.N,KB0*
X207010000Y-132080000D03*
G04 #@! TO.P,SW30,2*
G04 #@! TO.N,S6*
X207010000Y-136580000D03*
G04 #@! TD*
G04 #@! TO.P,SW31,2*
G04 #@! TO.N,S5*
X59690000Y-149280000D03*
G04 #@! TO.P,SW31,1*
G04 #@! TO.N,KB0*
X59690000Y-144780000D03*
G04 #@! TO.P,SW31,2*
G04 #@! TO.N,S5*
X66190000Y-149280000D03*
G04 #@! TO.P,SW31,1*
G04 #@! TO.N,KB0*
X66190000Y-144780000D03*
G04 #@! TD*
G04 #@! TO.P,SW32,1*
G04 #@! TO.N,KB1*
X81430000Y-144780000D03*
G04 #@! TO.P,SW32,2*
G04 #@! TO.N,S5*
X81430000Y-149280000D03*
G04 #@! TO.P,SW32,1*
G04 #@! TO.N,KB1*
X74930000Y-144780000D03*
G04 #@! TO.P,SW32,2*
G04 #@! TO.N,S5*
X74930000Y-149280000D03*
G04 #@! TD*
G04 #@! TO.P,SW33,2*
G04 #@! TO.N,S5*
X90170000Y-149280000D03*
G04 #@! TO.P,SW33,1*
G04 #@! TO.N,KB2*
X90170000Y-144780000D03*
G04 #@! TO.P,SW33,2*
G04 #@! TO.N,S5*
X96670000Y-149280000D03*
G04 #@! TO.P,SW33,1*
G04 #@! TO.N,KB2*
X96670000Y-144780000D03*
G04 #@! TD*
G04 #@! TO.P,SW34,1*
G04 #@! TO.N,KB3*
X111910000Y-144780000D03*
G04 #@! TO.P,SW34,2*
G04 #@! TO.N,S5*
X111910000Y-149280000D03*
G04 #@! TO.P,SW34,1*
G04 #@! TO.N,KB3*
X105410000Y-144780000D03*
G04 #@! TO.P,SW34,2*
G04 #@! TO.N,S5*
X105410000Y-149280000D03*
G04 #@! TD*
G04 #@! TO.P,SW35,2*
G04 #@! TO.N,S5*
X120650000Y-149280000D03*
G04 #@! TO.P,SW35,1*
G04 #@! TO.N,KB4*
X120650000Y-144780000D03*
G04 #@! TO.P,SW35,2*
G04 #@! TO.N,S5*
X127150000Y-149280000D03*
G04 #@! TO.P,SW35,1*
G04 #@! TO.N,KB4*
X127150000Y-144780000D03*
G04 #@! TD*
G04 #@! TO.P,SW36,2*
G04 #@! TO.N,S7*
X135890000Y-149280000D03*
G04 #@! TO.P,SW36,1*
G04 #@! TO.N,KB4*
X135890000Y-144780000D03*
G04 #@! TO.P,SW36,2*
G04 #@! TO.N,S7*
X142390000Y-149280000D03*
G04 #@! TO.P,SW36,1*
G04 #@! TO.N,KB4*
X142390000Y-144780000D03*
G04 #@! TD*
G04 #@! TO.P,SW37,1*
G04 #@! TO.N,KB3*
X157630000Y-144780000D03*
G04 #@! TO.P,SW37,2*
G04 #@! TO.N,S7*
X157630000Y-149280000D03*
G04 #@! TO.P,SW37,1*
G04 #@! TO.N,KB3*
X151130000Y-144780000D03*
G04 #@! TO.P,SW37,2*
G04 #@! TO.N,S7*
X151130000Y-149280000D03*
G04 #@! TD*
G04 #@! TO.P,SW38,2*
G04 #@! TO.N,S7*
X166370000Y-149280000D03*
G04 #@! TO.P,SW38,1*
G04 #@! TO.N,KB2*
X166370000Y-144780000D03*
G04 #@! TO.P,SW38,2*
G04 #@! TO.N,S7*
X172870000Y-149280000D03*
G04 #@! TO.P,SW38,1*
G04 #@! TO.N,KB2*
X172870000Y-144780000D03*
G04 #@! TD*
G04 #@! TO.P,SW39,1*
G04 #@! TO.N,KB1*
X188110000Y-144780000D03*
G04 #@! TO.P,SW39,2*
G04 #@! TO.N,S7*
X188110000Y-149280000D03*
G04 #@! TO.P,SW39,1*
G04 #@! TO.N,KB1*
X181610000Y-144780000D03*
G04 #@! TO.P,SW39,2*
G04 #@! TO.N,S7*
X181610000Y-149280000D03*
G04 #@! TD*
G04 #@! TO.P,SW40,2*
G04 #@! TO.N,S7*
X196850000Y-149280000D03*
G04 #@! TO.P,SW40,1*
G04 #@! TO.N,KB0*
X196850000Y-144780000D03*
G04 #@! TO.P,SW40,2*
G04 #@! TO.N,S7*
X203350000Y-149280000D03*
G04 #@! TO.P,SW40,1*
G04 #@! TO.N,KB0*
X203350000Y-144780000D03*
G04 #@! TD*
D14*
G04 #@! TO.P,RN1,1*
G04 #@! TO.N,+5V*
X194310000Y-97790000D03*
D19*
G04 #@! TO.P,RN1,2*
G04 #@! TO.N,S0*
X196850000Y-97790000D03*
G04 #@! TO.P,RN1,3*
G04 #@! TO.N,S1*
X199390000Y-97790000D03*
G04 #@! TO.P,RN1,4*
G04 #@! TO.N,S2*
X201930000Y-97790000D03*
G04 #@! TO.P,RN1,5*
G04 #@! TO.N,S3*
X204470000Y-97790000D03*
G04 #@! TO.P,RN1,6*
G04 #@! TO.N,S4*
X207010000Y-97790000D03*
G04 #@! TO.P,RN1,7*
G04 #@! TO.N,S5*
X209550000Y-97790000D03*
G04 #@! TO.P,RN1,8*
G04 #@! TO.N,S6*
X212090000Y-97790000D03*
G04 #@! TO.P,RN1,9*
G04 #@! TO.N,S7*
X214630000Y-97790000D03*
G04 #@! TD*
D14*
G04 #@! TO.P,RN2,1*
G04 #@! TO.N,+5V*
X57150000Y-97790000D03*
D19*
G04 #@! TO.P,RN2,2*
G04 #@! TO.N,KB0*
X59690000Y-97790000D03*
G04 #@! TO.P,RN2,3*
G04 #@! TO.N,KB1*
X62230000Y-97790000D03*
G04 #@! TO.P,RN2,4*
G04 #@! TO.N,KB2*
X64770000Y-97790000D03*
G04 #@! TO.P,RN2,5*
G04 #@! TO.N,KB3*
X67310000Y-97790000D03*
G04 #@! TO.P,RN2,6*
G04 #@! TO.N,KB4*
X69850000Y-97790000D03*
G04 #@! TD*
G04 #@! TO.P,R1,2*
G04 #@! TO.N,CLK*
X137668000Y-39370000D03*
D15*
G04 #@! TO.P,R1,1*
G04 #@! TO.N,+5V*
X145288000Y-39370000D03*
G04 #@! TD*
G04 #@! TO.P,R2,1*
G04 #@! TO.N,+5V*
X145288000Y-35814000D03*
D19*
G04 #@! TO.P,R2,2*
G04 #@! TO.N,NMI*
X137668000Y-35814000D03*
G04 #@! TD*
G04 #@! TO.P,R3,2*
G04 #@! TO.N,WAIT*
X155194000Y-41656000D03*
D15*
G04 #@! TO.P,R3,1*
G04 #@! TO.N,+5V*
X147574000Y-41656000D03*
G04 #@! TD*
G04 #@! TO.P,R4,1*
G04 #@! TO.N,+5V*
X147574000Y-37846000D03*
D19*
G04 #@! TO.P,R4,2*
G04 #@! TO.N,BUSRQ*
X155194000Y-37846000D03*
G04 #@! TD*
D20*
G04 #@! TO.P,C2,1*
G04 #@! TO.N,+9V*
X232410000Y-58420000D03*
D18*
G04 #@! TO.P,C2,2*
G04 #@! TO.N,GND*
X235910000Y-58420000D03*
G04 #@! TD*
D15*
G04 #@! TO.P,C3,1*
G04 #@! TO.N,+5V*
X235712000Y-81026000D03*
G04 #@! TO.P,C3,2*
G04 #@! TO.N,GND*
X238212000Y-81026000D03*
G04 #@! TD*
D21*
G04 #@! TO.P,D1,4*
G04 #@! TO.N,Net-(D1-Pad4)*
X237490000Y-43180000D03*
G04 #@! TO.P,D1,2*
G04 #@! TO.N,GND*
X232410000Y-48260000D03*
G04 #@! TO.P,D1,3*
G04 #@! TO.N,Net-(D1-Pad3)*
X237490000Y-48260000D03*
D20*
G04 #@! TO.P,D1,1*
G04 #@! TO.N,+9V*
X232410000Y-43180000D03*
G04 #@! TD*
D22*
G04 #@! TO.P,J4,1*
G04 #@! TO.N,Net-(D1-Pad3)*
X234950000Y-36830000D03*
D23*
G04 #@! TD*
G04 #@! TO.N,Net-(D1-Pad4)*
G04 #@! TO.C,J4*
G36*
X236023513Y-29333611D02*
X236096318Y-29344411D01*
X236167714Y-29362295D01*
X236237013Y-29387090D01*
X236303548Y-29418559D01*
X236366678Y-29456398D01*
X236425795Y-29500242D01*
X236480330Y-29549670D01*
X236529758Y-29604205D01*
X236573602Y-29663322D01*
X236611441Y-29726452D01*
X236642910Y-29792987D01*
X236667705Y-29862286D01*
X236685589Y-29933682D01*
X236696389Y-30006487D01*
X236700000Y-30080000D01*
X236700000Y-31580000D01*
X236696389Y-31653513D01*
X236685589Y-31726318D01*
X236667705Y-31797714D01*
X236642910Y-31867013D01*
X236611441Y-31933548D01*
X236573602Y-31996678D01*
X236529758Y-32055795D01*
X236480330Y-32110330D01*
X236425795Y-32159758D01*
X236366678Y-32203602D01*
X236303548Y-32241441D01*
X236237013Y-32272910D01*
X236167714Y-32297705D01*
X236096318Y-32315589D01*
X236023513Y-32326389D01*
X235950000Y-32330000D01*
X233950000Y-32330000D01*
X233876487Y-32326389D01*
X233803682Y-32315589D01*
X233732286Y-32297705D01*
X233662987Y-32272910D01*
X233596452Y-32241441D01*
X233533322Y-32203602D01*
X233474205Y-32159758D01*
X233419670Y-32110330D01*
X233370242Y-32055795D01*
X233326398Y-31996678D01*
X233288559Y-31933548D01*
X233257090Y-31867013D01*
X233232295Y-31797714D01*
X233214411Y-31726318D01*
X233203611Y-31653513D01*
X233200000Y-31580000D01*
X233200000Y-30080000D01*
X233203611Y-30006487D01*
X233214411Y-29933682D01*
X233232295Y-29862286D01*
X233257090Y-29792987D01*
X233288559Y-29726452D01*
X233326398Y-29663322D01*
X233370242Y-29604205D01*
X233419670Y-29549670D01*
X233474205Y-29500242D01*
X233533322Y-29456398D01*
X233596452Y-29418559D01*
X233662987Y-29387090D01*
X233732286Y-29362295D01*
X233803682Y-29344411D01*
X233876487Y-29333611D01*
X233950000Y-29330000D01*
X235950000Y-29330000D01*
X236023513Y-29333611D01*
X236023513Y-29333611D01*
G37*
D24*
G04 #@! TO.P,J4,2*
G04 #@! TO.N,Net-(D1-Pad4)*
X234950000Y-30830000D03*
D23*
G04 #@! TD*
G04 #@! TO.N,N/C*
G04 #@! TO.C,J4*
G36*
X231210765Y-32084213D02*
X231295704Y-32096813D01*
X231378999Y-32117677D01*
X231459848Y-32146605D01*
X231537472Y-32183319D01*
X231611124Y-32227464D01*
X231680094Y-32278616D01*
X231743718Y-32336282D01*
X231801384Y-32399906D01*
X231852536Y-32468876D01*
X231896681Y-32542528D01*
X231933395Y-32620152D01*
X231962323Y-32701001D01*
X231983187Y-32784296D01*
X231995787Y-32869235D01*
X232000000Y-32955000D01*
X232000000Y-34705000D01*
X231995787Y-34790765D01*
X231983187Y-34875704D01*
X231962323Y-34958999D01*
X231933395Y-35039848D01*
X231896681Y-35117472D01*
X231852536Y-35191124D01*
X231801384Y-35260094D01*
X231743718Y-35323718D01*
X231680094Y-35381384D01*
X231611124Y-35432536D01*
X231537472Y-35476681D01*
X231459848Y-35513395D01*
X231378999Y-35542323D01*
X231295704Y-35563187D01*
X231210765Y-35575787D01*
X231125000Y-35580000D01*
X229375000Y-35580000D01*
X229289235Y-35575787D01*
X229204296Y-35563187D01*
X229121001Y-35542323D01*
X229040152Y-35513395D01*
X228962528Y-35476681D01*
X228888876Y-35432536D01*
X228819906Y-35381384D01*
X228756282Y-35323718D01*
X228698616Y-35260094D01*
X228647464Y-35191124D01*
X228603319Y-35117472D01*
X228566605Y-35039848D01*
X228537677Y-34958999D01*
X228516813Y-34875704D01*
X228504213Y-34790765D01*
X228500000Y-34705000D01*
X228500000Y-32955000D01*
X228504213Y-32869235D01*
X228516813Y-32784296D01*
X228537677Y-32701001D01*
X228566605Y-32620152D01*
X228603319Y-32542528D01*
X228647464Y-32468876D01*
X228698616Y-32399906D01*
X228756282Y-32336282D01*
X228819906Y-32278616D01*
X228888876Y-32227464D01*
X228962528Y-32183319D01*
X229040152Y-32146605D01*
X229121001Y-32117677D01*
X229204296Y-32096813D01*
X229289235Y-32084213D01*
X229375000Y-32080000D01*
X231125000Y-32080000D01*
X231210765Y-32084213D01*
X231210765Y-32084213D01*
G37*
D25*
G04 #@! TO.P,J4,3*
G04 #@! TO.N,N/C*
X230250000Y-33830000D03*
G04 #@! TD*
D26*
G04 #@! TO.P,U2,1*
G04 #@! TO.N,+9V*
X236220000Y-74930000D03*
D27*
G04 #@! TO.P,U2,2*
G04 #@! TO.N,GND*
X233680000Y-74930000D03*
G04 #@! TO.P,U2,3*
G04 #@! TO.N,+5V*
X231140000Y-74930000D03*
G04 #@! TD*
D28*
G04 #@! TO.P,J5,1*
G04 #@! TO.N,Net-(C16-Pad1)*
X82550000Y-29210000D03*
D29*
G04 #@! TO.P,J5,4*
G04 #@! TO.N,N/C*
X83050000Y-36510000D03*
D30*
G04 #@! TO.P,J5,5*
X89650000Y-32110000D03*
G04 #@! TO.P,J5,2*
X92350000Y-33310000D03*
D29*
G04 #@! TO.P,J5,3*
G04 #@! TO.N,GND*
X87150000Y-25310000D03*
G04 #@! TD*
G04 #@! TO.P,J6,3*
G04 #@! TO.N,GND*
X101120000Y-25310000D03*
D30*
G04 #@! TO.P,J6,2*
G04 #@! TO.N,N/C*
X106320000Y-33310000D03*
G04 #@! TO.P,J6,5*
X103620000Y-32110000D03*
D29*
G04 #@! TO.P,J6,4*
X97020000Y-36510000D03*
D28*
G04 #@! TO.P,J6,1*
G04 #@! TO.N,Net-(C17-Pad1)*
X96520000Y-29210000D03*
G04 #@! TD*
D31*
G04 #@! TO.P,J8,1*
G04 #@! TO.N,GND*
X189230000Y-97790000D03*
D32*
G04 #@! TO.P,J8,2*
G04 #@! TO.N,~RESET*
X186690000Y-97790000D03*
G04 #@! TD*
D15*
G04 #@! TO.P,C4,1*
G04 #@! TO.N,EAR*
X232410000Y-102870000D03*
G04 #@! TO.P,C4,2*
G04 #@! TO.N,Net-(C4-Pad2)*
X232410000Y-105370000D03*
G04 #@! TD*
D31*
G04 #@! TO.P,J9,1*
G04 #@! TO.N,Net-(J9-Pad1)*
X218440000Y-116840000D03*
D32*
G04 #@! TO.P,J9,2*
G04 #@! TO.N,Net-(J9-Pad2)*
X218440000Y-119380000D03*
G04 #@! TO.P,J9,3*
G04 #@! TO.N,GND*
X218440000Y-121920000D03*
G04 #@! TD*
D20*
G04 #@! TO.P,LS1,1*
G04 #@! TO.N,Net-(J9-Pad2)*
X226060000Y-124460000D03*
D18*
G04 #@! TO.P,LS1,2*
G04 #@! TO.N,GND*
X233660000Y-124460000D03*
G04 #@! TD*
D17*
G04 #@! TO.P,Q9,2*
G04 #@! TO.N,Net-(D2-Pad1)*
X224790000Y-116840000D03*
G04 #@! TO.P,Q9,3*
G04 #@! TO.N,Net-(J9-Pad1)*
X224790000Y-118110000D03*
D16*
G04 #@! TO.P,Q9,1*
G04 #@! TO.N,+5V*
X224790000Y-115570000D03*
G04 #@! TD*
D15*
G04 #@! TO.P,R5,1*
G04 #@! TO.N,Net-(C4-Pad2)*
X232410000Y-110490000D03*
D19*
G04 #@! TO.P,R5,2*
G04 #@! TO.N,Net-(D2-Pad1)*
X232410000Y-118110000D03*
G04 #@! TD*
D14*
G04 #@! TO.P,RN3,1*
G04 #@! TO.N,+5V*
X158750000Y-99060000D03*
D19*
G04 #@! TO.P,RN3,2*
G04 #@! TO.N,D0*
X156210000Y-99060000D03*
G04 #@! TO.P,RN3,3*
G04 #@! TO.N,D1*
X153670000Y-99060000D03*
G04 #@! TO.P,RN3,4*
G04 #@! TO.N,D2*
X151130000Y-99060000D03*
G04 #@! TO.P,RN3,5*
G04 #@! TO.N,D3*
X148590000Y-99060000D03*
G04 #@! TO.P,RN3,6*
G04 #@! TO.N,D4*
X146050000Y-99060000D03*
G04 #@! TO.P,RN3,7*
G04 #@! TO.N,D5*
X143510000Y-99060000D03*
G04 #@! TO.P,RN3,8*
G04 #@! TO.N,D6*
X140970000Y-99060000D03*
G04 #@! TO.P,RN3,9*
G04 #@! TO.N,D7*
X138430000Y-99060000D03*
G04 #@! TD*
D14*
G04 #@! TO.P,U3,1*
G04 #@! TO.N,+5V*
X209550000Y-44450000D03*
D19*
G04 #@! TO.P,U3,15*
G04 #@! TO.N,D3*
X224790000Y-77470000D03*
G04 #@! TO.P,U3,2*
G04 #@! TO.N,A12*
X209550000Y-46990000D03*
G04 #@! TO.P,U3,16*
G04 #@! TO.N,D4*
X224790000Y-74930000D03*
G04 #@! TO.P,U3,3*
G04 #@! TO.N,A7*
X209550000Y-49530000D03*
G04 #@! TO.P,U3,17*
G04 #@! TO.N,D5*
X224790000Y-72390000D03*
G04 #@! TO.P,U3,4*
G04 #@! TO.N,A6*
X209550000Y-52070000D03*
G04 #@! TO.P,U3,18*
G04 #@! TO.N,D6*
X224790000Y-69850000D03*
G04 #@! TO.P,U3,5*
G04 #@! TO.N,A5*
X209550000Y-54610000D03*
G04 #@! TO.P,U3,19*
G04 #@! TO.N,D7*
X224790000Y-67310000D03*
G04 #@! TO.P,U3,6*
G04 #@! TO.N,A4*
X209550000Y-57150000D03*
G04 #@! TO.P,U3,20*
G04 #@! TO.N,ROM_CS*
X224790000Y-64770000D03*
G04 #@! TO.P,U3,7*
G04 #@! TO.N,A3*
X209550000Y-59690000D03*
G04 #@! TO.P,U3,21*
G04 #@! TO.N,A10*
X224790000Y-62230000D03*
G04 #@! TO.P,U3,8*
G04 #@! TO.N,A2*
X209550000Y-62230000D03*
G04 #@! TO.P,U3,22*
G04 #@! TO.N,RD*
X224790000Y-59690000D03*
G04 #@! TO.P,U3,9*
G04 #@! TO.N,A1*
X209550000Y-64770000D03*
G04 #@! TO.P,U3,23*
G04 #@! TO.N,A11*
X224790000Y-57150000D03*
G04 #@! TO.P,U3,10*
G04 #@! TO.N,A0*
X209550000Y-67310000D03*
G04 #@! TO.P,U3,24*
G04 #@! TO.N,A9*
X224790000Y-54610000D03*
G04 #@! TO.P,U3,11*
G04 #@! TO.N,D0*
X209550000Y-69850000D03*
G04 #@! TO.P,U3,25*
G04 #@! TO.N,A8*
X224790000Y-52070000D03*
G04 #@! TO.P,U3,12*
G04 #@! TO.N,D1*
X209550000Y-72390000D03*
G04 #@! TO.P,U3,26*
G04 #@! TO.N,A13*
X224790000Y-49530000D03*
G04 #@! TO.P,U3,13*
G04 #@! TO.N,D2*
X209550000Y-74930000D03*
G04 #@! TO.P,U3,27*
G04 #@! TO.N,+5V*
X224790000Y-46990000D03*
G04 #@! TO.P,U3,14*
G04 #@! TO.N,GND*
X209550000Y-77470000D03*
G04 #@! TO.P,U3,28*
G04 #@! TO.N,+5V*
X224790000Y-44450000D03*
G04 #@! TD*
D15*
G04 #@! TO.P,R6,1*
G04 #@! TO.N,VA0*
X137414000Y-49530000D03*
D19*
G04 #@! TO.P,R6,2*
G04 #@! TO.N,A0*
X145034000Y-49530000D03*
G04 #@! TD*
G04 #@! TO.P,R7,2*
G04 #@! TO.N,VD0*
X160020000Y-85090000D03*
D15*
G04 #@! TO.P,R7,1*
G04 #@! TO.N,D0*
X160020000Y-92710000D03*
G04 #@! TD*
G04 #@! TO.P,R8,1*
G04 #@! TO.N,VA1*
X147574000Y-51308000D03*
D19*
G04 #@! TO.P,R8,2*
G04 #@! TO.N,A1*
X155194000Y-51308000D03*
G04 #@! TD*
D15*
G04 #@! TO.P,R9,1*
G04 #@! TO.N,D1*
X156210000Y-92710000D03*
D19*
G04 #@! TO.P,R9,2*
G04 #@! TO.N,VD1*
X156210000Y-85090000D03*
G04 #@! TD*
G04 #@! TO.P,R10,2*
G04 #@! TO.N,A2*
X145034000Y-53086000D03*
D15*
G04 #@! TO.P,R10,1*
G04 #@! TO.N,VA2*
X137414000Y-53086000D03*
G04 #@! TD*
D19*
G04 #@! TO.P,R11,2*
G04 #@! TO.N,VD2*
X152400000Y-85090000D03*
D15*
G04 #@! TO.P,R11,1*
G04 #@! TO.N,D2*
X152400000Y-92710000D03*
G04 #@! TD*
G04 #@! TO.P,R12,1*
G04 #@! TO.N,VA3*
X147574000Y-55118000D03*
D19*
G04 #@! TO.P,R12,2*
G04 #@! TO.N,A3*
X155194000Y-55118000D03*
G04 #@! TD*
D15*
G04 #@! TO.P,R13,1*
G04 #@! TO.N,D3*
X148590000Y-92710000D03*
D19*
G04 #@! TO.P,R13,2*
G04 #@! TO.N,VD3*
X148590000Y-85090000D03*
G04 #@! TD*
G04 #@! TO.P,R14,2*
G04 #@! TO.N,A4*
X145034000Y-56896000D03*
D15*
G04 #@! TO.P,R14,1*
G04 #@! TO.N,VA4*
X137414000Y-56896000D03*
G04 #@! TD*
D19*
G04 #@! TO.P,R15,2*
G04 #@! TO.N,VD4*
X144780000Y-85090000D03*
D15*
G04 #@! TO.P,R15,1*
G04 #@! TO.N,D4*
X144780000Y-92710000D03*
G04 #@! TD*
G04 #@! TO.P,R16,1*
G04 #@! TO.N,VA5*
X147574000Y-58674000D03*
D19*
G04 #@! TO.P,R16,2*
G04 #@! TO.N,A5*
X155194000Y-58674000D03*
G04 #@! TD*
D15*
G04 #@! TO.P,R17,1*
G04 #@! TO.N,D5*
X140970000Y-92710000D03*
D19*
G04 #@! TO.P,R17,2*
G04 #@! TO.N,VD5*
X140970000Y-85090000D03*
G04 #@! TD*
G04 #@! TO.P,R18,2*
G04 #@! TO.N,A6*
X145034000Y-60452000D03*
D15*
G04 #@! TO.P,R18,1*
G04 #@! TO.N,VA6*
X137414000Y-60452000D03*
G04 #@! TD*
D19*
G04 #@! TO.P,R19,2*
G04 #@! TO.N,VD6*
X137160000Y-85090000D03*
D15*
G04 #@! TO.P,R19,1*
G04 #@! TO.N,D6*
X137160000Y-92710000D03*
G04 #@! TD*
G04 #@! TO.P,R20,1*
G04 #@! TO.N,VA7*
X147574000Y-62230000D03*
D19*
G04 #@! TO.P,R20,2*
G04 #@! TO.N,A7*
X155194000Y-62230000D03*
G04 #@! TD*
D15*
G04 #@! TO.P,R21,1*
G04 #@! TO.N,D7*
X133350000Y-92710000D03*
D19*
G04 #@! TO.P,R21,2*
G04 #@! TO.N,VD7*
X133350000Y-85090000D03*
G04 #@! TD*
G04 #@! TO.P,R22,2*
G04 #@! TO.N,A8*
X145034000Y-64008000D03*
D15*
G04 #@! TO.P,R22,1*
G04 #@! TO.N,VA8*
X137414000Y-64008000D03*
G04 #@! TD*
D19*
G04 #@! TO.P,R23,2*
G04 #@! TO.N,A9*
X155194000Y-65786000D03*
D15*
G04 #@! TO.P,R23,1*
G04 #@! TO.N,VA9*
X147574000Y-65786000D03*
G04 #@! TD*
D19*
G04 #@! TO.P,R24,2*
G04 #@! TO.N,A10*
X145034000Y-67564000D03*
D15*
G04 #@! TO.P,R24,1*
G04 #@! TO.N,VA10*
X137414000Y-67564000D03*
G04 #@! TD*
G04 #@! TO.P,R25,1*
G04 #@! TO.N,VA11*
X147574000Y-69342000D03*
D19*
G04 #@! TO.P,R25,2*
G04 #@! TO.N,A11*
X155194000Y-69342000D03*
G04 #@! TD*
G04 #@! TO.P,R26,2*
G04 #@! TO.N,A12*
X145034000Y-71374000D03*
D15*
G04 #@! TO.P,R26,1*
G04 #@! TO.N,VA12*
X137414000Y-71374000D03*
G04 #@! TD*
G04 #@! TO.P,R27,1*
G04 #@! TO.N,VA13*
X147574000Y-73152000D03*
D19*
G04 #@! TO.P,R27,2*
G04 #@! TO.N,A13*
X155194000Y-73152000D03*
G04 #@! TD*
D15*
G04 #@! TO.P,C5,1*
G04 #@! TO.N,Net-(C5-Pad1)*
X50673000Y-71247000D03*
G04 #@! TO.P,C5,2*
G04 #@! TO.N,Net-(C5-Pad2)*
X50673000Y-68747000D03*
G04 #@! TD*
D31*
G04 #@! TO.P,J10,1*
G04 #@! TO.N,/ula/TCK*
X99060000Y-91440000D03*
D32*
G04 #@! TO.P,J10,2*
G04 #@! TO.N,GND*
X99060000Y-93980000D03*
G04 #@! TO.P,J10,3*
G04 #@! TO.N,/ula/TDO*
X96520000Y-91440000D03*
G04 #@! TO.P,J10,4*
G04 #@! TO.N,+5V*
X96520000Y-93980000D03*
G04 #@! TO.P,J10,5*
G04 #@! TO.N,/ula/TMS*
X93980000Y-91440000D03*
G04 #@! TO.P,J10,6*
G04 #@! TO.N,N/C*
X93980000Y-93980000D03*
G04 #@! TO.P,J10,7*
X91440000Y-91440000D03*
G04 #@! TO.P,J10,8*
X91440000Y-93980000D03*
G04 #@! TO.P,J10,9*
G04 #@! TO.N,/ula/TDI*
X88900000Y-91440000D03*
G04 #@! TO.P,J10,10*
G04 #@! TO.N,GND*
X88900000Y-93980000D03*
G04 #@! TD*
D15*
G04 #@! TO.P,R28,1*
G04 #@! TO.N,IORQ*
X94234000Y-49530000D03*
D19*
G04 #@! TO.P,R28,2*
G04 #@! TO.N,IORQULA*
X101854000Y-49530000D03*
G04 #@! TD*
G04 #@! TO.P,R29,2*
G04 #@! TO.N,Net-(R29-Pad2)*
X54102000Y-61214000D03*
D15*
G04 #@! TO.P,R29,1*
G04 #@! TO.N,Net-(C5-Pad2)*
X54102000Y-68834000D03*
G04 #@! TD*
G04 #@! TO.P,R30,1*
G04 #@! TO.N,Net-(R30-Pad1)*
X54102000Y-78740000D03*
D19*
G04 #@! TO.P,R30,2*
G04 #@! TO.N,Net-(C5-Pad1)*
X54102000Y-71120000D03*
G04 #@! TD*
D12*
G04 #@! TO.P,U6,1*
G04 #@! TO.N,Net-(R29-Pad2)*
X57658000Y-64008000D03*
D13*
G04 #@! TO.P,U6,8*
G04 #@! TO.N,Net-(C23-Pad2)*
X65278000Y-79248000D03*
G04 #@! TO.P,U6,2*
G04 #@! TO.N,Net-(C5-Pad2)*
X57658000Y-66548000D03*
G04 #@! TO.P,U6,9*
G04 #@! TO.N,Net-(R41-Pad2)*
X65278000Y-76708000D03*
G04 #@! TO.P,U6,3*
G04 #@! TO.N,Net-(C5-Pad1)*
X57658000Y-69088000D03*
G04 #@! TO.P,U6,10*
G04 #@! TO.N,Net-(R42-Pad1)*
X65278000Y-74168000D03*
G04 #@! TO.P,U6,4*
G04 #@! TO.N,Net-(R30-Pad1)*
X57658000Y-71628000D03*
G04 #@! TO.P,U6,11*
G04 #@! TO.N,Net-(C23-Pad1)*
X65278000Y-71628000D03*
G04 #@! TO.P,U6,5*
G04 #@! TO.N,Net-(R30-Pad1)*
X57658000Y-74168000D03*
G04 #@! TO.P,U6,12*
G04 #@! TO.N,Net-(J11-Pad1)*
X65278000Y-69088000D03*
G04 #@! TO.P,U6,6*
G04 #@! TO.N,CLK14*
X57658000Y-76708000D03*
G04 #@! TO.P,U6,13*
G04 #@! TO.N,Net-(R42-Pad1)*
X65278000Y-66548000D03*
G04 #@! TO.P,U6,7*
G04 #@! TO.N,GND*
X57658000Y-79248000D03*
G04 #@! TO.P,U6,14*
G04 #@! TO.N,+5V*
X65278000Y-64008000D03*
G04 #@! TD*
D33*
G04 #@! TO.P,U7,2*
G04 #@! TO.N,IORQ*
X90424000Y-57404000D03*
G04 #@! TO.P,U7,4*
G04 #@! TO.N,RD*
X87884000Y-57404000D03*
G04 #@! TO.P,U7,6*
G04 #@! TO.N,WR*
X85344000Y-57404000D03*
G04 #@! TO.P,U7,8*
G04 #@! TO.N,A0*
X82804000Y-57404000D03*
G04 #@! TO.P,U7,10*
G04 #@! TO.N,VD2*
X80264000Y-57404000D03*
G04 #@! TO.P,U7,84*
G04 #@! TO.N,IORQULA*
X92964000Y-57404000D03*
G04 #@! TO.P,U7,82*
G04 #@! TO.N,GND*
X95504000Y-57404000D03*
G04 #@! TO.P,U7,80*
G04 #@! TO.N,Net-(R31-Pad2)*
X98044000Y-57404000D03*
G04 #@! TO.P,U7,78*
G04 #@! TO.N,+5V*
X100584000Y-57404000D03*
G04 #@! TO.P,U7,76*
G04 #@! TO.N,KB4*
X103124000Y-57404000D03*
G04 #@! TO.P,U7,74*
G04 #@! TO.N,KB1*
X105664000Y-57404000D03*
D34*
G04 #@! TO.P,U7,1*
G04 #@! TO.N,~RESET*
X90424000Y-54864000D03*
D33*
G04 #@! TO.P,U7,3*
G04 #@! TO.N,GND*
X87884000Y-54864000D03*
G04 #@! TO.P,U7,5*
G04 #@! TO.N,MREQ*
X85344000Y-54864000D03*
G04 #@! TO.P,U7,7*
G04 #@! TO.N,GND*
X82804000Y-54864000D03*
G04 #@! TO.P,U7,9*
G04 #@! TO.N,VD3*
X80264000Y-54864000D03*
G04 #@! TO.P,U7,11*
G04 #@! TO.N,VD4*
X77724000Y-54864000D03*
G04 #@! TO.P,U7,83*
G04 #@! TO.N,CLK14*
X92964000Y-54864000D03*
G04 #@! TO.P,U7,81*
G04 #@! TO.N,RAM_CS*
X95504000Y-54864000D03*
G04 #@! TO.P,U7,79*
G04 #@! TO.N,Net-(R32-Pad2)*
X98044000Y-54864000D03*
G04 #@! TO.P,U7,77*
G04 #@! TO.N,IORQ*
X100584000Y-54864000D03*
G04 #@! TO.P,U7,75*
G04 #@! TO.N,KB3*
X103124000Y-54864000D03*
G04 #@! TO.P,U7,13*
G04 #@! TO.N,+5V*
X77724000Y-57404000D03*
G04 #@! TO.P,U7,15*
G04 #@! TO.N,VD1*
X77724000Y-59944000D03*
G04 #@! TO.P,U7,17*
G04 #@! TO.N,VD6*
X77724000Y-62484000D03*
G04 #@! TO.P,U7,19*
G04 #@! TO.N,GND*
X77724000Y-65024000D03*
G04 #@! TO.P,U7,21*
G04 #@! TO.N,VA0*
X77724000Y-67564000D03*
G04 #@! TO.P,U7,23*
G04 #@! TO.N,/ula/TMS*
X77724000Y-70104000D03*
G04 #@! TO.P,U7,25*
G04 #@! TO.N,VA10*
X77724000Y-72644000D03*
G04 #@! TO.P,U7,27*
G04 #@! TO.N,VRAM_RD*
X77724000Y-75184000D03*
G04 #@! TO.P,U7,29*
G04 #@! TO.N,VA3*
X77724000Y-77724000D03*
G04 #@! TO.P,U7,31*
G04 #@! TO.N,VA4*
X77724000Y-80264000D03*
G04 #@! TO.P,U7,12*
G04 #@! TO.N,VD5*
X75184000Y-57404000D03*
G04 #@! TO.P,U7,14*
G04 #@! TO.N,/ula/TDI*
X75184000Y-59944000D03*
G04 #@! TO.P,U7,16*
G04 #@! TO.N,VD0*
X75184000Y-62484000D03*
G04 #@! TO.P,U7,18*
G04 #@! TO.N,VD7*
X75184000Y-65024000D03*
G04 #@! TO.P,U7,20*
G04 #@! TO.N,VRAM_CS*
X75184000Y-67564000D03*
G04 #@! TO.P,U7,22*
G04 #@! TO.N,VA1*
X75184000Y-70104000D03*
G04 #@! TO.P,U7,24*
G04 #@! TO.N,VA2*
X75184000Y-72644000D03*
G04 #@! TO.P,U7,26*
G04 #@! TO.N,+5V*
X75184000Y-75184000D03*
G04 #@! TO.P,U7,28*
G04 #@! TO.N,VA11*
X75184000Y-77724000D03*
G04 #@! TO.P,U7,30*
G04 #@! TO.N,VA9*
X75184000Y-80264000D03*
G04 #@! TO.P,U7,32*
G04 #@! TO.N,GND*
X75184000Y-82804000D03*
G04 #@! TO.P,U7,34*
G04 #@! TO.N,VA5*
X77724000Y-82804000D03*
G04 #@! TO.P,U7,36*
G04 #@! TO.N,VA8*
X80264000Y-82804000D03*
G04 #@! TO.P,U7,38*
G04 #@! TO.N,+5V*
X82804000Y-82804000D03*
G04 #@! TO.P,U7,40*
G04 #@! TO.N,MIC*
X85344000Y-82804000D03*
G04 #@! TO.P,U7,42*
G04 #@! TO.N,GND*
X87884000Y-82804000D03*
G04 #@! TO.P,U7,44*
G04 #@! TO.N,EAR*
X90424000Y-82804000D03*
G04 #@! TO.P,U7,46*
G04 #@! TO.N,CLK_B*
X92964000Y-82804000D03*
G04 #@! TO.P,U7,48*
G04 #@! TO.N,A15*
X95504000Y-82804000D03*
G04 #@! TO.P,U7,50*
G04 #@! TO.N,SPK*
X98044000Y-82804000D03*
G04 #@! TO.P,U7,52*
G04 #@! TO.N,N/C*
X100584000Y-82804000D03*
G04 #@! TO.P,U7,33*
G04 #@! TO.N,VA6*
X77724000Y-85344000D03*
G04 #@! TO.P,U7,35*
G04 #@! TO.N,VA13*
X80264000Y-85344000D03*
G04 #@! TO.P,U7,37*
G04 #@! TO.N,VA7*
X82804000Y-85344000D03*
G04 #@! TO.P,U7,39*
G04 #@! TO.N,VRAM_WR*
X85344000Y-85344000D03*
G04 #@! TO.P,U7,41*
G04 #@! TO.N,VA12*
X87884000Y-85344000D03*
G04 #@! TO.P,U7,43*
G04 #@! TO.N,GND*
X90424000Y-85344000D03*
G04 #@! TO.P,U7,45*
G04 #@! TO.N,CLK*
X92964000Y-85344000D03*
G04 #@! TO.P,U7,47*
G04 #@! TO.N,GND*
X95504000Y-85344000D03*
G04 #@! TO.P,U7,49*
G04 #@! TO.N,A14*
X98044000Y-85344000D03*
G04 #@! TO.P,U7,51*
G04 #@! TO.N,bright*
X100584000Y-85344000D03*
G04 #@! TO.P,U7,53*
G04 #@! TO.N,+5V*
X103124000Y-85344000D03*
G04 #@! TO.P,U7,55*
G04 #@! TO.N,red*
X103124000Y-82804000D03*
G04 #@! TO.P,U7,57*
G04 #@! TO.N,blue*
X103124000Y-80264000D03*
G04 #@! TO.P,U7,59*
G04 #@! TO.N,GND*
X103124000Y-77724000D03*
G04 #@! TO.P,U7,61*
G04 #@! TO.N,N/C*
X103124000Y-75184000D03*
G04 #@! TO.P,U7,63*
X103124000Y-72644000D03*
G04 #@! TO.P,U7,65*
X103124000Y-70104000D03*
G04 #@! TO.P,U7,67*
X103124000Y-67564000D03*
G04 #@! TO.P,U7,69*
X103124000Y-65024000D03*
G04 #@! TO.P,U7,71*
G04 #@! TO.N,/ula/TDO*
X103124000Y-62484000D03*
G04 #@! TO.P,U7,73*
G04 #@! TO.N,KB2*
X103124000Y-59944000D03*
G04 #@! TO.P,U7,54*
G04 #@! TO.N,green*
X105664000Y-82804000D03*
G04 #@! TO.P,U7,56*
G04 #@! TO.N,sync*
X105664000Y-80264000D03*
G04 #@! TO.P,U7,58*
G04 #@! TO.N,P-N_ULA*
X105664000Y-77724000D03*
G04 #@! TO.P,U7,60*
G04 #@! TO.N,N/C*
X105664000Y-75184000D03*
G04 #@! TO.P,U7,62*
G04 #@! TO.N,/ula/TCK*
X105664000Y-72644000D03*
G04 #@! TO.P,U7,64*
G04 #@! TO.N,N/C*
X105664000Y-70104000D03*
G04 #@! TO.P,U7,66*
G04 #@! TO.N,+5V*
X105664000Y-67564000D03*
G04 #@! TO.P,U7,68*
G04 #@! TO.N,N/C*
X105664000Y-65024000D03*
G04 #@! TO.P,U7,70*
G04 #@! TO.N,KB0*
X105664000Y-62484000D03*
G04 #@! TO.P,U7,72*
G04 #@! TO.N,GND*
X105664000Y-59944000D03*
G04 #@! TD*
D15*
G04 #@! TO.P,C6,1*
G04 #@! TO.N,+9V*
X233426000Y-68072000D03*
G04 #@! TO.P,C6,2*
G04 #@! TO.N,GND*
X230926000Y-68072000D03*
G04 #@! TD*
D20*
G04 #@! TO.P,C7,1*
G04 #@! TO.N,+5V*
X234442000Y-89916000D03*
D18*
G04 #@! TO.P,C7,2*
G04 #@! TO.N,GND*
X237942000Y-89916000D03*
G04 #@! TD*
D19*
G04 #@! TO.P,R31,2*
G04 #@! TO.N,Net-(R31-Pad2)*
X137414000Y-74930000D03*
D15*
G04 #@! TO.P,R31,1*
G04 #@! TO.N,INT*
X145034000Y-74930000D03*
G04 #@! TD*
G04 #@! TO.P,R32,1*
G04 #@! TO.N,ROM_CS*
X155194000Y-45466000D03*
D19*
G04 #@! TO.P,R32,2*
G04 #@! TO.N,Net-(R32-Pad2)*
X147574000Y-45466000D03*
G04 #@! TD*
D15*
G04 #@! TO.P,C8,1*
G04 #@! TO.N,GND*
X198628000Y-40894000D03*
G04 #@! TO.P,C8,2*
G04 #@! TO.N,+5V*
X201128000Y-40894000D03*
G04 #@! TD*
G04 #@! TO.P,C9,2*
G04 #@! TO.N,+5V*
X105450000Y-90678000D03*
G04 #@! TO.P,C9,1*
G04 #@! TO.N,GND*
X107950000Y-90678000D03*
G04 #@! TD*
G04 #@! TO.P,C10,2*
G04 #@! TO.N,+5V*
X222464000Y-40894000D03*
G04 #@! TO.P,C10,1*
G04 #@! TO.N,GND*
X219964000Y-40894000D03*
G04 #@! TD*
G04 #@! TO.P,C11,1*
G04 #@! TO.N,GND*
X176022000Y-40894000D03*
G04 #@! TO.P,C11,2*
G04 #@! TO.N,+5V*
X178522000Y-40894000D03*
G04 #@! TD*
G04 #@! TO.P,C12,1*
G04 #@! TO.N,GND*
X124968000Y-40894000D03*
G04 #@! TO.P,C12,2*
G04 #@! TO.N,+5V*
X127468000Y-40894000D03*
G04 #@! TD*
G04 #@! TO.P,C13,2*
G04 #@! TO.N,GND*
X76160000Y-40640000D03*
G04 #@! TO.P,C13,1*
G04 #@! TO.N,+5V*
X73660000Y-40640000D03*
G04 #@! TD*
G04 #@! TO.P,C14,1*
G04 #@! TO.N,Net-(C14-Pad1)*
X66294000Y-38989000D03*
G04 #@! TO.P,C14,2*
G04 #@! TO.N,Net-(C14-Pad2)*
X68794000Y-38989000D03*
G04 #@! TD*
G04 #@! TO.P,C15,1*
G04 #@! TO.N,Net-(C15-Pad1)*
X91313000Y-40386000D03*
G04 #@! TO.P,C15,2*
G04 #@! TO.N,Net-(C14-Pad2)*
X88813000Y-40386000D03*
G04 #@! TD*
G04 #@! TO.P,C16,2*
G04 #@! TO.N,GND*
X106767000Y-40386000D03*
G04 #@! TO.P,C16,1*
G04 #@! TO.N,Net-(C16-Pad1)*
X104267000Y-40386000D03*
G04 #@! TD*
G04 #@! TO.P,C17,2*
G04 #@! TO.N,Net-(C17-Pad2)*
X111212000Y-28956000D03*
G04 #@! TO.P,C17,1*
G04 #@! TO.N,Net-(C17-Pad1)*
X108712000Y-28956000D03*
G04 #@! TD*
G04 #@! TO.P,C18,1*
G04 #@! TO.N,Net-(C17-Pad2)*
X119507000Y-33274000D03*
G04 #@! TO.P,C18,2*
G04 #@! TO.N,GND*
X122007000Y-33274000D03*
G04 #@! TD*
G04 #@! TO.P,C19,1*
G04 #@! TO.N,Net-(C19-Pad1)*
X61214000Y-38989000D03*
G04 #@! TO.P,C19,2*
G04 #@! TO.N,AUDIO_OUT*
X63714000Y-38989000D03*
G04 #@! TD*
D19*
G04 #@! TO.P,R33,2*
G04 #@! TO.N,Net-(C16-Pad1)*
X101473000Y-40386000D03*
D15*
G04 #@! TO.P,R33,1*
G04 #@! TO.N,Net-(C15-Pad1)*
X93853000Y-40386000D03*
G04 #@! TD*
G04 #@! TO.P,R34,1*
G04 #@! TO.N,Net-(C16-Pad1)*
X86360000Y-40513000D03*
D19*
G04 #@! TO.P,R34,2*
G04 #@! TO.N,GND*
X78740000Y-40513000D03*
G04 #@! TD*
G04 #@! TO.P,R35,2*
G04 #@! TO.N,Net-(C14-Pad2)*
X71120000Y-26162000D03*
D15*
G04 #@! TO.P,R35,1*
G04 #@! TO.N,Net-(R35-Pad1)*
X78740000Y-26162000D03*
G04 #@! TD*
G04 #@! TO.P,R36,1*
G04 #@! TO.N,MIC*
X109474000Y-33274000D03*
D19*
G04 #@! TO.P,R36,2*
G04 #@! TO.N,Net-(C17-Pad2)*
X117094000Y-33274000D03*
G04 #@! TD*
G04 #@! TO.P,R37,2*
G04 #@! TO.N,Net-(C17-Pad2)*
X114300000Y-28956000D03*
D15*
G04 #@! TO.P,R37,1*
G04 #@! TO.N,SPK*
X121920000Y-28956000D03*
G04 #@! TD*
G04 #@! TO.P,R38,1*
G04 #@! TO.N,EAR*
X68834000Y-42418000D03*
D19*
G04 #@! TO.P,R38,2*
G04 #@! TO.N,Net-(C19-Pad1)*
X61214000Y-42418000D03*
G04 #@! TD*
D15*
G04 #@! TO.P,R39,1*
G04 #@! TO.N,SPK*
X68834000Y-45720000D03*
D19*
G04 #@! TO.P,R39,2*
G04 #@! TO.N,Net-(C19-Pad1)*
X61214000Y-45720000D03*
G04 #@! TD*
D14*
G04 #@! TO.P,U8,1*
G04 #@! TO.N,N/C*
X71120000Y-29718000D03*
D19*
G04 #@! TO.P,U8,5*
G04 #@! TO.N,GND*
X78740000Y-37338000D03*
G04 #@! TO.P,U8,2*
G04 #@! TO.N,Net-(C14-Pad2)*
X71120000Y-32258000D03*
G04 #@! TO.P,U8,6*
G04 #@! TO.N,EAR*
X78740000Y-34798000D03*
G04 #@! TO.P,U8,3*
G04 #@! TO.N,Net-(C14-Pad1)*
X71120000Y-34798000D03*
G04 #@! TO.P,U8,7*
G04 #@! TO.N,Net-(R35-Pad1)*
X78740000Y-32258000D03*
G04 #@! TO.P,U8,4*
G04 #@! TO.N,+5V*
X71120000Y-37338000D03*
G04 #@! TO.P,U8,8*
X78740000Y-29718000D03*
G04 #@! TD*
D15*
G04 #@! TO.P,C20,1*
G04 #@! TO.N,GND*
X77216000Y-90424000D03*
G04 #@! TO.P,C20,2*
G04 #@! TO.N,+5V*
X79716000Y-90424000D03*
G04 #@! TD*
G04 #@! TO.P,C21,1*
G04 #@! TO.N,GND*
X107442000Y-49784000D03*
G04 #@! TO.P,C21,2*
G04 #@! TO.N,+5V*
X104942000Y-49784000D03*
G04 #@! TD*
G04 #@! TO.P,C22,2*
G04 #@! TO.N,+5V*
X76113000Y-49784000D03*
G04 #@! TO.P,C22,1*
G04 #@! TO.N,GND*
X78613000Y-49784000D03*
G04 #@! TD*
G04 #@! TO.P,C23,1*
G04 #@! TO.N,Net-(C23-Pad1)*
X69215000Y-82550000D03*
G04 #@! TO.P,C23,2*
G04 #@! TO.N,Net-(C23-Pad2)*
X66715000Y-82550000D03*
G04 #@! TD*
G04 #@! TO.P,C24,2*
G04 #@! TO.N,Net-(C24-Pad2)*
X54650000Y-50546000D03*
G04 #@! TO.P,C24,1*
G04 #@! TO.N,GND*
X57150000Y-50546000D03*
G04 #@! TD*
D19*
G04 #@! TO.P,R40,2*
G04 #@! TO.N,+5V*
X57277000Y-89535000D03*
D15*
G04 #@! TO.P,R40,1*
G04 #@! TO.N,Net-(J11-Pad1)*
X57277000Y-81915000D03*
G04 #@! TD*
D19*
G04 #@! TO.P,R41,2*
G04 #@! TO.N,Net-(R41-Pad2)*
X68580000Y-72009000D03*
D15*
G04 #@! TO.P,R41,1*
G04 #@! TO.N,Net-(C23-Pad2)*
X68580000Y-79629000D03*
G04 #@! TD*
G04 #@! TO.P,R42,1*
G04 #@! TO.N,Net-(R42-Pad1)*
X68580000Y-69469000D03*
D19*
G04 #@! TO.P,R42,2*
G04 #@! TO.N,Net-(C23-Pad1)*
X68580000Y-61849000D03*
G04 #@! TD*
D15*
G04 #@! TO.P,R43,1*
G04 #@! TO.N,GND*
X56896000Y-54483000D03*
D19*
G04 #@! TO.P,R43,2*
G04 #@! TO.N,Net-(C24-Pad2)*
X49276000Y-54483000D03*
G04 #@! TD*
D10*
G04 #@! TO.P,Y2,1*
G04 #@! TO.N,Net-(R41-Pad2)*
X63119000Y-87249000D03*
G04 #@! TO.P,Y2,2*
G04 #@! TO.N,Net-(R42-Pad1)*
X68019000Y-87249000D03*
G04 #@! TD*
G04 #@! TO.P,Y3,2*
G04 #@! TO.N,GND*
X66749000Y-51689000D03*
G04 #@! TO.P,Y3,1*
G04 #@! TO.N,Net-(C24-Pad2)*
X61849000Y-51689000D03*
G04 #@! TD*
D15*
G04 #@! TO.P,C25,1*
G04 #@! TO.N,GND*
X60198000Y-82550000D03*
G04 #@! TO.P,C25,2*
G04 #@! TO.N,+5V*
X62698000Y-82550000D03*
G04 #@! TD*
D31*
G04 #@! TO.P,J1,1*
G04 #@! TO.N,KB0*
X59690000Y-93980000D03*
D32*
G04 #@! TO.P,J1,2*
G04 #@! TO.N,KB1*
X62230000Y-93980000D03*
G04 #@! TO.P,J1,3*
G04 #@! TO.N,KB2*
X64770000Y-93980000D03*
G04 #@! TO.P,J1,4*
G04 #@! TO.N,KB3*
X67310000Y-93980000D03*
G04 #@! TO.P,J1,5*
G04 #@! TO.N,KB4*
X69850000Y-93980000D03*
G04 #@! TD*
D31*
G04 #@! TO.P,J2,1*
G04 #@! TO.N,S0*
X196850000Y-93980000D03*
D32*
G04 #@! TO.P,J2,2*
G04 #@! TO.N,S1*
X199390000Y-93980000D03*
G04 #@! TO.P,J2,3*
G04 #@! TO.N,S2*
X201930000Y-93980000D03*
G04 #@! TO.P,J2,4*
G04 #@! TO.N,S3*
X204470000Y-93980000D03*
G04 #@! TO.P,J2,5*
G04 #@! TO.N,S4*
X207010000Y-93980000D03*
G04 #@! TO.P,J2,6*
G04 #@! TO.N,S5*
X209550000Y-93980000D03*
G04 #@! TO.P,J2,7*
G04 #@! TO.N,S6*
X212090000Y-93980000D03*
G04 #@! TO.P,J2,8*
G04 #@! TO.N,S7*
X214630000Y-93980000D03*
G04 #@! TD*
D31*
G04 #@! TO.P,J11,1*
G04 #@! TO.N,Net-(J11-Pad1)*
X56261000Y-58166000D03*
D32*
G04 #@! TO.P,J11,2*
G04 #@! TO.N,P-N_CLK*
X53721000Y-58166000D03*
G04 #@! TO.P,J11,3*
G04 #@! TO.N,Net-(C24-Pad2)*
X51181000Y-58166000D03*
G04 #@! TD*
D15*
G04 #@! TO.P,C26,2*
G04 #@! TO.N,+5V*
X50787300Y-140625000D03*
G04 #@! TO.P,C26,1*
G04 #@! TO.N,GND*
X50787300Y-138125000D03*
G04 #@! TD*
D14*
G04 #@! TO.P,C27,1*
G04 #@! TO.N,+5V*
X40640000Y-147320000D03*
D15*
G04 #@! TO.P,C27,2*
G04 #@! TO.N,GND*
X40640000Y-144820000D03*
G04 #@! TD*
G04 #@! TO.P,C28,2*
G04 #@! TO.N,Net-(C28-Pad2)*
X36019100Y-87376000D03*
G04 #@! TO.P,C28,1*
G04 #@! TO.N,Net-(C28-Pad1)*
X38519100Y-87376000D03*
G04 #@! TD*
D20*
G04 #@! TO.P,C29,1*
G04 #@! TO.N,Net-(C29-Pad1)*
X48564800Y-40779700D03*
D18*
G04 #@! TO.P,C29,2*
G04 #@! TO.N,Net-(C29-Pad2)*
X48564800Y-44279700D03*
G04 #@! TD*
D15*
G04 #@! TO.P,C30,1*
G04 #@! TO.N,Net-(C30-Pad1)*
X49022000Y-107442000D03*
G04 #@! TO.P,C30,2*
G04 #@! TO.N,Net-(C30-Pad2)*
X46522000Y-107442000D03*
G04 #@! TD*
G04 #@! TO.P,C31,1*
G04 #@! TO.N,Net-(C29-Pad1)*
X41402000Y-40386000D03*
G04 #@! TO.P,C31,2*
G04 #@! TO.N,Net-(C29-Pad2)*
X38902000Y-40386000D03*
G04 #@! TD*
G04 #@! TO.P,C32,1*
G04 #@! TO.N,Net-(C32-Pad1)*
X39268400Y-124930000D03*
G04 #@! TO.P,C32,2*
G04 #@! TO.N,Net-(C32-Pad2)*
X36768400Y-124930000D03*
G04 #@! TD*
D26*
G04 #@! TO.P,D4,1*
G04 #@! TO.N,Net-(D4-Pad1)*
X50546000Y-33401000D03*
D27*
G04 #@! TO.P,D4,2*
G04 #@! TO.N,GND*
X50546000Y-25781000D03*
G04 #@! TD*
D32*
G04 #@! TO.P,J13,3*
G04 #@! TO.N,GND*
X50520600Y-133604000D03*
G04 #@! TO.P,J13,2*
G04 #@! TO.N,P-N_VCHIP*
X50520600Y-131064000D03*
D31*
G04 #@! TO.P,J13,1*
G04 #@! TO.N,+5V*
X50520600Y-128524000D03*
G04 #@! TD*
G04 #@! TO.P,J14,1*
G04 #@! TO.N,+5V*
X116916000Y-90792300D03*
D32*
G04 #@! TO.P,J14,2*
G04 #@! TO.N,P-N_ULA*
X114376000Y-90792300D03*
G04 #@! TO.P,J14,3*
G04 #@! TO.N,GND*
X111836000Y-90792300D03*
G04 #@! TD*
D35*
G04 #@! TO.P,Q10,2*
G04 #@! TO.N,Net-(Q10-Pad2)*
X39535100Y-70866000D03*
G04 #@! TO.P,Q10,3*
G04 #@! TO.N,R*
X38265100Y-70866000D03*
D36*
G04 #@! TO.P,Q10,1*
G04 #@! TO.N,+5V*
X40805100Y-70866000D03*
G04 #@! TD*
G04 #@! TO.P,Q11,1*
G04 #@! TO.N,+5V*
X49276000Y-91694000D03*
D35*
G04 #@! TO.P,Q11,3*
G04 #@! TO.N,G*
X46736000Y-91694000D03*
G04 #@! TO.P,Q11,2*
G04 #@! TO.N,Net-(Q11-Pad2)*
X48006000Y-91694000D03*
G04 #@! TD*
G04 #@! TO.P,Q12,2*
G04 #@! TO.N,Net-(Q12-Pad2)*
X37909500Y-109449000D03*
G04 #@! TO.P,Q12,3*
G04 #@! TO.N,B*
X36639500Y-109449000D03*
D36*
G04 #@! TO.P,Q12,1*
G04 #@! TO.N,+5V*
X39179500Y-109449000D03*
G04 #@! TD*
G04 #@! TO.P,Q13,1*
G04 #@! TO.N,+5V*
X40513000Y-48387000D03*
D35*
G04 #@! TO.P,Q13,3*
G04 #@! TO.N,Net-(Q13-Pad3)*
X37973000Y-48387000D03*
G04 #@! TO.P,Q13,2*
G04 #@! TO.N,Net-(Q13-Pad2)*
X39243000Y-48387000D03*
G04 #@! TD*
D15*
G04 #@! TO.P,R44,1*
G04 #@! TO.N,Net-(Q10-Pad2)*
X46901100Y-83820000D03*
D19*
G04 #@! TO.P,R44,2*
G04 #@! TO.N,bright*
X46901100Y-76200000D03*
G04 #@! TD*
G04 #@! TO.P,R45,2*
G04 #@! TO.N,bright*
X48094900Y-96406000D03*
D15*
G04 #@! TO.P,R45,1*
G04 #@! TO.N,Net-(Q11-Pad2)*
X48094900Y-104026000D03*
G04 #@! TD*
G04 #@! TO.P,R46,1*
G04 #@! TO.N,Net-(Q10-Pad2)*
X43218100Y-83820000D03*
D19*
G04 #@! TO.P,R46,2*
G04 #@! TO.N,red*
X43218100Y-76200000D03*
G04 #@! TD*
G04 #@! TO.P,R47,2*
G04 #@! TO.N,R*
X35979100Y-76200000D03*
D15*
G04 #@! TO.P,R47,1*
G04 #@! TO.N,Net-(C28-Pad2)*
X35979100Y-83820000D03*
G04 #@! TD*
D19*
G04 #@! TO.P,R48,2*
G04 #@! TO.N,green*
X44284900Y-96406000D03*
D15*
G04 #@! TO.P,R48,1*
G04 #@! TO.N,Net-(Q11-Pad2)*
X44284900Y-104026000D03*
G04 #@! TD*
D19*
G04 #@! TO.P,R49,2*
G04 #@! TO.N,Net-(J7-Pad1)*
X33020000Y-32512000D03*
D15*
G04 #@! TO.P,R49,1*
G04 #@! TO.N,Net-(C29-Pad2)*
X33020000Y-40132000D03*
G04 #@! TD*
G04 #@! TO.P,R50,1*
G04 #@! TO.N,Net-(C30-Pad2)*
X37236400Y-104026000D03*
D19*
G04 #@! TO.P,R50,2*
G04 #@! TO.N,G*
X37236400Y-96406000D03*
G04 #@! TD*
D15*
G04 #@! TO.P,R51,1*
G04 #@! TO.N,Net-(Q12-Pad2)*
X44196000Y-121476000D03*
D19*
G04 #@! TO.P,R51,2*
G04 #@! TO.N,blue*
X44196000Y-113856000D03*
G04 #@! TD*
G04 #@! TO.P,R52,2*
G04 #@! TO.N,B*
X36728400Y-113881000D03*
D15*
G04 #@! TO.P,R52,1*
G04 #@! TO.N,Net-(C32-Pad2)*
X36728400Y-121501000D03*
G04 #@! TD*
G04 #@! TO.P,R53,1*
G04 #@! TO.N,GND*
X50457100Y-76200000D03*
D19*
G04 #@! TO.P,R53,2*
G04 #@! TO.N,Net-(Q10-Pad2)*
X50457100Y-83820000D03*
G04 #@! TD*
G04 #@! TO.P,R54,2*
G04 #@! TO.N,Net-(Q11-Pad2)*
X51650900Y-104025700D03*
D15*
G04 #@! TO.P,R54,1*
G04 #@! TO.N,GND*
X51650900Y-96405700D03*
G04 #@! TD*
D19*
G04 #@! TO.P,R55,2*
G04 #@! TO.N,Net-(Q12-Pad2)*
X51003200Y-121450000D03*
D15*
G04 #@! TO.P,R55,1*
G04 #@! TO.N,GND*
X51003200Y-113830000D03*
G04 #@! TD*
G04 #@! TO.P,R56,1*
G04 #@! TO.N,GND*
X39509700Y-76149200D03*
D19*
G04 #@! TO.P,R56,2*
G04 #@! TO.N,Net-(C28-Pad2)*
X39509700Y-83769200D03*
G04 #@! TD*
G04 #@! TO.P,R57,2*
G04 #@! TO.N,Net-(C30-Pad2)*
X40767000Y-103974900D03*
D15*
G04 #@! TO.P,R57,1*
G04 #@! TO.N,GND*
X40767000Y-96354900D03*
G04 #@! TD*
G04 #@! TO.P,R58,1*
G04 #@! TO.N,GND*
X40665400Y-113881000D03*
D19*
G04 #@! TO.P,R58,2*
G04 #@! TO.N,Net-(C32-Pad2)*
X40665400Y-121501000D03*
G04 #@! TD*
D15*
G04 #@! TO.P,R59,1*
G04 #@! TO.N,Net-(J12-Pad6)*
X32448500Y-83870800D03*
D19*
G04 #@! TO.P,R59,2*
G04 #@! TO.N,R*
X32448500Y-76250800D03*
G04 #@! TD*
G04 #@! TO.P,R60,2*
G04 #@! TO.N,G*
X33655000Y-96368000D03*
D15*
G04 #@! TO.P,R60,1*
G04 #@! TO.N,Net-(J12-Pad4)*
X33655000Y-103988000D03*
G04 #@! TD*
G04 #@! TO.P,R61,1*
G04 #@! TO.N,Net-(J12-Pad3)*
X58039000Y-38658800D03*
D19*
G04 #@! TO.P,R61,2*
G04 #@! TO.N,+5V*
X58039000Y-46278800D03*
G04 #@! TD*
G04 #@! TO.P,R62,2*
G04 #@! TO.N,+9V*
X80149700Y-45135800D03*
D15*
G04 #@! TO.P,R62,1*
G04 #@! TO.N,Net-(D4-Pad1)*
X72529700Y-45135800D03*
G04 #@! TD*
D19*
G04 #@! TO.P,R63,2*
G04 #@! TO.N,sync*
X33655000Y-62103000D03*
D15*
G04 #@! TO.P,R63,1*
G04 #@! TO.N,Net-(Q13-Pad2)*
X33655000Y-54483000D03*
G04 #@! TD*
G04 #@! TO.P,R64,1*
G04 #@! TO.N,Net-(J12-Pad7)*
X33172400Y-121387000D03*
D19*
G04 #@! TO.P,R64,2*
G04 #@! TO.N,B*
X33172400Y-113767000D03*
G04 #@! TD*
D15*
G04 #@! TO.P,R65,1*
G04 #@! TO.N,Net-(J12-Pad8)*
X37592000Y-54483000D03*
D19*
G04 #@! TO.P,R65,2*
G04 #@! TO.N,Net-(Q13-Pad3)*
X37592000Y-62103000D03*
G04 #@! TD*
G04 #@! TO.P,R66,2*
G04 #@! TO.N,Net-(Q13-Pad3)*
X41529000Y-62103000D03*
D15*
G04 #@! TO.P,R66,1*
G04 #@! TO.N,GND*
X41529000Y-54483000D03*
G04 #@! TD*
G04 #@! TO.P,R67,1*
G04 #@! TO.N,Net-(Q12-Pad2)*
X47586900Y-121476000D03*
D19*
G04 #@! TO.P,R67,2*
G04 #@! TO.N,bright*
X47586900Y-113856000D03*
G04 #@! TD*
D26*
G04 #@! TO.P,D2,1*
G04 #@! TO.N,Net-(D2-Pad1)*
X238760000Y-118110000D03*
D27*
G04 #@! TO.P,D2,2*
G04 #@! TO.N,SPK*
X238760000Y-110490000D03*
G04 #@! TD*
G04 #@! TO.P,D3,2*
G04 #@! TO.N,Net-(C15-Pad1)*
X90830400Y-44323000D03*
D26*
G04 #@! TO.P,D3,1*
G04 #@! TO.N,+5V*
X83210400Y-44323000D03*
G04 #@! TD*
D37*
G04 #@! TO.P,J7,2*
G04 #@! TO.N,GND*
X37109400Y-32699960D03*
D38*
G04 #@! TO.P,J7,1*
G04 #@! TO.N,Net-(J7-Pad1)*
X42164000Y-28702000D03*
D37*
G04 #@! TO.P,J7,2*
G04 #@! TO.N,GND*
X47218600Y-32699960D03*
G04 #@! TD*
D39*
G04 #@! TO.N,N/C*
G04 #@! TO.C,J12*
X68470780Y-29225240D03*
X54973220Y-29225240D03*
D40*
G04 #@! TD*
G04 #@! TO.P,J12,6*
G04 #@! TO.N,Net-(J12-Pad6)*
X64622680Y-32224980D03*
G04 #@! TO.P,J12,7*
G04 #@! TO.N,Net-(J12-Pad7)*
X62621160Y-32224980D03*
G04 #@! TO.P,J12,8*
G04 #@! TO.N,Net-(J12-Pad8)*
X58821320Y-32224980D03*
G04 #@! TO.P,J12,1*
G04 #@! TO.N,GND*
X61821060Y-34726880D03*
G04 #@! TO.P,J12,2*
G04 #@! TO.N,Net-(D4-Pad1)*
X59822080Y-34726880D03*
G04 #@! TO.P,J12,3*
G04 #@! TO.N,Net-(J12-Pad3)*
X65620900Y-34726880D03*
G04 #@! TO.P,J12,4*
G04 #@! TO.N,Net-(J12-Pad4)*
X63522860Y-34726880D03*
G04 #@! TO.P,J12,5*
G04 #@! TO.N,AUDIO_OUT*
X57823100Y-34726880D03*
D39*
G04 #@! TD*
G04 #@! TO.N,N/C*
G04 #@! TO.C,J12*
X61722000Y-28425140D03*
D12*
G04 #@! TO.P,U4,1*
G04 #@! TO.N,GND*
X114300000Y-44450000D03*
D13*
G04 #@! TO.P,U4,15*
G04 #@! TO.N,VD3*
X129540000Y-77470000D03*
G04 #@! TO.P,U4,2*
G04 #@! TO.N,VA12*
X114300000Y-46990000D03*
G04 #@! TO.P,U4,16*
G04 #@! TO.N,VD4*
X129540000Y-74930000D03*
G04 #@! TO.P,U4,3*
G04 #@! TO.N,VA7*
X114300000Y-49530000D03*
G04 #@! TO.P,U4,17*
G04 #@! TO.N,VD5*
X129540000Y-72390000D03*
G04 #@! TO.P,U4,4*
G04 #@! TO.N,VA6*
X114300000Y-52070000D03*
G04 #@! TO.P,U4,18*
G04 #@! TO.N,VD6*
X129540000Y-69850000D03*
G04 #@! TO.P,U4,5*
G04 #@! TO.N,VA5*
X114300000Y-54610000D03*
G04 #@! TO.P,U4,19*
G04 #@! TO.N,VD7*
X129540000Y-67310000D03*
G04 #@! TO.P,U4,6*
G04 #@! TO.N,VA4*
X114300000Y-57150000D03*
G04 #@! TO.P,U4,20*
G04 #@! TO.N,VRAM_CS*
X129540000Y-64770000D03*
G04 #@! TO.P,U4,7*
G04 #@! TO.N,VA3*
X114300000Y-59690000D03*
G04 #@! TO.P,U4,21*
G04 #@! TO.N,VA10*
X129540000Y-62230000D03*
G04 #@! TO.P,U4,8*
G04 #@! TO.N,VA2*
X114300000Y-62230000D03*
G04 #@! TO.P,U4,22*
G04 #@! TO.N,VRAM_RD*
X129540000Y-59690000D03*
G04 #@! TO.P,U4,9*
G04 #@! TO.N,VA1*
X114300000Y-64770000D03*
G04 #@! TO.P,U4,23*
G04 #@! TO.N,VA11*
X129540000Y-57150000D03*
G04 #@! TO.P,U4,10*
G04 #@! TO.N,VA0*
X114300000Y-67310000D03*
G04 #@! TO.P,U4,24*
G04 #@! TO.N,VA9*
X129540000Y-54610000D03*
G04 #@! TO.P,U4,11*
G04 #@! TO.N,VD0*
X114300000Y-69850000D03*
G04 #@! TO.P,U4,25*
G04 #@! TO.N,VA8*
X129540000Y-52070000D03*
G04 #@! TO.P,U4,12*
G04 #@! TO.N,VD1*
X114300000Y-72390000D03*
G04 #@! TO.P,U4,26*
G04 #@! TO.N,VA13*
X129540000Y-49530000D03*
G04 #@! TO.P,U4,13*
G04 #@! TO.N,VD2*
X114300000Y-74930000D03*
G04 #@! TO.P,U4,27*
G04 #@! TO.N,VRAM_WR*
X129540000Y-46990000D03*
G04 #@! TO.P,U4,14*
G04 #@! TO.N,GND*
X114300000Y-77470000D03*
G04 #@! TO.P,U4,28*
G04 #@! TO.N,+5V*
X129540000Y-44450000D03*
G04 #@! TD*
G04 #@! TO.P,U5,28*
G04 #@! TO.N,+5V*
X203708000Y-44450000D03*
G04 #@! TO.P,U5,14*
G04 #@! TO.N,GND*
X188468000Y-77470000D03*
G04 #@! TO.P,U5,27*
G04 #@! TO.N,WR*
X203708000Y-46990000D03*
G04 #@! TO.P,U5,13*
G04 #@! TO.N,D2*
X188468000Y-74930000D03*
G04 #@! TO.P,U5,26*
G04 #@! TO.N,A13*
X203708000Y-49530000D03*
G04 #@! TO.P,U5,12*
G04 #@! TO.N,D1*
X188468000Y-72390000D03*
G04 #@! TO.P,U5,25*
G04 #@! TO.N,A8*
X203708000Y-52070000D03*
G04 #@! TO.P,U5,11*
G04 #@! TO.N,D0*
X188468000Y-69850000D03*
G04 #@! TO.P,U5,24*
G04 #@! TO.N,A9*
X203708000Y-54610000D03*
G04 #@! TO.P,U5,10*
G04 #@! TO.N,A0*
X188468000Y-67310000D03*
G04 #@! TO.P,U5,23*
G04 #@! TO.N,A11*
X203708000Y-57150000D03*
G04 #@! TO.P,U5,9*
G04 #@! TO.N,A1*
X188468000Y-64770000D03*
G04 #@! TO.P,U5,22*
G04 #@! TO.N,RD*
X203708000Y-59690000D03*
G04 #@! TO.P,U5,8*
G04 #@! TO.N,A2*
X188468000Y-62230000D03*
G04 #@! TO.P,U5,21*
G04 #@! TO.N,A10*
X203708000Y-62230000D03*
G04 #@! TO.P,U5,7*
G04 #@! TO.N,A3*
X188468000Y-59690000D03*
G04 #@! TO.P,U5,20*
G04 #@! TO.N,RAM_CS*
X203708000Y-64770000D03*
G04 #@! TO.P,U5,6*
G04 #@! TO.N,A4*
X188468000Y-57150000D03*
G04 #@! TO.P,U5,19*
G04 #@! TO.N,D7*
X203708000Y-67310000D03*
G04 #@! TO.P,U5,5*
G04 #@! TO.N,A5*
X188468000Y-54610000D03*
G04 #@! TO.P,U5,18*
G04 #@! TO.N,D6*
X203708000Y-69850000D03*
G04 #@! TO.P,U5,4*
G04 #@! TO.N,A6*
X188468000Y-52070000D03*
G04 #@! TO.P,U5,17*
G04 #@! TO.N,D5*
X203708000Y-72390000D03*
G04 #@! TO.P,U5,3*
G04 #@! TO.N,A7*
X188468000Y-49530000D03*
G04 #@! TO.P,U5,16*
G04 #@! TO.N,D4*
X203708000Y-74930000D03*
G04 #@! TO.P,U5,2*
G04 #@! TO.N,A12*
X188468000Y-46990000D03*
G04 #@! TO.P,U5,15*
G04 #@! TO.N,D3*
X203708000Y-77470000D03*
D12*
G04 #@! TO.P,U5,1*
G04 #@! TO.N,A14*
X188468000Y-44450000D03*
G04 #@! TD*
D41*
G04 #@! TO.N,BUSACK*
X209242000Y-31609200D03*
X194697700Y-39294900D03*
G04 #@! TO.N,~RESET*
X178341100Y-44108600D03*
G04 #@! TO.N,BUSRQ*
X179469000Y-38569800D03*
G04 #@! TO.N,RFSH*
X186086200Y-38030300D03*
G04 #@! TO.N,M1*
X194679100Y-34847000D03*
G04 #@! TO.N,WAIT*
X176558700Y-37291100D03*
G04 #@! TO.N,WR*
X191410200Y-35586700D03*
G04 #@! TO.N,GND*
X156532200Y-40378700D03*
X155126700Y-34173800D03*
G04 #@! TO.N,CLK*
X155930700Y-57303300D03*
G04 #@! TO.N,RD*
X192002000Y-32527000D03*
X92445800Y-69637300D03*
X101027000Y-70557100D03*
X113698800Y-82585300D03*
G04 #@! TO.N,IORQ*
X179626100Y-34224500D03*
X116935900Y-81977200D03*
X112863100Y-63201100D03*
G04 #@! TO.N,MREQ*
X175205000Y-35746400D03*
G04 #@! TO.N,HALT*
X178118500Y-32626600D03*
G04 #@! TO.N,NMI*
X171930200Y-35571200D03*
G04 #@! TO.N,INT*
X172813200Y-34592800D03*
G04 #@! TO.N,S2*
X194945000Y-134620000D03*
G04 #@! TO.N,S5*
X199390000Y-151130000D03*
G04 #@! TO.N,A11*
X217857300Y-43690100D03*
G04 #@! TO.N,A9*
X161040300Y-50251200D03*
X198449800Y-54610000D03*
G04 #@! TO.N,A10*
X199625500Y-60878000D03*
X213600400Y-31591800D03*
G04 #@! TO.N,A8*
X161557800Y-51456000D03*
G04 #@! TO.N,A12*
X151133700Y-46808100D03*
G04 #@! TO.N,A14*
X145179000Y-87846000D03*
X179264600Y-50311000D03*
X156372900Y-52197000D03*
G04 #@! TO.N,A13*
X163729200Y-37288800D03*
G04 #@! TO.N,A15*
X165278100Y-38038400D03*
X157370600Y-76613700D03*
G04 #@! TO.N,KB0*
X74033500Y-58273900D03*
G04 #@! TO.N,KB1*
X113040700Y-92359500D03*
G04 #@! TO.N,KB3*
X124218600Y-56298400D03*
G04 #@! TO.N,KB4*
X91101500Y-74414500D03*
X71600900Y-76256900D03*
G04 #@! TO.N,+9V*
X154908400Y-39754900D03*
X149905200Y-36129500D03*
G04 #@! TO.N,D3*
X167551500Y-37719700D03*
G04 #@! TO.N,D4*
X184230900Y-90435800D03*
X165401200Y-37009600D03*
G04 #@! TO.N,D5*
X201238200Y-63272600D03*
X161937100Y-65419600D03*
X167339100Y-36711400D03*
G04 #@! TO.N,A6*
X159414300Y-57589700D03*
G04 #@! TO.N,D6*
X169252200Y-33065100D03*
G04 #@! TO.N,D7*
X154162900Y-89391900D03*
X167259700Y-35541700D03*
G04 #@! TO.N,A4*
X155820800Y-60452000D03*
G04 #@! TO.N,A2*
X156803200Y-64098100D03*
G04 #@! TO.N,A1*
X179064400Y-66122200D03*
G04 #@! TO.N,D0*
X167261900Y-34541300D03*
G04 #@! TO.N,D1*
X168226400Y-34091000D03*
G04 #@! TO.N,D2*
X179342300Y-68111100D03*
X168178500Y-36091800D03*
G04 #@! TO.N,VA0*
X122366600Y-66641000D03*
X107375400Y-68983000D03*
G04 #@! TO.N,VA1*
X107531400Y-66285400D03*
G04 #@! TO.N,VA2*
X97303300Y-72430000D03*
G04 #@! TO.N,VD2*
X91752800Y-70359000D03*
G04 #@! TO.N,VA3*
X95927900Y-76536100D03*
G04 #@! TO.N,VD3*
X90285800Y-66424900D03*
G04 #@! TO.N,VA4*
X94723700Y-78174600D03*
G04 #@! TO.N,VA5*
X92319600Y-79867400D03*
G04 #@! TO.N,VA6*
X126482300Y-52379200D03*
X119086600Y-87701600D03*
X78964700Y-87704200D03*
G04 #@! TO.N,VD6*
X108554900Y-68841500D03*
X116579500Y-67942600D03*
G04 #@! TO.N,VA9*
X73353900Y-79945500D03*
G04 #@! TO.N,VA10*
X106712800Y-74159400D03*
X110984600Y-78431200D03*
X125398900Y-78622200D03*
G04 #@! TO.N,VA12*
X118888300Y-84861200D03*
X119952500Y-68491500D03*
G04 #@! TO.N,/ula/TMS*
X87079500Y-92228100D03*
G04 #@! TO.N,ROM_CS*
X212612600Y-42369300D03*
G04 #@! TO.N,IORQULA*
X174872000Y-33058800D03*
X104897400Y-38099100D03*
G04 #@! TO.N,CLK_B*
X157508800Y-33220800D03*
X84890700Y-45172200D03*
X90118900Y-77423200D03*
X95759500Y-78674000D03*
G04 #@! TO.N,VRAM_CS*
X99572600Y-67964900D03*
X117089800Y-61808400D03*
G04 #@! TO.N,VRAM_RD*
X124340500Y-80093600D03*
G04 #@! TO.N,VRAM_WR*
X120768900Y-85744900D03*
G04 #@! TO.N,SPK*
X120558500Y-83567800D03*
G04 #@! TO.N,MIC*
X90518800Y-80977600D03*
G04 #@! TO.N,red*
X99740000Y-79420000D03*
G04 #@! TO.N,sync*
X97637500Y-75915700D03*
G04 #@! TD*
D42*
G04 #@! TO.N,BUSACK*
X181229000Y-87757000D02*
X182754300Y-87757000D01*
X210512000Y-27154500D02*
X210512000Y-31289800D01*
X209242000Y-31609200D02*
X209561400Y-31289800D01*
X209561400Y-31289800D02*
X210512000Y-31289800D01*
X182754300Y-87757000D02*
X189993400Y-80517900D01*
X189993400Y-80517900D02*
X189993400Y-72089200D01*
X189993400Y-72089200D02*
X200389300Y-61693300D01*
X200389300Y-61693300D02*
X200389300Y-48126200D01*
X200389300Y-48126200D02*
X194697700Y-42434600D01*
X194697700Y-42434600D02*
X194697700Y-39294900D01*
G04 #@! TO.N,~RESET*
X183467700Y-93392300D02*
X185564700Y-91295300D01*
X185564700Y-91295300D02*
X185564700Y-90170000D01*
X181577200Y-80137000D02*
X182784300Y-81344100D01*
X182784300Y-81344100D02*
X182784300Y-85717400D01*
X182784300Y-85717400D02*
X182014700Y-86487000D01*
X182014700Y-86487000D02*
X180493400Y-86487000D01*
X180493400Y-86487000D02*
X179700300Y-87280100D01*
X179700300Y-87280100D02*
X179700300Y-93313800D01*
X179700300Y-93313800D02*
X180366500Y-93980000D01*
X180366500Y-93980000D02*
X182880000Y-93980000D01*
X182880000Y-93980000D02*
X183467700Y-93392300D01*
X183467700Y-93392300D02*
X186690000Y-96614700D01*
X186690000Y-97790000D02*
X186690000Y-96614700D01*
X186690000Y-90170000D02*
X185564700Y-90170000D01*
X178341100Y-44108600D02*
X177361200Y-45088500D01*
X177361200Y-45088500D02*
X177361200Y-75921000D01*
X177361200Y-75921000D02*
X181577200Y-80137000D01*
X181229000Y-80137000D02*
X181577200Y-80137000D01*
X195272000Y-27154500D02*
X195272000Y-31289800D01*
X178341100Y-44108600D02*
X178341100Y-44072900D01*
X178341100Y-44072900D02*
X190617000Y-31797000D01*
X190617000Y-31797000D02*
X194764800Y-31797000D01*
X194764800Y-31797000D02*
X195272000Y-31289800D01*
G04 #@! TO.N,BUSRQ*
X179469000Y-38569800D02*
X179649200Y-38750000D01*
X179649200Y-38750000D02*
X179649200Y-41447900D01*
X179649200Y-41447900D02*
X176845500Y-44251600D01*
X176845500Y-44251600D02*
X176845500Y-79818800D01*
X176845500Y-79818800D02*
X179703700Y-82677000D01*
X181229000Y-82677000D02*
X179703700Y-82677000D01*
X192732000Y-27154500D02*
X192732000Y-31289800D01*
X192732000Y-31289800D02*
X186749000Y-31289800D01*
X186749000Y-31289800D02*
X179469000Y-38569800D01*
G04 #@! TO.N,RFSH*
X179703700Y-75057000D02*
X178310500Y-73663800D01*
X178310500Y-73663800D02*
X178310500Y-45801900D01*
X178310500Y-45801900D02*
X179516700Y-44595700D01*
X179516700Y-44595700D02*
X179516700Y-44240100D01*
X179516700Y-44240100D02*
X185726500Y-38030300D01*
X185726500Y-38030300D02*
X186086200Y-38030300D01*
X181229000Y-75057000D02*
X179703700Y-75057000D01*
G04 #@! TO.N,M1*
X179703700Y-77597000D02*
X177846100Y-75739400D01*
X177846100Y-75739400D02*
X177846100Y-45629400D01*
X177846100Y-45629400D02*
X179066400Y-44409100D01*
X179066400Y-44409100D02*
X179066400Y-43984500D01*
X179066400Y-43984500D02*
X188203900Y-34847000D01*
X188203900Y-34847000D02*
X194679100Y-34847000D01*
X181229000Y-77597000D02*
X179703700Y-77597000D01*
G04 #@! TO.N,WAIT*
X179703700Y-85217000D02*
X174896400Y-80409700D01*
X174896400Y-80409700D02*
X174896400Y-38953400D01*
X174896400Y-38953400D02*
X176558700Y-37291100D01*
X181229000Y-85217000D02*
X179703700Y-85217000D01*
G04 #@! TO.N,WR*
X201620000Y-46990000D02*
X195423000Y-40793000D01*
X195423000Y-40793000D02*
X195423000Y-38994400D01*
X195423000Y-38994400D02*
X192015300Y-35586700D01*
X192015300Y-35586700D02*
X191410200Y-35586700D01*
X182754300Y-90297000D02*
X182754300Y-90038200D01*
X182754300Y-90038200D02*
X192431500Y-80361000D01*
X192431500Y-80361000D02*
X192431500Y-70416700D01*
X192431500Y-70416700D02*
X201620000Y-61228200D01*
X201620000Y-61228200D02*
X201620000Y-46990000D01*
X202182700Y-46990000D02*
X201620000Y-46990000D01*
X181229000Y-90297000D02*
X182754300Y-90297000D01*
X203708000Y-46990000D02*
X202182700Y-46990000D01*
D43*
G04 #@! TO.N,GND*
X107950000Y-90678000D02*
X105848300Y-92779700D01*
X105848300Y-92779700D02*
X99060000Y-92779700D01*
X99060000Y-93980000D02*
X99060000Y-92779700D01*
X99060000Y-92779700D02*
X98159700Y-92779700D01*
X98159700Y-92779700D02*
X97859700Y-92479700D01*
X97859700Y-92479700D02*
X97859700Y-87699700D01*
X97859700Y-87699700D02*
X95504000Y-85344000D01*
X78740000Y-37338000D02*
X78740000Y-36187700D01*
X87150000Y-25310000D02*
X82786300Y-25310000D01*
X82786300Y-25310000D02*
X80699600Y-27396700D01*
X80699600Y-27396700D02*
X80699600Y-34466400D01*
X80699600Y-34466400D02*
X78978300Y-36187700D01*
X78978300Y-36187700D02*
X78740000Y-36187700D01*
X180032000Y-27154500D02*
X180032000Y-31314800D01*
X176022000Y-40894000D02*
X180396500Y-36519500D01*
X180396500Y-36519500D02*
X180396500Y-31679300D01*
X180396500Y-31679300D02*
X180032000Y-31314800D01*
X155350200Y-34244600D02*
X155302400Y-34196900D01*
X155302400Y-34196900D02*
X155149800Y-34196900D01*
X155149800Y-34196900D02*
X155126700Y-34173800D01*
X156532200Y-40378700D02*
X156532200Y-35426700D01*
X156532200Y-35426700D02*
X155350200Y-34244600D01*
X159712000Y-31314800D02*
X158280000Y-31314800D01*
X158280000Y-31314800D02*
X155350200Y-34244600D01*
X87884000Y-82804000D02*
X87884000Y-75184000D01*
X87884000Y-75184000D02*
X77724000Y-65024000D01*
X90424000Y-85344000D02*
X87884000Y-82804000D01*
X41529000Y-54483000D02*
X42682000Y-55636000D01*
X42682000Y-55636000D02*
X42682000Y-72976900D01*
X42682000Y-72976900D02*
X39509700Y-76149200D01*
X57150000Y-50546000D02*
X57150000Y-54229000D01*
X57150000Y-54229000D02*
X56896000Y-54483000D01*
X40640000Y-144820000D02*
X44092300Y-144820000D01*
X44092300Y-144820000D02*
X50787300Y-138125000D01*
X50520600Y-133604000D02*
X50520600Y-134804300D01*
X50520600Y-134804300D02*
X50787300Y-135071000D01*
X50787300Y-135071000D02*
X50787300Y-138125000D01*
X50489100Y-113315900D02*
X51003200Y-113830000D01*
X51650900Y-96405700D02*
X50489100Y-97567500D01*
X50489100Y-97567500D02*
X50489100Y-113315900D01*
X50489100Y-113315900D02*
X48782300Y-115022700D01*
X48782300Y-115022700D02*
X41807100Y-115022700D01*
X41807100Y-115022700D02*
X40665400Y-113881000D01*
X60198000Y-82550000D02*
X51650900Y-91097100D01*
X51650900Y-91097100D02*
X51650900Y-96405700D01*
X59208300Y-79248000D02*
X59208300Y-81560300D01*
X59208300Y-81560300D02*
X60198000Y-82550000D01*
X111836000Y-89592000D02*
X114453700Y-86974300D01*
X114453700Y-86974300D02*
X114453700Y-77623700D01*
X114453700Y-77623700D02*
X114300000Y-77470000D01*
X111836000Y-90792300D02*
X111836000Y-89592000D01*
X78740000Y-40513000D02*
X78740000Y-41663300D01*
X78613000Y-49784000D02*
X78613000Y-41790300D01*
X78613000Y-41790300D02*
X78740000Y-41663300D01*
X78740000Y-37338000D02*
X78740000Y-40513000D01*
X107141200Y-40011800D02*
X106767000Y-40386000D01*
X103470300Y-25310000D02*
X103470300Y-25643300D01*
X103470300Y-25643300D02*
X110627500Y-32800500D01*
X110627500Y-32800500D02*
X110627500Y-36525500D01*
X110627500Y-36525500D02*
X107141200Y-40011800D01*
X112164500Y-45035200D02*
X107141200Y-40011800D01*
X112164500Y-45035200D02*
X107442000Y-49757700D01*
X107442000Y-49757700D02*
X107442000Y-49784000D01*
X112749700Y-44450000D02*
X112164500Y-45035200D01*
X101120000Y-25310000D02*
X103470300Y-25310000D01*
X77216000Y-90424000D02*
X75184000Y-88392000D01*
X75184000Y-88392000D02*
X75184000Y-82804000D01*
X114300000Y-44450000D02*
X112749700Y-44450000D01*
X188468000Y-77470000D02*
X186917700Y-77470000D01*
X181229000Y-72517000D02*
X182779300Y-72517000D01*
X186917700Y-77470000D02*
X186917700Y-76655400D01*
X186917700Y-76655400D02*
X182779300Y-72517000D01*
X159712000Y-27154500D02*
X159712000Y-31314800D01*
X122187200Y-38113100D02*
X124968000Y-40894000D01*
X122007000Y-33274000D02*
X122007000Y-37933000D01*
X122007000Y-37933000D02*
X122187200Y-38113100D01*
X115850300Y-44450000D02*
X122187200Y-38113100D01*
X114300000Y-44450000D02*
X115850300Y-44450000D01*
X232410000Y-48260000D02*
X231059700Y-48260000D01*
X231059700Y-48260000D02*
X225791200Y-42991500D01*
X225791200Y-42991500D02*
X222061500Y-42991500D01*
X222061500Y-42991500D02*
X219964000Y-40894000D01*
X230926000Y-68072000D02*
X230926000Y-63404000D01*
X230926000Y-63404000D02*
X235910000Y-58420000D01*
X40665400Y-113881000D02*
X40665400Y-108527900D01*
X40665400Y-108527900D02*
X39612400Y-107474900D01*
X39612400Y-107474900D02*
X39612400Y-97509500D01*
X39612400Y-97509500D02*
X40767000Y-96354900D01*
X233680000Y-74930000D02*
X233680000Y-76494000D01*
X233680000Y-76494000D02*
X238212000Y-81026000D01*
X238212000Y-81026000D02*
X238212000Y-89646000D01*
X238212000Y-89646000D02*
X237942000Y-89916000D01*
X189230000Y-97790000D02*
X189230000Y-91430000D01*
X189230000Y-91430000D02*
X190490000Y-90170000D01*
X87824500Y-55783400D02*
X87884000Y-55723900D01*
X87884000Y-55723900D02*
X87884000Y-54864000D01*
X82804000Y-54864000D02*
X83901900Y-55961900D01*
X83901900Y-55961900D02*
X87646000Y-55961900D01*
X87646000Y-55961900D02*
X87824500Y-55783400D01*
X87824500Y-55783400D02*
X89154000Y-57112900D01*
X89154000Y-57112900D02*
X89154000Y-57638600D01*
X89154000Y-57638600D02*
X90018200Y-58502800D01*
X90018200Y-58502800D02*
X94405200Y-58502800D01*
X94405200Y-58502800D02*
X95504000Y-57404000D01*
X159712000Y-27154500D02*
X162252000Y-27154500D01*
X233660000Y-124460000D02*
X233660000Y-94198000D01*
X233660000Y-94198000D02*
X237942000Y-89916000D01*
X57658000Y-79248000D02*
X59208300Y-79248000D01*
D42*
G04 #@! TO.N,CLK*
X92964000Y-85344000D02*
X95195500Y-87575500D01*
X95195500Y-87575500D02*
X95195500Y-94327800D01*
X95195500Y-94327800D02*
X96057500Y-95189800D01*
X96057500Y-95189800D02*
X115330700Y-95189800D01*
X115330700Y-95189800D02*
X119857100Y-90663400D01*
X119857100Y-90663400D02*
X119857100Y-85295000D01*
X119857100Y-85295000D02*
X121283800Y-83868300D01*
X121283800Y-83868300D02*
X121283800Y-76974100D01*
X121283800Y-76974100D02*
X121152400Y-76842700D01*
X121152400Y-76842700D02*
X121152400Y-53364800D01*
X121152400Y-53364800D02*
X128693400Y-45823800D01*
X128693400Y-45823800D02*
X137668000Y-45823800D01*
X155930700Y-57303300D02*
X150314000Y-57303300D01*
X150314000Y-57303300D02*
X149585200Y-56574500D01*
X149585200Y-56574500D02*
X146861000Y-56574500D01*
X146861000Y-56574500D02*
X137668000Y-47381500D01*
X137668000Y-47381500D02*
X137668000Y-45823800D01*
X137668000Y-40495300D02*
X137668000Y-45823800D01*
X137668000Y-39370000D02*
X137668000Y-40495300D01*
D43*
G04 #@! TO.N,+5V*
X145288000Y-39370000D02*
X147574000Y-41656000D01*
X145288000Y-39370000D02*
X147066000Y-37592000D01*
X129540000Y-44450000D02*
X127989700Y-44450000D01*
X127989700Y-44450000D02*
X127989700Y-41415700D01*
X127989700Y-41415700D02*
X127468000Y-40894000D01*
X101666400Y-53059600D02*
X94180100Y-45573300D01*
X94180100Y-45573300D02*
X86352900Y-45573300D01*
X86352900Y-45573300D02*
X85102600Y-44323000D01*
X85102600Y-44323000D02*
X84460700Y-44323000D01*
X76826100Y-57317500D02*
X76912600Y-57404000D01*
X76912600Y-57404000D02*
X77724000Y-57404000D01*
X76113000Y-49784000D02*
X76113000Y-56604400D01*
X76113000Y-56604400D02*
X76826100Y-57317500D01*
X76826100Y-57317500D02*
X75469600Y-58674000D01*
X75469600Y-58674000D02*
X74950700Y-58674000D01*
X74950700Y-58674000D02*
X69505800Y-64118900D01*
X69505800Y-64118900D02*
X70501600Y-65114700D01*
X70501600Y-65114700D02*
X70501600Y-70501600D01*
X70501600Y-70501600D02*
X75184000Y-75184000D01*
X69505800Y-64118900D02*
X66939200Y-64118900D01*
X66939200Y-64118900D02*
X66828300Y-64008000D01*
X65278000Y-64008000D02*
X66828300Y-64008000D01*
X82284700Y-82804000D02*
X82284700Y-80783500D01*
X82284700Y-80783500D02*
X78132200Y-76631000D01*
X78132200Y-76631000D02*
X76631000Y-76631000D01*
X76631000Y-76631000D02*
X75184000Y-75184000D01*
X231140000Y-73679700D02*
X228179000Y-70718700D01*
X228179000Y-70718700D02*
X228179000Y-51287400D01*
X228179000Y-51287400D02*
X225031900Y-48140300D01*
X225031900Y-48140300D02*
X224790000Y-48140300D01*
X79716000Y-90424000D02*
X79716000Y-86418600D01*
X79716000Y-86418600D02*
X79192400Y-85895000D01*
X79192400Y-85895000D02*
X79192400Y-84855100D01*
X79192400Y-84855100D02*
X79973500Y-84074000D01*
X79973500Y-84074000D02*
X81014700Y-84074000D01*
X81014700Y-84074000D02*
X82284700Y-82804000D01*
X82284700Y-82804000D02*
X82804000Y-82804000D01*
X50520600Y-128524000D02*
X50520600Y-129724300D01*
X50520600Y-129724300D02*
X50895700Y-129724300D01*
X50895700Y-129724300D02*
X51968200Y-130796800D01*
X51968200Y-130796800D02*
X51968200Y-139444100D01*
X51968200Y-139444100D02*
X50787300Y-140625000D01*
X39179500Y-109449000D02*
X39179500Y-114731600D01*
X39179500Y-114731600D02*
X50520600Y-126072700D01*
X50520600Y-126072700D02*
X50520600Y-128524000D01*
X147066000Y-37592000D02*
X146440400Y-36966400D01*
X147574000Y-37846000D02*
X147320000Y-37846000D01*
X147320000Y-37846000D02*
X147066000Y-37592000D01*
X105664000Y-67564000D02*
X105664000Y-68340600D01*
X105664000Y-68340600D02*
X113523400Y-76200000D01*
X113523400Y-76200000D02*
X115058600Y-76200000D01*
X115058600Y-76200000D02*
X115891000Y-77032400D01*
X115891000Y-77032400D02*
X115891000Y-88567000D01*
X115891000Y-88567000D02*
X116916000Y-89592000D01*
X101666400Y-53059600D02*
X101666400Y-56321600D01*
X101666400Y-56321600D02*
X100584000Y-57404000D01*
X104942000Y-49784000D02*
X101666400Y-53059600D01*
X83210400Y-44323000D02*
X84460700Y-44323000D01*
X224790000Y-46990000D02*
X224790000Y-48140300D01*
X224790000Y-44450000D02*
X224790000Y-46990000D01*
X231140000Y-74930000D02*
X231140000Y-73679700D01*
X40513000Y-48387000D02*
X41388300Y-48387000D01*
X58039000Y-46278800D02*
X43496500Y-46278800D01*
X43496500Y-46278800D02*
X41388300Y-48387000D01*
X57277000Y-90685300D02*
X57150000Y-90812300D01*
X57150000Y-90812300D02*
X57150000Y-97790000D01*
X105450000Y-90678000D02*
X105450000Y-87670000D01*
X105450000Y-87670000D02*
X103124000Y-85344000D01*
X73660000Y-37338000D02*
X73660000Y-40640000D01*
X78740000Y-30868300D02*
X78452400Y-30868300D01*
X78452400Y-30868300D02*
X73660000Y-35660700D01*
X73660000Y-35660700D02*
X73660000Y-37338000D01*
X71120000Y-37338000D02*
X73660000Y-37338000D01*
X78740000Y-29718000D02*
X78740000Y-30868300D01*
X76113000Y-49784000D02*
X76113000Y-43093000D01*
X76113000Y-43093000D02*
X73660000Y-40640000D01*
X116916000Y-90792300D02*
X116916000Y-89592000D01*
X146440400Y-36966400D02*
X145288000Y-35814000D01*
X146440400Y-36966400D02*
X152092000Y-31314800D01*
X152092000Y-27154500D02*
X152092000Y-31314800D01*
X57277000Y-88384700D02*
X62698000Y-82963700D01*
X62698000Y-82963700D02*
X62698000Y-82550000D01*
X40513000Y-48387000D02*
X40513000Y-49487300D01*
X40805100Y-70866000D02*
X40805100Y-69765700D01*
X40805100Y-69765700D02*
X40315700Y-69276300D01*
X40315700Y-69276300D02*
X40315700Y-49684600D01*
X40315700Y-49684600D02*
X40513000Y-49487300D01*
X57277000Y-89535000D02*
X57277000Y-88384700D01*
X202157700Y-44450000D02*
X202157700Y-41923700D01*
X202157700Y-41923700D02*
X201128000Y-40894000D01*
X57277000Y-89535000D02*
X57277000Y-90685300D01*
X234442000Y-89916000D02*
X234442000Y-91266300D01*
X234442000Y-91266300D02*
X224790000Y-100918300D01*
X224790000Y-100918300D02*
X224790000Y-115570000D01*
X234442000Y-81026000D02*
X234442000Y-89916000D01*
X231140000Y-74930000D02*
X231140000Y-77724000D01*
X231140000Y-77724000D02*
X234442000Y-81026000D01*
X234442000Y-81026000D02*
X235712000Y-81026000D01*
X203708000Y-44450000D02*
X202157700Y-44450000D01*
D42*
G04 #@! TO.N,RD*
X87884000Y-57404000D02*
X92445800Y-61965800D01*
X92445800Y-61965800D02*
X92445800Y-69637300D01*
X202182800Y-59690000D02*
X202182800Y-61302300D01*
X202182800Y-61302300D02*
X196491500Y-66993600D01*
X196491500Y-66993600D02*
X196491500Y-76937900D01*
X196491500Y-76937900D02*
X183505600Y-89923800D01*
X183505600Y-89923800D02*
X183505600Y-92085700D01*
X183505600Y-92085700D02*
X182754300Y-92837000D01*
X202182800Y-59690000D02*
X202126600Y-59633800D01*
X202126600Y-59633800D02*
X202126600Y-49100700D01*
X202126600Y-49100700D02*
X202967300Y-48260000D01*
X202967300Y-48260000D02*
X204454500Y-48260000D01*
X204454500Y-48260000D02*
X205251400Y-47463100D01*
X205251400Y-47463100D02*
X205251400Y-43416400D01*
X205251400Y-43416400D02*
X194362000Y-32527000D01*
X194362000Y-32527000D02*
X192002000Y-32527000D01*
X202295300Y-59690000D02*
X202182800Y-59690000D01*
X181229000Y-92837000D02*
X182754300Y-92837000D01*
X203708000Y-59690000D02*
X202295300Y-59690000D01*
X101027000Y-70557100D02*
X101773800Y-71303900D01*
X101773800Y-71303900D02*
X105803000Y-71303900D01*
X105803000Y-71303900D02*
X113698800Y-79199700D01*
X113698800Y-79199700D02*
X113698800Y-82585300D01*
G04 #@! TO.N,IORQ*
X112863100Y-63201100D02*
X113217400Y-63555400D01*
X113217400Y-63555400D02*
X115104200Y-63555400D01*
X115104200Y-63555400D02*
X117351700Y-65802900D01*
X117351700Y-65802900D02*
X117351700Y-80171100D01*
X117351700Y-80171100D02*
X116935900Y-80586900D01*
X116935900Y-80586900D02*
X116935900Y-81977200D01*
X167514300Y-92837000D02*
X174446000Y-85905300D01*
X174446000Y-85905300D02*
X174446000Y-38374700D01*
X174446000Y-38374700D02*
X178596200Y-34224500D01*
X178596200Y-34224500D02*
X179626100Y-34224500D01*
X165989000Y-92837000D02*
X167514300Y-92837000D01*
X95217700Y-51068200D02*
X96788200Y-51068200D01*
X96788200Y-51068200D02*
X100584000Y-54864000D01*
X90424000Y-57404000D02*
X91534700Y-56293300D01*
X91534700Y-56293300D02*
X91534700Y-54751200D01*
X91534700Y-54751200D02*
X95217700Y-51068200D01*
X95217700Y-51068200D02*
X95217700Y-50513700D01*
X95217700Y-50513700D02*
X94234000Y-49530000D01*
G04 #@! TO.N,MREQ*
X167514300Y-90297000D02*
X173952400Y-83858900D01*
X173952400Y-83858900D02*
X173952400Y-36999000D01*
X173952400Y-36999000D02*
X175205000Y-35746400D01*
X165989000Y-90297000D02*
X167514300Y-90297000D01*
G04 #@! TO.N,HALT*
X165989000Y-87757000D02*
X167514300Y-87757000D01*
X167514300Y-87757000D02*
X172929500Y-82341800D01*
X172929500Y-82341800D02*
X172929500Y-36930600D01*
X172929500Y-36930600D02*
X177233500Y-32626600D01*
X177233500Y-32626600D02*
X178118500Y-32626600D01*
G04 #@! TO.N,NMI*
X171930200Y-35571200D02*
X172479100Y-36120100D01*
X172479100Y-36120100D02*
X172479100Y-80252200D01*
X172479100Y-80252200D02*
X167514300Y-85217000D01*
X165989000Y-85217000D02*
X167514300Y-85217000D01*
G04 #@! TO.N,INT*
X167514300Y-82677000D02*
X172028800Y-78162500D01*
X172028800Y-78162500D02*
X172028800Y-36695700D01*
X172028800Y-36695700D02*
X171162500Y-35829400D01*
X171162500Y-35829400D02*
X171162500Y-35302900D01*
X171162500Y-35302900D02*
X171872600Y-34592800D01*
X171872600Y-34592800D02*
X172813200Y-34592800D01*
X165989000Y-82677000D02*
X167514300Y-82677000D01*
G04 #@! TO.N,S0*
X196850000Y-102235000D02*
X196850000Y-97790000D01*
X196850000Y-102235000D02*
X193860000Y-105225000D01*
X193860000Y-105225000D02*
X133105000Y-105225000D01*
X133105000Y-105225000D02*
X127150000Y-111180000D01*
X196850000Y-93980000D02*
X196850000Y-97790000D01*
X90170000Y-111180000D02*
X96670000Y-111180000D01*
X81430000Y-111180000D02*
X90170000Y-111180000D01*
X96670000Y-111180000D02*
X105410000Y-111180000D01*
X120650000Y-111180000D02*
X127150000Y-111180000D01*
X111910000Y-111180000D02*
X120650000Y-111180000D01*
X66190000Y-111180000D02*
X74930000Y-111180000D01*
X59690000Y-111180000D02*
X66190000Y-111180000D01*
X74930000Y-111180000D02*
X81430000Y-111180000D01*
X105410000Y-111180000D02*
X111910000Y-111180000D01*
G04 #@! TO.N,S1*
X199390000Y-93980000D02*
X199390000Y-92804700D01*
X199390000Y-92804700D02*
X207104700Y-85090000D01*
X207104700Y-85090000D02*
X209550000Y-85090000D01*
X199390000Y-97790000D02*
X199390000Y-93980000D01*
X199390000Y-102235000D02*
X199390000Y-97790000D01*
X132230000Y-123880000D02*
X133555000Y-122555000D01*
X133555000Y-122555000D02*
X133555000Y-110285000D01*
X133555000Y-110285000D02*
X135835000Y-108005000D01*
X135835000Y-108005000D02*
X191716000Y-108005000D01*
X191716000Y-108005000D02*
X195581000Y-104140000D01*
X195581000Y-104140000D02*
X197485000Y-104140000D01*
X197485000Y-104140000D02*
X199390000Y-102235000D01*
X80010000Y-123880000D02*
X86510000Y-123880000D01*
X71270000Y-123880000D02*
X80010000Y-123880000D01*
X110490000Y-123880000D02*
X116990000Y-123880000D01*
X101750000Y-123880000D02*
X110490000Y-123880000D01*
X116990000Y-123880000D02*
X125730000Y-123880000D01*
X86510000Y-123880000D02*
X95250000Y-123880000D01*
X64770000Y-123880000D02*
X71270000Y-123880000D01*
X95250000Y-123880000D02*
X101750000Y-123880000D01*
X125730000Y-123880000D02*
X132230000Y-123880000D01*
G04 #@! TO.N,S2*
X201930000Y-93980000D02*
X201930000Y-97790000D01*
X85090000Y-136580000D02*
X91590000Y-136580000D01*
X76350000Y-136580000D02*
X85090000Y-136580000D01*
X115570000Y-136580000D02*
X122070000Y-136580000D01*
X106830000Y-136580000D02*
X115570000Y-136580000D01*
X122070000Y-136580000D02*
X130810000Y-136580000D01*
X91590000Y-136580000D02*
X100330000Y-136580000D01*
X69850000Y-136580000D02*
X76350000Y-136580000D01*
X100330000Y-136580000D02*
X106830000Y-136580000D01*
X130810000Y-136580000D02*
X137310000Y-136580000D01*
X137310000Y-136580000D02*
X139270000Y-134620000D01*
X139270000Y-134620000D02*
X194945000Y-134620000D01*
G04 #@! TO.N,S3*
X204470000Y-93980000D02*
X205645300Y-93980000D01*
X205645300Y-93980000D02*
X205645300Y-93612600D01*
X205645300Y-93612600D02*
X206453200Y-92804700D01*
X206453200Y-92804700D02*
X210924600Y-92804700D01*
X210924600Y-92804700D02*
X214630000Y-89099300D01*
X214630000Y-89099300D02*
X214630000Y-85940300D01*
X204470000Y-97790000D02*
X204470000Y-93980000D01*
X214630000Y-85090000D02*
X214630000Y-85940300D01*
X166370000Y-111180000D02*
X172870000Y-111180000D01*
X157630000Y-111180000D02*
X166370000Y-111180000D01*
X172870000Y-111180000D02*
X181610000Y-111180000D01*
X196850000Y-111180000D02*
X203350000Y-111180000D01*
X188110000Y-111180000D02*
X196850000Y-111180000D01*
X142390000Y-111180000D02*
X151130000Y-111180000D01*
X135890000Y-111180000D02*
X142390000Y-111180000D01*
X151130000Y-111180000D02*
X157630000Y-111180000D01*
X181610000Y-111180000D02*
X188110000Y-111180000D01*
G04 #@! TO.N,S4*
X207010000Y-93980000D02*
X207010000Y-97790000D01*
X186690000Y-123880000D02*
X177950000Y-123880000D01*
X193190000Y-123880000D02*
X186690000Y-123880000D01*
X156210000Y-123880000D02*
X147470000Y-123880000D01*
X162710000Y-123880000D02*
X156210000Y-123880000D01*
X171450000Y-123880000D02*
X162710000Y-123880000D01*
X201930000Y-123880000D02*
X193190000Y-123880000D01*
X177950000Y-123880000D02*
X171450000Y-123880000D01*
X147470000Y-123880000D02*
X140970000Y-123880000D01*
X208430000Y-123880000D02*
X201930000Y-123880000D01*
G04 #@! TO.N,S5*
X209550000Y-93980000D02*
X210725300Y-93980000D01*
X210725300Y-93980000D02*
X210725300Y-93661600D01*
X210725300Y-93661600D02*
X215705400Y-88681500D01*
X215705400Y-88681500D02*
X215705400Y-87344200D01*
X215705400Y-87344200D02*
X217959600Y-85090000D01*
X217959600Y-85090000D02*
X219710000Y-85090000D01*
X209550000Y-97790000D02*
X209550000Y-93980000D01*
X111910000Y-149280000D02*
X120650000Y-149280000D01*
X105410000Y-149280000D02*
X111910000Y-149280000D01*
X96670000Y-149280000D02*
X105410000Y-149280000D01*
X127150000Y-149280000D02*
X129000000Y-151130000D01*
X129000000Y-151130000D02*
X199390000Y-151130000D01*
X120650000Y-149280000D02*
X127150000Y-149280000D01*
X95255800Y-149280000D02*
X96670000Y-149280000D01*
X90170000Y-149280000D02*
X95255800Y-149280000D01*
X80015800Y-149280000D02*
X81430000Y-149280000D01*
X74930000Y-149280000D02*
X80015800Y-149280000D01*
X66190000Y-149280000D02*
X74930000Y-149280000D01*
X59690000Y-149280000D02*
X66190000Y-149280000D01*
X81430000Y-149280000D02*
X90170000Y-149280000D01*
X81430000Y-149280000D02*
X90170000Y-149280000D01*
X59690000Y-149280000D02*
X66190000Y-149280000D01*
X66190000Y-149280000D02*
X74930000Y-149280000D01*
X81430000Y-149280000D02*
X80015800Y-149280000D01*
X80015800Y-149280000D02*
X74930000Y-149280000D01*
X96670000Y-149280000D02*
X95255800Y-149280000D01*
X95255800Y-149280000D02*
X90170000Y-149280000D01*
X127150000Y-149280000D02*
X120650000Y-149280000D01*
G04 #@! TO.N,S6*
X212090000Y-93980000D02*
X212090000Y-97790000D01*
X161290000Y-136580000D02*
X167790000Y-136580000D01*
X152550000Y-136580000D02*
X161290000Y-136580000D01*
X167790000Y-136580000D02*
X176530000Y-136580000D01*
X207010000Y-136580000D02*
X213510000Y-136580000D01*
X198270000Y-136580000D02*
X207010000Y-136580000D01*
X176530000Y-136580000D02*
X183030000Y-136580000D01*
X183030000Y-136580000D02*
X191770000Y-136580000D01*
X191770000Y-136580000D02*
X196856000Y-136580000D01*
X196856000Y-136580000D02*
X198270000Y-136580000D01*
X146050000Y-136580000D02*
X152550000Y-136580000D01*
X146050000Y-136580000D02*
X152550000Y-136580000D01*
X198270000Y-136580000D02*
X196856000Y-136580000D01*
X196856000Y-136580000D02*
X191770000Y-136580000D01*
X191770000Y-136580000D02*
X183030000Y-136580000D01*
X183030000Y-136580000D02*
X176530000Y-136580000D01*
X207010000Y-136580000D02*
X213510000Y-136580000D01*
G04 #@! TO.N,S7*
X214630000Y-93980000D02*
X215805300Y-93980000D01*
X215805300Y-93980000D02*
X220785400Y-88999900D01*
X220785400Y-88999900D02*
X220785400Y-87358300D01*
X220785400Y-87358300D02*
X223053700Y-85090000D01*
X223053700Y-85090000D02*
X224790000Y-85090000D01*
X214630000Y-93980000D02*
X214630000Y-97790000D01*
X166370000Y-149280000D02*
X172870000Y-149280000D01*
X157630000Y-149280000D02*
X166370000Y-149280000D01*
X172870000Y-149280000D02*
X181610000Y-149280000D01*
X196850000Y-149280000D02*
X203350000Y-149280000D01*
X188110000Y-149280000D02*
X196850000Y-149280000D01*
X142390000Y-149280000D02*
X151130000Y-149280000D01*
X135890000Y-149280000D02*
X142390000Y-149280000D01*
X151130000Y-149280000D02*
X157630000Y-149280000D01*
X181610000Y-149280000D02*
X188110000Y-149280000D01*
G04 #@! TO.N,A11*
X215592000Y-27154500D02*
X215592000Y-31289800D01*
X217857300Y-43690100D02*
X217857300Y-33555100D01*
X217857300Y-33555100D02*
X215592000Y-31289800D01*
X224790000Y-56024700D02*
X224508700Y-56024700D01*
X224508700Y-56024700D02*
X217857400Y-49373400D01*
X217857400Y-49373400D02*
X217857400Y-43690100D01*
X217857400Y-43690100D02*
X217857300Y-43690100D01*
X205233300Y-57150000D02*
X207103700Y-59020400D01*
X207103700Y-59020400D02*
X207103700Y-77963500D01*
X207103700Y-77963500D02*
X210648400Y-81508200D01*
X210648400Y-81508200D02*
X210648400Y-86336900D01*
X210648400Y-86336900D02*
X208085300Y-88900000D01*
X207010000Y-88900000D02*
X208085300Y-88900000D01*
X203708000Y-57150000D02*
X205233300Y-57150000D01*
X155194000Y-68216700D02*
X157283000Y-66127700D01*
X157283000Y-66127700D02*
X157283000Y-65918100D01*
X157283000Y-65918100D02*
X160484100Y-62717000D01*
X160484100Y-62717000D02*
X160484100Y-60579700D01*
X160484100Y-60579700D02*
X162283100Y-58780700D01*
X162283100Y-58780700D02*
X162283100Y-46757600D01*
X162283100Y-46757600D02*
X164463700Y-44577000D01*
X155194000Y-69342000D02*
X155194000Y-68216700D01*
X165989000Y-44577000D02*
X164463700Y-44577000D01*
X224790000Y-57150000D02*
X224790000Y-56024700D01*
G04 #@! TO.N,A9*
X224790000Y-54610000D02*
X225921600Y-55741600D01*
X225921600Y-55741600D02*
X225921600Y-57620700D01*
X225921600Y-57620700D02*
X225215900Y-58326400D01*
X225215900Y-58326400D02*
X224374800Y-58326400D01*
X224374800Y-58326400D02*
X214996600Y-48948200D01*
X214996600Y-48948200D02*
X214996600Y-31869500D01*
X214996600Y-31869500D02*
X213052000Y-29924900D01*
X213052000Y-29924900D02*
X213052000Y-27154500D01*
X205233300Y-54610000D02*
X207554100Y-56930800D01*
X207554100Y-56930800D02*
X207554100Y-77777000D01*
X207554100Y-77777000D02*
X211465100Y-81688000D01*
X211465100Y-81688000D02*
X211465200Y-81688000D01*
X211465200Y-81688000D02*
X211465200Y-84240200D01*
X211465200Y-84240200D02*
X213165300Y-85940300D01*
X213165300Y-85940300D02*
X213165300Y-88900000D01*
X212090000Y-88900000D02*
X213165300Y-88900000D01*
X203708000Y-54610000D02*
X205233300Y-54610000D01*
X182754300Y-47117000D02*
X186546700Y-43324600D01*
X186546700Y-43324600D02*
X189804600Y-43324600D01*
X189804600Y-43324600D02*
X198449800Y-51969800D01*
X198449800Y-51969800D02*
X198449800Y-54610000D01*
X161040300Y-50251200D02*
X160832500Y-50459000D01*
X160832500Y-50459000D02*
X160832500Y-58320700D01*
X160832500Y-58320700D02*
X159424200Y-59729000D01*
X159424200Y-59729000D02*
X159424200Y-62503100D01*
X159424200Y-62503100D02*
X156141400Y-65785900D01*
X156141400Y-65785900D02*
X156141400Y-65786000D01*
X156141400Y-65786000D02*
X155194000Y-65786000D01*
X181229000Y-47117000D02*
X182754300Y-47117000D01*
G04 #@! TO.N,A10*
X182754300Y-44577000D02*
X184490900Y-42840400D01*
X184490900Y-42840400D02*
X189991100Y-42840400D01*
X189991100Y-42840400D02*
X199625500Y-52474800D01*
X199625500Y-52474800D02*
X199625500Y-60878000D01*
X205233300Y-62230000D02*
X205706000Y-62702700D01*
X205706000Y-62702700D02*
X205706000Y-81051300D01*
X205706000Y-81051300D02*
X208474700Y-83820000D01*
X181229000Y-44577000D02*
X182754300Y-44577000D01*
X213600400Y-31591800D02*
X213600400Y-50097800D01*
X213600400Y-50097800D02*
X224607300Y-61104700D01*
X224607300Y-61104700D02*
X224790000Y-61104700D01*
X224790000Y-62230000D02*
X224790000Y-61104700D01*
X209550000Y-83820000D02*
X208474700Y-83820000D01*
X203708000Y-62230000D02*
X205233300Y-62230000D01*
G04 #@! TO.N,A8*
X219710000Y-83820000D02*
X220785300Y-83820000D01*
X224790000Y-52070000D02*
X224790000Y-53195300D01*
X224790000Y-53195300D02*
X225071300Y-53195300D01*
X225071300Y-53195300D02*
X226371900Y-54495900D01*
X226371900Y-54495900D02*
X226371900Y-67336000D01*
X226371900Y-67336000D02*
X225127900Y-68580000D01*
X225127900Y-68580000D02*
X224396300Y-68580000D01*
X224396300Y-68580000D02*
X220785300Y-72191000D01*
X220785300Y-72191000D02*
X220785300Y-83820000D01*
X161557800Y-51456000D02*
X161557800Y-58232300D01*
X161557800Y-58232300D02*
X159874500Y-59915600D01*
X159874500Y-59915600D02*
X159874500Y-62689700D01*
X159874500Y-62689700D02*
X156778300Y-65785900D01*
X156778300Y-65785900D02*
X156778300Y-65890600D01*
X156778300Y-65890600D02*
X148342600Y-74326300D01*
X148342600Y-74326300D02*
X147099700Y-74326300D01*
X147099700Y-74326300D02*
X146413500Y-73640100D01*
X146413500Y-73640100D02*
X146413500Y-72687200D01*
X146413500Y-72687200D02*
X148744900Y-70355800D01*
X148744900Y-70355800D02*
X148744900Y-65354300D01*
X148744900Y-65354300D02*
X148040500Y-64649900D01*
X148040500Y-64649900D02*
X145675900Y-64649900D01*
X145675900Y-64649900D02*
X145034000Y-64008000D01*
G04 #@! TO.N,A12*
X214630000Y-83820000D02*
X213554700Y-83820000D01*
X209550000Y-46990000D02*
X208408600Y-48131400D01*
X208408600Y-48131400D02*
X208408600Y-77994600D01*
X208408600Y-77994600D02*
X211597300Y-81183300D01*
X211597300Y-81183300D02*
X211677000Y-81183300D01*
X211677000Y-81183300D02*
X213554700Y-83061000D01*
X213554700Y-83061000D02*
X213554700Y-83820000D01*
X145034000Y-72499300D02*
X145034000Y-72977000D01*
X145034000Y-72977000D02*
X146833600Y-74776600D01*
X146833600Y-74776600D02*
X151355700Y-74776600D01*
X151355700Y-74776600D02*
X159454500Y-66677800D01*
X159454500Y-66677800D02*
X159454500Y-64452600D01*
X159454500Y-64452600D02*
X161086400Y-62820700D01*
X161086400Y-62820700D02*
X161086400Y-60614400D01*
X161086400Y-60614400D02*
X162733400Y-58967400D01*
X162733400Y-58967400D02*
X162733400Y-48847300D01*
X162733400Y-48847300D02*
X164463700Y-47117000D01*
X145034000Y-71374000D02*
X145034000Y-72499300D01*
X165989000Y-47117000D02*
X164463700Y-47117000D01*
X149552000Y-31289800D02*
X148167800Y-31289800D01*
X148167800Y-31289800D02*
X144151900Y-35305700D01*
X144151900Y-35305700D02*
X144151900Y-39826300D01*
X144151900Y-39826300D02*
X151133700Y-46808100D01*
X149552000Y-27154500D02*
X149552000Y-31289800D01*
G04 #@! TO.N,A14*
X145179000Y-87846000D02*
X146141700Y-86883300D01*
X146141700Y-86883300D02*
X146141700Y-83801100D01*
X146141700Y-83801100D02*
X160964300Y-68978500D01*
X160964300Y-68978500D02*
X160964300Y-64216700D01*
X160964300Y-64216700D02*
X162437300Y-62743700D01*
X162437300Y-62743700D02*
X162437300Y-60537300D01*
X162437300Y-60537300D02*
X163651400Y-59323200D01*
X163651400Y-59323200D02*
X163651400Y-53009300D01*
X163651400Y-53009300D02*
X164463700Y-52197000D01*
X186942700Y-44450000D02*
X183005700Y-48387000D01*
X183005700Y-48387000D02*
X180490800Y-48387000D01*
X180490800Y-48387000D02*
X179264600Y-49613200D01*
X179264600Y-49613200D02*
X179264600Y-50311000D01*
X188468000Y-44450000D02*
X186942700Y-44450000D01*
X147012000Y-31289800D02*
X143697900Y-34603900D01*
X143697900Y-34603900D02*
X143697900Y-49785500D01*
X143697900Y-49785500D02*
X146364600Y-52452200D01*
X146364600Y-52452200D02*
X156117700Y-52452200D01*
X156117700Y-52452200D02*
X156372900Y-52197000D01*
X147012000Y-27154500D02*
X147012000Y-31289800D01*
X165989000Y-52197000D02*
X164463700Y-52197000D01*
G04 #@! TO.N,A13*
X218245300Y-88900000D02*
X222799700Y-84345600D01*
X222799700Y-84345600D02*
X222799700Y-72740800D01*
X222799700Y-72740800D02*
X224420500Y-71120000D01*
X224420500Y-71120000D02*
X225176600Y-71120000D01*
X225176600Y-71120000D02*
X226822300Y-69474300D01*
X226822300Y-69474300D02*
X226822300Y-52406100D01*
X226822300Y-52406100D02*
X225071500Y-50655300D01*
X225071500Y-50655300D02*
X224790000Y-50655300D01*
X155194000Y-72026700D02*
X160129900Y-67090800D01*
X160129900Y-67090800D02*
X160129900Y-64414200D01*
X160129900Y-64414200D02*
X161888200Y-62655900D01*
X161888200Y-62655900D02*
X161888200Y-60449500D01*
X161888200Y-60449500D02*
X163183700Y-59154000D01*
X163183700Y-59154000D02*
X163183700Y-50937000D01*
X163183700Y-50937000D02*
X164463700Y-49657000D01*
X163729200Y-37288800D02*
X163729200Y-37515200D01*
X163729200Y-37515200D02*
X167514300Y-41300300D01*
X167514300Y-41300300D02*
X167514300Y-49657000D01*
X165989000Y-49657000D02*
X167514300Y-49657000D01*
X165555500Y-49657000D02*
X165989000Y-49657000D01*
X165555500Y-49657000D02*
X164463700Y-49657000D01*
X155194000Y-73152000D02*
X155194000Y-72026700D01*
X217170000Y-88900000D02*
X218245300Y-88900000D01*
X224790000Y-49530000D02*
X224790000Y-50655300D01*
G04 #@! TO.N,A15*
X164463700Y-54737000D02*
X164463700Y-59147800D01*
X164463700Y-59147800D02*
X162887600Y-60723900D01*
X162887600Y-60723900D02*
X162887600Y-68382300D01*
X162887600Y-68382300D02*
X157370600Y-73899300D01*
X157370600Y-73899300D02*
X157370600Y-76613700D01*
X165989000Y-54737000D02*
X167514300Y-54737000D01*
X167514300Y-54737000D02*
X167976100Y-54275200D01*
X167976100Y-54275200D02*
X167976100Y-40736400D01*
X167976100Y-40736400D02*
X165278100Y-38038400D01*
X165555500Y-54737000D02*
X165989000Y-54737000D01*
X165555500Y-54737000D02*
X164463700Y-54737000D01*
G04 #@! TO.N,KB0*
X59690000Y-93980000D02*
X59690000Y-95155300D01*
X59127400Y-97790000D02*
X59127400Y-95717900D01*
X59127400Y-95717900D02*
X59690000Y-95155300D01*
X59127400Y-97790000D02*
X58564700Y-97790000D01*
X59690000Y-97790000D02*
X59127400Y-97790000D01*
X58564700Y-97790000D02*
X58564700Y-98493300D01*
X58564700Y-98493300D02*
X58142600Y-98915400D01*
X58142600Y-98915400D02*
X56145400Y-98915400D01*
X56145400Y-98915400D02*
X55985700Y-98755700D01*
X55985700Y-98755700D02*
X55985700Y-88562500D01*
X55985700Y-88562500D02*
X61419800Y-83128400D01*
X61419800Y-83128400D02*
X61419800Y-76034600D01*
X61419800Y-76034600D02*
X63752700Y-73701700D01*
X63752700Y-73701700D02*
X63752700Y-71144600D01*
X63752700Y-71144600D02*
X64539300Y-70358000D01*
X64539300Y-70358000D02*
X66037000Y-70358000D01*
X66037000Y-70358000D02*
X66826600Y-69568400D01*
X66826600Y-69568400D02*
X66826600Y-68577800D01*
X66826600Y-68577800D02*
X66140700Y-67891900D01*
X66140700Y-67891900D02*
X64583400Y-67891900D01*
X64583400Y-67891900D02*
X63747500Y-67056000D01*
X63747500Y-67056000D02*
X63747500Y-63510900D01*
X63747500Y-63510900D02*
X68984500Y-58273900D01*
X68984500Y-58273900D02*
X74033500Y-58273900D01*
X59690000Y-106680000D02*
X66190000Y-106680000D01*
X207010000Y-132080000D02*
X213510000Y-132080000D01*
X196850000Y-144780000D02*
X203350000Y-144780000D01*
X59690000Y-144780000D02*
X66190000Y-144780000D01*
X69850000Y-132080000D02*
X76350000Y-132080000D01*
X71270000Y-119380000D02*
X64770000Y-119380000D01*
X208430000Y-119380000D02*
X201930000Y-119380000D01*
X196850000Y-106680000D02*
X203350000Y-106680000D01*
X66190000Y-144780000D02*
X69365000Y-147955000D01*
X69365000Y-147955000D02*
X193675000Y-147955000D01*
X193675000Y-147955000D02*
X196850000Y-144780000D01*
G04 #@! TO.N,KB1*
X105664000Y-57404000D02*
X109654100Y-53413900D01*
X109654100Y-53413900D02*
X115104800Y-53413900D01*
X115104800Y-53413900D02*
X117830200Y-56139300D01*
X117830200Y-56139300D02*
X117830200Y-80329500D01*
X117830200Y-80329500D02*
X117661300Y-80498400D01*
X117661300Y-80498400D02*
X117661300Y-85296800D01*
X117661300Y-85296800D02*
X118111600Y-85747100D01*
X118111600Y-85747100D02*
X118111600Y-91772000D01*
X118111600Y-91772000D02*
X117524100Y-92359500D01*
X117524100Y-92359500D02*
X113040700Y-92359500D01*
X74930000Y-106680000D02*
X81430000Y-106680000D01*
X62230000Y-93980000D02*
X62230000Y-97790000D01*
X191770000Y-132080000D02*
X198270000Y-132080000D01*
X181610000Y-144780000D02*
X188110000Y-144780000D01*
X74930000Y-144780000D02*
X81430000Y-144780000D01*
X85090000Y-132080000D02*
X91590000Y-132080000D01*
X86510000Y-119380000D02*
X80010000Y-119380000D01*
X193190000Y-119380000D02*
X186690000Y-119380000D01*
X181610000Y-106680000D02*
X188110000Y-106680000D01*
X181610000Y-144780000D02*
X180196000Y-144780000D01*
X180196000Y-144780000D02*
X177656000Y-147320000D01*
X177656000Y-147320000D02*
X83970000Y-147320000D01*
X83970000Y-147320000D02*
X81430000Y-144780000D01*
G04 #@! TO.N,KB2*
X92710000Y-106680000D02*
X92710000Y-88907500D01*
X92710000Y-88907500D02*
X91923900Y-88121400D01*
X91923900Y-88121400D02*
X91923900Y-82087800D01*
X91923900Y-82087800D02*
X93490000Y-80521700D01*
X93490000Y-80521700D02*
X93490000Y-73295500D01*
X93490000Y-73295500D02*
X95296900Y-71488600D01*
X95296900Y-71488600D02*
X95296900Y-67771100D01*
X95296900Y-67771100D02*
X103124000Y-59944000D01*
X92710000Y-106680000D02*
X96670000Y-106680000D01*
X90170000Y-106680000D02*
X92710000Y-106680000D01*
X64770000Y-93980000D02*
X64770000Y-97790000D01*
X176530000Y-132080000D02*
X183030000Y-132080000D01*
X166370000Y-144780000D02*
X172870000Y-144780000D01*
X100330000Y-132080000D02*
X106830000Y-132080000D01*
X90170000Y-144780000D02*
X96670000Y-144780000D01*
X101750000Y-119380000D02*
X95250000Y-119380000D01*
X177950000Y-119380000D02*
X171450000Y-119380000D01*
X166370000Y-106680000D02*
X172870000Y-106680000D01*
X96670000Y-144780000D02*
X98575000Y-146685000D01*
X98575000Y-146685000D02*
X164465000Y-146685000D01*
X164465000Y-146685000D02*
X166370000Y-144780000D01*
G04 #@! TO.N,KB3*
X110488600Y-106680000D02*
X122704100Y-94464500D01*
X122704100Y-94464500D02*
X122704100Y-75485900D01*
X122704100Y-75485900D02*
X124218600Y-73971400D01*
X124218600Y-73971400D02*
X124218600Y-56298400D01*
X110488600Y-106680000D02*
X111910000Y-106680000D01*
X105410000Y-106680000D02*
X110488600Y-106680000D01*
X67310000Y-97790000D02*
X67310000Y-93980000D01*
X161290000Y-132080000D02*
X167790000Y-132080000D01*
X151130000Y-144780000D02*
X157630000Y-144780000D01*
X115570000Y-132080000D02*
X122070000Y-132080000D01*
X105410000Y-144780000D02*
X111910000Y-144780000D01*
X116990000Y-119380000D02*
X110490000Y-119380000D01*
X162710000Y-119380000D02*
X156210000Y-119380000D01*
X151130000Y-106680000D02*
X157630000Y-106680000D01*
X111910000Y-144780000D02*
X113235000Y-146105000D01*
X113235000Y-146105000D02*
X149805000Y-146105000D01*
X149805000Y-146105000D02*
X151130000Y-144780000D01*
G04 #@! TO.N,KB4*
X91101500Y-74414500D02*
X91101500Y-72674500D01*
X91101500Y-72674500D02*
X93945900Y-69830100D01*
X93945900Y-69830100D02*
X93945900Y-66351600D01*
X93945900Y-66351600D02*
X102893500Y-57404000D01*
X102893500Y-57404000D02*
X103124000Y-57404000D01*
X69850000Y-93980000D02*
X69850000Y-92804700D01*
X69850000Y-92804700D02*
X71600900Y-91053800D01*
X71600900Y-91053800D02*
X71600900Y-76256900D01*
X69850000Y-97790000D02*
X69850000Y-93980000D01*
X135890000Y-144780000D02*
X127150000Y-144780000D01*
X142390000Y-144780000D02*
X135890000Y-144780000D01*
X146050000Y-132080000D02*
X152550000Y-132080000D01*
X130810000Y-132080000D02*
X137310000Y-132080000D01*
X120650000Y-144780000D02*
X127150000Y-144780000D01*
X132230000Y-119380000D02*
X125730000Y-119380000D01*
X147470000Y-119380000D02*
X140970000Y-119380000D01*
X135890000Y-106680000D02*
X142390000Y-106680000D01*
X120650000Y-106680000D02*
X127150000Y-106680000D01*
D44*
G04 #@! TO.N,+9V*
X154908400Y-39754900D02*
X153530600Y-39754900D01*
X153530600Y-39754900D02*
X149905200Y-36129500D01*
X232410000Y-58420000D02*
X232410000Y-56969700D01*
X232410000Y-43180000D02*
X232410000Y-44630300D01*
X232410000Y-44630300D02*
X233860300Y-46080600D01*
X233860300Y-46080600D02*
X233860300Y-55519400D01*
X233860300Y-55519400D02*
X232410000Y-56969700D01*
X154632000Y-31414800D02*
X154619900Y-31414800D01*
X154619900Y-31414800D02*
X149905200Y-36129500D01*
X154632000Y-27154500D02*
X154632000Y-31414800D01*
D42*
G04 #@! TO.N,Net-(D1-Pad4)*
X234950000Y-30830000D02*
X237490000Y-33370000D01*
X237490000Y-33370000D02*
X237490000Y-43180000D01*
G04 #@! TO.N,Net-(D1-Pad3)*
X237490000Y-48260000D02*
X237490000Y-46934700D01*
X234950000Y-36830000D02*
X234950000Y-44394700D01*
X234950000Y-44394700D02*
X237490000Y-46934700D01*
G04 #@! TO.N,Net-(C4-Pad2)*
X232410000Y-105370000D02*
X232410000Y-110490000D01*
G04 #@! TO.N,Net-(J9-Pad2)*
X226060000Y-124460000D02*
X224734700Y-124460000D01*
X224734700Y-124460000D02*
X219654700Y-119380000D01*
X219654700Y-119380000D02*
X218440000Y-119380000D01*
G04 #@! TO.N,D3*
X167514300Y-62357000D02*
X169327000Y-60544300D01*
X169327000Y-60544300D02*
X169327000Y-39495200D01*
X169327000Y-39495200D02*
X167551500Y-37719700D01*
X148590000Y-92710000D02*
X153735300Y-87564700D01*
X153735300Y-87564700D02*
X153735300Y-83641200D01*
X153735300Y-83641200D02*
X163096500Y-74280000D01*
X163096500Y-74280000D02*
X163096500Y-73405600D01*
X163096500Y-73405600D02*
X165255100Y-71247000D01*
X165255100Y-71247000D02*
X166711300Y-71247000D01*
X166711300Y-71247000D02*
X167514400Y-70443900D01*
X167514400Y-70443900D02*
X167514400Y-66963500D01*
X167514400Y-66963500D02*
X166717900Y-66167000D01*
X166717900Y-66167000D02*
X165206000Y-66167000D01*
X165206000Y-66167000D02*
X164463700Y-65424700D01*
X164463700Y-65424700D02*
X164463700Y-62357000D01*
X148590000Y-99060000D02*
X148590000Y-92710000D01*
X165989000Y-62357000D02*
X164463700Y-62357000D01*
X148590000Y-99060000D02*
X149715300Y-99060000D01*
X203708000Y-77470000D02*
X203708000Y-82331600D01*
X203708000Y-82331600D02*
X190499900Y-95539700D01*
X190499900Y-95539700D02*
X190499900Y-98741300D01*
X190499900Y-98741300D02*
X188602500Y-100638700D01*
X188602500Y-100638700D02*
X151012700Y-100638700D01*
X151012700Y-100638700D02*
X149715300Y-99341300D01*
X149715300Y-99341300D02*
X149715300Y-99060000D01*
X165989000Y-62357000D02*
X167514300Y-62357000D01*
G04 #@! TO.N,D4*
X203708000Y-74930000D02*
X199736700Y-74930000D01*
X199736700Y-74930000D02*
X184230900Y-90435800D01*
X144780000Y-92710000D02*
X144780000Y-90491600D01*
X144780000Y-90491600D02*
X150210700Y-85060900D01*
X150210700Y-85060900D02*
X150210700Y-84897700D01*
X150210700Y-84897700D02*
X159438200Y-75670200D01*
X159438200Y-75670200D02*
X159438200Y-72558200D01*
X159438200Y-72558200D02*
X163337900Y-68658500D01*
X163337900Y-68658500D02*
X163337900Y-60942800D01*
X163337900Y-60942800D02*
X164463700Y-59817000D01*
X165874500Y-59817000D02*
X168426400Y-57265100D01*
X168426400Y-57265100D02*
X168426400Y-40257400D01*
X168426400Y-40257400D02*
X166084000Y-37915000D01*
X166084000Y-37915000D02*
X166084000Y-37692400D01*
X166084000Y-37692400D02*
X165401200Y-37009600D01*
X165989000Y-59817000D02*
X165874500Y-59817000D01*
X165772300Y-59817000D02*
X164463700Y-59817000D01*
X165772300Y-59817000D02*
X165874500Y-59817000D01*
X144780000Y-92710000D02*
X146050000Y-93980000D01*
X146050000Y-93980000D02*
X146050000Y-99060000D01*
G04 #@! TO.N,A7*
X209550000Y-48404700D02*
X209831300Y-48404700D01*
X209831300Y-48404700D02*
X210683200Y-47552800D01*
X210683200Y-47552800D02*
X210683200Y-43491700D01*
X210683200Y-43491700D02*
X198481300Y-31289800D01*
X198481300Y-31289800D02*
X197812000Y-31289800D01*
X197812000Y-27154500D02*
X197812000Y-31289800D01*
X209550000Y-49530000D02*
X209550000Y-48404700D01*
X181229000Y-52197000D02*
X182754300Y-52197000D01*
X188468000Y-49530000D02*
X185421300Y-49530000D01*
X185421300Y-49530000D02*
X182754300Y-52197000D01*
G04 #@! TO.N,D5*
X203708000Y-72390000D02*
X202182700Y-72390000D01*
X202182700Y-72390000D02*
X202182700Y-64217100D01*
X202182700Y-64217100D02*
X201238200Y-63272600D01*
X167514300Y-64897000D02*
X169777300Y-62634000D01*
X169777300Y-62634000D02*
X169777300Y-38919700D01*
X169777300Y-38919700D02*
X167569000Y-36711400D01*
X167569000Y-36711400D02*
X167339100Y-36711400D01*
X142360800Y-92710000D02*
X142360800Y-92146000D01*
X142360800Y-92146000D02*
X147241200Y-87265600D01*
X147241200Y-87265600D02*
X147241200Y-83338500D01*
X147241200Y-83338500D02*
X161937100Y-68642600D01*
X161937100Y-68642600D02*
X161937100Y-65419600D01*
X140970000Y-92710000D02*
X142360800Y-92710000D01*
X142360800Y-92710000D02*
X142360800Y-96785500D01*
X142360800Y-96785500D02*
X143510000Y-97934700D01*
X143510000Y-99060000D02*
X143510000Y-97934700D01*
X165989000Y-64897000D02*
X167514300Y-64897000D01*
G04 #@! TO.N,A6*
X209550000Y-52070000D02*
X209550000Y-50944700D01*
X209550000Y-50944700D02*
X209831300Y-50944700D01*
X209831300Y-50944700D02*
X211141400Y-49634600D01*
X211141400Y-49634600D02*
X211141400Y-43313000D01*
X211141400Y-43313000D02*
X200352000Y-32523600D01*
X200352000Y-32523600D02*
X200352000Y-27154500D01*
X159414300Y-57589700D02*
X156892300Y-60111700D01*
X156892300Y-60111700D02*
X156892300Y-62143100D01*
X156892300Y-62143100D02*
X155662700Y-63372700D01*
X155662700Y-63372700D02*
X150681200Y-63372700D01*
X150681200Y-63372700D02*
X147760500Y-60452000D01*
X147760500Y-60452000D02*
X145034000Y-60452000D01*
X188468000Y-52070000D02*
X186942700Y-52070000D01*
X186942700Y-52070000D02*
X184275700Y-54737000D01*
X184275700Y-54737000D02*
X181229000Y-54737000D01*
G04 #@! TO.N,D6*
X164463700Y-67437000D02*
X163999200Y-66972500D01*
X163999200Y-66972500D02*
X163999200Y-62132300D01*
X163999200Y-62132300D02*
X165044500Y-61087000D01*
X165044500Y-61087000D02*
X166731900Y-61087000D01*
X166731900Y-61087000D02*
X168876700Y-58942200D01*
X168876700Y-58942200D02*
X168876700Y-40070800D01*
X168876700Y-40070800D02*
X166534300Y-37728400D01*
X166534300Y-37728400D02*
X166534300Y-34189300D01*
X166534300Y-34189300D02*
X167357900Y-33365700D01*
X167357900Y-33365700D02*
X168951600Y-33365700D01*
X168951600Y-33365700D02*
X169252200Y-33065100D01*
X147196500Y-99513100D02*
X147196500Y-89596200D01*
X147196500Y-89596200D02*
X150837600Y-85955100D01*
X150837600Y-85955100D02*
X150837600Y-85054700D01*
X150837600Y-85054700D02*
X161597500Y-74294800D01*
X161597500Y-74294800D02*
X161597500Y-71499300D01*
X161597500Y-71499300D02*
X164463700Y-68633100D01*
X164463700Y-68633100D02*
X164463700Y-67437000D01*
X147196500Y-99513100D02*
X148772500Y-101089100D01*
X148772500Y-101089100D02*
X188789000Y-101089100D01*
X188789000Y-101089100D02*
X195194600Y-94683500D01*
X195194600Y-94683500D02*
X195194600Y-92772500D01*
X195194600Y-92772500D02*
X205233300Y-82733800D01*
X205233300Y-82733800D02*
X205233300Y-69850000D01*
X140970000Y-99060000D02*
X140970000Y-97934700D01*
X137160000Y-92710000D02*
X137160000Y-94124700D01*
X137160000Y-94124700D02*
X140970000Y-97934700D01*
X203708000Y-69850000D02*
X205233300Y-69850000D01*
X142095300Y-99060000D02*
X142095300Y-99341300D01*
X142095300Y-99341300D02*
X142944000Y-100190000D01*
X142944000Y-100190000D02*
X146519600Y-100190000D01*
X146519600Y-100190000D02*
X147196500Y-99513100D01*
X165989000Y-67437000D02*
X164463700Y-67437000D01*
X140970000Y-99060000D02*
X142095300Y-99060000D01*
G04 #@! TO.N,A5*
X209550000Y-53484700D02*
X209831300Y-53484700D01*
X209831300Y-53484700D02*
X211591800Y-51724200D01*
X211591800Y-51724200D02*
X211591800Y-43011100D01*
X211591800Y-43011100D02*
X202892000Y-34311300D01*
X202892000Y-34311300D02*
X202892000Y-31289800D01*
X202892000Y-27154500D02*
X202892000Y-31289800D01*
X209550000Y-54610000D02*
X209550000Y-53484700D01*
G04 #@! TO.N,D7*
X167259700Y-35541700D02*
X167434900Y-35366500D01*
X167434900Y-35366500D02*
X168479000Y-35366500D01*
X168479000Y-35366500D02*
X170677900Y-37565400D01*
X170677900Y-37565400D02*
X170677900Y-70019900D01*
X170677900Y-70019900D02*
X165640800Y-75057000D01*
X165640800Y-75057000D02*
X158115000Y-82582800D01*
X158115000Y-82582800D02*
X158115000Y-85439800D01*
X158115000Y-85439800D02*
X154162900Y-89391900D01*
X165989000Y-75057000D02*
X165640800Y-75057000D01*
X138430000Y-99060000D02*
X138430000Y-97934700D01*
X133350000Y-92710000D02*
X133350000Y-92854700D01*
X133350000Y-92854700D02*
X138430000Y-97934700D01*
G04 #@! TO.N,A4*
X209550000Y-56024700D02*
X209831300Y-56024700D01*
X209831300Y-56024700D02*
X212044300Y-53811700D01*
X212044300Y-53811700D02*
X212044300Y-42826700D01*
X212044300Y-42826700D02*
X205432000Y-36214400D01*
X205432000Y-36214400D02*
X205432000Y-27154500D01*
X145034000Y-56896000D02*
X146159300Y-56896000D01*
X155820800Y-60452000D02*
X152600800Y-60452000D01*
X152600800Y-60452000D02*
X149452100Y-57303300D01*
X149452100Y-57303300D02*
X146566600Y-57303300D01*
X146566600Y-57303300D02*
X146159300Y-56896000D01*
X209550000Y-57150000D02*
X209550000Y-56024700D01*
X181229000Y-59817000D02*
X182754300Y-59817000D01*
X188468000Y-57150000D02*
X185421300Y-57150000D01*
X185421300Y-57150000D02*
X182754300Y-59817000D01*
G04 #@! TO.N,A3*
X174952000Y-31289800D02*
X173902000Y-32339800D01*
X173902000Y-32339800D02*
X168844100Y-32339800D01*
X168844100Y-32339800D02*
X168269600Y-32914300D01*
X168269600Y-32914300D02*
X167073300Y-32914300D01*
X167073300Y-32914300D02*
X165740400Y-34247200D01*
X165740400Y-34247200D02*
X165740300Y-34247200D01*
X165740300Y-34247200D02*
X165740300Y-34252000D01*
X165740300Y-34252000D02*
X163003900Y-36988400D01*
X163003900Y-36988400D02*
X163003900Y-37620600D01*
X163003900Y-37620600D02*
X159749600Y-40874900D01*
X159749600Y-40874900D02*
X159749600Y-50562400D01*
X159749600Y-50562400D02*
X155194000Y-55118000D01*
X174952000Y-27154500D02*
X174952000Y-31289800D01*
G04 #@! TO.N,A2*
X172412000Y-31289800D02*
X171812300Y-31889500D01*
X171812300Y-31889500D02*
X168555700Y-31889500D01*
X168555700Y-31889500D02*
X168151400Y-32293800D01*
X168151400Y-32293800D02*
X167056900Y-32293800D01*
X167056900Y-32293800D02*
X166460700Y-32890000D01*
X166460700Y-32890000D02*
X166325700Y-32890000D01*
X166325700Y-32890000D02*
X164024300Y-35191400D01*
X164024300Y-35191400D02*
X164024300Y-35331100D01*
X164024300Y-35331100D02*
X162553600Y-36801800D01*
X162553600Y-36801800D02*
X162553600Y-37434000D01*
X162553600Y-37434000D02*
X159299200Y-40688400D01*
X159299200Y-40688400D02*
X159299200Y-42779400D01*
X159299200Y-42779400D02*
X158848900Y-43229700D01*
X158848900Y-43229700D02*
X158848900Y-48310500D01*
X158848900Y-48310500D02*
X158398600Y-48760800D01*
X158398600Y-48760800D02*
X158398600Y-50560200D01*
X158398600Y-50560200D02*
X157224500Y-51734300D01*
X157224500Y-51734300D02*
X157224500Y-52371200D01*
X157224500Y-52371200D02*
X156500400Y-53095300D01*
X156500400Y-53095300D02*
X155548200Y-53095300D01*
X155548200Y-53095300D02*
X153554300Y-55089200D01*
X153554300Y-55089200D02*
X154749200Y-56284200D01*
X154749200Y-56284200D02*
X159193500Y-56284200D01*
X159193500Y-56284200D02*
X160139700Y-57230400D01*
X160139700Y-57230400D02*
X160139700Y-58376600D01*
X160139700Y-58376600D02*
X158973900Y-59542400D01*
X158973900Y-59542400D02*
X158973900Y-60816200D01*
X158973900Y-60816200D02*
X157861200Y-61928900D01*
X157861200Y-61928900D02*
X157861200Y-62772200D01*
X157861200Y-62772200D02*
X157481300Y-63152100D01*
X157481300Y-63152100D02*
X157481300Y-63420000D01*
X157481300Y-63420000D02*
X156803200Y-64098100D01*
X181229000Y-64897000D02*
X182754300Y-64897000D01*
X188468000Y-62230000D02*
X185421300Y-62230000D01*
X185421300Y-62230000D02*
X182754300Y-64897000D01*
X145034000Y-53086000D02*
X151551000Y-53086000D01*
X151551000Y-53086000D02*
X153554300Y-55089200D01*
X172412000Y-27154500D02*
X172412000Y-31289800D01*
G04 #@! TO.N,A1*
X169872000Y-31289800D02*
X168518500Y-31289800D01*
X168518500Y-31289800D02*
X167964800Y-31843500D01*
X167964800Y-31843500D02*
X166701200Y-31843500D01*
X166701200Y-31843500D02*
X158027600Y-40517100D01*
X158027600Y-40517100D02*
X158027600Y-47349100D01*
X158027600Y-47349100D02*
X155194000Y-50182700D01*
X181229000Y-67437000D02*
X179703700Y-67437000D01*
X179703700Y-67437000D02*
X179703700Y-66761500D01*
X179703700Y-66761500D02*
X179064400Y-66122200D01*
X169872000Y-27154500D02*
X169872000Y-31289800D01*
X155194000Y-51308000D02*
X155194000Y-50182700D01*
G04 #@! TO.N,A0*
X167332000Y-31289800D02*
X166538000Y-31289800D01*
X166538000Y-31289800D02*
X157577200Y-40250600D01*
X157577200Y-40250600D02*
X157577200Y-41428500D01*
X157577200Y-41428500D02*
X149475700Y-49530000D01*
X149475700Y-49530000D02*
X145034000Y-49530000D01*
X167332000Y-27154500D02*
X167332000Y-31289800D01*
G04 #@! TO.N,D0*
X167514300Y-77597000D02*
X171128200Y-73983100D01*
X171128200Y-73983100D02*
X171128200Y-37378800D01*
X171128200Y-37378800D02*
X168565800Y-34816400D01*
X168565800Y-34816400D02*
X167537000Y-34816400D01*
X167537000Y-34816400D02*
X167261900Y-34541300D01*
X160020000Y-92710000D02*
X156210000Y-96520000D01*
X156210000Y-96520000D02*
X156210000Y-99060000D01*
X164463700Y-77597000D02*
X162065700Y-79995000D01*
X162065700Y-79995000D02*
X162065700Y-90664300D01*
X162065700Y-90664300D02*
X160020000Y-92710000D01*
X165989000Y-77597000D02*
X167514300Y-77597000D01*
X165989000Y-77597000D02*
X164463700Y-77597000D01*
G04 #@! TO.N,D1*
X167514300Y-80137000D02*
X171578500Y-76072800D01*
X171578500Y-76072800D02*
X171578500Y-37192200D01*
X171578500Y-37192200D02*
X168477300Y-34091000D01*
X168477300Y-34091000D02*
X168226400Y-34091000D01*
X165989000Y-80137000D02*
X167514300Y-80137000D01*
X156210000Y-92710000D02*
X154795300Y-94124700D01*
X154795300Y-94124700D02*
X154795300Y-99060000D01*
X153670000Y-99060000D02*
X154795300Y-99060000D01*
X165640800Y-80137000D02*
X163424000Y-82353800D01*
X163424000Y-82353800D02*
X163424000Y-91995200D01*
X163424000Y-91995200D02*
X157624600Y-97794600D01*
X157624600Y-97794600D02*
X157624600Y-99292800D01*
X157624600Y-99292800D02*
X156732100Y-100185300D01*
X156732100Y-100185300D02*
X155639200Y-100185300D01*
X155639200Y-100185300D02*
X154795300Y-99341400D01*
X154795300Y-99341400D02*
X154795300Y-99060000D01*
X165989000Y-80137000D02*
X165640800Y-80137000D01*
G04 #@! TO.N,D2*
X167514300Y-72517000D02*
X170227600Y-69803700D01*
X170227600Y-69803700D02*
X170227600Y-38140900D01*
X170227600Y-38140900D02*
X168178500Y-36091800D01*
X166337200Y-72517000D02*
X154714200Y-84140000D01*
X154714200Y-84140000D02*
X154714200Y-87676400D01*
X154714200Y-87676400D02*
X152400000Y-89990600D01*
X152400000Y-89990600D02*
X152400000Y-92710000D01*
X152400000Y-92710000D02*
X151130000Y-93980000D01*
X151130000Y-93980000D02*
X151130000Y-99060000D01*
X166337200Y-72517000D02*
X167514300Y-72517000D01*
X165989000Y-72517000D02*
X166337200Y-72517000D01*
X186942700Y-74930000D02*
X186942700Y-73690700D01*
X186942700Y-73690700D02*
X181959000Y-68707000D01*
X181959000Y-68707000D02*
X179938200Y-68707000D01*
X179938200Y-68707000D02*
X179342300Y-68111100D01*
X188468000Y-74930000D02*
X186942700Y-74930000D01*
G04 #@! TO.N,VA0*
X122366600Y-66641000D02*
X122366600Y-54478500D01*
X122366600Y-54478500D02*
X128444900Y-48400200D01*
X128444900Y-48400200D02*
X136284200Y-48400200D01*
X136284200Y-48400200D02*
X137414000Y-49530000D01*
X114300000Y-67310000D02*
X109048400Y-67310000D01*
X109048400Y-67310000D02*
X107375400Y-68983000D01*
G04 #@! TO.N,VA1*
X107531400Y-66285400D02*
X111259300Y-66285400D01*
X111259300Y-66285400D02*
X112774700Y-64770000D01*
X114300000Y-64770000D02*
X112774700Y-64770000D01*
G04 #@! TO.N,VA2*
X97303300Y-72430000D02*
X100943800Y-68789500D01*
X100943800Y-68789500D02*
X103405600Y-68789500D01*
X103405600Y-68789500D02*
X104394000Y-67801100D01*
X104394000Y-67801100D02*
X104394000Y-67313500D01*
X104394000Y-67313500D02*
X105180100Y-66527400D01*
X105180100Y-66527400D02*
X106263600Y-66527400D01*
X106263600Y-66527400D02*
X110561000Y-62230000D01*
X110561000Y-62230000D02*
X114300000Y-62230000D01*
G04 #@! TO.N,VD2*
X80264000Y-57404000D02*
X80264000Y-58870200D01*
X80264000Y-58870200D02*
X91752800Y-70359000D01*
G04 #@! TO.N,VA3*
X95927900Y-76536100D02*
X95927900Y-72779700D01*
X95927900Y-72779700D02*
X98398400Y-70309200D01*
X98398400Y-70309200D02*
X98398400Y-68050800D01*
X98398400Y-68050800D02*
X102695200Y-63754000D01*
X102695200Y-63754000D02*
X107036700Y-63754000D01*
X107036700Y-63754000D02*
X111100700Y-59690000D01*
X111100700Y-59690000D02*
X114300000Y-59690000D01*
G04 #@! TO.N,VD3*
X80264000Y-54864000D02*
X81534000Y-56134000D01*
X81534000Y-56134000D02*
X81534000Y-57673100D01*
X81534000Y-57673100D02*
X90285800Y-66424900D01*
G04 #@! TO.N,VA4*
X94723700Y-78174600D02*
X94723700Y-72710100D01*
X94723700Y-72710100D02*
X96197400Y-71236400D01*
X96197400Y-71236400D02*
X96197400Y-67903700D01*
X96197400Y-67903700D02*
X102887100Y-61214000D01*
X102887100Y-61214000D02*
X107703000Y-61214000D01*
X107703000Y-61214000D02*
X111767000Y-57150000D01*
X111767000Y-57150000D02*
X114300000Y-57150000D01*
G04 #@! TO.N,VD4*
X144780000Y-85090000D02*
X143654700Y-85090000D01*
X129540000Y-74930000D02*
X131065300Y-74930000D01*
X131065300Y-74930000D02*
X134784600Y-78649300D01*
X134784600Y-78649300D02*
X134784600Y-84959900D01*
X134784600Y-84959900D02*
X136496400Y-86671700D01*
X136496400Y-86671700D02*
X142073000Y-86671700D01*
X142073000Y-86671700D02*
X143654700Y-85090000D01*
G04 #@! TO.N,VA5*
X92319600Y-79867400D02*
X92849800Y-79337200D01*
X92849800Y-79337200D02*
X92849800Y-72836900D01*
X92849800Y-72836900D02*
X94846500Y-70840200D01*
X94846500Y-70840200D02*
X94846500Y-66724800D01*
X94846500Y-66724800D02*
X102663900Y-58907400D01*
X102663900Y-58907400D02*
X108477300Y-58907400D01*
X108477300Y-58907400D02*
X112774700Y-54610000D01*
X114300000Y-54610000D02*
X112774700Y-54610000D01*
G04 #@! TO.N,VD5*
X139844700Y-85090000D02*
X138719400Y-86215300D01*
X138719400Y-86215300D02*
X136687600Y-86215300D01*
X136687600Y-86215300D02*
X135862800Y-85390500D01*
X135862800Y-85390500D02*
X135862800Y-78712800D01*
X135862800Y-78712800D02*
X129540000Y-72390000D01*
X140970000Y-85090000D02*
X139844700Y-85090000D01*
G04 #@! TO.N,VA6*
X126482300Y-52379200D02*
X127972900Y-50888600D01*
X127972900Y-50888600D02*
X130350200Y-50888600D01*
X130350200Y-50888600D02*
X135964200Y-56502600D01*
X135964200Y-56502600D02*
X135964200Y-59002200D01*
X135964200Y-59002200D02*
X137414000Y-60452000D01*
X115825300Y-52070000D02*
X118309400Y-54554100D01*
X118309400Y-54554100D02*
X118309400Y-84311400D01*
X118309400Y-84311400D02*
X118111600Y-84509200D01*
X118111600Y-84509200D02*
X118111600Y-85110200D01*
X118111600Y-85110200D02*
X119086600Y-86085200D01*
X119086600Y-86085200D02*
X119086600Y-87701600D01*
X77724000Y-85344000D02*
X77724000Y-86463500D01*
X77724000Y-86463500D02*
X78964700Y-87704200D01*
X114300000Y-52070000D02*
X115825300Y-52070000D01*
G04 #@! TO.N,VD6*
X116579500Y-67942600D02*
X115942100Y-68580000D01*
X115942100Y-68580000D02*
X108816400Y-68580000D01*
X108816400Y-68580000D02*
X108554900Y-68841500D01*
X131065300Y-69850000D02*
X131065300Y-72949200D01*
X131065300Y-72949200D02*
X137160000Y-79043900D01*
X137160000Y-79043900D02*
X137160000Y-83964700D01*
X137160000Y-85090000D02*
X137160000Y-83964700D01*
X129540000Y-69850000D02*
X131065300Y-69850000D01*
G04 #@! TO.N,VA7*
X82804000Y-85344000D02*
X82804000Y-89033000D01*
X82804000Y-89033000D02*
X86756900Y-92985900D01*
X86756900Y-92985900D02*
X87641000Y-92985900D01*
X87641000Y-92985900D02*
X87916900Y-92710000D01*
X87916900Y-92710000D02*
X89331000Y-92710000D01*
X89331000Y-92710000D02*
X90075400Y-91965600D01*
X90075400Y-91965600D02*
X90075400Y-89034300D01*
X90075400Y-89034300D02*
X91473500Y-87636200D01*
X91473500Y-87636200D02*
X91473500Y-78954900D01*
X91473500Y-78954900D02*
X92002100Y-78426300D01*
X92002100Y-78426300D02*
X92002100Y-72597300D01*
X92002100Y-72597300D02*
X94396200Y-70203200D01*
X94396200Y-70203200D02*
X94396200Y-66538200D01*
X94396200Y-66538200D02*
X102477300Y-58457100D01*
X102477300Y-58457100D02*
X103613500Y-58457100D01*
X103613500Y-58457100D02*
X104394000Y-57676600D01*
X104394000Y-57676600D02*
X104394000Y-57188700D01*
X104394000Y-57188700D02*
X112052700Y-49530000D01*
X112052700Y-49530000D02*
X114300000Y-49530000D01*
G04 #@! TO.N,VD7*
X133350000Y-83964700D02*
X128014700Y-78629400D01*
X128014700Y-78629400D02*
X128014700Y-67310000D01*
X129540000Y-67310000D02*
X128014700Y-67310000D01*
X133350000Y-85090000D02*
X133350000Y-83964700D01*
G04 #@! TO.N,VA8*
X80264000Y-82804000D02*
X78994000Y-84074000D01*
X78994000Y-84074000D02*
X77473100Y-84074000D01*
X77473100Y-84074000D02*
X76672600Y-84874500D01*
X76672600Y-84874500D02*
X76672600Y-87954100D01*
X76672600Y-87954100D02*
X78466000Y-89747500D01*
X78466000Y-89747500D02*
X78466000Y-97542700D01*
X78466000Y-97542700D02*
X89396300Y-108473000D01*
X89396300Y-108473000D02*
X112043400Y-108473000D01*
X112043400Y-108473000D02*
X123164800Y-97351600D01*
X123164800Y-97351600D02*
X123164800Y-75662100D01*
X123164800Y-75662100D02*
X124685500Y-74141400D01*
X124685500Y-74141400D02*
X124685500Y-57493900D01*
X124685500Y-57493900D02*
X128014700Y-54164700D01*
X128014700Y-54164700D02*
X128014700Y-52070000D01*
X129540000Y-52070000D02*
X128014700Y-52070000D01*
X129540000Y-52070000D02*
X129756800Y-52070000D01*
X129756800Y-52070000D02*
X135513800Y-57827000D01*
X135513800Y-57827000D02*
X135513800Y-62107800D01*
X135513800Y-62107800D02*
X137414000Y-64008000D01*
G04 #@! TO.N,VA9*
X73353900Y-79945500D02*
X73353900Y-93067500D01*
X73353900Y-93067500D02*
X89209700Y-108923300D01*
X89209700Y-108923300D02*
X112230000Y-108923300D01*
X112230000Y-108923300D02*
X123615100Y-97538200D01*
X123615100Y-97538200D02*
X123615100Y-76485600D01*
X123615100Y-76485600D02*
X125306500Y-74794200D01*
X125306500Y-74794200D02*
X125306500Y-59335900D01*
X125306500Y-59335900D02*
X129447000Y-55195400D01*
X129447000Y-55195400D02*
X129540000Y-55195400D01*
X147574000Y-65786000D02*
X146975700Y-65187700D01*
X146975700Y-65187700D02*
X137002300Y-65187700D01*
X137002300Y-65187700D02*
X133761300Y-61946700D01*
X133761300Y-61946700D02*
X133761300Y-59208500D01*
X133761300Y-59208500D02*
X129748200Y-55195400D01*
X129748200Y-55195400D02*
X129540000Y-55195400D01*
X129540000Y-55195400D02*
X129540000Y-54610000D01*
G04 #@! TO.N,VA10*
X110984600Y-78431200D02*
X106712800Y-74159400D01*
X125398900Y-78622200D02*
X126967900Y-77053200D01*
X126967900Y-77053200D02*
X126967900Y-63276800D01*
X126967900Y-63276800D02*
X128014700Y-62230000D01*
X129540000Y-62230000D02*
X128014700Y-62230000D01*
X129973500Y-62230000D02*
X129540000Y-62230000D01*
X129973500Y-62230000D02*
X131065300Y-62230000D01*
X131065300Y-62230000D02*
X136399300Y-67564000D01*
X136399300Y-67564000D02*
X137414000Y-67564000D01*
G04 #@! TO.N,VA11*
X75184000Y-77724000D02*
X74497200Y-77724000D01*
X74497200Y-77724000D02*
X72625500Y-79595700D01*
X72625500Y-79595700D02*
X72625500Y-92976000D01*
X72625500Y-92976000D02*
X89023100Y-109373600D01*
X89023100Y-109373600D02*
X112537800Y-109373600D01*
X112537800Y-109373600D02*
X125065800Y-96845600D01*
X125065800Y-96845600D02*
X125065800Y-79351100D01*
X125065800Y-79351100D02*
X124643100Y-78928400D01*
X124643100Y-78928400D02*
X124643100Y-77761900D01*
X124643100Y-77761900D02*
X126432200Y-75972800D01*
X126432200Y-75972800D02*
X126432200Y-63145500D01*
X126432200Y-63145500D02*
X128473100Y-61104600D01*
X128473100Y-61104600D02*
X131065300Y-61104600D01*
X131065300Y-61104600D02*
X131065300Y-57150000D01*
X147574000Y-69342000D02*
X143900500Y-69342000D01*
X143900500Y-69342000D02*
X140196600Y-65638100D01*
X140196600Y-65638100D02*
X135598800Y-65638100D01*
X135598800Y-65638100D02*
X131065300Y-61104600D01*
X129540000Y-57150000D02*
X131065300Y-57150000D01*
G04 #@! TO.N,VA12*
X115825300Y-46990000D02*
X119952500Y-51117200D01*
X119952500Y-51117200D02*
X119952500Y-68491500D01*
X119952500Y-68491500D02*
X118888300Y-69555700D01*
X118888300Y-69555700D02*
X118888300Y-84861200D01*
X114300000Y-46990000D02*
X115825300Y-46990000D01*
G04 #@! TO.N,VA13*
X80264000Y-85344000D02*
X80264000Y-89380400D01*
X80264000Y-89380400D02*
X88181700Y-97298100D01*
X88181700Y-97298100D02*
X88181700Y-106621500D01*
X88181700Y-106621500D02*
X89582900Y-108022700D01*
X89582900Y-108022700D02*
X99777700Y-108022700D01*
X99777700Y-108022700D02*
X103873200Y-103927200D01*
X103873200Y-103927200D02*
X107259200Y-103927200D01*
X107259200Y-103927200D02*
X122253700Y-88932700D01*
X122253700Y-88932700D02*
X122253700Y-67779700D01*
X122253700Y-67779700D02*
X123091900Y-66941500D01*
X123091900Y-66941500D02*
X123091900Y-54452800D01*
X123091900Y-54452800D02*
X128014700Y-49530000D01*
X147574000Y-73152000D02*
X149195200Y-71530800D01*
X149195200Y-71530800D02*
X149195200Y-65088100D01*
X149195200Y-65088100D02*
X147994600Y-63887500D01*
X147994600Y-63887500D02*
X146567600Y-63887500D01*
X146567600Y-63887500D02*
X132210100Y-49530000D01*
X132210100Y-49530000D02*
X131065300Y-49530000D01*
X129540000Y-49530000D02*
X131065300Y-49530000D01*
X129540000Y-49530000D02*
X128014700Y-49530000D01*
G04 #@! TO.N,EAR*
X78740000Y-34798000D02*
X77450300Y-36087700D01*
X77450300Y-36087700D02*
X77450300Y-51649000D01*
X77450300Y-51649000D02*
X78777100Y-52975800D01*
X78777100Y-52975800D02*
X78777100Y-60615500D01*
X78777100Y-60615500D02*
X89393600Y-71232000D01*
X89393600Y-71232000D02*
X89393600Y-81773600D01*
X89393600Y-81773600D02*
X90424000Y-82804000D01*
G04 #@! TO.N,Net-(C5-Pad1)*
X54102000Y-71120000D02*
X54102000Y-69994700D01*
X57658000Y-69088000D02*
X56132700Y-69088000D01*
X56132700Y-69088000D02*
X55226000Y-69994700D01*
X55226000Y-69994700D02*
X54102000Y-69994700D01*
G04 #@! TO.N,Net-(C5-Pad2)*
X57658000Y-66548000D02*
X56132700Y-66548000D01*
X56132700Y-66548000D02*
X56132700Y-66803300D01*
X56132700Y-66803300D02*
X54102000Y-68834000D01*
G04 #@! TO.N,/ula/TCK*
X99060000Y-90264700D02*
X101854000Y-87470700D01*
X101854000Y-87470700D02*
X101854000Y-85093500D01*
X101854000Y-85093500D02*
X102640100Y-84307400D01*
X102640100Y-84307400D02*
X103141100Y-84307400D01*
X103141100Y-84307400D02*
X104160600Y-83287900D01*
X104160600Y-83287900D02*
X104160600Y-82786900D01*
X104160600Y-82786900D02*
X105180100Y-81767400D01*
X105180100Y-81767400D02*
X105668000Y-81767400D01*
X105668000Y-81767400D02*
X106710700Y-80724700D01*
X106710700Y-80724700D02*
X106710700Y-79834800D01*
X106710700Y-79834800D02*
X106036700Y-79160800D01*
X106036700Y-79160800D02*
X105609500Y-79160800D01*
X105609500Y-79160800D02*
X104590600Y-78141900D01*
X104590600Y-78141900D02*
X104590600Y-73717400D01*
X104590600Y-73717400D02*
X105664000Y-72644000D01*
X99060000Y-91440000D02*
X99060000Y-90264700D01*
G04 #@! TO.N,/ula/TDO*
X96520000Y-91440000D02*
X96520000Y-88263100D01*
X96520000Y-88263100D02*
X94432400Y-86175500D01*
X94432400Y-86175500D02*
X94432400Y-84895100D01*
X94432400Y-84895100D02*
X95020100Y-84307400D01*
X95020100Y-84307400D02*
X95521100Y-84307400D01*
X95521100Y-84307400D02*
X96540600Y-83287900D01*
X96540600Y-83287900D02*
X96540600Y-78390900D01*
X96540600Y-78390900D02*
X95202600Y-77052900D01*
X95202600Y-77052900D02*
X95202600Y-72868100D01*
X95202600Y-72868100D02*
X97098000Y-70972700D01*
X97098000Y-70972700D02*
X97098000Y-68510000D01*
X97098000Y-68510000D02*
X103124000Y-62484000D01*
G04 #@! TO.N,/ula/TMS*
X87079500Y-92228100D02*
X84082600Y-89231200D01*
X84082600Y-89231200D02*
X84082600Y-76462600D01*
X84082600Y-76462600D02*
X77724000Y-70104000D01*
G04 #@! TO.N,/ula/TDI*
X88900000Y-91440000D02*
X88900000Y-90264700D01*
X75184000Y-59944000D02*
X76687400Y-61447400D01*
X76687400Y-61447400D02*
X76687400Y-65507800D01*
X76687400Y-65507800D02*
X77473600Y-66294000D01*
X77473600Y-66294000D02*
X78003700Y-66294000D01*
X78003700Y-66294000D02*
X86759000Y-75049300D01*
X86759000Y-75049300D02*
X86759000Y-88123700D01*
X86759000Y-88123700D02*
X88900000Y-90264700D01*
G04 #@! TO.N,Net-(R29-Pad2)*
X57658000Y-64008000D02*
X59183300Y-64008000D01*
X59183300Y-64008000D02*
X59183300Y-60323700D01*
X59183300Y-60323700D02*
X61849000Y-57658000D01*
G04 #@! TO.N,Net-(R30-Pad1)*
X57658000Y-71628000D02*
X59183300Y-71628000D01*
X59183300Y-71628000D02*
X59183300Y-65223700D01*
X59183300Y-65223700D02*
X66749000Y-57658000D01*
X57658000Y-74168000D02*
X57658000Y-71628000D01*
X57658000Y-74168000D02*
X56132700Y-74168000D01*
X56132700Y-74168000D02*
X54102000Y-76198700D01*
X54102000Y-76198700D02*
X54102000Y-78740000D01*
G04 #@! TO.N,ROM_CS*
X224790000Y-63644700D02*
X224508700Y-63644700D01*
X224508700Y-63644700D02*
X212612600Y-51748600D01*
X212612600Y-51748600D02*
X212612600Y-42369300D01*
X212612600Y-42369300D02*
X207972000Y-37728700D01*
X207972000Y-37728700D02*
X207972000Y-27154500D01*
X224790000Y-64770000D02*
X224790000Y-63644700D01*
G04 #@! TO.N,IORQULA*
X177492000Y-31289800D02*
X176641000Y-31289800D01*
X176641000Y-31289800D02*
X174872000Y-33058800D01*
X101854000Y-49530000D02*
X101854000Y-48404700D01*
X177492000Y-27154500D02*
X177492000Y-31289800D01*
X101854000Y-48404700D02*
X102701400Y-47557300D01*
X102701400Y-47557300D02*
X102701400Y-40295100D01*
X102701400Y-40295100D02*
X104897400Y-38099100D01*
G04 #@! TO.N,CLK_B*
X92964000Y-82804000D02*
X95759500Y-80008500D01*
X95759500Y-80008500D02*
X95759500Y-78674000D01*
X164792000Y-27154500D02*
X164792000Y-31289800D01*
X157508800Y-33220800D02*
X162861000Y-33220800D01*
X162861000Y-33220800D02*
X164792000Y-31289800D01*
X90118900Y-77423200D02*
X89893800Y-77198100D01*
X89893800Y-77198100D02*
X89893800Y-70253200D01*
X89893800Y-70253200D02*
X79227400Y-59586800D01*
X79227400Y-59586800D02*
X79227400Y-50835500D01*
X79227400Y-50835500D02*
X84890700Y-45172200D01*
G04 #@! TO.N,VRAM_CS*
X99572600Y-67964900D02*
X101476900Y-66060600D01*
X101476900Y-66060600D02*
X106093500Y-66060600D01*
X106093500Y-66060600D02*
X111088100Y-61066000D01*
X111088100Y-61066000D02*
X116347400Y-61066000D01*
X116347400Y-61066000D02*
X117089800Y-61808400D01*
G04 #@! TO.N,VRAM_RD*
X124340500Y-80093600D02*
X124192800Y-79945900D01*
X124192800Y-79945900D02*
X124192800Y-77129800D01*
X124192800Y-77129800D02*
X125756800Y-75565800D01*
X125756800Y-75565800D02*
X125756800Y-61947900D01*
X125756800Y-61947900D02*
X128014700Y-59690000D01*
X129540000Y-59690000D02*
X128014700Y-59690000D01*
G04 #@! TO.N,VRAM_WR*
X120768900Y-85744900D02*
X121734100Y-84779700D01*
X121734100Y-84779700D02*
X121734100Y-76260100D01*
X121734100Y-76260100D02*
X121641200Y-76167200D01*
X121641200Y-76167200D02*
X121641200Y-54524500D01*
X121641200Y-54524500D02*
X129175700Y-46990000D01*
X129175700Y-46990000D02*
X129540000Y-46990000D01*
G04 #@! TO.N,Net-(C14-Pad2)*
X71120000Y-26162000D02*
X71120000Y-27287300D01*
X71120000Y-32258000D02*
X71120000Y-31132700D01*
X71120000Y-31132700D02*
X71823300Y-31132700D01*
X71823300Y-31132700D02*
X72245300Y-30710700D01*
X72245300Y-30710700D02*
X72245300Y-28412600D01*
X72245300Y-28412600D02*
X71120000Y-27287300D01*
G04 #@! TO.N,Net-(C15-Pad1)*
X90830400Y-44323000D02*
X90830400Y-43097700D01*
X90830400Y-43097700D02*
X91313000Y-42615100D01*
X91313000Y-42615100D02*
X91313000Y-40386000D01*
G04 #@! TO.N,Net-(C16-Pad1)*
X82550000Y-29210000D02*
X82550000Y-31535300D01*
X87633200Y-39239800D02*
X86360000Y-40513000D01*
X100347700Y-40386000D02*
X99201500Y-39239800D01*
X99201500Y-39239800D02*
X87633200Y-39239800D01*
X82550000Y-31535300D02*
X87633200Y-36618500D01*
X87633200Y-36618500D02*
X87633200Y-39239800D01*
X101473000Y-40386000D02*
X100347700Y-40386000D01*
G04 #@! TO.N,Net-(C17-Pad2)*
X117094000Y-33274000D02*
X117094000Y-32148700D01*
X114300000Y-28956000D02*
X114300000Y-30081300D01*
X114300000Y-30081300D02*
X116367400Y-32148700D01*
X116367400Y-32148700D02*
X117094000Y-32148700D01*
G04 #@! TO.N,Net-(C19-Pad1)*
X61214000Y-45720000D02*
X61214000Y-42418000D01*
X61214000Y-38989000D02*
X61214000Y-42418000D01*
G04 #@! TO.N,SPK*
X120558500Y-83567800D02*
X120684300Y-83442000D01*
X120684300Y-83442000D02*
X120684300Y-48392600D01*
X120684300Y-48392600D02*
X126099200Y-42977700D01*
X126099200Y-42977700D02*
X126099200Y-33135200D01*
X126099200Y-33135200D02*
X121920000Y-28956000D01*
G04 #@! TO.N,Net-(R35-Pad1)*
X78740000Y-32258000D02*
X79876600Y-31121400D01*
X79876600Y-31121400D02*
X79876600Y-27298600D01*
X79876600Y-27298600D02*
X78740000Y-26162000D01*
G04 #@! TO.N,MIC*
X109474000Y-33274000D02*
X105622800Y-37125200D01*
X105622800Y-37125200D02*
X105622800Y-48639800D01*
X105622800Y-48639800D02*
X106084500Y-49101500D01*
X106084500Y-49101500D02*
X106084500Y-53433800D01*
X106084500Y-53433800D02*
X103384300Y-56134000D01*
X103384300Y-56134000D02*
X102857500Y-56134000D01*
X102857500Y-56134000D02*
X101694700Y-57296800D01*
X101694700Y-57296800D02*
X101694700Y-57965900D01*
X101694700Y-57965900D02*
X93486700Y-66173900D01*
X93486700Y-66173900D02*
X93486700Y-69652400D01*
X93486700Y-69652400D02*
X90344200Y-72794900D01*
X90344200Y-72794900D02*
X90344200Y-75786000D01*
X90344200Y-75786000D02*
X90872800Y-76314600D01*
X90872800Y-76314600D02*
X90872800Y-80623600D01*
X90872800Y-80623600D02*
X90518800Y-80977600D01*
G04 #@! TO.N,Net-(C23-Pad1)*
X65278000Y-71628000D02*
X66803300Y-71628000D01*
X66803300Y-71628000D02*
X67586600Y-70844700D01*
X67586600Y-70844700D02*
X69013400Y-70844700D01*
X69013400Y-70844700D02*
X69722000Y-71553300D01*
X69722000Y-71553300D02*
X69722000Y-82043000D01*
X69722000Y-82043000D02*
X69215000Y-82550000D01*
G04 #@! TO.N,Net-(C23-Pad2)*
X66803300Y-79629000D02*
X66803300Y-82461700D01*
X66803300Y-82461700D02*
X66715000Y-82550000D01*
X66803300Y-79248000D02*
X66803300Y-79629000D01*
X66803300Y-79629000D02*
X68580000Y-79629000D01*
X65278000Y-79248000D02*
X66803300Y-79248000D01*
G04 #@! TO.N,Net-(C24-Pad2)*
X51181000Y-58166000D02*
X51181000Y-56990700D01*
X50713000Y-54483000D02*
X49276000Y-54483000D01*
X54650000Y-50546000D02*
X50713000Y-54483000D01*
X51181000Y-56990700D02*
X50713000Y-56522700D01*
X50713000Y-56522700D02*
X50713000Y-54483000D01*
G04 #@! TO.N,Net-(J11-Pad1)*
X63752700Y-69088000D02*
X63302400Y-69538300D01*
X63302400Y-69538300D02*
X63302400Y-73067300D01*
X63302400Y-73067300D02*
X58391700Y-77978000D01*
X58391700Y-77978000D02*
X56930000Y-77978000D01*
X56930000Y-77978000D02*
X56108700Y-78799300D01*
X56108700Y-78799300D02*
X56108700Y-80746700D01*
X56108700Y-80746700D02*
X57277000Y-81915000D01*
X65278000Y-69088000D02*
X63752700Y-69088000D01*
G04 #@! TO.N,Net-(R41-Pad2)*
X65278000Y-76708000D02*
X63752700Y-76708000D01*
X63119000Y-87249000D02*
X63854500Y-86513500D01*
X63854500Y-86513500D02*
X63854500Y-80238900D01*
X63854500Y-80238900D02*
X63752700Y-80137100D01*
X63752700Y-80137100D02*
X63752700Y-76708000D01*
X68580000Y-72009000D02*
X68580000Y-73134300D01*
X65278000Y-76708000D02*
X66803300Y-76708000D01*
X66803300Y-76708000D02*
X66803300Y-74911000D01*
X66803300Y-74911000D02*
X68580000Y-73134300D01*
G04 #@! TO.N,Net-(R42-Pad1)*
X68580000Y-69469000D02*
X70341400Y-71230400D01*
X70341400Y-71230400D02*
X70341400Y-84926600D01*
X70341400Y-84926600D02*
X68019000Y-87249000D01*
X66803300Y-66548000D02*
X66803300Y-67692300D01*
X66803300Y-67692300D02*
X68580000Y-69469000D01*
X65278000Y-66548000D02*
X66803300Y-66548000D01*
G04 #@! TO.N,bright*
X48094900Y-95280700D02*
X45867500Y-93053300D01*
X45867500Y-93053300D02*
X45867500Y-86445100D01*
X45867500Y-86445100D02*
X48026400Y-84286200D01*
X48026400Y-84286200D02*
X48026400Y-78450600D01*
X48026400Y-78450600D02*
X46901100Y-77325300D01*
X47586900Y-113856000D02*
X47586900Y-112730700D01*
X48094900Y-96406000D02*
X48094900Y-97531300D01*
X48094900Y-97531300D02*
X46924400Y-98701800D01*
X46924400Y-98701800D02*
X46924400Y-105517800D01*
X46924400Y-105517800D02*
X47662500Y-106255900D01*
X47662500Y-106255900D02*
X47662500Y-112655100D01*
X47662500Y-112655100D02*
X47586900Y-112730700D01*
X48094900Y-95843300D02*
X48094900Y-96406000D01*
X48094900Y-95843300D02*
X48094900Y-95280700D01*
X46901100Y-76200000D02*
X46901100Y-77325300D01*
G04 #@! TO.N,red*
X103124000Y-82804000D02*
X99740000Y-79420000D01*
G04 #@! TO.N,sync*
X105664000Y-80264000D02*
X104627400Y-79227400D01*
X104627400Y-79227400D02*
X100949200Y-79227400D01*
X100949200Y-79227400D02*
X97637500Y-75915700D01*
G04 #@! TO.N,Net-(C28-Pad2)*
X36019100Y-83860000D02*
X35979100Y-83820000D01*
X36019100Y-87376000D02*
X36019100Y-83860000D01*
X39509700Y-83769200D02*
X36109900Y-83769200D01*
X36109900Y-83769200D02*
X36019100Y-83860000D01*
G04 #@! TO.N,Net-(C30-Pad2)*
X40767000Y-103974900D02*
X41892300Y-103974900D01*
X46522000Y-107442000D02*
X45359400Y-107442000D01*
X45359400Y-107442000D02*
X41892300Y-103974900D01*
G04 #@! TO.N,Net-(C32-Pad2)*
X36768400Y-121541000D02*
X36728400Y-121501000D01*
X36768400Y-124930000D02*
X36768400Y-121541000D01*
X40665400Y-121501000D02*
X36808400Y-121501000D01*
X36808400Y-121501000D02*
X36768400Y-121541000D01*
G04 #@! TO.N,Net-(D4-Pad1)*
X59822100Y-34726900D02*
X60899500Y-33649500D01*
X60899500Y-33649500D02*
X66078900Y-33649500D01*
X66078900Y-33649500D02*
X68897600Y-36468200D01*
X68897600Y-36468200D02*
X68897600Y-37187600D01*
X68897600Y-37187600D02*
X72529700Y-40819700D01*
X72529700Y-40819700D02*
X72529700Y-45135800D01*
G04 #@! TO.N,P-N_ULA*
X114376000Y-90792300D02*
X113200700Y-90792300D01*
X105664000Y-77724000D02*
X110616100Y-82676100D01*
X110616100Y-82676100D02*
X110616100Y-91241500D01*
X110616100Y-91241500D02*
X111342200Y-91967600D01*
X111342200Y-91967600D02*
X112392800Y-91967600D01*
X112392800Y-91967600D02*
X113200700Y-91159700D01*
X113200700Y-91159700D02*
X113200700Y-90792300D01*
G04 #@! TO.N,R*
X38265100Y-70866000D02*
X38265100Y-72788700D01*
X38265100Y-72788700D02*
X35979100Y-75074700D01*
X35979100Y-76200000D02*
X35979100Y-75074700D01*
G04 #@! TO.N,Net-(Q11-Pad2)*
X48094900Y-104026000D02*
X49221000Y-102899900D01*
X49221000Y-102899900D02*
X49221000Y-94826700D01*
X49221000Y-94826700D02*
X48006000Y-93611700D01*
X48006000Y-93611700D02*
X48006000Y-91694000D01*
G04 #@! TO.N,Net-(Q12-Pad2)*
X44196000Y-121476000D02*
X37909500Y-115189500D01*
X37909500Y-115189500D02*
X37909500Y-109449000D01*
G04 #@! TO.N,B*
X36728400Y-113881000D02*
X36728400Y-112755700D01*
X36728400Y-112755700D02*
X36639500Y-112666800D01*
X36639500Y-112666800D02*
X36639500Y-109449000D01*
G04 #@! TO.N,Net-(Q13-Pad3)*
X37592000Y-62103000D02*
X37592000Y-60977700D01*
X37592000Y-60977700D02*
X38719400Y-59850300D01*
X38719400Y-59850300D02*
X38719400Y-53684400D01*
X38719400Y-53684400D02*
X37973000Y-52938000D01*
X37973000Y-52938000D02*
X37973000Y-48387000D01*
G04 #@! TO.N,AUDIO_OUT*
X57823100Y-34726900D02*
X60193000Y-37096800D01*
X60193000Y-37096800D02*
X61821800Y-37096800D01*
X61821800Y-37096800D02*
X63714000Y-38989000D01*
G04 #@! TO.N,Net-(J12-Pad6)*
X64622700Y-32225000D02*
X63546700Y-31149000D01*
X63546700Y-31149000D02*
X57086500Y-31149000D01*
X57086500Y-31149000D02*
X53609100Y-34626400D01*
X53609100Y-34626400D02*
X49643100Y-34626400D01*
X49643100Y-34626400D02*
X36414900Y-47854600D01*
X36414900Y-47854600D02*
X36414900Y-63059300D01*
X36414900Y-63059300D02*
X36602400Y-63246800D01*
X36602400Y-63246800D02*
X36602400Y-73688500D01*
X36602400Y-73688500D02*
X32448500Y-77842400D01*
X32448500Y-77842400D02*
X32448500Y-83870800D01*
G04 #@! TO.N,Net-(J12-Pad7)*
X62621200Y-32225000D02*
X60802300Y-32225000D01*
X60802300Y-32225000D02*
X59698200Y-33329100D01*
X59698200Y-33329100D02*
X57699200Y-33329100D01*
X57699200Y-33329100D02*
X56715400Y-34312900D01*
X56715400Y-34312900D02*
X56715400Y-42813000D01*
X56715400Y-42813000D02*
X59166000Y-45263600D01*
X59166000Y-45263600D02*
X59166000Y-46790400D01*
X59166000Y-46790400D02*
X55900000Y-50056400D01*
X55900000Y-50056400D02*
X55900000Y-52666600D01*
X55900000Y-52666600D02*
X52451000Y-56115600D01*
X52451000Y-56115600D02*
X52451000Y-58819100D01*
X52451000Y-58819100D02*
X44568500Y-66701600D01*
X44568500Y-66701600D02*
X44568500Y-84061200D01*
X44568500Y-84061200D02*
X34840000Y-93789700D01*
X34840000Y-93789700D02*
X34840000Y-97531400D01*
X34840000Y-97531400D02*
X32030700Y-100340700D01*
X32030700Y-100340700D02*
X32030700Y-120245300D01*
X32030700Y-120245300D02*
X33172400Y-121387000D01*
G04 #@! TO.N,Net-(J12-Pad8)*
X58821300Y-32225000D02*
X57948100Y-32225000D01*
X57948100Y-32225000D02*
X51939500Y-38233600D01*
X51939500Y-38233600D02*
X46672800Y-38233600D01*
X46672800Y-38233600D02*
X37104400Y-47802000D01*
X37104400Y-47802000D02*
X37104400Y-53995400D01*
X37104400Y-53995400D02*
X37592000Y-54483000D01*
G04 #@! TO.N,Net-(J12-Pad4)*
X63522900Y-34726900D02*
X64910900Y-36114900D01*
X64910900Y-36114900D02*
X64910900Y-52053900D01*
X64910900Y-52053900D02*
X45417100Y-71547700D01*
X45417100Y-71547700D02*
X45417100Y-89849000D01*
X45417100Y-89849000D02*
X33655000Y-101611100D01*
X33655000Y-101611100D02*
X33655000Y-103988000D01*
G04 #@! TD*
M02*
